<svg fill="#72E2AEFF" width="40px" height="40px" viewBox="0 0 40 40" xmlns="http://www.w3.org/2000/svg">

    //skills

    <g id="HTML"
       transform="translate(0.000000,64.000000) scale(0.100000,-0.100000)"
       stroke="none">
        <path d="M40 608 c1 -97 38 -520 46 -527 5 -5 60 -25 122 -46 l112 -37 113 37
c61 21 116 41 121 46 8 7 45 430 46 527 l0 32 -280 0 -280 0 0 -32z m460 -98
l0 -40 -141 0 -140 0 3 -47 3 -48 132 -3 132 -3 -6 -97 c-3 -53 -9 -104 -14
-112 -4 -9 -39 -26 -79 -38 l-71 -23 -67 21 c-72 24 -92 41 -92 77 0 20 5 23
40 23 22 0 40 -4 40 -8 0 -5 18 -14 40 -21 60 -18 116 1 124 42 14 70 19 67
-118 67 -69 0 -127 3 -129 8 -3 4 -8 60 -11 125 l-7 117 180 0 181 0 0 -40z"/>
    </g>

    <g id="CSS" transform="translate(0.000000,64.000000) scale(0.100000,-0.100000)"
       stroke="none">
        <path d="M44 588 c3 -29 15 -159 26 -288 12 -129 22 -235 23 -236 1 -1 53 -16
115 -33 l112 -31 113 31 c61 17 113 32 114 33 1 1 11 107 23 236 11 129 23
259 26 288 l6 52 -282 0 -282 0 6 -52z m449 -115 c-3 -27 -10 -106 -16 -178
l-12 -130 -55 -18 c-30 -10 -71 -19 -90 -19 -19 0 -60 9 -90 19 l-55 18 -3 58
-3 58 33 -3 c28 -2 34 -8 38 -32 6 -36 43 -50 107 -41 49 7 48 6 58 63 l7 42
-126 0 -126 0 0 35 0 34 128 3 127 3 3 38 3 37 -135 0 c-75 0 -136 3 -136 8 0
4 -3 17 -6 30 l-6 22 179 0 180 0 -4 -47z"/>
    </g>

    <g id="React" transform="translate(0.000000,64.000000) scale(0.100000,-0.100000)"
       stroke="none">
        <path d="M144 579 c-15 -17 -19 -35 -18 -89 l2 -68 -38 -11 c-42 -12 -90 -61
-90 -91 0 -30 48 -79 90 -91 l38 -11 -2 -68 c-1 -54 3 -72 18 -89 27 -30 73
-27 129 9 l47 30 47 -30 c56 -36 102 -39 129 -9 15 17 19 35 18 90 -2 67 -1
68 27 74 37 8 99 66 99 93 0 31 -47 80 -90 93 l-38 11 2 68 c1 54 -3 72 -18
89 -29 32 -83 28 -134 -9 l-42 -30 -42 30 c-51 37 -105 41 -134 9z m102 -35
c21 -15 41 -28 43 -30 2 -1 -6 -16 -18 -33 -25 -35 -87 -53 -102 -30 -12 19
-11 76 1 100 14 25 30 24 76 -7z m224 7 c12 -24 13 -81 1 -100 -15 -23 -77 -5
-102 30 -12 17 -20 32 -18 33 19 18 85 56 95 56 7 0 18 -9 24 -19z m-135 -91
c3 -5 -3 -10 -15 -10 -12 0 -18 5 -15 10 3 6 10 10 15 10 5 0 12 -4 15 -10z
m66 -95 l24 -45 -24 -45 -24 -45 -57 0 -57 0 -24 45 -24 45 24 45 24 45 57 0
57 0 24 -45z m-191 26 c0 -17 -18 -21 -24 -6 -3 9 0 15 9 15 8 0 15 -4 15 -9z
m244 -6 c-4 -8 -10 -12 -15 -9 -14 8 -10 24 6 24 9 0 12 -6 9 -15z m-295 -30
c10 -28 10 -42 0 -70 -14 -38 -25 -39 -84 -6 -47 27 -41 60 15 89 24 12 47 22
50 22 3 0 12 -16 19 -35z m406 6 c55 -31 31 -81 -50 -105 -31 -9 -51 50 -34
99 14 38 25 39 84 6z m-355 -112 c0 -5 -7 -9 -15 -9 -9 0 -12 6 -9 15 6 15 24
11 24 -6z m239 -8 c-15 -5 -22 6 -14 19 6 9 10 9 16 -1 5 -8 4 -15 -2 -18z
m-188 -70 c16 -16 29 -33 29 -38 0 -11 -80 -63 -97 -63 -26 0 -43 72 -27 114
10 27 62 20 95 -13z m213 13 c16 -42 -1 -114 -27 -114 -17 0 -97 52 -97 63 0
5 13 22 29 38 33 33 85 40 95 13z m-142 -6 c-9 -9 -15 -9 -24 0 -9 9 -7 12 12
12 19 0 21 -3 12 -12z"/>
        <path d="M285 355 c-14 -13 -25 -29 -25 -35 0 -14 46 -60 60 -60 14 0 60 46
60 60 0 6 -11 22 -25 35 -13 14 -29 25 -35 25 -6 0 -22 -11 -35 -25z"/>
    </g>

    <g id="JS" transform="translate(0.000000,48.000000) scale(0.100000,-0.100000)"
       stroke="none">
        <path d="M109 292 c-4 -144 -12 -162 -64 -162 -28 0 -33 -4 -38 -27 -7 -37 7
-45 67 -40 40 4 55 10 78 36 28 31 28 32 28 176 l0 145 -34 0 -34 0 -3 -128z"/>
        <path d="M290 398 c-24 -16 -38 -35 -44 -61 -13 -49 11 -83 83 -118 61 -30 74
-45 60 -71 -11 -20 -86 -25 -119 -8 -16 8 -19 5 -25 -21 -9 -40 0 -48 62 -55
96 -12 168 34 168 106 0 48 -24 75 -93 106 -59 26 -75 50 -46 71 13 10 33 12
65 8 44 -6 47 -5 53 20 4 15 4 30 1 33 -3 3 -34 8 -68 10 -53 3 -67 0 -97 -20z"/>
    </g>

    <g id="Redux" transform="translate(0.000000,48.000000) scale(0.100000,-0.100000)"
       stroke="none">
        <path d="M180 452 c-22 -11 -44 -35 -58 -63 -20 -37 -22 -54 -18 -109 2 -36
11 -87 19 -115 12 -41 18 -51 39 -53 16 -2 28 3 31 12 9 22 -2 46 -20 46 -21
0 -43 62 -43 122 0 74 26 119 77 137 37 13 43 13 68 -3 15 -10 36 -38 46 -62
23 -52 45 -59 35 -12 -9 43 -31 75 -69 98 -40 25 -63 25 -107 2z"/>
        <path d="M185 314 c-31 -31 7 -67 49 -45 71 38 216 -57 216 -141 0 -19 -10
-40 -30 -60 -27 -26 -36 -29 -78 -26 -51 3 -67 -12 -26 -26 41 -13 94 2 132
40 32 32 34 38 29 80 -2 26 -13 58 -24 73 -32 43 -109 89 -161 96 -26 3 -55
10 -64 16 -23 12 -24 12 -43 -7z"/>
        <path d="M37 221 c-49 -58 -47 -132 5 -176 65 -55 208 -19 265 67 14 20 31 39
39 42 18 7 18 40 0 55 -15 13 -45 5 -47 -13 -1 -6 0 -21 0 -32 3 -30 -78 -99
-132 -112 -55 -14 -93 -6 -117 26 -28 35 -26 84 6 122 18 21 23 35 17 41 -7 7
-19 0 -36 -20z"/>
    </g>

    <g id="API" transform="translate(0.000000,64.000000) scale(0.100000,-0.100000)"
       stroke="none">
        <path d="M107 623 c-8 -10 -36 -52 -61 -93 -37 -60 -46 -83 -46 -120 0 -25 5
-51 12 -58 9 -9 9 -18 0 -37 -15 -33 -15 -108 0 -123 9 -9 9 -18 0 -37 -19
-42 -15 -112 8 -135 19 -19 31 -20 128 -18 142 4 140 22 -3 28 l-110 5 -3 48
c-5 74 1 77 144 77 102 0 124 3 124 15 0 12 -24 15 -132 17 l-133 3 -3 48 c-2
27 2 55 9 63 16 19 538 21 557 2 7 -7 12 -36 12 -66 0 -38 4 -52 13 -49 8 2
11 23 10 63 -1 32 -2 66 -2 74 -1 8 2 38 5 67 5 46 2 59 -24 105 -17 29 -45
72 -61 96 l-31 42 -199 0 c-176 0 -200 -2 -214 -17z m433 -55 c16 -22 30 -45
30 -50 0 -4 -112 -8 -250 -8 -137 0 -250 4 -250 8 0 5 14 28 30 50 l30 42 190
0 190 0 30 -42z m59 -102 c7 -8 11 -36 9 -63 l-3 -48 -285 0 -285 0 -3 48 c-2
27 2 55 9 63 17 21 541 21 558 0z"/>
        <path d="M60 429 c-10 -18 -9 -25 8 -41 27 -28 65 -9 60 30 -4 36 -51 44 -68
11z m41 -22 c-13 -13 -26 -3 -16 12 3 6 11 8 17 5 6 -4 6 -10 -1 -17z"/>
        <path d="M320 440 c0 -6 47 -10 120 -10 73 0 120 4 120 10 0 6 -47 10 -120 10
-73 0 -120 -4 -120 -10z"/>
        <path d="M323 388 c3 -10 35 -13 117 -13 82 0 114 3 118 13 3 9 -25 12 -118
12 -93 0 -121 -3 -117 -12z"/>
        <path d="M60 269 c-10 -18 -9 -25 8 -41 27 -28 65 -9 60 30 -4 36 -51 44 -68
11z m41 -22 c-13 -13 -26 -3 -16 12 3 6 11 8 17 5 6 -4 6 -10 -1 -17z"/>
        <path d="M320 280 c0 -6 47 -10 120 -10 73 0 120 4 120 10 0 6 -47 10 -120 10
-73 0 -120 -4 -120 -10z"/>
        <path d="M400 233 c-24 -9 -70 -55 -70 -70 0 -7 -13 -25 -30 -40 -39 -34 -42
-85 -6 -109 38 -24 285 -17 315 10 51 46 31 135 -36 156 -21 7 -48 21 -60 32
-21 20 -86 32 -113 21z m101 -48 c13 -13 34 -25 47 -25 29 0 62 -34 62 -63 0
-12 -7 -33 -16 -45 -14 -21 -22 -22 -149 -22 -126 0 -135 1 -145 21 -9 16 -8
25 6 40 9 10 23 19 31 19 7 0 13 11 13 24 0 66 104 101 151 51z"/>
        <path d="M60 109 c-10 -18 -9 -25 8 -41 27 -28 65 -9 60 30 -4 36 -51 44 -68
11z m41 -22 c-13 -13 -26 -3 -16 12 3 6 11 8 17 5 6 -4 6 -10 -1 -17z"/>
    </g>

    <g id="Git" transform="translate(0.000000,48.000000) scale(0.100000,-0.100000)"
       stroke="none">
        <path d="M200 455 l-23 -25 24 -26 c13 -14 34 -30 47 -35 12 -5 26 -19 31 -31
10 -26 47 -62 74 -71 38 -14 28 -67 -14 -67 -17 0 -43 32 -34 42 3 3 -6 15
-20 28 l-25 23 0 -61 c0 -34 5 -71 12 -81 9 -15 9 -23 -1 -35 -17 -20 -35 -20
-56 0 -14 15 -14 18 0 40 19 30 20 132 0 158 -8 10 -12 22 -10 26 2 4 -9 20
-26 36 l-29 28 -75 -74 c-41 -41 -75 -81 -75 -90 0 -20 220 -240 240 -240 20
0 240 221 240 240 0 20 -221 240 -241 240 -8 0 -26 -11 -39 -25z"/>
    </g>

    <g id="Vue">
        <path d="M356.9 64.3H280l-56 88.6-48-88.6H0L224 448 448 64.3h-91.1zm-301.2 32h53.8L224 294.5 338.4 96.3h53.8L224 384.5 55.7 96.3z"/>
    </g>

    <g id="Next">
        <path d="M4.5 4.5L4.90534 4.20725C4.77836 4.03144 4.55252 3.95753 4.34617 4.02425C4.13981 4.09098 4 4.28313 4 4.5H4.5ZM7.5 14C3.91015 14 1 11.0899 1 7.5H0C0 11.6421 3.35786 15 7.5 15V14ZM14 7.5C14 11.0899 11.0899 14 7.5 14V15C11.6421 15 15 11.6421 15 7.5H14ZM7.5 1C11.0899 1 14 3.91015 14 7.5H15C15 3.35786 11.6421 0 7.5 0V1ZM7.5 0C3.35786 0 0 3.35786 0 7.5H1C1 3.91015 3.91015 1 7.5 1V0ZM5 12V4.5H4V12H5ZM4.09466 4.79275L10.5947 13.7927L11.4053 13.2073L4.90534 4.20725L4.09466 4.79275ZM10 4V10H11V4H10Z"/>
    </g>

    <g id="Settings">
        <path d="M18,29H14a1,1,0,0,1-1-1V26.56a1.38,1.38,0,0,0-2.35-1l-1,1a1,1,0,0,1-1.42,0L5.39,23.78a1,1,0,0,1,0-1.42l1-1a1.38,1.38,0,0,0-1-2.35H4a1,1,0,0,1-1-1V14a1,1,0,0,1,1-1H5.44a1.38,1.38,0,0,0,1-2.35l-1-1a1,1,0,0,1,0-1.42L8.22,5.39a1,1,0,0,1,1.42,0l1,1a1.38,1.38,0,0,0,2.35-1V4a1,1,0,0,1,1-1h4a1,1,0,0,1,1,1V5.44a1.38,1.38,0,0,0,2.35,1l1-1a1,1,0,0,1,1.42,0l2.83,2.83a1,1,0,0,1,0,1.42l-1,1a1.38,1.38,0,0,0,1,2.35H28a1,1,0,0,1,1,1v4a1,1,0,0,1-1,1H26.56a1.38,1.38,0,0,0-1,2.35l1,1a1,1,0,0,1,0,1.42l-2.83,2.83a1,1,0,0,1-1.42,0l-1-1a1.38,1.38,0,0,0-2.35,1V28A1,1,0,0,1,18,29Zm-3-2h2v-.44a3.37,3.37,0,0,1,5.76-2.38l.31.31,1.42-1.42-.31-.31A3.37,3.37,0,0,1,26.56,17H27V15h-.44a3.37,3.37,0,0,1-2.38-5.76l.31-.31L23.07,7.51l-.31.31A3.37,3.37,0,0,1,17,5.44V5H15v.44A3.37,3.37,0,0,1,9.24,7.82l-.31-.31L7.51,8.93l.31.31A3.37,3.37,0,0,1,5.44,15H5v2h.44a3.37,3.37,0,0,1,2.38,5.76l-.31.31,1.42,1.42.31-.31A3.37,3.37,0,0,1,15,26.56Z"/>
        <path d="M16,21a5,5,0,1,1,5-5A5,5,0,0,1,16,21Zm0-8a3,3,0,1,0,3,3A3,3,0,0,0,16,13Z"/>
    </g>

    <g id="Test" transform="translate(0.000000,612.000000) scale(0.100000,-0.100000)"
       stroke="none">
        <path d="M1635 4571 c-47 -22 -89 -64 -104 -104 -8 -19 -11 -393 -11 -1188 0
-1131 0 -1161 20 -1198 39 -77 104 -111 213 -111 l57 0 0 960 0 960 1248 -2
1247 -3 3 -957 2 -958 53 0 c110 1 184 39 220 113 16 35 17 107 15 1210 l-3
1173 -25 37 c-15 22 -46 48 -74 62 l-50 25 -1385 0 c-1328 0 -1388 -1 -1426
-19z m441 -238 c53 -35 72 -119 41 -180 -23 -43 -93 -76 -142 -67 -101 19
-146 139 -83 219 43 55 125 67 184 28z m371 2 c139 -92 20 -308 -130 -236 -52
25 -77 65 -77 123 0 106 118 171 207 113z m378 -3 c55 -40 72 -125 38 -183
-24 -41 -92 -72 -137 -63 -97 18 -146 126 -93 205 44 67 132 86 192 41z m1483
-109 l3 -103 -611 0 -610 0 0 98 c0 54 3 102 7 106 4 3 277 5 607 4 l601 -3 3
-102z"/>
        <path d="M2743 3379 c-43 -16 -38 -45 22 -136 l56 -84 -22 -47 c-20 -41 -39
-152 -27 -152 3 0 27 10 54 22 79 34 144 48 234 48 90 0 155 -14 234 -48 26
-12 52 -20 56 -17 11 7 -6 99 -29 151 l-21 47 56 82 c60 88 64 118 21 134 -35
13 -50 3 -101 -70 -27 -38 -52 -68 -55 -66 -71 40 -108 49 -177 45 -49 -3 -84
-12 -109 -27 -20 -11 -40 -19 -44 -17 -3 3 -27 34 -51 70 -46 68 -62 78 -97
65z"/>
        <path d="M2372 3088 c-12 -6 -25 -22 -28 -35 -7 -25 49 -311 67 -349 6 -11 39
-37 74 -57 l63 -36 -20 -63 c-10 -35 -22 -88 -26 -118 l-7 -55 -57 -3 -57 -3
-57 113 c-31 62 -63 121 -72 131 -33 37 -112 7 -112 -43 0 -30 146 -316 165
-324 9 -3 56 -6 105 -6 l87 0 12 -60 c7 -33 19 -76 27 -96 9 -20 12 -40 7 -44
-4 -4 -44 -20 -88 -35 -44 -16 -86 -33 -93 -40 -27 -24 -222 -349 -222 -370 0
-29 36 -65 64 -65 33 0 54 25 159 189 l92 144 83 29 83 29 45 -50 c57 -63 150
-125 220 -148 29 -9 56 -15 58 -12 3 2 28 131 57 287 29 155 56 282 59 282 3
0 18 -66 33 -147 82 -440 78 -423 100 -423 47 0 172 73 240 141 l67 67 90 -30
c50 -16 90 -33 90 -37 0 -13 181 -296 197 -308 38 -29 103 3 103 51 0 21 -195
347 -223 372 -7 6 -48 23 -92 39 -44 15 -84 31 -88 35 -5 4 -2 24 7 44 8 20
20 63 27 96 l12 60 97 0 c66 0 101 4 108 13 22 26 152 298 152 317 0 50 -79
80 -112 43 -9 -10 -41 -69 -72 -131 l-57 -113 -57 3 -57 3 -7 55 c-4 30 -16
83 -26 118 l-20 62 68 40 c38 22 71 48 74 58 20 67 67 327 62 346 -8 33 -54
51 -89 35 -32 -14 -32 -15 -62 -158 -14 -64 -27 -125 -30 -136 -2 -11 -24 -31
-48 -44 l-43 -24 -54 57 c-108 114 -213 165 -361 173 -81 5 -108 2 -174 -18
-94 -28 -172 -77 -244 -154 l-55 -58 -43 24 c-24 13 -46 33 -48 44 -3 11 -16
73 -30 139 -28 128 -36 150 -61 160 -21 8 -35 7 -62 -6z"/>
    </g>

    <g id="Styling" transform="translate(0.000000,64.000000) scale(0.100000,-0.100000)"
       stroke="none">
        <path d="M71 622 c-65 -35 -71 -60 -71 -302 0 -189 2 -219 18 -249 33 -62 65
-71 249 -71 l163 0 0 83 c0 74 3 86 23 105 20 19 35 22 105 22 l82 0 0 127 0
128 -120 -120 c-75 -74 -120 -127 -120 -140 0 -35 -35 -88 -71 -107 -50 -27
-209 -26 -233 1 -48 53 57 241 135 241 13 0 227 226 267 282 13 17 5 18 -190
18 -178 0 -208 -2 -237 -18z"/>
        <path d="M443 479 c-65 -72 -119 -134 -120 -137 -1 -4 12 -18 28 -31 l31 -24
129 129 c71 71 129 136 129 146 0 24 -27 48 -55 48 -18 0 -54 -33 -142 -131z"/>
        <path d="M206 269 c-30 -24 -66 -88 -66 -119 0 -18 6 -20 68 -20 77 0 112 14
130 54 11 22 11 33 2 57 -22 53 -86 66 -134 28z"/>
        <path d="M487 153 c-12 -11 -8 -143 4 -143 14 0 139 125 139 139 0 12 -132 16
-143 4z"/>
    </g>

    //logo

    <g id="portfolio" transform="translate(0.000000,512.000000) scale(0.100000,-0.100000)"
       stroke="none">
        <path d="M1900 5106 c-143 -40 -248 -146 -286 -290 -19 -72 -18 -199 2 -243
37 -77 134 -113 208 -78 55 26 86 73 96 146 9 66 28 99 74 133 27 21 38 21
566 21 528 0 539 0 566 -21 46 -34 65 -67 74 -133 10 -73 41 -120 96 -146 74
-35 171 1 208 78 19 41 21 150 5 229 -32 149 -142 264 -293 304 -71 19 -1248
19 -1316 0z"/>
        <path d="M507 4144 c-225 -48 -399 -207 -478 -434 -21 -61 -23 -85 -27 -382
-3 -284 -2 -320 14 -353 52 -111 197 -125 272 -27 l27 35 5 311 c5 305 5 312
29 361 32 63 93 124 156 156 l50 24 2005 0 2005 0 50 -24 c63 -32 124 -93 156
-156 23 -48 24 -58 27 -304 3 -227 1 -262 -17 -343 -86 -371 -343 -639 -709
-740 -72 -20 -108 -22 -542 -27 l-465 -6 -66 -31 c-64 -31 -99 -61 -204 -175
-87 -95 -213 -132 -326 -95 -75 25 -115 55 -189 143 -55 65 -79 85 -144 118
l-78 40 -467 6 c-500 6 -505 7 -656 64 -84 31 -151 69 -241 136 -38 28 -98 65
-133 82 -224 106 -494 -29 -551 -275 -6 -26 -10 -300 -10 -691 0 -553 2 -659
16 -724 41 -199 166 -360 349 -448 143 -69 11 -65 2195 -65 1759 0 1979 2
2047 16 252 52 446 246 497 496 22 107 22 308 0 355 -52 109 -198 122 -272 25
-26 -34 -27 -42 -32 -186 -5 -133 -8 -157 -30 -201 -31 -63 -92 -124 -155
-156 l-50 -24 -2005 0 -2005 0 -50 24 c-63 32 -124 93 -156 156 l-24 50 -3
658 -3 657 25 25 c34 34 73 32 127 -6 206 -143 321 -201 484 -244 142 -38 237
-45 593 -45 388 0 377 2 454 -102 59 -80 89 -108 161 -152 90 -54 164 -66 397
-66 233 0 307 12 397 66 72 44 102 72 164 155 75 101 58 98 504 102 347 4 389
6 479 26 538 120 939 559 1006 1101 16 135 13 507 -6 597 -40 197 -168 362
-347 447 -147 70 -9 66 -2204 65 -1697 -1 -1988 -3 -2046 -15z"/>
        <path d="M4892 1904 c-107 -55 -121 -198 -26 -271 96 -73 238 -10 251 111 14
119 -120 214 -225 160z"/>
    </g>

    //arrows

    <g id="left" transform="translate(0.000000,64.000000) scale(0.100000,-0.100000)"
       stroke="none">
        <path d="M305 410 l-90 -90 92 -92 c74 -73 95 -90 105 -80 10 10 -4 29 -67 92
l-80 80 79 79 c68 68 87 101 58 101 -4 0 -48 -41 -97 -90z"/>
    </g>

    <g id="right" transform="translate(0.000000,64.000000) scale(0.100000,-0.100000)"
       stroke="none">
        <path d="M224 489 c-4 -6 28 -45 72 -90 l79 -79 -80 -80 c-63 -63 -77 -82 -67
-92 10 -10 31 7 105 80 l92 92 -90 90 c-49 49 -93 90 -97 90 -4 0 -10 -5 -14
-11z"/>
    </g>

    <g id="top" transform="translate(0.000000,64.000000) scale(0.100000,-0.100000)"
       stroke="none">
        <path d="M225 330 c-71 -71 -87 -92 -77 -102 10 -10 29 4 92 67 l80 80 80 -80
c63 -63 82 -77 92 -67 10 10 -6 31 -77 102 -49 50 -92 90 -95 90 -3 0 -46 -40
-95 -90z"/>
    </g>

    //social

    <g id="gitHub" transform="translate(0.000000,200.000000) scale(0.100000,-0.100000)"
       stroke="none">
        <path d="M872 1675 c-284 -62 -502 -339 -502 -640 0 -244 142 -480 351 -584
114 -57 123 -55 127 37 l3 72 -64 0 c-80 0 -120 24 -159 95 -15 28 -41 62 -58
78 -17 15 -28 32 -25 37 18 29 91 -9 125 -64 25 -41 66 -66 107 -66 54 0 71
11 87 54 20 53 20 56 -2 56 -85 0 -195 75 -230 158 -44 101 -36 248 16 312 15
18 17 32 12 62 -4 21 -4 57 1 81 4 23 8 45 9 50 1 17 52 5 116 -27 62 -31 74
-34 109 -26 22 5 74 10 115 10 41 0 93 -5 115 -10 35 -8 47 -5 109 26 64 32
115 44 116 27 1 -5 5 -27 9 -50 5 -24 5 -60 1 -81 -5 -30 -3 -44 12 -62 52
-64 60 -211 16 -312 -36 -83 -147 -158 -234 -158 l-25 0 18 -32 c14 -25 19
-65 23 -168 6 -162 5 -161 129 -99 310 155 439 556 282 874 -135 272 -420 413
-709 350z"/>
    </g>

    <g id="telegram" transform="translate(0.000000,200.000000) scale(0.100000,-0.100000)"
       stroke="none">
        <path d="M901 1277 c-330 -108 -498 -168 -505 -179 -8 -13 -8 -23 0 -35 15
-24 239 -123 278 -123 24 0 82 33 241 136 115 75 215 138 222 141 7 3 16 -2
19 -11 4 -11 -35 -58 -128 -156 -73 -77 -139 -155 -146 -172 -23 -53 -3 -78
172 -216 189 -150 205 -162 226 -162 44 0 47 12 121 463 67 418 70 439 53 458
-9 10 -27 19 -38 19 -12 -1 -243 -74 -515 -163z"/>
    </g>

    <g id="linkedIn" transform="translate(0.000000,200.000000) scale(0.100000,-0.100000)"
       stroke="none">
        <path d="M563 1680 c-61 -13 -115 -43 -156 -89 -76 -84 -72 -54 -75 -564 l-3
-458 27 -60 c31 -68 75 -111 148 -145 l51 -24 446 0 446 0 61 31 c65 32 99 66
135 133 22 40 22 49 25 485 3 503 2 514 -68 594 -23 26 -65 58 -98 74 l-57 28
-420 2 c-231 1 -439 -2 -462 -7z m889 -54 c64 -19 110 -57 144 -118 l29 -53 3
-418 c3 -474 1 -495 -66 -569 -71 -79 -60 -78 -560 -78 -488 0 -484 0 -550 63
-19 18 -43 50 -55 72 -21 39 -22 51 -25 463 -3 490 -2 503 73 577 72 72 81 74
551 74 321 1 421 -2 456 -13z"/>
        <path d="M564 1446 c-42 -42 -47 -97 -12 -141 70 -90 198 -49 198 64 -1 71
-42 111 -115 111 -29 0 -45 -8 -71 -34z"/>
        <path d="M1193 1178 c-51 -8 -79 -22 -115 -56 l-28 -26 0 37 0 37 -95 0 -95 0
0 -315 0 -316 98 3 97 3 5 200 c6 246 14 265 110 265 47 0 74 -12 86 -37 5
-10 11 -110 14 -223 l5 -205 98 -3 99 -3 -4 238 -3 238 -30 60 c-20 39 -41 66
-62 78 -41 23 -125 35 -180 25z"/>
        <path d="M545 1157 c-3 -7 -4 -147 -3 -312 l3 -300 98 -3 97 -3 0 316 0 315
-95 0 c-68 0 -97 -4 -100 -13z"/>
    </g>

    <g id="codewars" transform="translate(0.000000,200.000000) scale(0.100000,-0.100000)"
       stroke="none">
        <path d="M901 1749 c-17 -18 -26 -20 -74 -14 -50 6 -57 5 -88 -22 -19 -16 -50
-39 -70 -51 -20 -12 -42 -36 -49 -52 -7 -17 -26 -40 -42 -51 -15 -11 -35 -36
-43 -55 -13 -31 -17 -34 -57 -34 -24 0 -49 5 -56 12 -9 9 -12 5 -12 -19 0 -22
-8 -38 -27 -55 -46 -39 -83 -88 -83 -111 0 -12 -12 -33 -26 -47 -23 -21 -25
-30 -21 -68 3 -28 -1 -58 -10 -80 -17 -40 -10 -77 18 -108 15 -16 21 -39 23
-88 3 -51 8 -70 22 -81 18 -13 18 -14 1 -32 -13 -16 -16 -30 -11 -69 4 -27 13
-61 20 -76 8 -15 14 -40 14 -57 0 -23 8 -33 35 -50 22 -13 35 -28 35 -41 0
-26 43 -70 69 -70 11 0 34 -12 52 -27 24 -21 48 -30 93 -34 106 -12 159 -30
210 -70 27 -22 56 -39 65 -39 9 0 25 -7 35 -15 11 -8 33 -15 49 -15 16 0 46
-5 67 -11 31 -9 42 -8 71 7 21 11 51 16 80 15 42 -2 49 1 69 28 15 22 32 33
60 37 45 7 67 28 85 81 9 26 20 39 34 41 12 2 29 14 37 28 9 13 22 24 29 24 8
0 23 16 35 35 16 27 28 35 50 35 19 0 33 8 45 27 10 15 31 38 46 51 16 13 29
28 29 34 0 6 11 21 25 34 19 18 25 33 25 65 0 30 6 50 21 65 18 19 20 29 13
61 -4 21 -6 57 -5 80 3 45 -11 80 -41 101 -12 9 -18 26 -18 53 0 22 -7 50 -16
64 -11 17 -14 36 -9 68 5 29 3 47 -4 51 -6 4 -11 23 -11 42 0 19 -4 42 -9 52
-5 9 -16 34 -25 55 -9 22 -26 41 -41 47 -14 5 -25 17 -25 25 0 28 -46 65 -81
65 -21 0 -43 10 -66 31 -31 26 -42 30 -91 29 -111 -2 -164 10 -207 47 -58 49
-55 48 -114 51 -30 2 -63 7 -72 13 -26 13 -36 11 -58 -12z m123 -105 c21 -8
20 -19 -5 -71 -12 -25 -34 -50 -50 -58 -33 -18 -49 -43 -49 -80 0 -15 -9 -38
-20 -53 -11 -14 -20 -39 -20 -56 0 -17 -2 -62 -4 -101 -3 -65 -1 -73 27 -114
38 -54 23 -69 -36 -35 -23 13 -56 31 -74 39 -17 8 -34 23 -38 34 -3 10 -14 26
-25 36 -11 10 -20 26 -20 35 0 10 -10 30 -21 44 l-22 28 23 30 c17 23 21 39
17 69 -3 22 -1 42 4 45 5 3 9 16 9 28 0 38 75 121 121 135 21 6 39 18 39 26 0
19 107 33 144 19z m298 -140 c19 -10 44 -14 64 -11 27 5 36 1 49 -19 8 -13 24
-24 35 -24 25 0 95 -69 103 -101 3 -13 9 -35 13 -48 7 -23 5 -23 -22 -16 -16
5 -48 9 -71 10 -23 0 -48 6 -55 13 -15 15 -94 16 -103 2 -4 -6 -21 -8 -41 -4
-25 4 -43 1 -69 -15 -20 -12 -47 -21 -60 -21 -15 0 -33 -11 -47 -30 -12 -16
-27 -30 -34 -30 -7 0 -27 -21 -45 -46 -40 -59 -52 -48 -51 50 0 55 5 80 16 92
9 8 16 26 16 39 0 16 9 28 27 37 15 7 30 24 33 38 4 16 16 28 35 34 17 5 49
17 72 27 24 11 52 19 62 19 11 0 23 5 26 10 8 13 11 13 47 -6z m-804 -167 c2
-19 10 -41 18 -47 8 -8 14 -31 14 -61 0 -43 4 -51 35 -75 19 -14 35 -35 35
-44 0 -26 27 -50 55 -50 13 0 30 -9 38 -20 19 -28 78 -50 153 -57 35 -3 64 -9
64 -12 -2 -23 -78 -81 -107 -81 -10 0 -29 -8 -43 -17 -18 -13 -44 -17 -108
-16 -75 1 -87 4 -110 26 -15 14 -37 28 -50 32 -12 3 -29 21 -36 40 -8 18 -26
41 -40 50 -28 19 -36 71 -15 92 8 8 5 14 -10 23 -19 10 -21 17 -15 63 4 29 13
59 20 68 8 8 14 22 14 30 0 21 62 100 75 96 5 -2 11 -20 13 -40z m888 -185
c-1 -10 13 -14 43 -16 39 -2 50 -8 85 -48 23 -25 50 -48 61 -50 16 -2 21 -14
26 -51 3 -27 11 -52 18 -56 10 -7 11 -13 1 -31 -7 -14 -9 -39 -5 -66 6 -41 -3
-66 -38 -109 -5 -5 -17 -25 -27 -42 -12 -20 -28 -33 -40 -33 -18 0 -20 4 -14
39 6 34 3 43 -20 64 -20 19 -25 31 -21 49 7 27 -23 73 -55 83 -13 4 -20 15
-20 30 0 40 -11 54 -50 65 -22 6 -40 18 -42 28 -6 23 -84 52 -152 58 -27 2
-52 7 -55 10 -18 18 52 63 129 84 25 6 56 15 70 18 34 10 107 -8 106 -26z
m-244 -183 c10 -5 18 -17 18 -25 0 -8 4 -13 9 -10 15 9 81 -23 81 -39 0 -8 11
-25 25 -37 15 -13 25 -32 25 -48 0 -14 6 -34 13 -45 17 -27 15 -148 -3 -170
-8 -9 -16 -35 -19 -58 -5 -33 -12 -45 -34 -55 -15 -7 -35 -25 -44 -40 -22 -34
-33 -42 -59 -42 -11 0 -30 -9 -42 -21 -12 -11 -30 -19 -40 -18 -9 1 -38 -1
-64 -5 -53 -9 -141 9 -161 33 -10 12 -7 13 27 7 34 -6 42 -4 67 20 16 15 29
38 29 50 0 14 12 31 33 45 40 29 56 49 57 71 0 9 6 23 13 30 24 24 37 56 37
92 0 19 5 38 11 42 17 10 1 123 -22 160 -26 42 -25 69 3 71 11 1 29 -2 40 -8z
m-134 -90 c6 -29 4 -54 -4 -74 -6 -16 -10 -35 -7 -42 8 -21 -33 -98 -61 -117
-14 -9 -26 -25 -26 -36 0 -20 -27 -40 -54 -40 -8 0 -31 -11 -51 -25 -47 -31
-125 -33 -132 -4 -7 26 -23 24 -23 -2 0 -17 -4 -20 -22 -15 -13 3 -28 6 -35 6
-6 0 -18 6 -25 13 -20 18 -49 36 -78 48 -34 14 -80 82 -80 119 0 34 7 40 35
30 11 -4 33 -3 49 1 23 7 32 5 42 -10 19 -27 80 -36 109 -17 15 10 35 13 58 9
27 -4 42 0 63 16 15 11 38 21 51 21 26 0 113 75 113 98 0 7 11 17 24 23 13 6
27 21 30 32 7 29 14 19 24 -34z"/>
    </g>

    //contacts

    <g id="phone" transform="translate(0.000000,200.000000) scale(0.100000,-0.100000)"
       stroke="none">
        <path d="M504 1607 c-98 -99 -107 -125 -81 -227 23 -88 104 -252 179 -363 83
-122 293 -332 415 -415 111 -75 275 -156 363 -179 102 -26 128 -17 227 81 69
68 83 87 83 113 0 17 -3 39 -7 48 -8 23 -299 215 -324 215 -11 0 -50 -18 -86
-40 -37 -22 -78 -40 -91 -40 -77 0 -268 161 -345 291 -48 81 -47 121 7 199 28
41 36 60 31 79 -8 35 -184 300 -206 312 -10 5 -32 9 -51 9 -28 0 -45 -12 -114
-83z m229 -102 c48 -71 87 -135 87 -143 0 -7 -14 -34 -32 -60 -24 -35 -33 -60
-36 -103 -6 -84 35 -156 163 -285 111 -111 195 -164 261 -164 39 0 136 39 148
59 4 6 17 11 29 11 26 0 275 -164 284 -186 4 -11 -19 -41 -71 -92 -73 -74 -78
-77 -119 -75 -24 1 -85 17 -135 36 -296 111 -616 409 -766 713 -50 101 -89
228 -80 259 9 29 146 166 164 163 8 -2 54 -61 103 -133z"/>
    </g>

    <g id="email" transform="translate(0.000000,200.000000) scale(0.100000,-0.100000)"
       stroke="none">
        <path d="M485 1441 c-11 -5 -29 -19 -40 -31 -19 -21 -20 -36 -20 -391 l0 -369
28 -27 27 -28 530 0 530 0 27 28 28 27 0 370 0 370 -28 27 -27 28 -518 2
c-284 1 -526 -2 -537 -6z m985 -64 c-62 -56 -451 -367 -460 -367 -9 0 -398
311 -460 367 -12 11 64 13 460 13 396 0 472 -2 460 -13z m-730 -233 c139 -113
258 -208 265 -210 7 -3 128 90 269 205 142 116 260 211 262 211 2 0 4 -150 4
-334 0 -291 -2 -337 -16 -350 -14 -14 -74 -16 -514 -16 -440 0 -500 2 -514 16
-14 13 -16 59 -16 350 0 184 2 334 4 334 3 0 118 -93 256 -206z"/>
    </g>

    <g id="address" transform="translate(0.000000,200.000000) scale(0.100000,-0.100000)"
       stroke="none">
        <path d="M903 1585 c-76 -21 -129 -50 -186 -103 -94 -88 -137 -186 -137 -309
0 -119 55 -259 201 -513 114 -199 209 -340 229 -340 20 0 115 141 229 340 146
254 201 394 201 513 0 123 -43 221 -137 309 -111 103 -258 141 -400 103z m269
-88 c110 -54 193 -175 204 -299 6 -54 2 -77 -25 -158 -18 -52 -61 -150 -96
-216 -77 -146 -233 -404 -245 -404 -12 0 -168 258 -245 404 -35 66 -78 164
-96 216 -27 81 -31 104 -25 158 7 80 42 157 96 216 83 89 152 117 286 113 74
-2 100 -8 146 -30z"/>
        <path d="M950 1401 c-51 -16 -89 -42 -123 -81 -93 -109 -66 -278 57 -355 44
-27 58 -30 126 -30 68 0 82 3 126 30 157 97 147 332 -18 416 -45 23 -129 33
-168 20z m138 -75 c59 -31 94 -88 95 -155 2 -160 -191 -238 -297 -120 -78 86
-64 200 34 267 39 26 125 30 168 8z"/>
    </g>

    <path id="cv"
          d="M59.707,17.293l-10-10A.9993.9993,0,0,0,49,7H27a5.0059,5.0059,0,0,0-5,5V33H9a5.0059,5.0059,0,0,0-5,5V54a9.01,9.01,0,0,0,9,9H51a9.01,9.01,0,0,0,9-9V18A1,1,0,0,0,59.707,17.293ZM51,61H20.6509A8.9875,8.9875,0,0,0,24,54V12a3.0033,3.0033,0,0,1,3-3H48v5a5.0059,5.0059,0,0,0,5,5h5V54A7.0081,7.0081,0,0,1,51,61ZM43,13H31a3.0033,3.0033,0,0,0-3,3V28a3.0033,3.0033,0,0,0,3,3H43a3.0033,3.0033,0,0,0,3-3V16A3.0033,3.0033,0,0,0,43,13Zm1,15a1.0009,1.0009,0,0,1-1,1V27a6.0031,6.0031,0,0,0-3.1066-5.2531,4,4,0,1,0-5.7868,0A6.0031,6.0031,0,0,0,31,27v2a1.0013,1.0013,0,0,1-1-1V16a1.0013,1.0013,0,0,1,1-1H43a1.0009,1.0009,0,0,1,1,1ZM17.63,21.3577l2.0555-.8809a.5187.5187,0,0,0,0-.9536L17.63,18.6423a.519.519,0,0,1-.2724-.2724l-.8809-2.0555a.5187.5187,0,0,0-.9536,0L14.6423,18.37a.519.519,0,0,1-.2724.2724l-2.0555.8809a.5187.5187,0,0,0,0,.9536l2.0555.8809a.519.519,0,0,1,.2724.2724l.8809,2.0555a.5187.5187,0,0,0,.9536,0l.8809-2.0555A.519.519,0,0,1,17.63,21.3577ZM9.2226,5.0183l1.5416-.6607a.3891.3891,0,0,0,0-.7152L9.2226,2.9817a.3887.3887,0,0,1-.2043-.2043L8.3576,1.2358a.3891.3891,0,0,0-.7152,0L6.9817,2.7774a.3887.3887,0,0,1-.2043.2043l-1.5416.6607a.3891.3891,0,0,0,0,.7152l1.5416.6607a.3887.3887,0,0,1,.2043.2043l.6607,1.5416a.3891.3891,0,0,0,.7152,0l.6607-1.5416A.3887.3887,0,0,1,9.2226,5.0183Zm9,5,1.5416-.6607a.3891.3891,0,0,0,0-.7152l-1.5416-.6607a.3887.3887,0,0,1-.2043-.2043l-.6607-1.5416a.3891.3891,0,0,0-.7152,0l-.6607,1.5416a.3887.3887,0,0,1-.2043.2043l-1.5416.6607a.3891.3891,0,0,0,0,.7152l1.5416.6607a.3887.3887,0,0,1,.2043.2043l.6607,1.5416a.3891.3891,0,0,0,.7152,0l.6607-1.5416A.3887.3887,0,0,1,18.2226,10.0183Zm39-3,1.5416-.6607a.3891.3891,0,0,0,0-.7152l-1.5416-.6607a.3887.3887,0,0,1-.2043-.2043l-.6607-1.5416a.3891.3891,0,0,0-.7152,0l-.6607,1.5416a.3887.3887,0,0,1-.2043.2043l-1.5416.6607a.3891.3891,0,0,0,0,.7152l1.5416.6607a.3887.3887,0,0,1,.2043.2043l.6607,1.5416a.3891.3891,0,0,0,.7152,0l.6607-1.5416A.3887.3887,0,0,1,57.2226,7.0183ZM8,17.5A1.5,1.5,0,1,1,6.5,16,1.5,1.5,0,0,1,8,17.5Zm35-14A1.5,1.5,0,1,1,41.5,2,1.5,1.5,0,0,1,43,3.5ZM53,36H35a1,1,0,0,1,0-2H53a1,1,0,0,1,0,2ZM32,35a1,1,0,0,0-1-1H29a1,1,0,0,0,0,2h2A1,1,0,0,0,32,35Zm22,6a1,1,0,0,0-1-1H41a1,1,0,0,0,0,2H53A1,1,0,0,0,54,41ZM38,41a1,1,0,0,0-1-1H29a1,1,0,0,0,0,2h8A1,1,0,0,0,38,41Zm16,6a1,1,0,0,0-1-1H50a1,1,0,0,0,0,2h3A1,1,0,0,0,54,47Zm0-17a1,1,0,0,0-1-1H49a1,1,0,0,0,0,2h4A1,1,0,0,0,54,30Zm0-5a1,1,0,0,0-1-1H49a1,1,0,0,0,0,2h4A1,1,0,0,0,54,25ZM47,47a1,1,0,0,0-1-1H37a1,1,0,0,0,0,2h9A1,1,0,0,0,47,47ZM34,47a1,1,0,0,0-1-1H29a1,1,0,0,0,0,2h4A1,1,0,0,0,34,47Zm20,6a1,1,0,0,0-1-1H35a1,1,0,0,0,0,2H53A1,1,0,0,0,54,53ZM32,53a1,1,0,0,0-1-1H29a1,1,0,0,0,0,2h2A1,1,0,0,0,32,53Z">
    </path>
</svg>