<?xml version="1.0" standalone="no"?>
<!DOCTYPE svg PUBLIC "-//W3C//DTD SVG 20010904//EN"
 "http://www.w3.org/TR/2001/REC-SVG-20010904/DTD/svg10.dtd">
<svg version="1.0" xmlns="http://www.w3.org/2000/svg"
 width="512.000000pt" height="512.000000pt" viewBox="0 0 512.000000 512.000000"
 preserveAspectRatio="xMidYMid meet">

<g transform="translate(0.000000,512.000000) scale(0.100000,-0.100000)"
fill="#000000" stroke="none">
<path d="M1900 5106 c-143 -40 -248 -146 -286 -290 -19 -72 -18 -199 2 -243
37 -77 134 -113 208 -78 55 26 86 73 96 146 9 66 28 99 74 133 27 21 38 21
566 21 528 0 539 0 566 -21 46 -34 65 -67 74 -133 10 -73 41 -120 96 -146 74
-35 171 1 208 78 19 41 21 150 5 229 -32 149 -142 264 -293 304 -71 19 -1248
19 -1316 0z"/>
<path d="M507 4144 c-225 -48 -399 -207 -478 -434 -21 -61 -23 -85 -27 -382
-3 -284 -2 -320 14 -353 52 -111 197 -125 272 -27 l27 35 5 311 c5 305 5 312
29 361 32 63 93 124 156 156 l50 24 2005 0 2005 0 50 -24 c63 -32 124 -93 156
-156 23 -48 24 -58 27 -304 3 -227 1 -262 -17 -343 -86 -371 -343 -639 -709
-740 -72 -20 -108 -22 -542 -27 l-465 -6 -66 -31 c-64 -31 -99 -61 -204 -175
-87 -95 -213 -132 -326 -95 -75 25 -115 55 -189 143 -55 65 -79 85 -144 118
l-78 40 -467 6 c-500 6 -505 7 -656 64 -84 31 -151 69 -241 136 -38 28 -98 65
-133 82 -224 106 -494 -29 -551 -275 -6 -26 -10 -300 -10 -691 0 -553 2 -659
16 -724 41 -199 166 -360 349 -448 143 -69 11 -65 2195 -65 1759 0 1979 2
2047 16 252 52 446 246 497 496 22 107 22 308 0 355 -52 109 -198 122 -272 25
-26 -34 -27 -42 -32 -186 -5 -133 -8 -157 -30 -201 -31 -63 -92 -124 -155
-156 l-50 -24 -2005 0 -2005 0 -50 24 c-63 32 -124 93 -156 156 l-24 50 -3
658 -3 657 25 25 c34 34 73 32 127 -6 206 -143 321 -201 484 -244 142 -38 237
-45 593 -45 388 0 377 2 454 -102 59 -80 89 -108 161 -152 90 -54 164 -66 397
-66 233 0 307 12 397 66 72 44 102 72 164 155 75 101 58 98 504 102 347 4 389
6 479 26 538 120 939 559 1006 1101 16 135 13 507 -6 597 -40 197 -168 362
-347 447 -147 70 -9 66 -2204 65 -1697 -1 -1988 -3 -2046 -15z"/>
<path d="M4892 1904 c-107 -55 -121 -198 -26 -271 96 -73 238 -10 251 111 14
119 -120 214 -225 160z"/>
</g>
</svg>
