<?xml version="1.0" encoding="utf-8"?>
<!-- Generator: Adobe Illustrator 24.1.1, SVG Export Plug-In . SVG Version: 6.00 Build 0)  -->
<svg version="1.1" id="Layer_1" xmlns="http://www.w3.org/2000/svg" xmlns:xlink="http://www.w3.org/1999/xlink" x="0px" y="0px"
	 viewBox="0 0 512 512" style="enable-background:new 0 0 512 512;" xml:space="preserve">
<style type="text/css">
	.st0{fill:#99425B;}
	.st1{fill:#FFFFFF;}
</style>
<g>
	<path class="st0" d="M458.8,252.1c0-26.3-21.3-47.7-47.7-47.7c-1.7,0-3.4,0.1-5,0.3l65.5-193.1H193.4l65.4,192.9
		c-1-0.1-1.9-0.1-2.9-0.1c-26.3,0-47.7,21.3-47.7,47.7c0,21.3,13.9,39.3,33.2,45.4c-10.2,17.6-23,33.5-37.5,47.2
		c-19.7,18.6-42.3,32.7-66.8,41.5c-29.1-14.9-42.8-48.2-30.4-77.3c1.4-3.3,2.8-6.6,4.2-9.9c21.1-4.9,36.8-23.8,36.8-46.4
		c0-26.3-21.3-47.7-47.7-47.7s-47.7,21.3-47.7,47.7c0,16.1,8,30.4,20.3,39c-11.8,26.9-29.1,55-34.5,87.5c-6.5,39,0,80.5,33.7,103.9
		c78.6,54.5,164-33.8,254-56c32.6-8,68.4-6.7,97.2-23.4c21.6-12.5,35.8-33.2,39.8-56.5c4-23-1.8-45.8-15.2-64.4
		C454.6,274.4,458.8,263.7,458.8,252.1"/>
	<path class="st1" d="M451.4,345c-3.5,20.2-16,37.8-34.2,48.4c-17,9.8-37.4,12.8-58.9,15.9c-11.6,1.7-23.5,3.4-35.2,6.3
		c-30.9,7.6-60.8,22.5-89.7,36.8c-57.9,28.7-107.8,53.5-154.9,20.9c-34.5-23.9-32.9-68.2-28.9-92.4c3.7-22.5,13.8-43.2,23.5-63.2
		c1.7-3.5,3.3-6.9,4.9-10.2c4.8,1.9,10,3.2,15.3,3.8c-9.9,32.7,5.7,68.3,38.4,85.1l4.5,2.3l4.7-1.7c25.9-9.2,49.7-24,70.9-44
		c13.7-12.9,25.4-27.2,35.1-42.4c2.9,0.4,5.9,0.7,8.9,0.7c30,0,54.9-22.5,58.8-51.5c12.3-0.5,25.4-0.5,37.7,0
		c3.8,29,28.7,51.5,58.8,51.5c12.6,0,24.2-3.9,33.8-10.6C451.6,314.4,454.1,329.8,451.4,345z M100,216.4c19.9,0,36,16.2,36,36
		c0,7.1-2.1,13.8-5.7,19.4c-6,9.3-16.2,15.7-27.9,16.5c-0.8,0.1-1.6,0.1-2.5,0.1c-4.4,0-8.7-0.8-12.6-2.3c-7.9-3-14.5-8.7-18.7-15.9
		c-3-5.3-4.7-11.3-4.7-17.8C64,232.6,80.2,216.4,100,216.4z M219.8,252.1c0-18,13.3-33,30.7-35.6c1.7-0.3,3.5-0.4,5.3-0.4
		c11.5,0,21.8,5.5,28.4,13.9c1.6,2.1,3.1,4.4,4.2,6.8c2.2,4.6,3.4,9.8,3.4,15.2c0,2.9-0.3,5.7-1,8.4c-3.5,14.7-16,25.9-31.4,27.5
		c-1.2,0.1-2.4,0.2-3.6,0.2c-7.2,0-13.9-2.1-19.5-5.8C226.4,275.9,219.8,264.8,219.8,252.1z M370.2,209.3
		c-7.7,7.4-13.5,16.8-16.3,27.4c-13.3-0.5-27.5-0.5-40.7,0c-3-11.3-9.4-21.3-17.9-28.9l37.3-75.4L370.2,209.3z M209.6,23.3h245.7
		l-58,171.2c-2.5,0.6-5,1.4-7.4,2.3L332.6,79.8L275.1,196c-2.5-0.9-5-1.5-7.7-2.1L209.6,23.3z M447.1,252.1c0,3.6-0.5,7.1-1.5,10.4
		c-2.4,7.8-7.3,14.5-13.9,19.1c-5.8,4.1-12.9,6.5-20.6,6.5c-16.6,0-30.7-11.3-34.8-26.7c-0.8-3-1.2-6.1-1.2-9.3
		c0-4.9,1-9.6,2.8-13.9c0.9-2.2,2.1-4.3,3.4-6.2c6.5-9.6,17.4-15.9,29.8-15.9c1.1,0,2.3,0.1,3.4,0.2
		C432.8,217.9,447.1,233.4,447.1,252.1z M470.4,252.1c0-28.9-20.9-53.1-48.3-58.3L487.8,0H177.2L243,194.2
		c-26.5,5.9-46.4,29.6-46.4,57.9c0,21.2,11.2,39.9,28,50.4c-8.1,12-17.7,23.4-28.7,33.8c-17.4,16.4-36.8,28.9-57.8,37.1
		c-21.1-13.2-30-38.2-20.7-60l0.7-1.7c0.5-1.1,0.9-2.1,1.4-3.2c23.2-8.1,39.8-30.1,39.8-56c0-32.7-26.6-59.3-59.3-59.3
		c-32.7,0-59.3,26.6-59.3,59.3c0,16.5,6.8,31.4,17.7,42.2c-2,4.2-4.1,8.5-6.2,12.9c-10,20.5-21.3,43.7-25.6,69.5
		c-8.5,51.2,5.2,92.2,38.6,115.4c20.3,14,40.8,19.6,61.5,19.6c39,0,78.4-19.6,117-38.7c27.8-13.8,56.5-28.1,84.9-35.1
		c10.6-2.6,21.4-4.2,32.9-5.8c22.8-3.3,46.4-6.7,67.3-18.8c24.2-14,40.8-37.6,45.5-64.5c4-23.2-0.8-46.4-12.6-66.1
		C467.2,274,470.4,263.4,470.4,252.1z"/>
</g>
</svg>
