<?xml version="1.0" encoding="utf-8"?>
<!-- Generator: Adobe Illustrator 27.5.0, SVG Export Plug-In . SVG Version: 6.00 Build 0)  -->
<svg version="1.1" xmlns="http://www.w3.org/2000/svg" x="0px" y="0px"
	 viewBox="0 0 500 500" style="enable-background:new 0 0 500 500;" xml:space="preserve">
<g id="Background_Simple">
	<g>
		<path style="fill:#92E3A9;" d="M231.402,36.663c-21.374,8.716-42.187,18.858-64.561,24.592
			c-24.877,6.376-49.56,0.773-74.582,4.442C17.036,76.726,2.523,170.939,19,232c17,62.999,42.999,70,30.001,87.999
			c-19.648,27.207-34.11,61.685-21.413,95.04c9.085,23.867,30.716,41.503,54.72,50.219c35.222,12.791,73.811,9.616,109.009-1.096
			c34.382-10.463,68.259-26.059,104.948-25.092c46.429,1.223,92.398,24.607,138.905,11.265C481.86,436.942,493.7,389.414,493,346
			c-1-62-46-87-46-121c0-19.962,9.546-37.075,15.232-55.618c6.087-19.851,8.51-41.187,3.69-61.585
			c-8.658-36.642-39.763-65.13-75.021-78.336c-40.074-15.01-87.202-14.693-128.156-3.702
			C252.013,28.639,241.643,32.487,231.402,36.663z"/>
		<path style="opacity:0.7;fill:#FFFFFF;" d="M231.402,36.663c-21.374,8.716-42.187,18.858-64.561,24.592
			c-24.877,6.376-49.56,0.773-74.582,4.442C17.036,76.726,2.523,170.939,19,232c17,62.999,42.999,70,30.001,87.999
			c-19.648,27.207-34.11,61.685-21.413,95.04c9.085,23.867,30.716,41.503,54.72,50.219c35.222,12.791,73.811,9.616,109.009-1.096
			c34.382-10.463,68.259-26.059,104.948-25.092c46.429,1.223,92.398,24.607,138.905,11.265C481.86,436.942,493.7,389.414,493,346
			c-1-62-46-87-46-121c0-19.962,9.546-37.075,15.232-55.618c6.087-19.851,8.51-41.187,3.69-61.585
			c-8.658-36.642-39.763-65.13-75.021-78.336c-40.074-15.01-87.202-14.693-128.156-3.702
			C252.013,28.639,241.643,32.487,231.402,36.663z"/>
	</g>
</g>
<g id="Home_Screen">
	<g>
		<path style="fill:none;stroke:#263238;stroke-miterlimit:10;" d="M359.814,427.259H237.773c-9.191,0-16.642-7.451-16.642-16.642
			V94.581c0-9.191,7.451-16.642,16.642-16.642h122.041c9.191,0,16.642,7.451,16.642,16.642v316.036
			C376.456,419.809,369.005,427.259,359.814,427.259z"/>
		<path style="fill:none;stroke:#D4D4D4;stroke-miterlimit:10;" d="M362.126,421.175H235.462c-5.872,0-10.632-4.76-10.632-10.632
			v-19.416c0-5.872,4.76-10.632,10.632-10.632h126.664c5.872,0,10.632,4.76,10.632,10.632v19.416
			C372.758,416.414,367.998,421.175,362.126,421.175z"/>
		<path style="fill:none;stroke:#D4D4D4;stroke-miterlimit:10;" d="M360.711,265.379H236.876c-5.03,0-9.108-4.078-9.108-9.108
			v-55.96c0-5.03,4.078-9.108,9.108-9.108h123.834c5.03,0,9.108,4.078,9.108,9.108v55.96
			C369.819,261.301,365.741,265.379,360.711,265.379z"/>
		<g>
			<path style="fill:#D4D4D4;" d="M272.333,223.455h17.333c2.761,0,5-2.238,5-5v-17.333c0-2.761-2.239-5-5-5h-17.333
				c-2.761,0-5,2.239-5,5v17.333C267.333,221.217,269.572,223.455,272.333,223.455z"/>
			<path style="fill:#D4D4D4;" d="M272.333,260.122h17.333c2.761,0,5-2.239,5-5v-17.333c0-2.761-2.239-5-5-5h-17.333
				c-2.761,0-5,2.239-5,5v17.333C267.333,257.883,269.572,260.122,272.333,260.122z"/>
			<path style="fill:#D4D4D4;" d="M236.32,260.122h17.333c2.761,0,5-2.239,5-5v-17.333c0-2.761-2.239-5-5-5H236.32
				c-2.761,0-5,2.239-5,5v17.333C231.32,257.883,233.559,260.122,236.32,260.122z"/>
			<g>
				<path style="fill:#D4D4D4;" d="M236.32,223.455h17.333c2.761,0,5-2.238,5-5v-17.333c0-2.761-2.239-5-5-5H236.32
					c-2.761,0-5,2.239-5,5v17.333C231.32,221.217,233.559,223.455,236.32,223.455z"/>
			</g>
		</g>
		<g>
			<path style="fill:#D4D4D4;" d="M272.333,302.657h17.333c2.761,0,5-2.239,5-5v-17.333c0-2.761-2.239-5-5-5h-17.333
				c-2.761,0-5,2.239-5,5v17.333C267.333,300.418,269.572,302.657,272.333,302.657z"/>
			<path style="fill:#D4D4D4;" d="M272.333,339.323h17.333c2.761,0,5-2.239,5-5V316.99c0-2.761-2.239-5-5-5h-17.333
				c-2.761,0-5,2.239-5,5v17.333C267.333,337.085,269.572,339.323,272.333,339.323z"/>
			<path style="fill:#D4D4D4;" d="M236.32,339.323h17.333c2.761,0,5-2.239,5-5V316.99c0-2.761-2.239-5-5-5H236.32
				c-2.761,0-5,2.239-5,5v17.333C231.32,337.085,233.559,339.323,236.32,339.323z"/>
			<g>
				<path style="fill:#D4D4D4;" d="M236.32,302.657h17.333c2.761,0,5-2.239,5-5v-17.333c0-2.761-2.239-5-5-5H236.32
					c-2.761,0-5,2.239-5,5v17.333C231.32,300.418,233.559,302.657,236.32,302.657z"/>
			</g>
		</g>
		<g>
			<path style="fill:#D4D4D4;" d="M343.688,223.455h17.333c2.762,0,5-2.238,5-5v-17.333c0-2.761-2.238-5-5-5h-17.333
				c-2.761,0-5,2.239-5,5v17.333C338.688,221.217,340.927,223.455,343.688,223.455z"/>
			<path style="fill:#D4D4D4;" d="M343.688,260.122h17.333c2.762,0,5-2.239,5-5v-17.333c0-2.761-2.238-5-5-5h-17.333
				c-2.761,0-5,2.239-5,5v17.333C338.688,257.883,340.927,260.122,343.688,260.122z"/>
			<path style="fill:#D4D4D4;" d="M307.675,260.122h17.333c2.761,0,5-2.239,5-5v-17.333c0-2.761-2.239-5-5-5h-17.333
				c-2.761,0-5,2.239-5,5v17.333C302.675,257.883,304.914,260.122,307.675,260.122z"/>
			<g>
				<path style="fill:#D4D4D4;" d="M307.675,223.455h17.333c2.761,0,5-2.238,5-5v-17.333c0-2.761-2.239-5-5-5h-17.333
					c-2.761,0-5,2.239-5,5v17.333C302.675,221.217,304.914,223.455,307.675,223.455z"/>
			</g>
		</g>
		<g>
			<path style="fill:#D4D4D4;" d="M288.018,173h-49.396c-4.033,0-7.302-3.269-7.302-7.302v-49.396c0-4.033,3.269-7.302,7.302-7.302
				h49.396c4.033,0,7.302,3.269,7.302,7.302v49.396C295.32,169.731,292.051,173,288.018,173z"/>
			<path style="fill:#C4C4C4;" d="M283.04,124.989l-13.66,27.826l-19.731-8.601l-17.529,24.797c1.208,2.366,3.663,3.989,6.501,3.989
				h49.396c4.033,0,7.302-3.269,7.302-7.302v-34.13L283.04,124.989z"/>
			<circle style="fill:#C4C4C4;" cx="248.638" cy="126.001" r="9.613"/>
		</g>
		<g>
			<path style="fill:#D4D4D4;" d="M359.512,339.323h-49.396c-4.033,0-7.302-3.269-7.302-7.302v-49.396
				c0-4.033,3.269-7.302,7.302-7.302h49.396c4.033,0,7.302,3.269,7.302,7.302v49.396
				C366.814,336.054,363.544,339.323,359.512,339.323z"/>
			<path style="fill:#C4C4C4;" d="M354.533,291.313l-13.66,27.826l-19.731-8.601l-17.529,24.797
				c1.208,2.366,3.663,3.989,6.502,3.989h49.396c4.033,0,7.302-3.269,7.302-7.302v-34.13L354.533,291.313z"/>
			
				<ellipse transform="matrix(0.6518 -0.7584 0.7584 0.6518 -110.2269 344.5692)" style="fill:#C4C4C4;" cx="320.131" cy="292.324" rx="9.612" ry="9.612"/>
		</g>
		<path style="fill:none;stroke:#D4D4D4;stroke-miterlimit:10;" d="M270.031,414.381h17.333c2.761,0,5-2.238,5-5v-17.333
			c0-2.761-2.239-5-5-5h-17.333c-2.761,0-5,2.239-5,5v17.333C265.031,412.143,267.269,414.381,270.031,414.381z"/>
		<path style="fill:none;stroke:#D4D4D4;stroke-miterlimit:10;" d="M306.044,414.381h17.333c2.761,0,5-2.238,5-5v-17.333
			c0-2.761-2.239-5-5-5h-17.333c-2.762,0-5,2.239-5,5v17.333C301.044,412.143,303.282,414.381,306.044,414.381z"/>
		<path style="fill:none;stroke:#D4D4D4;stroke-miterlimit:10;" d="M342.056,414.381h17.333c2.761,0,5-2.238,5-5v-17.333
			c0-2.761-2.239-5-5-5h-17.333c-2.761,0-5,2.239-5,5v17.333C337.056,412.143,339.295,414.381,342.056,414.381z"/>
		<path style="fill:none;stroke:#D4D4D4;stroke-miterlimit:10;" d="M234.018,414.381h17.333c2.761,0,5-2.238,5-5v-17.333
			c0-2.761-2.239-5-5-5h-17.333c-2.761,0-5,2.239-5,5v17.333C229.018,412.143,231.257,414.381,234.018,414.381z"/>
		<g>
			<path style="fill:#D4D4D4;" d="M344.48,136.333h17.333c2.761,0,5-2.238,5-5V114c0-2.761-2.239-5-5-5H344.48c-2.761,0-5,2.239-5,5
				v17.333C339.48,134.095,341.719,136.333,344.48,136.333z"/>
			<path style="fill:#D4D4D4;" d="M344.48,173h17.333c2.761,0,5-2.239,5-5v-17.333c0-2.762-2.239-5-5-5H344.48c-2.761,0-5,2.238-5,5
				V168C339.48,170.761,341.719,173,344.48,173z"/>
			<path style="fill:#D4D4D4;" d="M308.467,173h17.333c2.761,0,5-2.239,5-5v-17.333c0-2.762-2.239-5-5-5h-17.333
				c-2.762,0-5,2.238-5,5V168C303.467,170.761,305.706,173,308.467,173z"/>
			<g>
				<path style="fill:#D4D4D4;" d="M308.467,136.333h17.333c2.761,0,5-2.238,5-5V114c0-2.761-2.239-5-5-5h-17.333
					c-2.762,0-5,2.239-5,5v17.333C303.467,134.095,305.706,136.333,308.467,136.333z"/>
				<path style="fill:none;stroke:#FFFFFF;stroke-miterlimit:10;" d="M311.638,131.333h10.992c1.751,0,3.171-1.42,3.171-3.171
					v-10.992c0-1.751-1.42-3.171-3.171-3.171h-10.992c-1.751,0-3.171,1.42-3.171,3.171v10.992
					C308.467,129.914,309.887,131.333,311.638,131.333z"/>
				<circle style="fill:none;stroke:#FFFFFF;stroke-miterlimit:10;" cx="317.134" cy="122.667" r="5"/>
			</g>
		</g>
		<path style="fill:none;stroke:#D4D4D4;stroke-miterlimit:10;" d="M319.09,370.704h-45.182c-4.422,0-8.007-3.585-8.007-8.007v0
			c0-4.422,3.585-8.007,8.007-8.007h45.182c4.422,0,8.007,3.585,8.007,8.007v0C327.097,367.12,323.512,370.704,319.09,370.704z"/>
		<g>
			<path style="fill:#D4D4D4;" d="M277.34,362.698c0-0.948-0.768-1.716-1.716-1.716c-0.947,0-1.716,0.768-1.716,1.716
				c0,0.947,0.768,1.716,1.716,1.716C276.572,364.413,277.34,363.645,277.34,362.698z"/>
			<path style="fill:#D4D4D4;" d="M288.206,362.698c0-0.948-0.768-1.716-1.716-1.716s-1.716,0.768-1.716,1.716
				c0,0.947,0.768,1.716,1.716,1.716S288.206,363.645,288.206,362.698z"/>
			<path style="fill:#D4D4D4;" d="M299.073,362.698c0-0.948-0.768-1.716-1.716-1.716c-0.948,0-1.716,0.768-1.716,1.716
				c0,0.947,0.768,1.716,1.716,1.716C298.305,364.413,299.073,363.645,299.073,362.698z"/>
			<path style="fill:#D4D4D4;" d="M309.939,362.698c0-0.948-0.768-1.716-1.716-1.716s-1.716,0.768-1.716,1.716
				c0,0.947,0.768,1.716,1.716,1.716S309.939,363.645,309.939,362.698z"/>
			<path style="fill:#D4D4D4;" d="M320.806,362.698c0-0.948-0.768-1.716-1.716-1.716s-1.716,0.768-1.716,1.716
				c0,0.947,0.768,1.716,1.716,1.716S320.806,363.645,320.806,362.698z"/>
		</g>
	</g>
</g>
<g id="Device">
	<g>
		<path style="fill:#92E3A9;" d="M183.796,427.259H61.755c-9.191,0-16.642-7.451-16.642-16.642V94.581
			c0-9.191,7.451-16.642,16.642-16.642h122.041c9.191,0,16.642,7.451,16.642,16.642v316.036
			C200.438,419.809,192.987,427.259,183.796,427.259z"/>
		<path style="opacity:0.8;fill:#FFFFFF;" d="M186.108,421.175H59.444c-5.872,0-10.632-4.76-10.632-10.632v-19.416
			c0-5.872,4.76-10.632,10.632-10.632h126.664c5.872,0,10.632,4.76,10.632,10.632v19.416
			C196.74,416.414,191.98,421.175,186.108,421.175z"/>
		<g>
			<path style="fill:#263238;" d="M181.698,173h-49.396c-4.033,0-7.302-3.269-7.302-7.302v-49.396c0-4.033,3.269-7.302,7.302-7.302
				h49.396c4.033,0,7.302,3.269,7.302,7.302v49.396C189,169.731,185.731,173,181.698,173z"/>
			<circle style="fill:#666666;" cx="157" cy="141" r="26"/>
			<circle style="fill:#FFFFFF;" cx="157" cy="141" r="2.944"/>
			<line style="fill:none;stroke:#FFFFFF;stroke-miterlimit:10;" x1="155.668" y1="142.285" x2="148.902" y2="151.588"/>
			<line style="fill:none;stroke:#FFFFFF;stroke-miterlimit:10;" x1="157.359" y1="142.285" x2="147.633" y2="123.679"/>
		</g>
		<path style="fill:#263238;" d="M94.013,136.333h17.333c2.761,0,5-2.238,5-5V114c0-2.761-2.239-5-5-5H94.013c-2.761,0-5,2.239-5,5
			v17.333C89.013,134.095,91.251,136.333,94.013,136.333z"/>
		<path style="fill:#263238;" d="M94.013,173h17.333c2.761,0,5-2.239,5-5v-17.333c0-2.762-2.239-5-5-5H94.013c-2.761,0-5,2.238-5,5
			V168C89.013,170.761,91.251,173,94.013,173z"/>
		<path style="fill:#263238;" d="M58,173h17.333c2.762,0,5-2.239,5-5v-17.333c0-2.762-2.238-5-5-5H58c-2.761,0-5,2.238-5,5V168
			C53,170.761,55.239,173,58,173z"/>
		<path style="fill:#263238;" d="M94.013,294.85h17.333c2.761,0,5-2.239,5-5v-17.333c0-2.761-2.239-5-5-5H94.013
			c-2.761,0-5,2.239-5,5v17.333C89.013,292.612,91.251,294.85,94.013,294.85z"/>
		<path style="fill:#263238;" d="M130.026,294.85h17.333c2.761,0,5-2.239,5-5v-17.333c0-2.761-2.239-5-5-5h-17.333
			c-2.761,0-5,2.239-5,5v17.333C125.026,292.612,127.264,294.85,130.026,294.85z"/>
		<path style="fill:#263238;" d="M166.039,294.85h17.333c2.761,0,5-2.239,5-5v-17.333c0-2.761-2.239-5-5-5h-17.333
			c-2.761,0-5,2.239-5,5v17.333C161.039,292.612,163.277,294.85,166.039,294.85z"/>
		<path style="fill:#263238;" d="M58,294.85h17.333c2.762,0,5-2.239,5-5v-17.333c0-2.761-2.238-5-5-5H58c-2.761,0-5,2.239-5,5
			v17.333C53,292.612,55.239,294.85,58,294.85z"/>
		<path style="fill:#FFFFFF;stroke:#263238;stroke-miterlimit:10;" d="M58.523,268.647c0-1.645-1.334-2.979-2.979-2.979
			c-1.645,0-2.979,1.334-2.979,2.979c0,1.645,1.334,2.979,2.979,2.979C57.19,271.625,58.523,270.292,58.523,268.647z"/>
		<path style="fill:#FFFFFF;stroke:#263238;stroke-miterlimit:10;" d="M95.459,268.647c0-1.645-1.334-2.979-2.979-2.979
			c-1.645,0-2.979,1.334-2.979,2.979c0,1.645,1.334,2.979,2.979,2.979C94.125,271.625,95.459,270.292,95.459,268.647z"/>
		<path style="fill:#FFFFFF;stroke:#263238;stroke-miterlimit:10;" d="M131.395,268.647c0-1.645-1.334-2.979-2.979-2.979
			c-1.645,0-2.979,1.334-2.979,2.979c0,1.645,1.334,2.979,2.979,2.979C130.061,271.625,131.395,270.292,131.395,268.647z"/>
		<path style="fill:#FFFFFF;stroke:#263238;stroke-miterlimit:10;" d="M168.111,268.647c0-1.645-1.334-2.979-2.979-2.979
			c-1.645,0-2.979,1.334-2.979,2.979c0,1.645,1.334,2.979,2.979,2.979C166.778,271.625,168.111,270.292,168.111,268.647z"/>
		<path style="fill:none;stroke:#263238;stroke-miterlimit:10;" d="M94.013,414.381h17.333c2.761,0,5-2.238,5-5v-17.333
			c0-2.761-2.239-5-5-5H94.013c-2.761,0-5,2.239-5,5v17.333C89.013,412.143,91.251,414.381,94.013,414.381z"/>
		<path style="fill:none;stroke:#263238;stroke-miterlimit:10;" d="M130.026,414.381h17.333c2.761,0,5-2.238,5-5v-17.333
			c0-2.761-2.239-5-5-5h-17.333c-2.761,0-5,2.239-5,5v17.333C125.026,412.143,127.264,414.381,130.026,414.381z"/>
		<path style="fill:none;stroke:#263238;stroke-miterlimit:10;" d="M166.039,414.381h17.333c2.761,0,5-2.238,5-5v-17.333
			c0-2.761-2.239-5-5-5h-17.333c-2.761,0-5,2.239-5,5v17.333C161.039,412.143,163.277,414.381,166.039,414.381z"/>
		<path style="fill:none;stroke:#263238;stroke-miterlimit:10;" d="M58,414.381h17.333c2.762,0,5-2.238,5-5v-17.333
			c0-2.761-2.238-5-5-5H58c-2.761,0-5,2.239-5,5v17.333C53,412.143,55.239,414.381,58,414.381z"/>
		<path style="fill:#FFFFFF;stroke:#263238;stroke-miterlimit:10;" d="M58.523,387.496c0-1.645-1.334-2.979-2.979-2.979
			c-1.645,0-2.979,1.334-2.979,2.979c0,1.645,1.334,2.979,2.979,2.979C57.19,390.475,58.523,389.141,58.523,387.496z"/>
		<path style="fill:#FFFFFF;stroke:#263238;stroke-miterlimit:10;" d="M95.459,387.496c0-1.645-1.334-2.979-2.979-2.979
			c-1.645,0-2.979,1.334-2.979,2.979c0,1.645,1.334,2.979,2.979,2.979C94.125,390.475,95.459,389.141,95.459,387.496z"/>
		<path style="fill:#FFFFFF;stroke:#263238;stroke-miterlimit:10;" d="M131.395,387.496c0-1.645-1.334-2.979-2.979-2.979
			c-1.645,0-2.979,1.334-2.979,2.979c0,1.645,1.334,2.979,2.979,2.979C130.061,390.475,131.395,389.141,131.395,387.496z"/>
		<path style="fill:#FFFFFF;stroke:#263238;stroke-miterlimit:10;" d="M168.111,387.496c0-1.645-1.334-2.979-2.979-2.979
			c-1.645,0-2.979,1.334-2.979,2.979c0,1.645,1.334,2.979,2.979,2.979C166.778,390.475,168.111,389.141,168.111,387.496z"/>
		<path style="fill:#263238;" d="M94.013,339.98h17.333c2.761,0,5-2.239,5-5v-17.333c0-2.761-2.239-5-5-5H94.013
			c-2.761,0-5,2.239-5,5v17.333C89.013,337.741,91.251,339.98,94.013,339.98z"/>
		<path style="fill:#263238;" d="M130.026,339.98h17.333c2.761,0,5-2.239,5-5v-17.333c0-2.761-2.239-5-5-5h-17.333
			c-2.761,0-5,2.239-5,5v17.333C125.026,337.741,127.264,339.98,130.026,339.98z"/>
		<path style="fill:#263238;" d="M166.039,339.98h17.333c2.761,0,5-2.239,5-5v-17.333c0-2.761-2.239-5-5-5h-17.333
			c-2.761,0-5,2.239-5,5v17.333C161.039,337.741,163.277,339.98,166.039,339.98z"/>
		<path style="fill:#263238;" d="M58,339.98h17.333c2.762,0,5-2.239,5-5v-17.333c0-2.761-2.238-5-5-5H58c-2.761,0-5,2.239-5,5
			v17.333C53,337.741,55.239,339.98,58,339.98z"/>
		<path style="fill:#FFFFFF;stroke:#263238;stroke-miterlimit:10;" d="M58.523,314.998c0-1.645-1.334-2.979-2.979-2.979
			c-1.645,0-2.979,1.334-2.979,2.979c0,1.645,1.334,2.979,2.979,2.979C57.19,317.977,58.523,316.643,58.523,314.998z"/>
		<path style="fill:#FFFFFF;stroke:#263238;stroke-miterlimit:10;" d="M95.459,314.998c0-1.645-1.334-2.979-2.979-2.979
			c-1.645,0-2.979,1.334-2.979,2.979c0,1.645,1.334,2.979,2.979,2.979C94.125,317.977,95.459,316.643,95.459,314.998z"/>
		<path style="fill:#FFFFFF;stroke:#263238;stroke-miterlimit:10;" d="M131.395,314.998c0-1.645-1.334-2.979-2.979-2.979
			c-1.645,0-2.979,1.334-2.979,2.979c0,1.645,1.334,2.979,2.979,2.979C130.061,317.977,131.395,316.643,131.395,314.998z"/>
		<path style="fill:#FFFFFF;stroke:#263238;stroke-miterlimit:10;" d="M168.111,314.998c0-1.645-1.334-2.979-2.979-2.979
			c-1.645,0-2.979,1.334-2.979,2.979c0,1.645,1.334,2.979,2.979,2.979C166.778,317.977,168.111,316.643,168.111,314.998z"/>
		<g>
			<path style="fill:#263238;" d="M58,136.333h17.333c2.762,0,5-2.238,5-5V114c0-2.761-2.238-5-5-5H58c-2.761,0-5,2.239-5,5v17.333
				C53,134.095,55.239,136.333,58,136.333z"/>
			<path style="fill:#FFFFFF;stroke:#263238;stroke-miterlimit:10;" d="M58.523,147.123c0-1.645-1.334-2.979-2.979-2.979
				c-1.645,0-2.979,1.334-2.979,2.979s1.334,2.979,2.979,2.979C57.19,150.102,58.523,148.768,58.523,147.123z"/>
			<circle style="fill:#FFFFFF;stroke:#263238;stroke-miterlimit:10;" cx="92.48" cy="147.123" r="2.979"/>
			<path style="fill:#FFFFFF;stroke:#263238;stroke-miterlimit:10;" d="M58.523,110.28c0-1.645-1.334-2.979-2.979-2.979
				c-1.645,0-2.979,1.334-2.979,2.979c0,1.645,1.334,2.979,2.979,2.979C57.19,113.258,58.523,111.925,58.523,110.28z"/>
			<circle style="fill:#FFFFFF;stroke:#263238;stroke-miterlimit:10;" cx="92.48" cy="110.28" r="2.979"/>
			<path style="fill:none;stroke:#FFFFFF;stroke-miterlimit:10;" d="M61.171,131.333h10.992c1.751,0,3.171-1.42,3.171-3.171v-10.992
				c0-1.751-1.42-3.171-3.171-3.171H61.171C59.42,114,58,115.42,58,117.171v10.992C58,129.914,59.42,131.333,61.171,131.333z"/>
			<circle style="fill:none;stroke:#FFFFFF;stroke-miterlimit:10;" cx="66.667" cy="122.667" r="5"/>
		</g>
		<g>
			<path style="fill:#263238;" d="M179.722,253.712H61.633c-4.777,0-8.65-3.873-8.65-8.65v-51.147c0-4.777,3.873-8.65,8.65-8.65
				h118.089c4.777,0,8.65,3.873,8.65,8.65v51.147C188.372,249.839,184.499,253.712,179.722,253.712z"/>
			<g>
				<path style="fill:#FFFFFF;" d="M69.109,200.814v0.569h-2.217v-0.689c0-1.887-0.719-2.996-2.396-2.996
					c-1.677,0-2.396,1.108-2.396,2.965c0,4.703,7.039,5.152,7.039,11.053c0,3.175-1.527,5.242-4.732,5.242
					c-3.205,0-4.703-2.066-4.703-5.242v-1.198h2.186v1.318c0,1.887,0.779,2.995,2.456,2.995c1.677,0,2.456-1.108,2.456-2.995
					c0-4.673-7.009-5.122-7.009-11.023c0-3.235,1.498-5.242,4.643-5.242C67.612,195.573,69.109,197.64,69.109,200.814z"/>
				<path style="fill:#FFFFFF;" d="M73.541,212.526l-0.809,4.223h-2.157l4.014-20.967h3.385l4.014,20.967h-2.336l-0.809-4.223
					H73.541z M73.841,210.519h4.673l-2.366-12.1L73.841,210.519z"/>
				<path style="fill:#FFFFFF;" d="M85.701,216.749v-18.84h-3.864v-2.127h10.034v2.127h-3.864v18.84H85.701z"/>
			</g>
			<g>
				<path style="fill:#FFFFFF;" d="M74.515,229.117c0,6.32-7.099,8.596-7.129,13.419v0.329h6.889v2.127H65.08v-1.798
					c0-6.769,7.099-8.086,7.099-13.987c0-2.157-0.719-3.295-2.456-3.295c-1.708,0-2.456,1.228-2.456,3.085v1.857H65.08v-1.708
					c0-3.205,1.468-5.332,4.703-5.332C73.047,223.815,74.515,225.912,74.515,229.117z"/>
				<path style="fill:#FFFFFF;" d="M86.286,228.997v0.659c0,2.126-0.748,3.684-2.396,4.313c1.737,0.689,2.396,2.337,2.396,4.433
					v1.558c0,3.234-1.677,5.241-4.942,5.241c-3.265,0-4.942-2.007-4.942-5.241v-1.558c0-2.126,0.659-3.714,2.426-4.433
					c-1.707-0.659-2.426-2.186-2.426-4.313v-0.659c0-3.235,1.707-5.182,4.942-5.182C84.578,223.815,86.286,225.762,86.286,228.997z
					 M78.707,229.057v1.019c0,2.037,0.988,2.936,2.636,2.936c1.647,0,2.636-0.899,2.636-2.936v-1.019
					c0-2.157-0.989-3.145-2.636-3.145C79.696,225.912,78.707,226.9,78.707,229.057z M78.707,238.133v1.768
					c0,2.156,0.959,3.175,2.636,3.175c1.678,0,2.606-1.019,2.636-3.175v-1.768c0-2.037-0.899-3.025-2.636-3.025
					S78.707,236.096,78.707,238.133z"/>
			</g>
			<line style="fill:none;stroke:#858585;stroke-miterlimit:10;" x1="137.225" y1="199.556" x2="178.594" y2="199.556"/>
			<g>
				<rect x="107.891" y="210.9" style="fill:#858585;" width="4.636" height="4.636"/>
				<rect x="118.902" y="210.9" style="fill:#858585;" width="4.636" height="4.636"/>
				<rect x="129.913" y="210.9" style="fill:#858585;" width="4.636" height="4.636"/>
				<rect x="140.924" y="210.9" style="fill:#858585;" width="4.636" height="4.636"/>
				<rect x="151.935" y="210.9" style="fill:#858585;" width="4.636" height="4.636"/>
				<rect x="162.946" y="210.9" style="fill:#858585;" width="4.636" height="4.636"/>
				<rect x="173.958" y="210.9" style="fill:#858585;" width="4.636" height="4.636"/>
			</g>
			<g>
				<rect x="107.891" y="223.563" style="fill:#858585;" width="4.636" height="4.636"/>
				<rect x="118.902" y="223.563" style="fill:#FFFFFF;" width="4.636" height="4.636"/>
				<rect x="129.913" y="223.563" style="fill:#858585;" width="4.636" height="4.636"/>
				<rect x="140.924" y="223.563" style="fill:#858585;" width="4.636" height="4.636"/>
				<rect x="151.935" y="223.563" style="fill:#858585;" width="4.636" height="4.636"/>
				<rect x="162.946" y="223.563" style="fill:#858585;" width="4.636" height="4.636"/>
				<rect x="173.958" y="223.563" style="fill:#858585;" width="4.636" height="4.636"/>
			</g>
			<g>
				<rect x="107.891" y="236.227" style="fill:#858585;" width="4.636" height="4.636"/>
				<rect x="118.902" y="236.227" style="fill:#858585;" width="4.636" height="4.636"/>
				<rect x="129.913" y="236.227" style="fill:#858585;" width="4.636" height="4.636"/>
				<rect x="140.924" y="236.227" style="fill:#858585;" width="4.636" height="4.636"/>
				<rect x="151.935" y="236.227" style="fill:#858585;" width="4.636" height="4.636"/>
				<rect x="162.946" y="236.227" style="fill:#858585;" width="4.636" height="4.636"/>
				<rect x="173.958" y="236.227" style="fill:#858585;" width="4.636" height="4.636"/>
			</g>
		</g>
		<path style="opacity:0.8;fill:#FFFFFF;" d="M143.072,370.704H97.891c-4.422,0-8.007-3.585-8.007-8.007v0
			c0-4.422,3.585-8.007,8.007-8.007h45.182c4.422,0,8.007,3.585,8.007,8.007v0C151.079,367.12,147.494,370.704,143.072,370.704z"/>
		<g>
			<path style="fill:#92E3A9;" d="M101.322,362.698c0-0.948-0.768-1.716-1.716-1.716c-0.948,0-1.716,0.768-1.716,1.716
				c0,0.947,0.768,1.716,1.716,1.716C100.554,364.413,101.322,363.645,101.322,362.698z"/>
			<path style="fill:#666666;" d="M112.188,362.698c0-0.948-0.768-1.716-1.716-1.716c-0.948,0-1.716,0.768-1.716,1.716
				c0,0.947,0.768,1.716,1.716,1.716C111.42,364.413,112.188,363.645,112.188,362.698z"/>
			<path style="fill:#666666;" d="M123.055,362.698c0-0.948-0.768-1.716-1.716-1.716c-0.948,0-1.716,0.768-1.716,1.716
				c0,0.947,0.768,1.716,1.716,1.716C122.287,364.413,123.055,363.645,123.055,362.698z"/>
			<path style="fill:#666666;" d="M133.921,362.698c0-0.948-0.768-1.716-1.716-1.716s-1.716,0.768-1.716,1.716
				c0,0.947,0.768,1.716,1.716,1.716S133.921,363.645,133.921,362.698z"/>
			<path style="fill:#666666;" d="M144.788,362.698c0-0.948-0.768-1.716-1.716-1.716c-0.948,0-1.716,0.768-1.716,1.716
				c0,0.947,0.768,1.716,1.716,1.716C144.02,364.413,144.788,363.645,144.788,362.698z"/>
		</g>
	</g>
	<path style="fill:#263238;stroke:#263238;stroke-width:1.6935;stroke-miterlimit:10;" d="M191.193,70H54.359
		c-9.191,0-16.642,7.451-16.642,16.642v331.915c0,9.191,7.451,16.642,16.642,16.642h136.834c9.191,0,16.642-7.451,16.642-16.642
		V86.642C207.835,77.451,200.384,70,191.193,70z M200.438,410.618c0,9.191-7.451,16.642-16.642,16.642H61.755
		c-9.191,0-16.642-7.451-16.642-16.642V94.581c0-9.191,7.451-16.642,16.642-16.642H84.46l1.414,6.563
		c0.85,3.946,4.339,6.763,8.376,6.763H155c4.036,0,7.525-2.817,8.375-6.763l1.414-6.563h19.007c9.191,0,16.642,7.451,16.642,16.642
		V410.618z"/>
</g>
<g id="Character">
	<g>
		<g>
			<g>
				<path style="fill:#FFFFFF;stroke:#263238;stroke-miterlimit:10;" d="M365.25,173.028l-5.75-1.75c0,0-3,6.75-3.25,8.25
					S365.25,173.028,365.25,173.028z"/>
				<path style="fill:#FFFFFF;stroke:#263238;stroke-miterlimit:10;" d="M356,173.028c0,0-4.5,1.75-4.5,2.75s1.75,6.75,2.5,6.75
					S356,173.028,356,173.028z"/>
				<path style="fill:#FFFFFF;stroke:#263238;stroke-miterlimit:10;" d="M360.5,172.778c0,0-5.25-1.5-5.75-0.5s-0.5,9-0.5,9
					s2.25-0.25,3.25-1S360.5,172.778,360.5,172.778z"/>
			</g>
			<path style="fill:#FFFFFF;stroke:#263238;stroke-miterlimit:10;" d="M384.5,196.528l-10.75-9.5c0,0-3-8.75-4.25-11.75
				s-2.5-3.5-3.25-3.25s-6.75,5.5-9,6.75s-5.75,3.75-5.75,3.75s-1,1,1.75,1s7.5-3,7.5-3s2,5.25,3.75,7s4.5,2,4.5,2l12,16.5
				L384.5,196.528z"/>
			<path style="fill:#FFFFFF;stroke:#263238;stroke-miterlimit:10;" d="M373.75,187.028c0,0-1.25-6-2.25-7.75s-5.75-1.75-9.25-2.5
				s-4.25,0.5-3.5,1.5s7.5,3,7.5,3s0.25,6.75,1.5,8s4,1.5,4,1.5"/>
		</g>
		<g>
			<path style="fill:#FFFFFF;stroke:#263238;stroke-miterlimit:10;" d="M432,291.778c0,0,4.75,45,6.5,50.75s9.75,23.25,11.5,34.75
				s6,60.336,6.75,62.586s0.75,3,0.75,3l-1.25,1.75c0,0-33.5,0.75-34.25,0s0.5-4.5,0.5-4.5s9.25-5.75,12.5-7.5s6.5-4.25,6.75-8.25
				s-2.5-18.086-6-28.836s-11.75-26.75-15.5-40.5s-17-62-17-62L432,291.778z"/>
			<g>
				<path style="fill:#92E3A9;stroke:#263238;stroke-miterlimit:10;" d="M457.5,442.864c0,0,0-0.75-0.75-3
					c-0.178-0.534-0.554-3.61-1.047-8.14c-5.991,0.661-13.203,0.39-13.203,0.39l-1-4.75l-0.602,0.013
					c-1.219,2.321-3.555,3.976-5.898,5.237c-3.25,1.75-12.5,7.5-12.5,7.5s-1.25,3.75-0.5,4.5s34.25,0,34.25,0L457.5,442.864z"/>
				<path style="fill:#FFFFFF;stroke:#263238;stroke-miterlimit:10;" d="M422,444.614c0.75,0.75,34.25,0,34.25,0l1.25-1.75
					c0,0-0.001-0.198-0.101-0.687l-35.528,0.421C421.724,443.465,421.687,444.301,422,444.614z"/>
			</g>
		</g>
		<path style="fill:#FFFFFF;stroke:#263238;stroke-miterlimit:10;" d="M388.5,296.028c0,0,2.75,16.5,5,25.25s7,28,7,28
			s0.5,21.5,1,29.75s3,30.75,3.5,33.5s0.25,12,0.25,12s-4,4.5-11.5,8.5c-9.001,4.801-15.25,7.25-16.5,8s0.5,3.25,1.75,3.75
			s37.5,0,37.5,0s2.5-0.25,2-6.25s1-33.25,1-37.25s6-29.25,4.25-43s-2.5-16.5-2.5-16.5l-0.75-46.25l-32.75-1.5L388.5,296.028z"/>
		<g>
			<path style="fill:#92E3A9;stroke:#263238;stroke-miterlimit:10;" d="M406.25,431.528c0,0,0-1.75-1-3.75s-1.75-1.5-1.75-1.5
				l-0.045,0.004c-1.855,1.677-5.123,4.302-9.705,6.746c-9.001,4.801-15.25,7.25-16.5,8s0.5,3.25,1.75,3.75s37.5,0,37.5,0
				s2.5-0.25,2-6.25c-0.117-1.408-0.124-3.995-0.066-7.168C412.373,431.98,406.25,431.528,406.25,431.528z"/>
			<path style="fill:#FFFFFF;stroke:#263238;stroke-miterlimit:10;" d="M416.5,444.778c0,0,1.409-0.141,1.9-2.75h-41.561
				c0.136,1.03,1.272,2.394,2.161,2.75C380.25,445.278,416.5,444.778,416.5,444.778z"/>
		</g>
		<g>
			<polygon style="fill:#8C8C8C;stroke:#263238;stroke-miterlimit:10;" points="434.25,274.278 437,293.028 426.5,293.528 			"/>
			<path style="fill:#8C8C8C;stroke:#263238;stroke-miterlimit:10;" d="M394,232.528c0,0-6.25,11.25-9.5,31.75s-1.75,27-1.75,27
				s9.5,3.5,22,4.5s24.75-1.5,24.75-1.5s4-11.75,6.25-16.75s6.25-15,4.25-26.5s-5-18-5-18L394,232.528z"/>
			<path style="fill:#FFFFFF;stroke:#263238;stroke-miterlimit:10;" d="M383,289.278h-3.25v3l0.25,1.75l1.25,0.75v3
				c0,0,2-0.25,3-0.25s2,1,2,1l1.25-0.75l1.75,2l1.25-0.5c0,0,0.5,4,2,2.25s2-2.75,3-2.75s2.5,0.25,2.5,0.25s0.75-2.5,3.25-0.25
				s2.5,2.25,2.5,2.25l2-1l2.5,1l1.5-0.5H412c0,0,5,2.25,5.25,1.5s0.75-2,0.75-2l1.5,0.25c0,0,0.5-0.5,1.5-0.5s2,1.25,3.5,0
				s2.75-0.75,2.75-0.75l1.5-0.5l2.25-0.25l-0.25-2.75l3.25,1.75l2-2l1-2.25l-4.072-0.996l-3.428-0.004l-2,0.75l-1,0.75l-3.5-0.75
				h-1.25h-1.5l-6,2.25h-1.75c-3.5-1.75-3.75-1.5-5.5-1.5s-3.5,0.5-3.5,0.5l-2.75,0.25l-2-0.25c0,0-1-0.75-2-1s-3.25-0.25-3.25-0.25
				s1.75,1.5-1.75-0.75s-4.25-2.25-5.5-2.25s-2,0.5-2,0.5L383,289.278z"/>
			<path style="fill:none;stroke:#263238;stroke-miterlimit:10;" d="M401.184,245.141c0.27,1.887,0.754,3.824,1.566,5.637
				c3.25,7.25,10,8.75,10,8.75"/>
			<path style="fill:none;stroke:#263238;stroke-miterlimit:10;" d="M401.5,234.278c0,0-0.769,3.555-0.579,7.985"/>
			<path style="fill:none;stroke:#263238;stroke-miterlimit:10;" d="M408.036,289.554c-0.19,1.494-0.286,2.224-0.286,2.224"/>
			<path style="fill:none;stroke:#263238;stroke-miterlimit:10;" d="M417,234.778c0,0-5.5,26.75-7,39
				c-0.711,5.804-1.253,10.149-1.627,13.114"/>
			<path style="fill:none;stroke:#263238;stroke-miterlimit:10;" d="M391.812,253.798c-1.583,8.018-2.881,16.313-2.312,19.73
				c1.25,7.5,18,8,18.75,7.75"/>
			<path style="fill:none;stroke:#263238;stroke-miterlimit:10;" d="M396,235.028c0,0-1.691,6.762-3.365,14.734"/>
			<polyline style="fill:none;stroke:#263238;stroke-miterlimit:10;" points="436.75,242.528 421.5,244.528 421.75,246.028 
				436.25,244.778 			"/>
		</g>
		<path style="fill:#92E3A9;stroke:#263238;stroke-miterlimit:10;" d="M395.75,199.028L376,188.778l-5.5,13.75
			c0,0,21.5,16.75,23,17.5S395.75,199.028,395.75,199.028z"/>
		<path style="fill:#92E3A9;stroke:#263238;stroke-miterlimit:10;" d="M407,164.028c0,0-13.25,31.75-14.5,46.25
			s-1.25,24.5-1.25,24.5l46-0.25c0,0,5.75-33.5,7.5-53.5s-8.75-25.5-19.25-25.5S409.25,158.778,407,164.028z"/>
		<g>
			<path style="fill:#263238;stroke:#263238;stroke-linecap:round;stroke-linejoin:round;stroke-miterlimit:10;" d="
				M372.998,117.589c0,0-9.081-3.345-11.709,2.629c-2.629,5.974,9.081,16.728,16.967,16.728c7.886,0,7.647-13.86,4.54-17.445
				C379.689,115.916,372.998,117.589,372.998,117.589z"/>
			<g>
				<path style="fill:#FFFFFF;stroke:#263238;stroke-linecap:round;stroke-linejoin:round;stroke-miterlimit:10;" d="
					M378.256,123.085c0,0-1.434,7.408-0.478,11.47c0.956,4.062,3.585,5.018,3.585,7.169s-2.39,3.823-1.434,5.974
					c1.413,3.18,3.824,2.868,3.824,2.868s6.691,8.842,9.798,9.081c3.107,0.239,7.886-3.585,7.886-3.585l5.257,8.842
					c0,0,7.408-12.426,2.39-22.941c-5.018-10.514-11.709-13.382-18.161-15.294C384.469,124.758,378.256,123.085,378.256,123.085z"/>
				<path style="fill:#263238;" d="M384.896,139.491c-0.586-1.066-0.664-2.148-0.174-2.417c0.49-0.269,1.362,0.377,1.947,1.443
					s0.664,2.148,0.174,2.417C386.353,141.203,385.481,140.557,384.896,139.491z"/>
				<path style="fill:none;stroke:#263238;stroke-linecap:round;stroke-linejoin:round;stroke-miterlimit:10;" d="M388.122,150.23
					c0,0,2.214,0.164,4.182-1.23c1.968-1.394,1.558-3.772,1.558-3.772"/>
				<path style="fill:none;stroke:#263238;stroke-linecap:round;stroke-linejoin:round;stroke-miterlimit:10;" d="M380.987,135.633
					c0,0-0.328-2.46,2.296-2.952c2.624-0.492,3.772,0.492,3.772,0.492"/>
			</g>
			<g>
				<path style="fill:#263238;stroke:#263238;stroke-linecap:round;stroke-linejoin:round;stroke-miterlimit:10;" d="
					M374.432,119.979c0,0,7.886,7.647,14.338,9.32c6.452,1.673,8.842,2.629,8.842,2.629s12.187,14.338,9.798,21.985
					c-2.39,7.647-4.062,10.514-3.823,13.86c0.239,3.345,3.823,4.779,0.956,7.408c-2.868,2.629-4.062,1.195-4.062,1.195
					s3.346,2.629,6.93,2.629c3.585,0,5.257-5.735,8.364-11.47c3.107-5.735,3.345-7.886,9.081-7.169
					c5.735,0.717,13.621,12.187,14.816,19.117c1.195,6.93,2.151,20.551,2.151,20.551s4.062-1.673,10.992-6.452
					c6.93-4.779,7.169-15.533,5.257-24.374c-1.912-8.842-10.514-16.728-16.728-24.852s-11.948-20.551-19.117-34.172
					c-7.169-13.621-15.055-16.25-25.808-12.665c-10.753,3.585-20.312,11.47-20.312,11.47s-5.018-3.824-9.081,0.956
					C362.962,114.721,374.432,119.979,374.432,119.979z"/>
				<g>
					<path style="fill:none;stroke:#8C8C8C;stroke-miterlimit:10;" d="M422.422,152.512c0.32,2.014,0.161,3.515-0.096,4.029"/>
					<path style="fill:none;stroke:#8C8C8C;stroke-miterlimit:10;" d="M400.919,132.458c0,0,7.359,2.007,14.718,8.362
						c3.5,3.022,5.335,6.423,6.225,9.303"/>
					<path style="fill:none;stroke:#8C8C8C;stroke-miterlimit:10;" d="M449.531,186.779c-0.399,1.109-0.888,2.174-1.449,3.211"/>
					<path style="fill:none;stroke:#8C8C8C;stroke-miterlimit:10;" d="M392.493,121.893c1.576,0.807,3.374,1.56,5.415,2.202
						c11.707,3.679,29.101,10.035,41.812,29.101c9.326,13.988,11.809,22.935,10.753,29.879"/>
					<path style="fill:none;stroke:#8C8C8C;stroke-miterlimit:10;" d="M382.521,113.057c0,0,1.822,3.645,6.983,7.087"/>
				</g>
			</g>
		</g>
		<g>
			<path style="fill:#92E3A9;stroke:#263238;stroke-miterlimit:10;" d="M358.913,196.127l-0.724,0.436
				c-0.36,0.217-0.828,0.101-1.045-0.259l-17.092-28.365c-0.217-0.36-0.101-0.828,0.259-1.045l0.724-0.436
				c0.36-0.217,0.828-0.101,1.045,0.259l17.091,28.365C359.39,195.442,359.274,195.91,358.913,196.127z"/>
			<g>
				<path style="fill:#FFFFFF;stroke:#263238;stroke-miterlimit:10;" d="M364.75,202.778l-3.75-4.25c0,0-0.25-1.75-3-6
					s-5.5-5-6.75-7.25s-2.5-5.25-3.75-5.25s-1.25,0-1.25,0s-2.25-0.75-3,1.75s-2.5,5.75-1.5,7.25s1.75,7.25,2.5,10
					s12.5,6.75,12.5,6.75l7.25,3.75L364.75,202.778z"/>
				<path style="fill:#FFFFFF;stroke:#263238;stroke-miterlimit:10;" d="M346.25,180.028c0,0-1.5,1.25,0.25,4s2.75,6.25,4,8.5"/>
			</g>
		</g>
		<path style="fill:#92E3A9;stroke:#263238;stroke-miterlimit:10;" d="M421.5,165.528c0,0-7.25,0.25-12.5,9.25s-11.5,44-11.5,44
			l-34.75-18.5l-2.25,19.75c0,0,12.5,7.75,20,10.75s23.928,5.445,27.178,5.445s9.421-6.11,10.671-8.86S430,185.278,430,185.278"/>
	</g>
</g>
<g id="Floor">
	<g>
		<line style="fill:none;stroke:#263238;stroke-miterlimit:10;" x1="278.555" y1="445" x2="484" y2="445"/>
		<line style="fill:none;stroke:#263238;stroke-miterlimit:10;" x1="29.179" y1="445" x2="269.723" y2="445"/>
		<line style="fill:none;stroke:#263238;stroke-miterlimit:10;" x1="17" y1="445" x2="22.944" y2="445"/>
	</g>
</g>
</svg>
