<?xml version="1.0" encoding="utf-8"?>
<!-- Generator: Adobe Illustrator 27.5.0, SVG Export Plug-In . SVG Version: 6.00 Build 0)  -->
<svg version="1.1" xmlns="http://www.w3.org/2000/svg" xmlns:xlink="http://www.w3.org/1999/xlink" x="0px" y="0px"
	 viewBox="0 0 500 500" style="enable-background:new 0 0 500 500;" xml:space="preserve">
<g id="Background_Simple">
	<g>
		<path style="fill:#92E3A9;" d="M455.216,215.093c26.194-72.073-18.006-158.774-92.354-182.07
			c-43.306-13.57-92.987-17.175-141.92-10.282C117.896,37.257,113.576,138.869,86.426,163.668
			c-27.15,24.798-72.194,54.435-68.492,127.016s40.108,82.258,84.535,118.548c44.427,36.29,50.598,69.556,147.473,69.556
			c96.876,0,128.345-18.145,150.559-38.71c22.214-20.564,63.556-62.298,74.662-114.919c11.107-52.621-32.086-58.669-24.682-94.354
			C451.493,225.932,453.183,220.686,455.216,215.093z"/>
		<path style="opacity:0.7;fill:#FFFFFF;" d="M455.216,215.093c26.194-72.073-18.006-158.774-92.354-182.07
			c-43.306-13.57-92.987-17.175-141.92-10.282C117.896,37.257,113.576,138.869,86.426,163.668
			c-27.15,24.798-72.194,54.435-68.492,127.016s40.108,82.258,84.535,118.548c44.427,36.29,50.598,69.556,147.473,69.556
			c96.876,0,128.345-18.145,150.559-38.71c22.214-20.564,63.556-62.298,74.662-114.919c11.107-52.621-32.086-58.669-24.682-94.354
			C451.493,225.932,453.183,220.686,455.216,215.093z"/>
	</g>
</g>
<g id="Mural">
	<g>
		<g>
			<path style="fill:none;stroke:#B2B2B2;stroke-miterlimit:10;" d="M200.448,294.917c0,0-114.462-56.852-112.946-81.867
				c1.516-25.015,63.674-4.548,63.674-4.548s-68.223-37.902-59.884-61.4s46.24,5.306,46.24,5.306s-44.724-64.432-16.677-76.561
				c28.047-12.128,56.852,94.754,56.852,94.754s-3.032-47.756,37.143-40.175c40.176,7.58-1.516,93.238-1.516,93.238
				s14.403-32.595,34.869-27.289C268.67,201.68,200.448,294.917,200.448,294.917z"/>
			<path style="fill:#FFFFFF;stroke:#B2B2B2;stroke-miterlimit:10;" d="M248.203,196.373c-17.976-4.66-31.27,19.91-34.241,25.961
				c5.049-10.822,38.118-84.885,0.887-91.91c-40.176-7.58-37.143,40.175-37.143,40.175s-28.805-106.882-56.852-94.754
				c-0.299,0.129-0.578,0.272-0.86,0.413c50.853,89.793,80.454,218.657,80.454,218.657S268.67,201.68,248.203,196.373z"/>
		</g>
		<g>
			<path style="fill:none;stroke:#B2B2B2;stroke-miterlimit:10;" d="M415.206,432.611c0,0-28.045-49.928-21.173-58.808
				c6.872-8.881,24.727,14.379,24.727,14.379s-15.702-31.245-6.687-37.844c9.016-6.598,15.784,13.63,15.784,13.63
				s-0.308-35.142,13.138-32.558c13.446,2.584-2.85,49.43-2.85,49.43s10.924-18.449,23.889-5.507
				c12.965,12.942-24.082,34.144-24.082,34.144s13.556-8.437,19.796-1.309C463.99,415.295,415.206,432.611,415.206,432.611z"/>
			<path style="fill:#FFFFFF;stroke:#B2B2B2;stroke-miterlimit:10;" d="M457.75,408.167c-5.481-6.26-16.602-0.515-19.229,0.976
				c4.6-2.734,35.529-21.818,23.514-33.811c-12.965-12.942-23.889,5.507-23.889,5.507s16.296-46.846,2.85-49.43
				c-0.143-0.027-0.283-0.045-0.423-0.064c-3.82,46.079-25.367,101.266-25.367,101.266S463.99,415.295,457.75,408.167z"/>
		</g>
		<g>
			<path style="fill:none;stroke:#B2B2B2;stroke-miterlimit:10;" d="M216.578,456.787c0,0-83.819-5.939-89.154-21.529
				c-5.335-15.59,37.58-18.692,37.58-18.692s-50.963-5.982-51.77-22.356c-0.807-16.374,29.443-8.339,29.443-8.339
				s-43.31-27.992-29.29-42.382c14.02-14.39,58.269,43.395,58.269,43.395s-13.789-28.28,12.536-33.719
				c26.325-5.44,22.399,57.072,22.399,57.072s0.605-23.422,14.377-25.315C234.74,383.03,216.578,456.787,216.578,456.787z"/>
			<path style="fill:#FFFFFF;stroke:#B2B2B2;stroke-miterlimit:10;" d="M220.968,384.923c-12.096,1.662-14.034,19.928-14.327,24.35
				c0.363-7.844,1.946-61.148-22.449-56.108c-26.325,5.44-12.536,33.719-12.536,33.719s-44.249-57.785-58.269-43.395
				c-0.149,0.153-0.283,0.31-0.42,0.467c53.38,41.879,103.611,112.831,103.611,112.831S234.74,383.03,220.968,384.923z"/>
		</g>
		<path style="fill:#92E3A9;stroke:#B2B2B2;stroke-miterlimit:10;" d="M249.78,379.29c4.24-6.28,4.24-11.79,1.59-16.83
			c-6.67,4.3-14.99,9.46-22.62,13.61c-1.71,0.93-3.39,1.81-5.01,2.62c-16.96,8.48-60.56,8.48-67.83-25.44
			c-7.27-33.91,15.75-40.57,19.38-56.32c1.01-4.36,0.52-10.16-0.69-16.26c-10.68-24.43-13.38-50.16-9.6-61.86
			c6.66-20.59,25.43-33.31,44.81-32.1c16.32,1.02,50.27,9.7,57.53,10.3c7.27,0.61,26.04-1.21,26.04-1.21s33.92,5.45,55.72-6.06
			c21.8-11.51,56.32-15.14,67.83,4.84c11.5,19.99,6.66,31.5-4.24,54.51s7.87,28.46,12.11,53.29c3.09,18.12-13.16,29.79-22.17,34.77
			c-3.34,1.85-5.69,2.78-5.69,2.78l-23.62-6.06l-8.47,30.28c0,0,18.16,10.91,44.81,36.34c17.27,16.49,32.51,37.81,41.09,50.77
			c4.66,7.04,7.36,11.61,7.36,11.61h-259.2c0,0,3.97-6.83,9.86-16.8C220.24,426.65,238.98,395.3,249.78,379.29z"/>
		<path style="fill:#FFFFFF;stroke:#B2B2B2;stroke-miterlimit:10;" d="M450.75,451.26c-9.87,1.67-23.82,3.22-36.05,1.52
			c-21.77-3.02-6.65-22.38-2.42-33.27c4.24-10.88-30.24,10.89-39.31,4.24c-9.07-6.66,14.52-27.83,9.07-39.32
			c-5.44-11.49-26.61,0-36.89-9.67c-10.29-9.68,10.88-18.15,13.91-24.2c3.02-6.05-28.73-13.05-24.8-33.26
			c3.93-20.22,19.96,7.25,23.59,1.21c3.63-6.05-20.57-19.36-19.36-34.48c1.21-15.12,18.15-5.44,18.15-5.44s11.49,31.45,35.68,52.01
			c2.92,2.48,6.42,4.65,10.31,6.55c-3.34,1.85-5.69,2.78-5.69,2.78l-23.62-6.06l-8.47,30.28c0,0,18.16,10.91,44.81,36.34
			C426.93,416.98,442.17,438.3,450.75,451.26z"/>
		<path style="fill:#FFFFFF;stroke:#B2B2B2;stroke-miterlimit:10;" d="M285.87,386.25c-9.67,7.86-32.66-5.45-27.82,10.28
			c4.84,15.73,20.18,28.73,5.25,32.51c-14.93,3.78-23.39-12.55-27.63-2.87c-4.23,9.67,8.47,19.35,1.21,25.4
			c-4.38,3.65-17.32-1.5-28.11-5.5c11.47-19.42,30.21-50.77,41.01-66.78c4.24-6.28,4.24-11.79,1.59-16.83
			c-6.67,4.3-14.99,9.46-22.62,13.61c4.88-10.65,7.32-24.98,1.48-43.05c0,0-8.79-49.3-0.61-55.64c8.19-6.34,8.47,32.05,14.52,31.45
			c6.05-0.61,1.21-26.01,18.75-20.57c17.54,5.45-9.07,27.83-4.24,37.5c4.84,9.68,32.06-20.56,38.11-1.81
			c6.05,18.75-27.82,32.66-22.38,38.71C279.82,368.71,295.55,378.38,285.87,386.25z"/>
		<path style="fill:#757575;stroke:#B2B2B2;stroke-miterlimit:10;" d="M267.06,462.869c12.85-27.66,48.03-106.16,42.07-123.55
			c-7.27-21.19-43.6-95.68-43.6-95.68l58.74-7.27c0,0-4.24,53.29,6.06,101.14c8.2,38.14,42.21,101.32,55.65,125.36H267.06z"/>
		<g>
			<path style="fill:#FFFFFF;stroke:#B2B2B2;stroke-miterlimit:10;" d="M395.003,308.773c0,0,7.368,1.316,11.579,0.263
				c4.211-1.053,6.316,0,11.842,0.263c5.526,0.263,11.579-3.684,12.369-0.789c0.789,2.895-0.263,5.789-5.79,8.158
				s-4.211,2.368-15,1.842C399.214,317.984,388.161,310.352,395.003,308.773z"/>
			<g>
				<path style="fill:#FFFFFF;stroke:#B2B2B2;stroke-miterlimit:10;" d="M335.171,341.746c0,0,16.957,3.634,22.407,2.422
					c5.45-1.211,23.013-4.845,23.013-4.845l6.662,4.239l11.507,15.746c0,0,10.901,8.479,15.746,7.267
					c4.845-1.211-2.422-5.451-7.267-10.295c-4.845-4.845-10.295-16.351-10.295-16.351s15.746,13.323,17.563,15.746
					c1.817,2.422,6.056,7.873,10.295,10.901c4.239,3.028,8.782,1.989,7.571-0.434c-1.211-2.422-4.543-9.862-5.754-11.679
					c-1.211-1.817-20.591-19.379-20.591-19.379l12.112,4.845c0,0,12.964,15.924,22.654,14.108
					c4.533-0.85-13.57-18.952-16.598-20.769c-3.028-1.817-12.718-10.295-12.718-10.295l17.563,4.239c0,0,5.726,5.639,7.543,8.667
					c1.817,3.028,8.203,4.051,6.386-0.189c-1.817-4.239-9.084-16.957-11.507-18.168c-2.422-1.211-4.239-0.606-16.351-3.028
					s-37.547-13.929-42.998-10.295c-5.45,3.634-32.097,18.774-32.097,18.774s-23.619,4.845-75.095,4.845
					c-51.476,0-58.138-3.028-72.067,6.056c-13.929,9.084-16.957,38.759,22.407,41.181
					C254.626,377.477,335.171,341.746,335.171,341.746z"/>
			</g>
		</g>
		<g>
			<path style="fill:#757575;stroke:#B2B2B2;stroke-miterlimit:10;" d="M321.97,50c0,0-62.377-36.336-72.067-26.647
				s1.817,15.746-1.211,23.619c-3.028,7.873-39.364,50.265-52.082,69.645c-12.718,19.379,14.002,44.452,63.02,58.563
				c49.017,14.11,101.059,1.813,108.997-10.512c22.426-34.819-30.91-61.98-29.093-77.12S334.688,59.084,321.97,50z"/>
			<path style="fill:#FFFFFF;stroke:#B2B2B2;stroke-miterlimit:10;" d="M301.257,120.7c0,0-7.267,41.181-1.817,62.983
				c3.186,12.743,13.422,22.232,21.332,32.159c7.451,9.35,9.63,22.865,4.872,33.929c-4.59,10.671-14.62,15.913-26.042,15.538
				c-23.977-0.787-57.52-20.984-44.372-48.924c9.69-20.591,15.14-46.026,15.14-56.321
				C270.371,149.769,297.018,109.799,301.257,120.7z"/>
			<path style="fill:#FFFFFF;stroke:#B2B2B2;stroke-miterlimit:10;" d="M320.031,139.474c0,0-13.323,6.056-18.168,9.69
				c-4.845,3.634-12.718,4.239-15.14,10.295c-2.422,6.056-1.211,18.168-3.634,25.435c-2.422,7.267,6.056,0,7.267-4.239
				c1.211-4.239,1.817-10.901,3.634-13.929c1.817-3.028,10.901-7.267,10.901-7.267s-3.028,5.451-4.845,12.112
				c-1.817,6.662-6.056,19.985-7.267,21.802c-1.211,1.817,4.239,3.028,6.662-0.606c2.422-3.634,7.873-17.563,8.478-19.379
				c0.606-1.817,9.69-15.746,9.69-15.746s-4.239,13.323-4.845,20.591c-0.606,7.267-5.451,16.351-0.606,13.929
				c4.845-2.422,7.873-7.267,8.478-10.295c0.606-3.028,4.845-20.591,4.845-20.591l6.662-5.45c0,0-1.211,8.479-3.634,16.351
				c-2.422,7.873-5.45,10.295-3.028,10.901c2.422,0.606,8.478-5.45,9.69-9.69c1.211-4.239,0.302-12.133,4.239-14.535
				c3.032-1.849,11.55-8.454,14.534-19.379c2.302-8.425,4.845-7.267,4.845-7.267s-0.606,38.759-3.028,67.828
				c-2.422,29.069-12.112,84.179-6.662,96.897c5.45,12.718,32.703,21.802,44.209,2.422c11.507-19.379,4.845-41.181-5.451-85.996
				c-10.295-44.815-17.563-97.502-23.619-100.53C358.184,109.799,347.283,111.01,320.031,139.474z"/>
		</g>
		<g>
			<g>
				<path style="fill:#FFFFFF;stroke:#B2B2B2;stroke-miterlimit:10;" d="M313.58,108.979c0,32.57-16.95,59.06-38.03,59.73
					c-0.27,0.02-0.55,0.02-0.83,0.02c-21.47,0-38.87-26.75-38.87-59.75c0-32.99,17.4-59.74,38.87-59.74
					C296.18,49.239,313.58,75.989,313.58,108.979z"/>
				<path style="fill:#92E3A9;stroke:#B2B2B2;stroke-miterlimit:10;" d="M275.55,168.709c-0.27,0.02-0.55,0.02-0.83,0.02
					c-21.47,0-38.87-26.75-38.87-59.75c0-32.99,17.4-59.74,38.87-59.74c0,0-11.01,8.48-15.25,24.22
					c-4.24,15.75-4.24,55.11-4.24,55.11l15.75,1.21C270.98,129.779,272.79,152.879,275.55,168.709z"/>
				<path style="fill:#757575;stroke:#B2B2B2;stroke-miterlimit:10;" d="M274.611,100.425c0,0-6.859-6.445-6.348-11.332
					c0.512-4.887,11.258-10.997,20.981-9.164c9.723,1.833,21.536,12.279,11.408,20.496
					C290.524,108.642,274.611,100.425,274.611,100.425z"/>
				<path style="fill:#92E3A9;stroke:#B2B2B2;stroke-miterlimit:10;" d="M274.611,101.018c0,0-6.859-5.399-6.348-9.493
					c0.512-4.094,11.258-9.211,20.981-7.676c9.723,1.535,21.536,10.285,11.408,17.168
					C290.524,107.901,274.611,101.018,274.611,101.018z"/>
				<path style="fill:#FFFFFF;stroke:#B2B2B2;stroke-miterlimit:10;" d="M300.652,101.018c0,0-5.829,6.359-13.021,6.359
					c-7.191,0-13.021-6.359-13.021-6.359s5.829-6.359,13.021-6.359C294.822,94.659,300.652,101.018,300.652,101.018z"/>
			</g>
			<g>
				<path style="fill:#FFFFFF;stroke:#B2B2B2;stroke-miterlimit:10;" d="M320.722,98.809c0,0,7.658-51.865,17.608-54.447
					c9.951-2.582,9.852,24.263,9.852,24.263s6.131-31.422,16.356-31.151c10.225,0.272,3.796,18.712,3.796,18.712
					s19.462-25.621,27.751-16.218s-29.752,34.199-29.752,34.199s18.245-7.241,20.385,9.393c2.14,16.634-36.565,11.237-36.565,11.237
					s14.543,1.483,15.069,10.141C365.75,113.595,320.722,98.809,320.722,98.809z"/>
				<path style="fill:#92E3A9;stroke:#B2B2B2;stroke-miterlimit:10;" d="M365.223,104.937c-0.462-7.604-11.734-9.673-14.472-10.064
					c4.863,0.597,37.95,4.101,35.967-11.314c-2.14-16.634-20.385-9.393-20.385-9.393s38.041-24.796,29.752-34.199
					c-0.088-0.1-0.18-0.191-0.271-0.283c-28.577,31.229-75.093,59.125-75.093,59.125S365.75,113.595,365.223,104.937z"/>
			</g>
		</g>
	</g>
</g>
<g id="Plant_1_">
	<g>
		<path style="fill:#263238;" d="M460.31,429.779c0.022,0.014,0.455-1.664,0.47-1.773c0.175-1.262-0.228-3.803-1.513-4.423
			c-0.926-0.447-1.96,0.091-2.297,1.018c-0.344,0.947,0.093,2.108,0.61,2.906C458.188,428.444,460.308,429.777,460.31,429.779z"/>
		<path style="fill:#263238;" d="M434.979,429.236c1.024,0.447,3.528,0.39,3.53,0.39c0.026-0.001-0.539-1.639-0.586-1.739
			c-0.55-1.149-2.288-3.047-3.702-2.855c-1.019,0.138-1.585,1.158-1.354,2.116C433.102,428.127,434.107,428.855,434.979,429.236z"/>
		<path style="fill:#263238;" d="M435.846,436.489c1.062,0.154,3.297-0.494,3.474-0.547c0.353,1.251,0.817,2.506,1.357,3.75
			c0.307,0.712,0.639,1.419,0.981,2.124c-0.204-0.299-0.389-0.564-0.418-0.598c-0.834-0.963-3.012-2.334-4.325-1.776
			c-0.946,0.402-1.223,1.535-0.747,2.399c0.485,0.883,1.647,1.319,2.589,1.456c0.956,0.139,2.872-0.376,3.377-0.519
			c0.134,0.269,0.265,0.539,0.4,0.808c0.648,1.288,1.299,2.571,1.9,3.849c0.212,0.45,0.404,0.901,0.598,1.352
			c-0.182-0.265-0.337-0.487-0.363-0.518c-0.834-0.963-3.011-2.334-4.325-1.776c-0.946,0.402-1.223,1.535-0.747,2.399
			c0.485,0.882,1.647,1.319,2.589,1.455c0.912,0.133,2.685-0.327,3.286-0.494c0.185,0.468,0.371,0.935,0.528,1.397
			c0.101,0.317,0.22,0.616,0.303,0.941c0.089,0.319,0.178,0.636,0.265,0.949c0.146,0.61,0.301,1.238,0.429,1.836
			c0.092,0.415,0.172,0.813,0.254,1.213c-0.206-0.451-0.627-1.324-0.671-1.393c-0.678-1.079-2.623-2.764-4.005-2.411
			c-0.996,0.254-1.441,1.332-1.102,2.258c0.346,0.946,1.428,1.553,2.338,1.831c1.002,0.306,3.22,0.025,3.497-0.012
			c0.133,0.663,0.256,1.309,0.363,1.92c0.373,2.113,0.604,3.888,0.748,5.132l0.967,0c-0.005-0.037-0.01-0.071-0.015-0.11
			c-0.173-1.256-0.446-3.047-0.87-5.178c-0.132-0.674-0.288-1.391-0.454-2.125c0.167-0.066,1.113-0.449,1.951-0.918
			c0.73,0.79,2.602,1.715,2.844,1.833c-0.255,0.626-0.508,1.233-0.757,1.802c-0.855,1.97-1.642,3.578-2.208,4.696l1.062,0
			c0.526-1.111,1.202-2.596,1.925-4.367c0.261-0.635,0.528-1.318,0.794-2.023c0.268,0.056,2.465,0.502,3.488,0.27
			c0.928-0.21,2.052-0.736,2.467-1.653c0.407-0.899,0.042-2.006-0.932-2.333c-1.353-0.454-3.417,1.083-4.173,2.108
			c-0.045,0.061-0.455,0.771-0.707,1.223c0.108-0.288,0.215-0.567,0.322-0.866c0.216-0.588,0.414-1.182,0.629-1.82
			c0.093-0.311,0.187-0.626,0.282-0.944c0.101-0.313,0.168-0.657,0.254-0.988c0.183-0.772,0.332-1.564,0.464-2.365
			c0.516,0.188,2.357,0.827,3.31,0.76c0.949-0.067,2.14-0.416,2.689-1.26c0.538-0.827,0.346-1.977-0.568-2.448
			c-1.268-0.654-3.541,0.553-4.444,1.452c-0.056,0.056-0.632,0.774-0.94,1.174c0.076-0.482,0.154-0.963,0.214-1.453
			c0.175-1.415,0.308-2.852,0.448-4.285c0.042-0.439,0.09-0.876,0.136-1.314c0.183,0.069,2.355,0.877,3.422,0.801
			c0.949-0.067,2.14-0.416,2.689-1.26c0.538-0.827,0.345-1.977-0.568-2.448c-1.268-0.654-3.541,0.553-4.444,1.452
			c-0.068,0.068-0.894,1.102-1.092,1.375c0.102-0.964,0.212-1.923,0.359-2.865c0.201-1.299,0.47-2.563,0.821-3.768
			c0.085,0.032,2.348,0.886,3.442,0.809c0.949-0.067,2.14-0.416,2.689-1.26c0.538-0.827,0.346-1.977-0.568-2.448
			c-1.268-0.654-3.541,0.553-4.444,1.452c-0.059,0.059-0.689,0.846-0.98,1.228c-0.04-0.021-0.033-0.017-0.073-0.037
			c0.392-1.286,0.933-2.483,1.495-3.578c0.324-0.635,0.67-1.224,1.019-1.789c0.405,0.202,2.267,1.105,3.259,1.145
			c0.951,0.038,2.173-0.179,2.811-0.957c0.625-0.763,0.56-1.927-0.296-2.495c-1.189-0.789-3.58,0.16-4.576,0.955
			c-0.054,0.043-0.556,0.543-0.917,0.913c0.161-0.253,0.323-0.517,0.483-0.756c0.597-0.899,1.198-1.685,1.737-2.378
			c0.31-0.391,0.597-0.739,0.869-1.061c0.501-0.009,2.52-0.071,3.402-0.486c0.861-0.405,1.846-1.16,2.054-2.145
			c0.204-0.965-0.391-1.969-1.413-2.078c-1.419-0.152-3.104,1.792-3.622,2.956c-0.045,0.101-0.564,1.754-0.538,1.754
			c0,0,0.024,0,0.03,0c-0.269,0.305-0.553,0.635-0.856,1.002c-0.555,0.682-1.175,1.457-1.794,2.347
			c-0.62,0.887-1.269,1.869-1.859,2.964c-0.593,1.097-1.161,2.282-1.588,3.578c-0.005,0.015-0.008,0.031-0.013,0.045
			c0.007-0.418-0.012-1.587-0.023-1.677c-0.164-1.263-1.224-3.608-2.627-3.867c-1.011-0.186-1.867,0.606-1.947,1.589
			c-0.082,1.004,0.646,2.008,1.356,2.642c0.801,0.715,3.022,1.406,3.199,1.461c-0.396,1.238-0.701,2.541-0.937,3.876
			c-0.136,0.763-0.249,1.536-0.353,2.313c-0.005-0.362-0.013-0.685-0.019-0.73c-0.164-1.264-1.224-3.608-2.627-3.867
			c-1.011-0.186-1.867,0.606-1.947,1.589c-0.082,1.004,0.646,2.008,1.356,2.642c0.72,0.643,2.603,1.271,3.103,1.43
			c-0.037,0.298-0.077,0.596-0.112,0.894c-0.171,1.432-0.335,2.862-0.539,4.259c-0.072,0.492-0.16,0.975-0.247,1.458
			c-0.005-0.321-0.012-0.592-0.017-0.633c-0.164-1.263-1.224-3.608-2.627-3.867c-1.011-0.187-1.867,0.605-1.947,1.589
			c-0.082,1.004,0.646,2.008,1.356,2.642c0.687,0.614,2.42,1.209,3.013,1.401c-0.104,0.492-0.207,0.985-0.33,1.457
			c-0.091,0.32-0.157,0.635-0.266,0.952c-0.102,0.316-0.203,0.628-0.302,0.938c-0.214,0.589-0.431,1.198-0.655,1.768
			c-0.152,0.397-0.305,0.773-0.457,1.152c0.077-0.489,0.208-1.451,0.21-1.532c0.019-0.846-0.282-2.222-0.88-3.189
			c0.004-0.125-0.004-0.25-0.024-0.373c-0.157-0.974-1.072-1.697-2.065-1.432c-1.379,0.368-2.252,2.788-2.317,4.06
			c-0.004,0.075,0.046,0.894,0.085,1.41c-0.069-0.3-0.133-0.592-0.209-0.9c-0.145-0.61-0.307-1.214-0.479-1.865
			c-0.094-0.311-0.19-0.626-0.286-0.943c-0.089-0.317-0.223-0.641-0.333-0.964c-0.273-0.745-0.586-1.488-0.917-2.228
			c0.533-0.128,2.422-0.61,3.18-1.192c0.755-0.579,1.555-1.527,1.548-2.534c-0.007-0.986-0.802-1.84-1.824-1.728
			c-1.418,0.155-2.649,2.414-2.906,3.662c-0.016,0.078-0.1,0.994-0.136,1.498c-0.203-0.444-0.403-0.888-0.623-1.33
			c-0.634-1.276-1.316-2.549-1.991-3.821c-0.207-0.39-0.408-0.78-0.612-1.171c0.19-0.043,2.448-0.568,3.297-1.22
			c0.755-0.579,1.555-1.528,1.548-2.535c-0.008-0.986-0.802-1.839-1.824-1.728c-1.418,0.155-2.649,2.415-2.906,3.662
			c-0.019,0.094-0.138,1.412-0.152,1.749c-0.447-0.86-0.884-1.721-1.281-2.587c-0.549-1.195-1.022-2.397-1.394-3.596
			c0.089-0.02,2.447-0.557,3.317-1.225c0.755-0.579,1.555-1.527,1.548-2.535c-0.007-0.986-0.802-1.839-1.824-1.728
			c-1.419,0.154-2.649,2.414-2.906,3.662c-0.017,0.082-0.108,1.087-0.141,1.565c-0.044,0.005-0.036,0.004-0.081,0.009
			c-0.383-1.289-0.592-2.586-0.727-3.81c-0.08-0.708-0.117-1.39-0.137-2.054c0.449-0.055,2.501-0.328,3.35-0.843
			c0.814-0.493,1.714-1.347,1.817-2.349c0.101-0.981-0.595-1.916-1.623-1.918c-1.427-0.002-2.898,2.109-3.29,3.321
			c-0.021,0.066-0.164,0.76-0.261,1.267c-0.005-0.3-0.015-0.609-0.014-0.897c0.001-1.079,0.07-2.067,0.137-2.941
			c0.042-0.497,0.09-0.945,0.14-1.365c0.413-0.284,2.063-1.449,2.57-2.282c0.495-0.813,0.9-1.985,0.53-2.922
			c-0.362-0.917-1.412-1.427-2.325-0.954c-1.267,0.655-1.6,3.207-1.39,4.464c0.018,0.109,0.497,1.774,0.519,1.76
			c0,0,0.02-0.014,0.025-0.017c-0.056,0.402-0.111,0.835-0.161,1.308c-0.086,0.875-0.176,1.864-0.201,2.947
			c-0.028,1.082-0.028,2.259,0.085,3.498c0.111,1.242,0.29,2.544,0.649,3.861c0.004,0.015,0.01,0.03,0.014,0.045
			c-0.224-0.353-0.885-1.317-0.945-1.386c-0.834-0.963-3.011-2.334-4.324-1.776c-0.946,0.402-1.223,1.535-0.747,2.399
			C433.743,435.916,434.904,436.352,435.846,436.489z"/>
		<path style="opacity:0.3;fill:#263238;" d="M434.979,429.236c1.024,0.447,3.528,0.39,3.53,0.39
			c0.026-0.001-0.539-1.639-0.586-1.739c-0.55-1.149-2.288-3.047-3.702-2.855c-1.019,0.138-1.585,1.158-1.354,2.116
			C433.102,428.127,434.107,428.855,434.979,429.236z"/>
		<path style="opacity:0.3;fill:#263238;" d="M460.31,429.779c0.022,0.014,0.455-1.664,0.47-1.773
			c0.175-1.262-0.228-3.803-1.513-4.423c-0.926-0.447-1.96,0.091-2.297,1.018c-0.344,0.947,0.093,2.108,0.61,2.906
			C458.188,428.444,460.308,429.777,460.31,429.779z"/>
		<path style="opacity:0.3;fill:#263238;" d="M435.846,436.489c1.062,0.154,3.297-0.494,3.474-0.547
			c0.353,1.251,0.817,2.506,1.357,3.75c0.307,0.712,0.639,1.419,0.981,2.124c-0.204-0.299-0.389-0.564-0.418-0.598
			c-0.834-0.963-3.012-2.334-4.325-1.776c-0.946,0.402-1.223,1.535-0.747,2.399c0.485,0.883,1.647,1.319,2.589,1.456
			c0.956,0.139,2.872-0.376,3.377-0.519c0.134,0.269,0.265,0.539,0.4,0.808c0.648,1.288,1.299,2.571,1.9,3.849
			c0.212,0.45,0.404,0.901,0.598,1.352c-0.182-0.265-0.337-0.487-0.363-0.518c-0.834-0.963-3.011-2.334-4.325-1.776
			c-0.946,0.402-1.223,1.535-0.747,2.399c0.485,0.882,1.647,1.319,2.589,1.455c0.912,0.133,2.685-0.327,3.286-0.494
			c0.185,0.468,0.371,0.935,0.528,1.397c0.101,0.317,0.22,0.616,0.303,0.941c0.089,0.319,0.178,0.636,0.265,0.949
			c0.146,0.61,0.301,1.238,0.429,1.836c0.092,0.415,0.172,0.813,0.254,1.213c-0.206-0.451-0.627-1.324-0.671-1.393
			c-0.678-1.079-2.623-2.764-4.005-2.411c-0.996,0.254-1.441,1.332-1.102,2.258c0.346,0.946,1.428,1.553,2.338,1.831
			c1.002,0.306,3.22,0.025,3.497-0.012c0.133,0.663,0.256,1.309,0.363,1.92c0.373,2.113,0.604,3.888,0.748,5.132l0.967,0
			c-0.005-0.037-0.01-0.071-0.015-0.11c-0.173-1.256-0.446-3.047-0.87-5.178c-0.132-0.674-0.288-1.391-0.454-2.125
			c0.167-0.066,1.113-0.449,1.951-0.918c0.73,0.79,2.602,1.715,2.844,1.833c-0.255,0.626-0.508,1.233-0.757,1.802
			c-0.855,1.97-1.642,3.578-2.208,4.696l1.062,0c0.526-1.111,1.202-2.596,1.925-4.367c0.261-0.635,0.528-1.318,0.794-2.023
			c0.268,0.056,2.465,0.502,3.488,0.27c0.928-0.21,2.052-0.736,2.467-1.653c0.407-0.899,0.042-2.006-0.932-2.333
			c-1.353-0.454-3.417,1.083-4.173,2.108c-0.045,0.061-0.455,0.771-0.707,1.223c0.108-0.288,0.215-0.567,0.322-0.866
			c0.216-0.588,0.414-1.182,0.629-1.82c0.093-0.311,0.187-0.626,0.282-0.944c0.101-0.313,0.168-0.657,0.254-0.988
			c0.183-0.772,0.332-1.564,0.464-2.365c0.516,0.188,2.357,0.827,3.31,0.76c0.949-0.067,2.14-0.416,2.689-1.26
			c0.538-0.827,0.346-1.977-0.568-2.448c-1.268-0.654-3.541,0.553-4.444,1.452c-0.056,0.056-0.632,0.774-0.94,1.174
			c0.076-0.482,0.154-0.963,0.214-1.453c0.175-1.415,0.308-2.852,0.448-4.285c0.042-0.439,0.09-0.876,0.136-1.314
			c0.183,0.069,2.355,0.877,3.422,0.801c0.949-0.067,2.14-0.416,2.689-1.26c0.538-0.827,0.345-1.977-0.568-2.448
			c-1.268-0.654-3.541,0.553-4.444,1.452c-0.068,0.068-0.894,1.102-1.092,1.375c0.102-0.964,0.212-1.923,0.359-2.865
			c0.201-1.299,0.47-2.563,0.821-3.768c0.085,0.032,2.348,0.886,3.442,0.809c0.949-0.067,2.14-0.416,2.689-1.26
			c0.538-0.827,0.346-1.977-0.568-2.448c-1.268-0.654-3.541,0.553-4.444,1.452c-0.059,0.059-0.689,0.846-0.98,1.228
			c-0.04-0.021-0.033-0.017-0.073-0.037c0.392-1.286,0.933-2.483,1.495-3.578c0.324-0.635,0.67-1.224,1.019-1.789
			c0.405,0.202,2.267,1.105,3.259,1.145c0.951,0.038,2.173-0.179,2.811-0.957c0.625-0.763,0.56-1.927-0.296-2.495
			c-1.189-0.789-3.58,0.16-4.576,0.955c-0.054,0.043-0.556,0.543-0.917,0.913c0.161-0.253,0.323-0.517,0.483-0.756
			c0.597-0.899,1.198-1.685,1.737-2.378c0.31-0.391,0.597-0.739,0.869-1.061c0.501-0.009,2.52-0.071,3.402-0.486
			c0.861-0.405,1.846-1.16,2.054-2.145c0.204-0.965-0.391-1.969-1.413-2.078c-1.419-0.152-3.104,1.792-3.622,2.956
			c-0.045,0.101-0.564,1.754-0.538,1.754c0,0,0.024,0,0.03,0c-0.269,0.305-0.553,0.635-0.856,1.002
			c-0.555,0.682-1.175,1.457-1.794,2.347c-0.62,0.887-1.269,1.869-1.859,2.964c-0.593,1.097-1.161,2.282-1.588,3.578
			c-0.005,0.015-0.008,0.031-0.013,0.045c0.007-0.418-0.012-1.587-0.023-1.677c-0.164-1.263-1.224-3.608-2.627-3.867
			c-1.011-0.186-1.867,0.606-1.947,1.589c-0.082,1.004,0.646,2.008,1.356,2.642c0.801,0.715,3.022,1.406,3.199,1.461
			c-0.396,1.238-0.701,2.541-0.937,3.876c-0.136,0.763-0.249,1.536-0.353,2.313c-0.005-0.362-0.013-0.685-0.019-0.73
			c-0.164-1.264-1.224-3.608-2.627-3.867c-1.011-0.186-1.867,0.606-1.947,1.589c-0.082,1.004,0.646,2.008,1.356,2.642
			c0.72,0.643,2.603,1.271,3.103,1.43c-0.037,0.298-0.077,0.596-0.112,0.894c-0.171,1.432-0.335,2.862-0.539,4.259
			c-0.072,0.492-0.16,0.975-0.247,1.458c-0.005-0.321-0.012-0.592-0.017-0.633c-0.164-1.263-1.224-3.608-2.627-3.867
			c-1.011-0.187-1.867,0.605-1.947,1.589c-0.082,1.004,0.646,2.008,1.356,2.642c0.687,0.614,2.42,1.209,3.013,1.401
			c-0.104,0.492-0.207,0.985-0.33,1.457c-0.091,0.32-0.157,0.635-0.266,0.952c-0.102,0.316-0.203,0.628-0.302,0.938
			c-0.214,0.589-0.431,1.198-0.655,1.768c-0.152,0.397-0.305,0.773-0.457,1.152c0.077-0.489,0.208-1.451,0.21-1.532
			c0.019-0.846-0.282-2.222-0.88-3.189c0.004-0.125-0.004-0.25-0.024-0.373c-0.157-0.974-1.072-1.697-2.065-1.432
			c-1.379,0.368-2.252,2.788-2.317,4.06c-0.004,0.075,0.046,0.894,0.085,1.41c-0.069-0.3-0.133-0.592-0.209-0.9
			c-0.145-0.61-0.307-1.214-0.479-1.865c-0.094-0.311-0.19-0.626-0.286-0.943c-0.089-0.317-0.223-0.641-0.333-0.964
			c-0.273-0.745-0.586-1.488-0.917-2.228c0.533-0.128,2.422-0.61,3.18-1.192c0.755-0.579,1.555-1.527,1.548-2.534
			c-0.007-0.986-0.802-1.84-1.824-1.728c-1.418,0.155-2.649,2.414-2.906,3.662c-0.016,0.078-0.1,0.994-0.136,1.498
			c-0.203-0.444-0.403-0.888-0.623-1.33c-0.634-1.276-1.316-2.549-1.991-3.821c-0.207-0.39-0.408-0.78-0.612-1.171
			c0.19-0.043,2.448-0.568,3.297-1.22c0.755-0.579,1.555-1.528,1.548-2.535c-0.008-0.986-0.802-1.839-1.824-1.728
			c-1.418,0.155-2.649,2.415-2.906,3.662c-0.019,0.094-0.138,1.412-0.152,1.749c-0.447-0.86-0.884-1.721-1.281-2.587
			c-0.549-1.195-1.022-2.397-1.394-3.596c0.089-0.02,2.447-0.557,3.317-1.225c0.755-0.579,1.555-1.527,1.548-2.535
			c-0.007-0.986-0.802-1.839-1.824-1.728c-1.419,0.154-2.649,2.414-2.906,3.662c-0.017,0.082-0.108,1.087-0.141,1.565
			c-0.044,0.005-0.036,0.004-0.081,0.009c-0.383-1.289-0.592-2.586-0.727-3.81c-0.08-0.708-0.117-1.39-0.137-2.054
			c0.449-0.055,2.501-0.328,3.35-0.843c0.814-0.493,1.714-1.347,1.817-2.349c0.101-0.981-0.595-1.916-1.623-1.918
			c-1.427-0.002-2.898,2.109-3.29,3.321c-0.021,0.066-0.164,0.76-0.261,1.267c-0.005-0.3-0.015-0.609-0.014-0.897
			c0.001-1.079,0.07-2.067,0.137-2.941c0.042-0.497,0.09-0.945,0.14-1.365c0.413-0.284,2.063-1.449,2.57-2.282
			c0.495-0.813,0.9-1.985,0.53-2.922c-0.362-0.917-1.412-1.427-2.325-0.954c-1.267,0.655-1.6,3.207-1.39,4.464
			c0.018,0.109,0.497,1.774,0.519,1.76c0,0,0.02-0.014,0.025-0.017c-0.056,0.402-0.111,0.835-0.161,1.308
			c-0.086,0.875-0.176,1.864-0.201,2.947c-0.028,1.082-0.028,2.259,0.085,3.498c0.111,1.242,0.29,2.544,0.649,3.861
			c0.004,0.015,0.01,0.03,0.014,0.045c-0.224-0.353-0.885-1.317-0.945-1.386c-0.834-0.963-3.011-2.334-4.324-1.776
			c-0.946,0.402-1.223,1.535-0.747,2.399C433.743,435.916,434.904,436.352,435.846,436.489z"/>
	</g>
</g>
<g id="Bricks">
	<g style="opacity:0.3;">
		<g>
			<line style="fill:none;stroke:#000000;stroke-miterlimit:10;" x1="72.05" y1="141.886" x2="99.678" y2="141.886"/>
			<line style="fill:none;stroke:#000000;stroke-miterlimit:10;" x1="84.608" y1="143.627" x2="84.608" y2="151.521"/>
			<line style="fill:none;stroke:#000000;stroke-miterlimit:10;" x1="60.806" y1="143.627" x2="60.806" y2="151.521"/>
			<line style="fill:none;stroke:#000000;stroke-miterlimit:10;" x1="65.95" y1="151.88" x2="106.495" y2="151.88"/>
			<line style="fill:none;stroke:#000000;stroke-miterlimit:10;" x1="99.319" y1="139.374" x2="99.319" y2="132.198"/>
			<line style="fill:none;stroke:#000000;stroke-miterlimit:10;" x1="72.376" y1="139.374" x2="72.376" y2="132.198"/>
			<line style="fill:none;stroke:#000000;stroke-miterlimit:10;" x1="99.319" y1="162.516" x2="99.319" y2="155.339"/>
			<line style="fill:none;stroke:#000000;stroke-miterlimit:10;" x1="72.706" y1="162.516" x2="72.706" y2="155.339"/>
			<line style="fill:none;stroke:#000000;stroke-miterlimit:10;" x1="128.866" y1="141.886" x2="156.493" y2="141.886"/>
			<line style="fill:none;stroke:#000000;stroke-miterlimit:10;" x1="141.424" y1="143.627" x2="141.424" y2="151.521"/>
			<line style="fill:none;stroke:#000000;stroke-miterlimit:10;" x1="117.621" y1="143.627" x2="117.621" y2="151.521"/>
			<line style="fill:none;stroke:#000000;stroke-miterlimit:10;" x1="122.765" y1="151.88" x2="163.311" y2="151.88"/>
			<line style="fill:none;stroke:#000000;stroke-miterlimit:10;" x1="156.135" y1="139.374" x2="156.135" y2="132.198"/>
			<line style="fill:none;stroke:#000000;stroke-miterlimit:10;" x1="129.191" y1="139.374" x2="129.191" y2="132.198"/>
			<line style="fill:none;stroke:#000000;stroke-miterlimit:10;" x1="156.135" y1="162.516" x2="156.135" y2="155.339"/>
			<line style="fill:none;stroke:#000000;stroke-miterlimit:10;" x1="129.522" y1="162.516" x2="129.522" y2="155.339"/>
			<line style="fill:none;stroke:#000000;stroke-miterlimit:10;" x1="128.866" y1="166.01" x2="156.493" y2="166.01"/>
			<line style="fill:none;stroke:#000000;stroke-miterlimit:10;" x1="141.424" y1="167.751" x2="141.424" y2="175.645"/>
			<line style="fill:none;stroke:#000000;stroke-miterlimit:10;" x1="122.765" y1="176.004" x2="163.311" y2="176.004"/>
			<line style="fill:none;stroke:#000000;stroke-miterlimit:10;" x1="156.135" y1="186.639" x2="156.135" y2="179.463"/>
			<line style="fill:none;stroke:#000000;stroke-miterlimit:10;" x1="129.522" y1="186.639" x2="129.522" y2="179.463"/>
		</g>
		<g>
			<line style="fill:none;stroke:#000000;stroke-miterlimit:10;" x1="165.195" y1="54.789" x2="192.823" y2="54.789"/>
			<line style="fill:none;stroke:#000000;stroke-miterlimit:10;" x1="177.753" y1="56.531" x2="177.753" y2="64.425"/>
			<line style="fill:none;stroke:#000000;stroke-miterlimit:10;" x1="153.95" y1="56.531" x2="153.95" y2="64.425"/>
			<line style="fill:none;stroke:#000000;stroke-miterlimit:10;" x1="159.094" y1="64.783" x2="199.64" y2="64.783"/>
			<line style="fill:none;stroke:#000000;stroke-miterlimit:10;" x1="192.464" y1="52.278" x2="192.464" y2="45.102"/>
			<line style="fill:none;stroke:#000000;stroke-miterlimit:10;" x1="165.521" y1="52.278" x2="165.521" y2="45.102"/>
			<line style="fill:none;stroke:#000000;stroke-miterlimit:10;" x1="192.464" y1="75.419" x2="192.464" y2="68.243"/>
			<line style="fill:none;stroke:#000000;stroke-miterlimit:10;" x1="165.851" y1="75.419" x2="165.851" y2="68.243"/>
			<line style="fill:none;stroke:#000000;stroke-miterlimit:10;" x1="222.01" y1="54.789" x2="249.638" y2="54.789"/>
			<line style="fill:none;stroke:#000000;stroke-miterlimit:10;" x1="234.568" y1="56.531" x2="234.568" y2="64.425"/>
			<line style="fill:none;stroke:#000000;stroke-miterlimit:10;" x1="210.766" y1="56.531" x2="210.766" y2="64.425"/>
			<line style="fill:none;stroke:#000000;stroke-miterlimit:10;" x1="215.91" y1="64.783" x2="256.456" y2="64.783"/>
			<line style="fill:none;stroke:#000000;stroke-miterlimit:10;" x1="249.279" y1="52.278" x2="249.279" y2="45.102"/>
			<line style="fill:none;stroke:#000000;stroke-miterlimit:10;" x1="222.336" y1="52.278" x2="222.336" y2="45.102"/>
			<line style="fill:none;stroke:#000000;stroke-miterlimit:10;" x1="249.279" y1="75.419" x2="249.279" y2="68.243"/>
			<line style="fill:none;stroke:#000000;stroke-miterlimit:10;" x1="222.667" y1="75.419" x2="222.667" y2="68.243"/>
			<line style="fill:none;stroke:#000000;stroke-miterlimit:10;" x1="222.01" y1="78.913" x2="249.638" y2="78.913"/>
			<line style="fill:none;stroke:#000000;stroke-miterlimit:10;" x1="234.568" y1="80.655" x2="234.568" y2="88.549"/>
			<line style="fill:none;stroke:#000000;stroke-miterlimit:10;" x1="215.91" y1="88.907" x2="256.456" y2="88.907"/>
			<line style="fill:none;stroke:#000000;stroke-miterlimit:10;" x1="249.279" y1="99.543" x2="249.279" y2="92.367"/>
			<line style="fill:none;stroke:#000000;stroke-miterlimit:10;" x1="222.667" y1="99.543" x2="222.667" y2="92.367"/>
		</g>
		<g>
			<line style="fill:none;stroke:#000000;stroke-miterlimit:10;" x1="350.219" y1="141.886" x2="377.847" y2="141.886"/>
			<line style="fill:none;stroke:#000000;stroke-miterlimit:10;" x1="362.777" y1="143.627" x2="362.777" y2="151.521"/>
			<line style="fill:none;stroke:#000000;stroke-miterlimit:10;" x1="338.974" y1="143.627" x2="338.974" y2="151.521"/>
			<line style="fill:none;stroke:#000000;stroke-miterlimit:10;" x1="344.118" y1="151.88" x2="384.664" y2="151.88"/>
			<line style="fill:none;stroke:#000000;stroke-miterlimit:10;" x1="377.488" y1="139.374" x2="377.488" y2="132.198"/>
			<line style="fill:none;stroke:#000000;stroke-miterlimit:10;" x1="350.545" y1="139.374" x2="350.545" y2="132.198"/>
			<line style="fill:none;stroke:#000000;stroke-miterlimit:10;" x1="377.488" y1="162.516" x2="377.488" y2="155.339"/>
			<line style="fill:none;stroke:#000000;stroke-miterlimit:10;" x1="350.875" y1="162.516" x2="350.875" y2="155.339"/>
			<line style="fill:none;stroke:#000000;stroke-miterlimit:10;" x1="407.034" y1="141.886" x2="434.662" y2="141.886"/>
			<line style="fill:none;stroke:#000000;stroke-miterlimit:10;" x1="419.592" y1="143.627" x2="419.592" y2="151.521"/>
			<line style="fill:none;stroke:#000000;stroke-miterlimit:10;" x1="395.79" y1="143.627" x2="395.79" y2="151.521"/>
			<line style="fill:none;stroke:#000000;stroke-miterlimit:10;" x1="400.934" y1="151.88" x2="441.479" y2="151.88"/>
			<line style="fill:none;stroke:#000000;stroke-miterlimit:10;" x1="434.303" y1="139.374" x2="434.303" y2="132.198"/>
			<line style="fill:none;stroke:#000000;stroke-miterlimit:10;" x1="407.36" y1="139.374" x2="407.36" y2="132.198"/>
			<line style="fill:none;stroke:#000000;stroke-miterlimit:10;" x1="434.303" y1="162.516" x2="434.303" y2="155.339"/>
			<line style="fill:none;stroke:#000000;stroke-miterlimit:10;" x1="407.691" y1="162.516" x2="407.691" y2="155.339"/>
			<line style="fill:none;stroke:#000000;stroke-miterlimit:10;" x1="407.034" y1="166.01" x2="434.662" y2="166.01"/>
			<line style="fill:none;stroke:#000000;stroke-miterlimit:10;" x1="419.592" y1="167.751" x2="419.592" y2="175.645"/>
			<line style="fill:none;stroke:#000000;stroke-miterlimit:10;" x1="400.934" y1="176.004" x2="441.479" y2="176.004"/>
			<line style="fill:none;stroke:#000000;stroke-miterlimit:10;" x1="434.303" y1="186.639" x2="434.303" y2="179.463"/>
			<line style="fill:none;stroke:#000000;stroke-miterlimit:10;" x1="407.691" y1="186.639" x2="407.691" y2="179.463"/>
		</g>
		<g>
			<line style="fill:none;stroke:#000000;stroke-miterlimit:10;" x1="280.378" y1="230.657" x2="308.005" y2="230.657"/>
			<line style="fill:none;stroke:#000000;stroke-miterlimit:10;" x1="292.936" y1="232.399" x2="292.936" y2="240.292"/>
			<line style="fill:none;stroke:#000000;stroke-miterlimit:10;" x1="269.133" y1="232.399" x2="269.133" y2="240.292"/>
			<line style="fill:none;stroke:#000000;stroke-miterlimit:10;" x1="274.277" y1="240.651" x2="314.823" y2="240.651"/>
			<line style="fill:none;stroke:#000000;stroke-miterlimit:10;" x1="307.647" y1="228.145" x2="307.647" y2="220.969"/>
			<line style="fill:none;stroke:#000000;stroke-miterlimit:10;" x1="280.703" y1="228.145" x2="280.703" y2="220.969"/>
			<line style="fill:none;stroke:#000000;stroke-miterlimit:10;" x1="307.647" y1="251.287" x2="307.647" y2="244.111"/>
			<line style="fill:none;stroke:#000000;stroke-miterlimit:10;" x1="281.034" y1="251.287" x2="281.034" y2="244.111"/>
			<line style="fill:none;stroke:#000000;stroke-miterlimit:10;" x1="337.193" y1="230.657" x2="364.821" y2="230.657"/>
			<line style="fill:none;stroke:#000000;stroke-miterlimit:10;" x1="349.751" y1="232.399" x2="349.751" y2="240.292"/>
			<line style="fill:none;stroke:#000000;stroke-miterlimit:10;" x1="325.949" y1="232.399" x2="325.949" y2="240.292"/>
			<line style="fill:none;stroke:#000000;stroke-miterlimit:10;" x1="331.093" y1="240.651" x2="371.638" y2="240.651"/>
			<line style="fill:none;stroke:#000000;stroke-miterlimit:10;" x1="364.462" y1="228.145" x2="364.462" y2="220.969"/>
			<line style="fill:none;stroke:#000000;stroke-miterlimit:10;" x1="337.519" y1="228.145" x2="337.519" y2="220.969"/>
			<line style="fill:none;stroke:#000000;stroke-miterlimit:10;" x1="364.462" y1="251.287" x2="364.462" y2="244.111"/>
			<line style="fill:none;stroke:#000000;stroke-miterlimit:10;" x1="337.849" y1="251.287" x2="337.849" y2="244.111"/>
			<line style="fill:none;stroke:#000000;stroke-miterlimit:10;" x1="337.193" y1="254.781" x2="364.821" y2="254.781"/>
			<line style="fill:none;stroke:#000000;stroke-miterlimit:10;" x1="349.751" y1="256.523" x2="349.751" y2="264.416"/>
			<line style="fill:none;stroke:#000000;stroke-miterlimit:10;" x1="331.093" y1="264.775" x2="371.638" y2="264.775"/>
			<line style="fill:none;stroke:#000000;stroke-miterlimit:10;" x1="364.462" y1="275.411" x2="364.462" y2="268.235"/>
			<line style="fill:none;stroke:#000000;stroke-miterlimit:10;" x1="337.849" y1="275.411" x2="337.849" y2="268.235"/>
		</g>
		<g>
			<line style="fill:none;stroke:#000000;stroke-miterlimit:10;" x1="323.877" y1="379.708" x2="351.505" y2="379.708"/>
			<line style="fill:none;stroke:#000000;stroke-miterlimit:10;" x1="336.435" y1="381.449" x2="336.435" y2="389.343"/>
			<line style="fill:none;stroke:#000000;stroke-miterlimit:10;" x1="312.632" y1="381.449" x2="312.632" y2="389.343"/>
			<line style="fill:none;stroke:#000000;stroke-miterlimit:10;" x1="317.776" y1="389.702" x2="358.322" y2="389.702"/>
			<line style="fill:none;stroke:#000000;stroke-miterlimit:10;" x1="351.146" y1="377.196" x2="351.146" y2="370.02"/>
			<line style="fill:none;stroke:#000000;stroke-miterlimit:10;" x1="324.202" y1="377.196" x2="324.202" y2="370.02"/>
			<line style="fill:none;stroke:#000000;stroke-miterlimit:10;" x1="351.146" y1="400.337" x2="351.146" y2="393.161"/>
			<line style="fill:none;stroke:#000000;stroke-miterlimit:10;" x1="324.533" y1="400.337" x2="324.533" y2="393.161"/>
			<line style="fill:none;stroke:#000000;stroke-miterlimit:10;" x1="380.692" y1="379.708" x2="408.32" y2="379.708"/>
			<line style="fill:none;stroke:#000000;stroke-miterlimit:10;" x1="393.25" y1="381.449" x2="393.25" y2="389.343"/>
			<line style="fill:none;stroke:#000000;stroke-miterlimit:10;" x1="369.448" y1="381.449" x2="369.448" y2="389.343"/>
			<line style="fill:none;stroke:#000000;stroke-miterlimit:10;" x1="374.592" y1="389.702" x2="415.137" y2="389.702"/>
			<line style="fill:none;stroke:#000000;stroke-miterlimit:10;" x1="407.961" y1="377.196" x2="407.961" y2="370.02"/>
			<line style="fill:none;stroke:#000000;stroke-miterlimit:10;" x1="381.018" y1="377.196" x2="381.018" y2="370.02"/>
			<line style="fill:none;stroke:#000000;stroke-miterlimit:10;" x1="407.961" y1="400.337" x2="407.961" y2="393.161"/>
			<line style="fill:none;stroke:#000000;stroke-miterlimit:10;" x1="381.349" y1="400.337" x2="381.349" y2="393.161"/>
			<line style="fill:none;stroke:#000000;stroke-miterlimit:10;" x1="380.692" y1="403.832" x2="408.32" y2="403.832"/>
			<line style="fill:none;stroke:#000000;stroke-miterlimit:10;" x1="393.25" y1="405.573" x2="393.25" y2="413.467"/>
			<line style="fill:none;stroke:#000000;stroke-miterlimit:10;" x1="374.592" y1="413.826" x2="415.137" y2="413.826"/>
			<line style="fill:none;stroke:#000000;stroke-miterlimit:10;" x1="407.961" y1="424.461" x2="407.961" y2="417.285"/>
			<line style="fill:none;stroke:#000000;stroke-miterlimit:10;" x1="381.349" y1="424.461" x2="381.349" y2="417.285"/>
		</g>
		<g>
			<line style="fill:none;stroke:#000000;stroke-miterlimit:10;" x1="160.249" y1="393.548" x2="187.877" y2="393.548"/>
			<line style="fill:none;stroke:#000000;stroke-miterlimit:10;" x1="172.807" y1="395.289" x2="172.807" y2="403.183"/>
			<line style="fill:none;stroke:#000000;stroke-miterlimit:10;" x1="149.005" y1="395.289" x2="149.005" y2="403.183"/>
			<line style="fill:none;stroke:#000000;stroke-miterlimit:10;" x1="154.149" y1="403.542" x2="194.694" y2="403.542"/>
			<line style="fill:none;stroke:#000000;stroke-miterlimit:10;" x1="187.518" y1="391.036" x2="187.518" y2="383.86"/>
			<line style="fill:none;stroke:#000000;stroke-miterlimit:10;" x1="160.575" y1="391.036" x2="160.575" y2="383.86"/>
			<line style="fill:none;stroke:#000000;stroke-miterlimit:10;" x1="187.518" y1="414.177" x2="187.518" y2="407.001"/>
			<line style="fill:none;stroke:#000000;stroke-miterlimit:10;" x1="160.906" y1="414.177" x2="160.906" y2="407.001"/>
			<line style="fill:none;stroke:#000000;stroke-miterlimit:10;" x1="217.065" y1="393.548" x2="244.692" y2="393.548"/>
			<line style="fill:none;stroke:#000000;stroke-miterlimit:10;" x1="229.623" y1="395.289" x2="229.623" y2="403.183"/>
			<line style="fill:none;stroke:#000000;stroke-miterlimit:10;" x1="205.82" y1="395.289" x2="205.82" y2="403.183"/>
			<line style="fill:none;stroke:#000000;stroke-miterlimit:10;" x1="210.964" y1="403.542" x2="251.51" y2="403.542"/>
			<line style="fill:none;stroke:#000000;stroke-miterlimit:10;" x1="244.334" y1="391.036" x2="244.334" y2="383.86"/>
			<line style="fill:none;stroke:#000000;stroke-miterlimit:10;" x1="217.39" y1="391.036" x2="217.39" y2="383.86"/>
			<line style="fill:none;stroke:#000000;stroke-miterlimit:10;" x1="244.334" y1="414.177" x2="244.334" y2="407.001"/>
			<line style="fill:none;stroke:#000000;stroke-miterlimit:10;" x1="217.721" y1="414.177" x2="217.721" y2="407.001"/>
			<line style="fill:none;stroke:#000000;stroke-miterlimit:10;" x1="217.065" y1="417.672" x2="244.692" y2="417.672"/>
			<line style="fill:none;stroke:#000000;stroke-miterlimit:10;" x1="229.623" y1="419.413" x2="229.623" y2="427.307"/>
			<line style="fill:none;stroke:#000000;stroke-miterlimit:10;" x1="210.964" y1="427.665" x2="251.51" y2="427.665"/>
			<line style="fill:none;stroke:#000000;stroke-miterlimit:10;" x1="244.334" y1="438.301" x2="244.334" y2="431.125"/>
			<line style="fill:none;stroke:#000000;stroke-miterlimit:10;" x1="217.721" y1="438.301" x2="217.721" y2="431.125"/>
		</g>
	</g>
</g>
<g id="Paint_Bucket">
	<g>
		<rect x="230.969" y="430.743" style="opacity:0.27;" width="28.56" height="32.269"/>
		<rect x="242.93" y="426.399" style="fill:#FFFFFF;stroke:#263238;stroke-miterlimit:10;" width="31.4" height="36.47"/>
		<rect x="242.93" y="433.669" style="fill:#FFFFFF;stroke:#263238;stroke-miterlimit:10;" width="12.06" height="22.53"/>
		<path style="fill:#92E3A9;stroke:#263238;stroke-miterlimit:10;" d="M269.51,426.399v16.43c0,1.105-0.895,2-2,2l0,0
			c-1.105,0-2-0.895-2-2v-11.58c0-1.221-0.989-2.21-2.21-2.21l0,0c-1.22,0-2.21,0.989-2.21,2.21v5.48c0,0.873-0.707,1.58-1.58,1.58
			l0,0c-0.873,0-1.58-0.707-1.58-1.58v-10.33H269.51z"/>
	</g>
</g>
<g id="Character">
	<path style="opacity:0.27;" d="M250.334,260.98c0.659-1.449,0.659-4.083,0.395-5.401c-0.264-1.317-0.659-4.742-1.317-5.927
		c-0.292-0.527-0.923-1.364-1.614-2.087c-0.201-0.668-1.366-4.449-2.206-5.289c-0.922-0.922-6.586-2.503-6.586-2.503
		s1.186,1.449,2.766,3.952c1.2,1.9,2.322,3.721,2.794,4.49c-0.751-0.835-1.634,1.909-1.872,2.623
		c-0.263,0.79-3.03,4.215-3.293,5.006c-0.263,0.79,0.263,7.772,0.263,7.772s-1.449,3.293-3.425,6.059
		c-1.585,2.219-27.283,18.49-30.33,21.159c-0.505-3.684-1.715-12.441-2.532-17.645c-1.054-6.718,2.239-8.562-1.317-11.328
		c-3.557-2.766-15.938-4.215-15.938-4.215l-1.449-2.635c0,0-1.844-3.688-3.425-4.61c0,0,1.712,0.922,2.239,1.186
		c0.527,0.263,2.634,0.659,3.952-1.317c1.317-1.976,4.083-6.454,4.083-6.454s2.239-0.79,3.161-1.712
		c0.922-0.922-0.132-1.054-0.79-2.503c-0.659-1.449,0.263-3.293,0.922-5.137c0.43-1.205,0.579-3.024,0.631-4.143
		c2.247-1.659,5.419-6.742,5.297-9.556c-0.132-3.03-5.401-4.083-5.401-4.083s-9.053-8.092-15.375-9.014
		c-6.323-0.922-11.849,1.266-14.718,3.137c-4.95,3.228-8.927,14.477-11.399,23.264c-2.033,7.228,7.245,11.065,7.245,11.065
		s-0.89,1.519-1.713,3.17c-3.547,1.332-5.268,4.207-5.268,4.207s-15.938,3.557-17.387,4.479c-1.449,0.922-2.239,0.395-3.688,4.874
		c-1.449,4.479-0.264,18.968-0.264,18.968s-3.53,11.383-5.422,18.057c-0.992,0.511-2.976,1.601-2.877,2.096
		c0.132,0.659,0.132,9.484,1.449,10.67c1.317,1.185,9.22,3.688,10.406,3.425c0.359-0.08,1.094-0.269,1.942-0.493
		c0.011,0.033,0.017,0.069,0.034,0.098c0.527,0.922,1.054,1.844,1.054,1.844s-5.796,20.944-6.059,21.339
		c-0.085,0.127,0.575,0.557,1.68,1.132c-0.627,2.833-1.334,7.05-1.021,10.723c0.527,6.191,1.186,18.573,1.186,18.573
		s2.683,1.062,6.442,2.133l5.404,28.373c0,0-3.204,14.419-0.89,22.073c2.314,7.654,4.45,28.125,4.628,30.261
		c0.056,0.67-0.221,1.724-0.665,2.911l0,0c-0.11,0.293-0.233,0.596-0.361,0.902c-0.035,0.083-0.071,0.167-0.107,0.25
		c-0.104,0.243-0.213,0.489-0.325,0.734c-0.032,0.07-0.063,0.14-0.095,0.21c-0.143,0.308-0.289,0.616-0.438,0.919
		c-0.028,0.056-0.056,0.111-0.084,0.167c-0.124,0.25-0.25,0.497-0.375,0.738c-0.043,0.083-0.086,0.165-0.129,0.247
		c-0.127,0.241-0.253,0.475-0.377,0.701c-0.024,0.044-0.049,0.091-0.073,0.134c-0.145,0.262-0.286,0.509-0.421,0.741
		c-0.036,0.061-0.069,0.117-0.104,0.176c-0.102,0.172-0.2,0.334-0.293,0.484c-0.034,0.055-0.069,0.112-0.102,0.164
		c-0.117,0.184-0.227,0.353-0.323,0.49c-0.156,0.223-0.27,0.428-0.347,0.619c-0.077,0.191-0.117,0.367-0.123,0.529
		c-0.01,0.244,0.053,0.458,0.174,0.649c0.081,0.127,0.188,0.243,0.316,0.351c0.192,0.161,0.433,0.303,0.706,0.43
		c0.182,0.085,0.379,0.163,0.586,0.237c0.207,0.074,0.424,0.144,0.646,0.21c0.89,0.267,2.893,0.668,4.873,0.979
		c1.733,0.273,18.399,0.964,19.338,0.951c0.134-0.002,0.252-0.008,0.353-0.019c0.4-0.044,0.801-0.033,1.182-0.039
		c0.095-0.001,0.189-0.004,0.282-0.008c0.37-0.018,0.716-0.072,1.018-0.232c0.302-0.16,0.56-0.428,0.755-0.874
		c0.146-0.335-14.694-1.258-14.627-1.826c0.018-0.155,0.033-0.329,0.045-0.516c0.005-0.074,0.01-0.148,0.015-0.227
		c0.005-0.087,0.008-0.183,0.012-0.276c0.008-0.198,0.015-0.404,0.019-0.622c0.002-0.111,0.004-0.223,0.005-0.339
		c0.002-0.233,0.002-0.474,0.001-0.723c-0.001-0.105,0-0.205-0.002-0.312c-0.004-0.357-0.011-0.725-0.021-1.105
		c-0.001-0.052-0.003-0.107-0.005-0.159c-0.009-0.338-0.02-0.681-0.033-1.03c-0.005-0.133-0.01-0.267-0.016-0.402
		c-0.011-0.276-0.022-0.553-0.035-0.831c-0.006-0.142-0.013-0.282-0.019-0.424c-0.014-0.302-0.029-0.601-0.043-0.9
		c-0.005-0.1-0.01-0.199-0.015-0.298c-0.021-0.406-0.042-0.805-0.062-1.195c0,0,0,0,0,0l0,0c-0.105-1.963-0.202-3.671-0.202-4.526
		c0-2.314,0.534-24.565,2.314-30.261c1.78-5.696,2.848-16.911,2.492-22.429c-0.272-4.212-1.165-18.368-1.573-24.84
		c0.716-0.185,1.107-0.323,1.107-0.323l0.263,1.712c0,0,2.05,0.339,5.563,0.466l12.439,26.9c0,0-4.628,8.9-4.272,16.555
		c0.356,7.654,1.958,30.795,2.136,36.313c0.056,1.724-0.045,3.327-0.183,4.765c-0.155,1.615-0.353,3.015-0.432,4.151l0,0
		c0,0,0,0,0,0c-0.005,0.078-0.013,0.16-0.017,0.235c-0.024,0.435-0.024,0.822,0.005,1.167c0.003,0.036,0.008,0.068,0.011,0.103
		c0.016,0.152,0.039,0.293,0.069,0.426c0.01,0.042,0.018,0.085,0.029,0.125c0.043,0.154,0.093,0.297,0.162,0.42
		c0.278,0.501,0.834,0.723,1.663,0.793c0.166,0.014,17.815,0.065,18.003,0.068c0.938,0.013-3.347-0.695-1.871-0.814
		c1.476-0.118-0.132,0.814,1.871,0.814c1.602,0,0.38-0.216,1.849-0.308c0.734-0.046-4.395-0.436-3.72-0.506
		c3.379-0.349,5.924-1.003,6.592-2.004c0.267-0.4,0.456-0.656,0.576-0.832c0.101-0.148,0.143-0.234,0.149-0.306
		c0-0.003,0.002-0.007,0.002-0.01c0.001-0.01,0.009-0.023,0.007-0.033c-0.022-0.156-0.289-0.245-0.734-0.779
		c-0.111-0.134-0.309-0.275-0.575-0.427c-0.533-0.303-1.343-0.645-2.294-1.037c-0.713-0.294-1.505-0.616-2.318-0.972
		c-1.898-0.829-3.913-1.836-5.315-3.082c-1.402-1.246-2.19-1.879-2.664-2.301c-0.135-0.121-0.245-0.224-0.335-0.32
		c-0.318-0.334-0.405-0.573-0.561-1.118l0,0v0c-0.356-1.246,2.67-17.623,4.094-23.319c1.424-5.696,4.628-19.759,5.162-22.429
		c0.534-2.67,1.068-3.916,0.534-8.01c-0.432-3.311-3.075-21.402-4.071-28.204c3.359-1.415,5.064-2.684,5.064-2.684l-7.053-25.692
		c1.191-0.307,2.047-0.521,2.047-0.521l-4.61-16.07l0.527-10.933c0,0,5.927-0.79,7.508-1.581c1.581-0.79,6.454-2.239,6.718-3.82
		c0.044-0.265,0.127-0.656,0.232-1.12c1.648-1.066,3.85-1.553,4.398-2.222c1.186-1.449,8.694-5.267,10.275-8.033
		c1.581-2.766,20.328-26.649,20.855-28.23c0.361-1.083,3.193-3.587,5.154-5.523c0.324,1.145,0.6,2.014,0.773,2.361
		c0.79,1.581,1.581,2.371,1.581,2.371s-0.23-3.359-0.805-6.417C250.177,261.252,250.279,261.102,250.334,260.98z M170.44,252.575
		c0.996,0.048,1.785,0.112,2.247,0.196C171.938,252.695,171.188,252.631,170.44,252.575z M246.074,249.453
		c0.167,0.33,0.326,0.629,0.44,0.858c0.527,1.054,1.317,3.03,0.922,3.425c-0.017,0.017-0.049,0.042-0.079,0.065
		c-1.259-2.704-2.556-5.203-2.556-5.203C245.271,249.203,245.698,249.436,246.074,249.453z M242.957,256.502
		c0,0,1.186-2.108,1.712-3.293c0.381-0.858,0.687-1.925,0.531-3.147l0.391,1.435c0,0,0.292,1.249,0.716,3.002
		C244.972,255.332,242.957,256.502,242.957,256.502z"/>
	<g>
		<g>
			<path style="fill:#FFFFFF;stroke:#263238;stroke-miterlimit:10;" d="M213.915,219.264c0,0,0,3.433-0.687,5.356
				c-0.687,1.923-1.648,3.845-0.961,5.356c0.687,1.511,1.785,1.648,0.824,2.609c-0.961,0.961-3.296,1.785-3.296,1.785
				s-2.884,4.669-4.257,6.729c-1.373,2.06-3.571,1.648-4.12,1.373c-0.549-0.275-2.335-1.236-2.335-1.236l-0.961,1.511l-12.772-3.433
				c0,0,6.866-7.279,7.278-12.223C193.04,222.148,203.89,214.045,213.915,219.264z"/>
			<path style="fill:none;stroke:#263238;stroke-linecap:round;stroke-linejoin:round;stroke-miterlimit:10;" d="M207.872,237.117
				c0,0-2.335-0.137-2.609-2.747"/>
			<path style="fill:#263238;" d="M210.482,227.504c-0.211,0.896-0.722,1.543-1.142,1.444s-0.589-0.906-0.378-1.802
				c0.211-0.896,0.722-1.543,1.142-1.444C210.523,225.801,210.693,226.607,210.482,227.504z"/>
			<path style="fill:none;stroke:#263238;stroke-linecap:round;stroke-linejoin:round;stroke-miterlimit:10;" d="M211.992,225.169
				c0,0-0.961-2.06-3.159-0.824"/>
		</g>
		<path style="fill:#FFFFFF;stroke:#263238;stroke-miterlimit:10;" d="M202.654,246.043c0,0-1.923-3.845-3.571-4.807
			c-1.648-0.961-12.635-2.884-18.952-2.884c-6.317,0-9.339,5.081-9.339,5.081s16.342-0.275,19.364,0.275s14.008,5.081,14.008,5.081
			L202.654,246.043z"/>
		<path style="fill:#92E3A9;stroke:#263238;stroke-miterlimit:10;" d="M246.737,249.065c0,0-1.511-2.472-3.159-5.081
			s-2.884-4.12-2.884-4.12s5.905,1.648,6.867,2.609s2.335,5.631,2.335,5.631S248.66,251.537,246.737,249.065z"/>
		<path style="fill:#FFFFFF;stroke:#263238;stroke-miterlimit:10;" d="M223.528,284.496c0,0,12.223-10.574,14.283-13.458
			c2.06-2.884,3.571-6.317,3.571-6.317s-0.549-7.279-0.275-8.103c0.275-0.824,3.159-4.395,3.433-5.219
			c0.275-0.824,1.373-4.257,2.197-2.335c0.824,1.923,0.412,3.571-0.137,4.807c-0.549,1.236-1.785,3.433-1.785,3.433
			s4.257-2.472,4.669-2.884c0.412-0.412-0.412-2.472-0.961-3.571c-0.549-1.099-2.06-3.708-1.099-4.257
			c0.961-0.549,3.433,2.335,4.12,3.571c0.687,1.236,1.099,4.807,1.373,6.18c0.275,1.373,0.275,4.12-0.412,5.631
			c-0.687,1.511-6.729,6.317-7.279,7.965c-0.549,1.648-6.592,14.832-8.24,17.716c-1.648,2.884-5.219,8.103-6.455,9.613
			c-1.236,1.511-6.592,5.768-9.888,5.081C220.644,302.349,222.567,287.38,223.528,284.496z"/>
		<g>
			<path style="fill:#FFFFFF;stroke:#263238;stroke-miterlimit:10;" d="M186.938,365.518l14.847,32.107
				c0,0-4.825,9.279-4.454,17.259c0.371,7.98,2.042,32.107,2.227,37.86c0.186,5.753-1.299,10.207-0.371,11.878
				c0.928,1.67,4.825,0.371,11.506,0.371c6.681,0,12.805-0.742,13.919-2.413c1.114-1.67,0.928-0.928,0-2.042
				c-0.928-1.113-7.609-2.784-10.95-5.753c-3.34-2.969-3.34-2.598-3.712-3.897s2.784-18.373,4.268-24.312
				c1.485-5.939,4.825-20.6,5.382-23.384c0.557-2.784,1.113-4.083,0.557-8.351c-0.557-4.269-4.64-32.107-4.64-32.107
				S194.361,366.817,186.938,365.518z"/>
			<g>
				<path style="fill:#FFFFFF;stroke:#263238;stroke-miterlimit:10;" d="M224.612,460.538c-0.928-1.113-7.609-2.784-10.95-5.753
					c-3.341-2.969-3.341-2.598-3.712-3.897c0,0-1.299,1.114-1.114,2.598c0.186,1.485,0.742,2.969,0.742,2.969
					s-3.712-0.371-5.382-1.113s-2.969-3.341-4.64-2.598c0.186,5.753-1.299,10.207-0.371,11.878s4.825,0.371,11.506,0.371
					c6.681,0,12.805-0.742,13.919-2.413C225.726,460.909,225.54,461.652,224.612,460.538z"/>
				<path style="fill:#FFFFFF;stroke:#263238;stroke-miterlimit:10;" d="M224.612,462.58c0.594-0.891,0.809-1.095,0.749-1.261
					c-2.534,0.953-7.933,2.208-13.937,1.832c-4.816-0.301-9.626-0.792-12.507-1.112c-0.079,1.136-0.042,2.02,0.27,2.582
					c0.928,1.67,4.825,0.371,11.506,0.371C217.374,464.992,223.498,464.25,224.612,462.58z"/>
			</g>
		</g>
		<g>
			<path style="fill:#FFFFFF;stroke:#263238;stroke-miterlimit:10;" d="M157.43,364.776l5.939,31.178c0,0-3.341,15.033-0.928,23.013
				c2.413,7.98,4.64,29.323,4.825,31.55c0.186,2.227-3.155,8.537-4.454,10.393s0.186,2.598,2.041,3.155
				c1.856,0.557,8.351,1.67,10.022,1.485c1.67-0.186,3.341,0.557,3.712-2.598c0.371-3.155-0.371-12.063-0.371-14.476
				s0.557-25.611,2.413-31.55c1.856-5.939,2.969-17.631,2.598-23.384c-0.371-5.753-1.856-29.323-1.856-29.323
				S162.069,364.776,157.43,364.776z"/>
			<g>
				<path style="fill:#FFFFFF;stroke:#263238;stroke-miterlimit:10;" d="M178.587,462.951c0.234-1.989,0.025-6.264-0.161-9.757
					c-1.435-1.203-6.479-0.824-7.819-0.079c-1.67,0.928-0.557,2.227-2.784,1.113c-0.445-0.222-0.859-0.451-1.25-0.676
					c-1.015,2.71-2.868,6.084-3.76,7.358c-1.299,1.856,0.186,2.598,2.041,3.155c1.856,0.557,8.352,1.67,10.022,1.485
					C176.545,465.363,178.215,466.106,178.587,462.951z"/>
				<path style="fill:#FFFFFF;stroke:#263238;stroke-miterlimit:10;" d="M164.853,464.064c1.856,0.557,8.352,1.67,10.022,1.485
					c1.67-0.185,3.34,0.557,3.712-2.598c0.037-0.317,0.06-0.707,0.077-1.127c-2.322,1.151-7.183,1.641-9.17,0.942
					c-2.768-0.974-6.681-1.856-6.681-1.856C161.513,462.765,162.997,463.508,164.853,464.064z"/>
			</g>
		</g>
		<g>
			<path style="fill:#92E3A9;stroke:#263238;stroke-miterlimit:10;" d="M151.704,330.228c0,0-2.472,8.103-1.923,14.557
				c0.549,6.454,1.236,19.364,1.236,19.364s9.339,3.708,17.853,4.395c8.514,0.687,13.87-1.236,13.87-1.236l0.275,1.785
				c0,0,8.24,1.373,20.188-0.275c11.948-1.648,17.99-6.18,17.99-6.18l-7.691-28.016c0,0-3.845,0-9.064,1.099
				c-5.219,1.099-28.153,0.687-36.805-1.648C158.982,331.738,151.704,330.228,151.704,330.228z"/>
			<polyline style="fill:none;stroke:#263238;stroke-miterlimit:10;" points="182.741,367.307 180.818,358.38 174.363,356.595 			
				"/>
			<line style="fill:none;stroke:#263238;stroke-miterlimit:10;" x1="212.404" y1="337.781" x2="218.584" y2="359.616"/>
			<polyline style="fill:none;stroke:#263238;stroke-miterlimit:10;" points="207.872,339.291 210.619,351.239 198.671,361.539 
				188.371,356.733 185.35,344.51 			"/>
			<line style="fill:none;stroke:#263238;stroke-miterlimit:10;" x1="168.046" y1="342.038" x2="168.321" y2="351.239"/>
			<path style="fill:none;stroke:#263238;stroke-miterlimit:10;" d="M153.489,336.957c0,0-1.648,3.433-1.373,6.729
				c0.275,3.296,1.099,8.652,1.099,8.652l6.592,5.219l2.747-1.785"/>
			<path style="fill:none;stroke:#263238;stroke-miterlimit:10;" d="M174.913,341.626c0,0-0.824,4.807,0.137,8.103"/>
		</g>
		<g>
			<path style="fill:#FFFFFF;stroke:#263238;stroke-miterlimit:10;" d="M143.464,291.5c0,0-3.708,1.785-3.571,2.472
				c0.137,0.687,0.137,9.888,1.511,11.124c1.373,1.236,9.613,3.845,10.849,3.571c1.236-0.275,6.729-1.785,6.729-1.785l0.275-5.356
				c0,0-10.849-4.807-13.184-6.592C143.738,293.148,143.464,291.5,143.464,291.5z"/>
			<g>
				<path style="fill:#FFFFFF;stroke:#263238;stroke-miterlimit:10;" d="M170.793,243.434c0,0-16.617,3.708-18.128,4.669
					c-1.511,0.961-2.335,0.412-3.845,5.081c-1.511,4.669-0.275,19.776-0.275,19.776s-6.729,21.698-6.867,23.621
					c-0.137,1.923,7.965,7.691,10.437,7.828c2.472,0.137,3.983-0.275,3.983-0.275s-2.335,3.159-1.785,4.12
					c0.549,0.961,1.099,1.923,1.099,1.923s-6.043,21.836-6.317,22.248c-0.275,0.412,6.867,3.845,12.497,5.493
					c5.631,1.648,10.437,4.257,22.385,4.12c11.948-0.137,21.836-3.983,24.72-4.807c2.884-0.824,7.279-1.923,7.279-1.923
					l-4.807-16.754l0.549-11.399c0,0,6.18-0.824,7.828-1.648c1.648-0.824,6.729-2.335,7.004-3.983
					c0.275-1.648,1.923-7.691,1.785-9.613c-0.137-1.923-3.296-6.729-3.296-6.729s-1.785-13.184-2.884-20.188
					c-1.099-7.004,2.335-8.927-1.373-11.81c-3.708-2.884-16.617-4.395-16.617-4.395s-4.532-4.12-14.008-5.081
					C180.681,242.747,170.793,243.434,170.793,243.434z"/>
				<g>
					<path style="fill:none;stroke:#263238;stroke-miterlimit:10;" d="M213.64,271.587c0,0-1.785,13.87-2.609,17.166
						c-0.824,3.296,0.687,18.402,0.687,18.402"/>
					<path style="fill:none;stroke:#263238;stroke-miterlimit:10;" d="M211.58,287.792c0,0,4.257,2.472,8.103,1.373"/>
					<path style="fill:none;stroke:#263238;stroke-miterlimit:10;" d="M210.894,289.715c0,0,4.12,4.669,7.553,6.317"/>
					<line style="fill:none;stroke:#263238;stroke-miterlimit:10;" x1="213.228" y1="277.355" x2="216.799" y2="269.39"/>
					<path style="fill:none;stroke:#263238;stroke-miterlimit:10;" d="M156.098,304.134c0,0,3.296-8.102,3.845-10.025
						c0.549-1.923-2.06-11.399-2.335-15.107c-0.275-3.708-2.06-16.068-2.06-16.068"/>
					<line style="fill:none;stroke:#263238;stroke-miterlimit:10;" x1="156.648" y1="270.763" x2="153.352" y2="265.544"/>
					<path style="fill:none;stroke:#263238;stroke-miterlimit:10;" d="M156.236,310.589c0,0,16.342-0.275,19.638,0.412
						c3.296,0.687,20.462,6.867,22.797,7.416"/>
					<line style="fill:none;stroke:#263238;stroke-miterlimit:10;" x1="175.874" y1="311.001" x2="170.518" y2="308.804"/>
				</g>
			</g>
			<path style="fill:#FFFFFF;stroke:#263238;stroke-miterlimit:10;" d="M211.443,299.053c0,0,9.888-2.197,10.437-3.296
				c0.549-1.099,1.923-4.257,1.923-5.219c0-0.961,1.236-5.356,1.236-5.356"/>
			<path style="fill:#FFFFFF;stroke:#263238;stroke-miterlimit:10;" d="M223.116,301.113c1.923-0.961,2.609-5.081,2.884-7.828
				c0.275-2.747-0.824-7.141-0.824-7.141"/>
		</g>
		<path style="fill:#FFFFFF;stroke:#263238;stroke-miterlimit:10;" d="M247.561,252.086c0,0,3.021,12.909,3.845,14.557
			c0.824,1.648,1.648,2.472,1.648,2.472s-0.412-6.043-1.511-9.476c-1.099-3.433-4.807-10.575-4.807-10.575L247.561,252.086z"/>
		<path style="fill:#263238;stroke:#263238;stroke-miterlimit:10;" d="M203.615,224.07c0,0-0.137,5.356-3.296,8.515
			c-3.159,3.159-14.969,6.729-14.969,6.729s2.884,5.219,1.785,6.867c-1.099,1.648-3.571,3.571-3.571,3.571s1.648,4.944,0.687,5.905
			c-0.961,0.961-3.159,2.609-3.159,2.609s1.923,3.983,2.884,6.455c0.961,2.472,1.511,5.768,1.511,5.768s-2.884,1.236-6.592,0.549
			c-3.708-0.687-3.708-0.687-3.708-0.687s1.099-3.571,1.236-6.18c0.137-2.609,2.609-5.905,2.609-5.905s-0.961-1.373-0.824-2.884
			c0.137-1.511,1.236-4.669,1.236-4.669s-5.081-6.592-4.395-8.789c0.687-2.197,3.021-6.18,3.021-6.18s-9.673-4-7.553-11.536
			c2.577-9.162,6.723-20.89,11.885-24.255c2.991-1.95,8.753-4.232,15.345-3.27c6.592,0.961,16.03,9.397,16.03,9.397
			s5.493,1.099,5.631,4.257c0.137,3.159-3.708,9.064-6.043,10.3C211.031,221.873,203.615,224.07,203.615,224.07z"/>
	</g>
</g>
<g id="Ladder">
	<g>
		<path style="opacity:0.27;" d="M120.425,365.827l0.214-4.703h-0.362L115.64,213.27H61.132L30.526,463.188h7.165l3.425-30.561
			h74.556l0.641,30.561h7.165L120.425,365.827z M115.308,415.258l-10.025-15.363h9.703L115.308,415.258z M114.52,377.704
			l-6.878-10.541h6.657L114.52,377.704z M65.083,218.78h46.104l0.424,20.201H62.819L65.083,218.78z M62.27,243.877h49.444
			l0.462,22.037H59.8L62.27,243.877z M59.348,269.948l-0.039,0.863h52.97l0.53,25.271H56.419L59.348,269.948z M55.837,301.276h57.08
			l0.569,27.116H52.798L55.837,301.276z M52.122,334.431h61.491l0.56,26.693H49.13L52.122,334.431z M48.453,367.163h6.427
			l-7.567,10.176L48.453,367.163z M46.664,383.13l11.874-15.967h45.447l10.657,16.332l0.217,10.361H45.462L46.664,383.13z
			 M44.785,399.895h9.472l-11.153,14.997L44.785,399.895z M41.793,426.588l0.662-5.904l15.459-20.788h43.712l13.804,21.154
			l0.116,5.539H41.793z"/>
		<g>
			<g>
				<polygon style="fill:#FFFFFF;stroke:#263238;stroke-miterlimit:10;" points="62.667,421.43 60.13,419.713 74.459,397.753 
					76.996,399.47 				"/>
			</g>
			<g>
				<polygon style="fill:#FFFFFF;stroke:#263238;stroke-miterlimit:10;" points="136.445,421.43 138.825,419.713 122.495,397.753 
					120.114,399.47 				"/>
			</g>
			<g>
				<polygon style="fill:#FFFFFF;stroke:#263238;stroke-miterlimit:10;" points="61.119,387.455 58.582,385.738 72.912,363.778 
					75.449,365.495 				"/>
			</g>
			<g>
				<polygon style="fill:#FFFFFF;stroke:#263238;stroke-miterlimit:10;" points="134.897,387.455 137.278,385.738 120.947,363.778 
					118.567,365.495 				"/>
			</g>
			<g>
				<polygon style="fill:#FFFFFF;stroke:#263238;stroke-miterlimit:10;" points="117.809,243.877 63.329,243.877 63.105,238.98 
					117.586,238.98 				"/>
				<polygon style="fill:#FFFFFF;stroke:#263238;stroke-miterlimit:10;" points="119.036,270.811 64.555,270.811 64.332,265.914 
					118.813,265.914 				"/>
				<polygon style="fill:#FFFFFF;stroke:#263238;stroke-miterlimit:10;" points="138.447,432.628 60.963,432.628 60.687,426.588 
					138.172,426.588 				"/>
				<polygon style="fill:#FFFFFF;stroke:#263238;stroke-miterlimit:10;" points="136.956,399.896 59.472,399.896 59.196,393.856 
					136.681,393.856 				"/>
				<polygon style="fill:#FFFFFF;stroke:#263238;stroke-miterlimit:10;" points="135.465,367.163 57.981,367.163 57.706,361.124 
					135.19,361.124 				"/>
				<polygon style="fill:#FFFFFF;stroke:#263238;stroke-miterlimit:10;" points="130.397,334.431 60.067,334.431 59.792,328.392 
					130.122,328.392 				"/>
				<polygon style="fill:#FFFFFF;stroke:#263238;stroke-miterlimit:10;" points="126.21,301.276 61.233,301.276 60.997,296.082 
					125.973,296.082 				"/>
			</g>
			<polygon style="fill:#FFFFFF;stroke:#263238;stroke-miterlimit:10;" points="117.213,213.27 62.705,213.27 54.866,463.188 
				62.031,463.188 67.158,218.78 113.262,218.78 140.653,463.188 147.819,463.188 			"/>
		</g>
	</g>
</g>
<g id="Floor">
	<line style="fill:none;stroke:#263238;stroke-miterlimit:10;" x1="16.626" y1="463.188" x2="473.823" y2="463.188"/>
</g>
</svg>
