<?xml version="1.0" encoding="utf-8"?>
<!-- Generator: Adobe Illustrator 27.5.0, SVG Export Plug-In . SVG Version: 6.00 Build 0)  -->
<svg version="1.1" xmlns="http://www.w3.org/2000/svg" x="0px" y="0px"
	 viewBox="0 0 500 500" style="enable-background:new 0 0 500 500;" xml:space="preserve">
<g id="Background_Simple">
	<g>
		<path style="fill:#92E3A9;" d="M330.634,47.183c0,0-76.583-27.231-151.758,16.123C103.702,106.661,65.77,192.724,33.197,261.664
			c-32.573,68.94-13.824,139.064,43.562,171.039c57.386,31.974,96.407-15.16,176.91-17.455
			c80.504-2.295,102.155,9.214,168.956-36.263c66.802-45.477,78.877-152.88,26.181-232.35
			C396.111,67.164,330.634,47.183,330.634,47.183z"/>
		<path style="opacity:0.8;fill:#FFFFFF;" d="M330.634,47.183c0,0-76.583-27.231-151.758,16.123
			C103.702,106.661,65.77,192.724,33.197,261.664c-32.573,68.94-13.824,139.064,43.562,171.039
			c57.386,31.974,96.407-15.16,176.91-17.455c80.504-2.295,102.155,9.214,168.956-36.263c66.802-45.477,78.877-152.88,26.181-232.35
			C396.111,67.164,330.634,47.183,330.634,47.183z"/>
	</g>
</g>
<g id="Plant">
	<g>
		<path style="fill:#92E3A9;" d="M407.02,405.411c0,0-3.154-5.677-1.244-13.204c1.91-7.527,2.611-6.266,0.612-10.594
			c-1.998-4.328-3.712-5.22-2.53-8.94c1.182-3.72,3.235-9.529,2.496-13.053c-0.739-3.524-2.349-4.959-1.621-8.766
			c0.728-3.807,2.961-5.635,1.871-9.789c-1.09-4.155-3.011-3.958-2.283-7.765c0.728-3.807,1.738-4.108,1.453-7.544
			c-0.285-3.437,0.511-5.106,0.511-5.106s1.309,5.384,2.152,8.364c0.843,2.98,0.986,4.698,0.57,6.874
			c-0.416,2.175,4.517,5.937,4.659,7.656c0.143,1.719,1.194,3.611-0.443,7.244c-1.637,3.633-2.052,5.809-1.105,8.245
			c0.947,2.436,1.96,2.066,1.024,6.961c-0.936,4.895-3.766,4.917-1.664,8.702c2.103,3.784,3.362,4.589,2.387,7.221
			c-0.974,2.632-2.507,5.722-1.91,7.527c0.224,0.677,0.723,1.645,1.26,2.589c1.211,2.131,1.598,4.632,1.138,7.039l-0.284,1.487
			l0.92,7.505l-4.467,3.656C410.524,411.718,408.46,410.196,407.02,405.411z"/>
		<path style="fill:#92E3A9;" d="M401.861,406.057c0,0-4.164-4.164-3.701-10.64c0.463-6.477,1.388-5.551-1.388-8.79
			c-2.776-3.238-4.626-3.701-4.164-6.939c0.463-3.238,1.388-8.327,0-11.103c-1.388-2.776-3.238-3.701-3.238-6.939
			c0-3.238,1.85-5.089,0-8.327c-1.851-3.238-3.701-2.776-3.701-6.014c0-3.238,0.925-6.014,0-8.79
			c-0.925-2.776-0.319-2.206-0.319-2.206s2.169,4.519,3.557,6.832c1.388,2.313,1.85,3.701,1.85,5.552
			c0,1.85,5.552,4.164,6.014,5.551c0.463,1.388,1.85,2.776,0.925,6.014c-0.925,3.238-0.925,5.089,0.463,6.939
			c1.388,1.85,2.313,1.388,2.313,5.551c0,4.164-2.776,4.626,0,7.402c2.776,2.776,4.164,3.238,3.701,5.551
			c-0.463,2.313-1.388,5.089-0.463,6.477c0.252,0.378,0.677,0.86,1.161,1.361c1.919,1.986,3.003,4.634,3.003,7.396v0.033
			l2.313,6.014l-3.701,3.701C406.487,410.683,404.174,409.758,401.861,406.057z"/>
		<path style="fill:#92E3A9;" d="M428.23,406.057c0,0,4.164-4.164,3.701-10.64c-0.463-6.477-1.388-5.551,1.388-8.79
			c2.776-3.238,4.626-3.701,4.164-6.939c-0.463-3.238-1.388-8.327,0-11.103c1.388-2.776,3.238-3.701,3.238-6.939
			c0-3.238-1.851-5.089,0-8.327c1.85-3.238,3.701-2.776,3.701-6.014c0-3.238-0.925-6.014,0-8.79
			c0.925-2.776-0.182-1.185-0.182-1.185s-1.669,3.498-3.057,5.811c-1.388,2.313-1.85,3.701-1.85,5.552
			c0,1.85-5.551,4.164-6.014,5.551c-0.463,1.388-1.85,2.776-0.925,6.014c0.925,3.238,0.925,5.089-0.463,6.939
			c-1.388,1.85-2.313,1.388-2.313,5.551c0,4.164,2.776,4.626,0,7.402c-2.776,2.776-4.164,3.238-3.701,5.551
			c0.463,2.313,1.388,5.089,0.463,6.477c-0.248,0.373-0.663,0.845-1.138,1.337c-1.931,2.003-3.026,4.67-3.026,7.452l0,0
			l-2.313,6.014l3.701,3.701C423.604,410.683,425.917,409.758,428.23,406.057z"/>
		<path style="fill:#92E3A9;" d="M420.075,407.219c0,0,2.768-3.863,1.547-8.959c-1.22-5.096-1.835-4.238-0.051-7.181
			c1.784-2.943,3.197-3.555,2.402-6.073c-0.794-2.518-2.2-6.448-1.46-8.841c0.74-2.393,2.092-3.373,1.666-5.951
			c-0.426-2.578-2.143-3.808-1.095-6.63c1.047-2.822,2.582-2.697,2.156-5.275c-0.426-2.578-1.528-4.667-1.156-6.999
			c0.372-2.332-0.438-1.726-0.438-1.726s-0.731,3.811-1.532,5.836c-0.801,2.024-0.987,3.19-0.743,4.664
			c0.243,1.473-3.873,4.045-4.058,5.211c-0.186,1.166-1.108,2.454,0.054,4.91c1.163,2.457,1.406,3.93,0.544,5.586
			c-0.862,1.656-1.659,1.409-1.112,4.725c0.548,3.315,2.819,3.318,0.974,5.894c-1.845,2.575-2.889,3.126-2.217,4.907
			c0.673,1.781,1.774,3.869,1.22,5.096c-0.554,1.227-2.768,3.863-2.768,3.863l0.608,3.684l-1.051,5.093l3.434,2.46
			C417,411.511,418.72,410.47,420.075,407.219z"/>
		<g>
			<polygon style="fill:#263238;stroke:#263238;stroke-miterlimit:10;" points="433.645,403.45 432.555,430.58 429.545,430.58 
				429.545,451.5 399.015,451.5 399.015,430.58 396.195,430.58 395.105,403.45 			"/>
			<polyline style="fill:none;stroke:#263238;stroke-miterlimit:10;" points="396.194,430.576 394.847,430.576 394.847,481 
				399.01,481 399.01,451.5 			"/>
			<polyline style="fill:none;stroke:#263238;stroke-miterlimit:10;" points="432.555,430.576 433.707,430.576 433.707,481 
				429.543,481 429.543,451.5 			"/>
		</g>
	</g>
</g>
<g id="Clouds">
	<g>
		<path style="fill:none;stroke:#263238;stroke-linecap:round;stroke-linejoin:round;stroke-miterlimit:10;" d="M357.095,85.017
			c0.419-2.249,0.664-4.56,0.664-6.931c0-20.805-16.866-37.671-37.671-37.671c-7.75,0-14.95,2.346-20.939,6.358
			c-7.605-18.468-25.772-31.472-46.983-31.472c-28.055,0-50.799,22.743-50.799,50.799c0,0.625,0.025,1.244,0.047,1.864
			c-13.86,3.952-24.02,16.683-24.02,31.812c0,16.73,12.422,30.524,28.538,32.754v0.351h149.542c13.24,0,23.972-10.733,23.972-23.972
			C379.449,96.215,369.576,85.853,357.095,85.017z"/>
	</g>
	<g>
		<path style="fill:none;stroke:#263238;stroke-linecap:round;stroke-linejoin:round;stroke-miterlimit:10;" d="M129.517,134.319
			c0.172-0.923,0.273-1.87,0.273-2.842c0-8.532-6.917-15.449-15.449-15.449c-3.178,0-6.131,0.962-8.587,2.608
			c-3.119-7.574-10.569-12.907-19.268-12.907c-11.506,0-20.833,9.327-20.833,20.833c0,0.256,0.01,0.51,0.019,0.764
			c-5.684,1.621-9.851,6.842-9.851,13.046c0,6.861,5.094,12.518,11.704,13.432v0.144h61.329c5.43,0,9.831-4.402,9.831-9.831
			C138.685,138.911,134.636,134.662,129.517,134.319z"/>
	</g>
	<g>
		<path style="fill:none;stroke:#263238;stroke-linecap:round;stroke-linejoin:round;stroke-miterlimit:10;" d="M408.675,31.889
			c0.114-0.614,0.181-1.244,0.181-1.891c0-5.677-4.602-10.278-10.278-10.278c-2.115,0-4.079,0.64-5.713,1.735
			c-2.075-5.039-7.032-8.587-12.819-8.587c-7.655,0-13.86,6.205-13.86,13.86c0,0.17,0.007,0.339,0.013,0.509
			c-3.782,1.078-6.554,4.552-6.554,8.68c0,4.565,3.389,8.328,7.787,8.937v0.096h40.802c3.612,0,6.541-2.928,6.541-6.541
			C414.774,34.944,412.08,32.117,408.675,31.889z"/>
	</g>
</g>
<g id="Device">
	<g>
		<path style="fill:#FFFFFF;" d="M345.086,178.415h-52.108l-2.167,4.019c-2.306,4.278-6.859,6.958-11.821,6.958
			c-4.962,0-9.514-2.68-11.821-6.958l-2.167-4.019h-52.109c-5.56,0-10.068,4.39-10.068,9.805v268.342
			c0,5.415,4.508,9.805,10.068,9.805h132.192c5.56,0,10.068-4.39,10.068-9.805V188.22
			C355.154,182.805,350.646,178.415,345.086,178.415z"/>
		<rect x="207.824" y="194.619" style="fill:#92E3A9;" width="143.393" height="267.043"/>
		<g>
			<g>
				<path style="fill:#263238;" d="M263.707,312.034c0,0.756,0.3,1.211,0.983,1.211c0.672,0,0.972-0.455,0.972-1.211v-6.417h0.875
					v6.369c0,1.272-0.588,2.123-1.883,2.123c-1.283,0-1.871-0.852-1.871-2.123v-6.369h0.924V312.034z"/>
				<path style="fill:#263238;" d="M269.299,305.617c1.318,0,1.883,0.78,1.883,2.051v1.008c0,1.331-0.624,2.027-1.955,2.027h-0.828
					v3.31h-0.936v-8.396H269.299z M269.227,309.863c0.695,0,1.031-0.324,1.031-1.127v-1.116c0-0.768-0.275-1.151-0.959-1.151h-0.9
					v3.395H269.227z"/>
				<path style="fill:#263238;" d="M271.951,314.013v-8.396h0.935v7.544h2.398v0.852H271.951z"/>
				<path style="fill:#263238;" d="M275.923,307.645c0-1.283,0.636-2.111,1.919-2.111c1.296,0,1.932,0.828,1.932,2.111v4.342
					c0,1.272-0.636,2.11-1.932,2.11c-1.283,0-1.919-0.839-1.919-2.11V307.645z M276.847,312.034c0,0.768,0.324,1.211,0.995,1.211
					c0.684,0,0.996-0.443,0.996-1.211v-4.438c0-0.756-0.313-1.212-0.996-1.212c-0.671,0-0.995,0.456-0.995,1.212V312.034z"/>
				<path style="fill:#263238;" d="M281.599,312.322l-0.324,1.69h-0.863l1.607-8.396h1.354l1.608,8.396h-0.936l-0.324-1.69H281.599z
					 M281.719,311.519h1.87l-0.947-4.846L281.719,311.519z"/>
				<path style="fill:#263238;" d="M287.682,305.617c1.308,0,1.907,0.792,1.907,2.087v4.234c0,1.283-0.6,2.074-1.907,2.074h-1.967
					v-8.396H287.682z M287.67,313.161c0.672,0,0.995-0.42,0.995-1.188v-4.317c0-0.768-0.323-1.188-1.007-1.188h-1.008v6.692H287.67z
					"/>
				<path style="fill:#263238;" d="M291.402,305.617v8.396h-0.935v-8.396H291.402z"/>
				<path style="fill:#263238;" d="M293.19,314.013h-0.84v-8.396h1.188l1.943,6.069v-6.069h0.827v8.396h-0.972l-2.146-6.788V314.013
					z"/>
				<path style="fill:#263238;" d="M300.977,307.645v0.72h-0.887v-0.768c0-0.756-0.3-1.212-0.983-1.212
					c-0.672,0-0.984,0.456-0.984,1.212v4.438c0,0.756,0.313,1.211,0.984,1.211c0.684,0,0.983-0.455,0.983-1.211v-1.68h-0.864v-0.839
					h1.751v2.471c0,1.272-0.6,2.11-1.895,2.11c-1.283,0-1.883-0.839-1.883-2.11v-4.342c0-1.272,0.6-2.111,1.883-2.111
					C300.377,305.533,300.977,306.373,300.977,307.645z"/>
			</g>
			
				<rect x="244.344" y="317.612" style="fill:#FFFFFF;stroke:#263238;stroke-linecap:round;stroke-linejoin:round;stroke-miterlimit:10;" width="42.843" height="7.198"/>
			<rect x="244.344" y="317.612" style="fill:none;stroke:#263238;stroke-miterlimit:10;" width="74.036" height="7.198"/>
		</g>
		<g>
			
				<rect x="334.168" y="182.272" style="fill:none;stroke:#263238;stroke-width:0.8211;stroke-linecap:round;stroke-linejoin:round;stroke-miterlimit:10;" width="10.507" height="5.762"/>
			
				<rect x="334.168" y="182.272" style="fill:#263238;stroke:#263238;stroke-width:0.7251;stroke-linecap:round;stroke-linejoin:round;stroke-miterlimit:10;" width="8.194" height="5.762"/>
			
				<rect x="344.653" y="183.884" style="fill:#263238;stroke:#263238;stroke-width:0.7251;stroke-linecap:round;stroke-linejoin:round;stroke-miterlimit:10;" width="1.48" height="2.538"/>
		</g>
		<g>
			
				<rect x="211.502" y="184.059" style="fill:#263238;stroke:#263238;stroke-width:0.8831;stroke-linecap:round;stroke-linejoin:round;stroke-miterlimit:10;" width="1.926" height="3.302"/>
			
				<rect x="214.53" y="182.9" style="fill:#263238;stroke:#263238;stroke-width:0.8831;stroke-linecap:round;stroke-linejoin:round;stroke-miterlimit:10;" width="1.926" height="4.462"/>
			
				<rect x="217.557" y="181.53" style="fill:#263238;stroke:#263238;stroke-width:0.8831;stroke-linecap:round;stroke-linejoin:round;stroke-miterlimit:10;" width="1.926" height="5.832"/>
		</g>
		
			<line style="fill:none;stroke:#263238;stroke-linecap:round;stroke-linejoin:round;stroke-miterlimit:10;" x1="207.487" y1="190.003" x2="350.465" y2="190.003"/>
		<path style="fill:#263238;stroke:#263238;stroke-linecap:round;stroke-linejoin:round;stroke-miterlimit:10;" d="M362.573,270.642
			c0.588,0,1.065-0.477,1.065-1.065v-28.613c0-0.588-0.477-1.065-1.065-1.065h-2.778v-54.648c0-7.587-6.15-13.737-13.737-13.737
			H211.921c-7.587,0-13.737,6.15-13.737,13.737v282.012c0,7.587,6.15,13.737,13.737,13.737h134.137
			c7.587,0,13.737-6.15,13.737-13.737V295.235h2.778c0.588,0,1.065-0.477,1.065-1.065v-12.729c0-0.588-0.477-1.065-1.065-1.065
			h-2.778v-9.735H362.573z M355.154,456.562c0,5.415-4.508,9.805-10.068,9.805H212.894c-5.56,0-10.068-4.39-10.068-9.805V188.22
			c0-5.415,4.508-9.805,10.068-9.805h52.109l2.167,4.019c2.307,4.278,6.859,6.958,11.821,6.958c4.962,0,9.515-2.68,11.821-6.958
			l2.167-4.019h52.108c5.561,0,10.068,4.39,10.068,9.805V456.562z"/>
	</g>
</g>
<g id="Icons">
	<g>
		<g>
			
				<rect x="225.586" y="370.504" transform="matrix(0.9895 -0.1446 0.1446 0.9895 -53.9198 39.5871)" style="fill:#263238;stroke:#263238;stroke-linecap:round;stroke-linejoin:round;stroke-miterlimit:10;" width="39.676" height="40.582"/>
			<g>
				<path style="fill:#FFFFFF;stroke:#263238;stroke-linecap:round;stroke-linejoin:round;stroke-miterlimit:10;" d="
					M254.989,382.698l-7.724,11.126l-7.43-1c-0.74-0.1-1.482,0.151-2.015,0.682l-10.518,10.475l1.426,9.76l39.259-5.736
					l-3.017-20.648l-6.492-5.17C257.378,381.31,255.791,381.543,254.989,382.698z"/>
				<path style="fill:#FFFFFF;stroke:#263238;stroke-linecap:round;stroke-linejoin:round;stroke-miterlimit:10;" d="
					M239.739,387.335c2.736-0.4,4.622-2.992,4.214-5.791c-0.409-2.798-2.958-4.743-5.694-4.343c-2.736,0.4-4.622,2.992-4.213,5.791
					C234.454,385.79,237.003,387.734,239.739,387.335z"/>
			</g>
		</g>
		<g>
			
				<rect x="286.162" y="66.709" transform="matrix(0.9895 -0.1446 0.1446 0.9895 -9.363 45.153)" style="fill:#263238;stroke:#263238;stroke-linecap:round;stroke-linejoin:round;stroke-miterlimit:10;" width="39.676" height="40.582"/>
			<g>
				<path style="fill:#FFFFFF;stroke:#263238;stroke-linecap:round;stroke-linejoin:round;stroke-miterlimit:10;" d="
					M315.565,78.903l-7.724,11.126l-7.43-1c-0.74-0.1-1.482,0.151-2.015,0.682l-10.518,10.475l1.426,9.76l39.26-5.736l-3.017-20.649
					l-6.491-5.17C317.954,77.515,316.367,77.748,315.565,78.903z"/>
				<path style="fill:#FFFFFF;stroke:#263238;stroke-linecap:round;stroke-linejoin:round;stroke-miterlimit:10;" d="
					M300.315,83.539c2.736-0.4,4.622-2.992,4.214-5.791c-0.409-2.798-2.958-4.743-5.694-4.343c-2.736,0.4-4.622,2.992-4.214,5.791
					C295.03,81.994,297.579,83.939,300.315,83.539z"/>
			</g>
		</g>
		<g>
			
				<rect x="284.705" y="199.166" transform="matrix(0.9322 0.3619 -0.3619 0.9322 100.0764 -95.3465)" style="fill:#263238;stroke:#263238;stroke-linecap:round;stroke-linejoin:round;stroke-miterlimit:10;" width="39.676" height="40.582"/>
			<g>
				<path style="fill:#FFFFFF;stroke:#263238;stroke-linecap:round;stroke-linejoin:round;stroke-miterlimit:10;" d="
					M316.856,217.126L304.651,223l-5.972-4.533c-0.595-0.452-1.364-0.599-2.089-0.4l-14.315,3.929l-3.57,9.195l36.986,14.36
					l7.553-19.453l-3.1-7.698C319.62,217.096,318.124,216.516,316.856,217.126z"/>
				<path style="fill:#FFFFFF;stroke:#263238;stroke-linecap:round;stroke-linejoin:round;stroke-miterlimit:10;" d="
					M301.302,213.643c2.577,1.001,5.497-0.325,6.52-2.962c1.024-2.636-0.236-5.585-2.814-6.585c-2.578-1.001-5.497,0.325-6.52,2.962
					C297.465,209.694,298.725,212.643,301.302,213.643z"/>
			</g>
		</g>
		<g>
			
				<rect x="221.331" y="252.924" transform="matrix(0.9835 0.1809 -0.1809 0.9835 53.3887 -39.111)" style="fill:#263238;stroke:#263238;stroke-linecap:round;stroke-linejoin:round;stroke-miterlimit:10;" width="39.676" height="40.582"/>
			<polygon style="fill:#FFFFFF;stroke:#263238;stroke-linecap:round;stroke-linejoin:round;stroke-miterlimit:10;" points="
				253.351,274.519 233.108,257.279 228.299,283.43 			"/>
		</g>
		<g>
			
				<rect x="288.755" y="396.569" style="fill:#263238;stroke:#263238;stroke-linecap:round;stroke-linejoin:round;stroke-miterlimit:10;" width="39.676" height="40.582"/>
			<polygon style="fill:#FFFFFF;stroke:#263238;stroke-linecap:round;stroke-linejoin:round;stroke-miterlimit:10;" points="
				320.81,415.94 297.783,402.645 297.783,429.234 			"/>
		</g>
		<g>
			
				<rect x="240.846" y="110.985" transform="matrix(0.8827 -0.4699 0.4699 0.8827 -31.1135 137.8897)" style="fill:#263238;stroke:#263238;stroke-linecap:round;stroke-linejoin:round;stroke-miterlimit:10;" width="39.676" height="40.582"/>
			<polygon style="fill:#FFFFFF;stroke:#263238;stroke-linecap:round;stroke-linejoin:round;stroke-miterlimit:10;" points="
				271.036,124.723 244.462,123.808 256.956,147.279 			"/>
		</g>
	</g>
</g>
<g id="Arrows">
	<g>
		<g style="opacity:0.2;">
			<polygon style="fill:none;stroke:#000000;stroke-linecap:round;stroke-linejoin:round;stroke-miterlimit:10;" points="
				425.878,248.779 409.371,228 392.864,248.779 399.32,248.779 399.32,280.064 419.421,280.064 419.421,248.779 			"/>
			<polygon style="fill:none;stroke:#000000;stroke-linecap:round;stroke-linejoin:round;stroke-miterlimit:10;" points="
				304.043,351.252 287.536,330.473 271.029,351.252 277.486,351.252 277.486,382.537 297.587,382.537 297.587,351.252 			"/>
			<polygon style="fill:none;stroke:#000000;stroke-linecap:round;stroke-linejoin:round;stroke-miterlimit:10;" points="
				350.24,281.707 333.733,260.927 317.226,281.707 323.683,281.707 323.683,312.991 343.783,312.991 343.783,281.707 			"/>
			<polygon style="fill:none;stroke:#000000;stroke-linecap:round;stroke-linejoin:round;stroke-miterlimit:10;" points="
				185.142,249.305 168.635,228.525 152.128,249.305 158.585,249.305 158.585,280.589 178.685,280.589 178.685,249.305 			"/>
		</g>
		<g style="opacity:0.2;">
			<polygon style="fill:none;stroke:#000000;stroke-linecap:round;stroke-linejoin:round;stroke-miterlimit:10;" points="
				186.228,137.607 169.721,116.828 153.214,137.607 159.671,137.607 159.671,168.892 179.771,168.892 179.771,137.607 			"/>
			<polygon style="fill:none;stroke:#000000;stroke-linecap:round;stroke-linejoin:round;stroke-miterlimit:10;" points="
				413.212,158.789 396.705,138.01 380.198,158.789 386.655,158.789 386.655,190.074 406.756,190.074 406.756,158.789 			"/>
			<polygon style="fill:none;stroke:#000000;stroke-linecap:round;stroke-linejoin:round;stroke-miterlimit:10;" points="
				260.22,213.663 243.713,192.883 227.206,213.663 233.662,213.663 233.662,244.947 253.763,244.947 253.763,213.663 			"/>
		</g>
	</g>
</g>
<g id="Character">
	<g>
		<g>
			<path style="fill:#FFFFFF;stroke:#263238;stroke-linecap:round;stroke-linejoin:round;stroke-miterlimit:10;" d="M57.399,444.576
				c-0.542,0.181-5.417,17.696-6.681,20.044s1.986,4.334,3.611,5.598c1.625,1.264,6.32,6.862,11.557,8.668
				c5.237,1.806,12.46,1.445,11.557-0.181c-0.903-1.625-7.765-5.056-9.39-7.223c-1.625-2.167-3.792-11.196-3.792-11.196l6.501-12.64
				L57.399,444.576z"/>
			<path style="fill:#263238;stroke:#263238;stroke-linecap:round;stroke-linejoin:round;stroke-miterlimit:10;" d="M70.73,447.708
				l-0.378-0.156l-12.952-2.975c-0.161,0.054-0.705,1.64-1.422,3.898c2.429,1.504,6.89,4.019,11.571,5.419L70.73,447.708z"/>
			<path style="fill:#92E3A9;stroke:#263238;stroke-linecap:round;stroke-linejoin:round;stroke-miterlimit:10;" d="M68.053,471.482
				c-1.199-1.599-2.692-6.93-3.393-9.617c-0.757,0.369-1.992,1.034-2.927,1.852c-1.445,1.264-2.167,2.528-2.167,2.528l-7.052-6.637
				c-0.771,2.408-1.433,4.338-1.796,5.012c-1.264,2.348,1.986,4.334,3.611,5.598c1.625,1.264,6.32,6.862,11.557,8.668
				c5.237,1.806,12.46,1.445,11.557-0.181C76.54,477.08,69.678,473.649,68.053,471.482z"/>
		</g>
		<g>
			<path style="fill:#FFFFFF;stroke:#263238;stroke-linecap:round;stroke-linejoin:round;stroke-miterlimit:10;" d="
				M127.824,449.632c0,0,9.751,27.989,10.473,29.614c0.722,1.625,3.07,1.986,4.695,1.625c1.625-0.361,8.306-3.792,13.904-4.514
				c5.598-0.722,9.39-5.237,9.57-6.681s-12.821,1.083-16.613,0c-3.792-1.083-7.042-4.514-7.404-5.778
				c-0.361-1.264-1.625-20.044-1.625-20.044L127.824,449.632z"/>
			<path style="fill:#263238;stroke:#263238;stroke-linecap:round;stroke-linejoin:round;stroke-miterlimit:10;" d="
				M140.825,443.854l-13.002,5.778c0,0,0.466,1.339,1.203,3.449c2.499-0.371,7.853-1.385,12.184-3.685
				C140.987,446.256,140.825,443.854,140.825,443.854z"/>
			<path style="fill:#92E3A9;stroke:#263238;stroke-linecap:round;stroke-linejoin:round;stroke-miterlimit:10;" d="
				M156.896,476.358c5.598-0.722,9.39-5.237,9.57-6.681s-12.821,1.083-16.613,0c-2.035-0.582-3.91-1.839-5.27-3.075
				c-0.062,0.298-0.114,0.656-0.147,1.089c-0.181,2.348,0.181,3.612,0.181,3.612s-4.926,2.533-7.819,3.872
				c0.785,2.194,1.346,3.729,1.499,4.074c0.722,1.625,3.07,1.986,4.695,1.625C144.617,480.511,151.299,477.08,156.896,476.358z"/>
		</g>
		<g>
			<path style="fill:#FFFFFF;stroke:#263238;stroke-linecap:round;stroke-linejoin:round;stroke-miterlimit:10;" d="
				M111.724,278.947c0,0,4.178-1.299,10.27,5.936c6.092,7.235,19.039,44.17,19.039,44.17s-2.665,7.235-9.519,6.092
				c-6.854-1.142-18.512-38.571-18.512-38.571S108.688,276.438,111.724,278.947z"/>
			<path style="fill:#263238;stroke:#263238;stroke-linecap:round;stroke-linejoin:round;stroke-miterlimit:10;" d="M87.479,264.503
				c0,0,2.923,8.254,1.548,12.037c-1.376,3.783-10.489,2.063-14.96,7.566c-4.471,5.503,5.674,44.535,5.674,44.535
				s-10.661,20.634-12.896,34.046c-2.235,13.412-3.611,55.54-3.955,57.432c-0.344,1.892-5.674,22.698-4.643,22.526
				c1.032-0.172,9.285,4.471,11.865,5.331c2.579,0.86,3.783,1.376,3.783,1.376s14.444-21.494,18.743-31.639
				c4.299-10.145,8.941-33.359,8.941-33.359l23.901,62.934l15.819-4.471l-2.751-55.712c0,0-1.72-21.322-7.05-35.078
				c-5.331-13.756-13.24-25.621-13.24-25.621s4.643-16.851,3.267-24.761c-1.376-7.91-9.801-22.698-9.801-22.698
				s-4.299-0.172-6.018-1.719c-1.719-1.548-4.815-11.865-4.815-11.865L87.479,264.503z"/>
			<path style="fill:#FFFFFF;stroke:#263238;stroke-linecap:round;stroke-linejoin:round;stroke-miterlimit:10;" d="
				M117.257,292.036l-4.886-11.927c-0.404-0.736-0.647-1.163-0.647-1.163s-4.299-0.172-6.018-1.72
				c-1.719-1.547-4.815-11.865-4.815-11.865l-13.412-0.86c0,0,2.923,8.254,1.548,12.037c-0.808,2.223-4.289,2.552-7.929,3.556
				c2.17,1.376,4.323,3.487,5.559,6.745c3.175,8.372,6.062,11.836,6.062,11.836L117.257,292.036z"/>
			<path style="fill:#263238;stroke:#263238;stroke-linecap:round;stroke-linejoin:round;stroke-miterlimit:10;" d="
				M101.748,268.068c-0.517-1.57-0.858-2.706-0.858-2.706l-13.412-0.86c0,0,2.356,6.672,1.829,10.768
				C95.868,273.448,99.689,270.018,101.748,268.068z"/>
			
				<line style="fill:none;stroke:#858585;stroke-linecap:round;stroke-linejoin:round;stroke-miterlimit:10;" x1="101.579" y1="384.353" x2="106.516" y2="362.595"/>
			<path style="fill:#FFFFFF;stroke:#263238;stroke-linecap:round;stroke-linejoin:round;stroke-miterlimit:10;" d="M57.038,440.242
				l-0.542,3.973c0,0,3.431,3.611,8.487,5.598s7.945,2.709,7.945,2.709l3.973-5.237c0,0-3.973-1.083-10.835-4.334
				c-6.862-3.25-8.668-3.973-8.668-3.973L57.038,440.242z"/>
			<path style="fill:#FFFFFF;stroke:#263238;stroke-linecap:round;stroke-linejoin:round;stroke-miterlimit:10;" d="M122.587,445.84
				l1.986,5.237c0,0,10.293-1.445,14.085-3.25c3.792-1.806,5.959-2.709,5.959-2.709l-0.722-6.501L122.587,445.84z"/>
		</g>
		<path style="fill:#92E3A9;stroke:#263238;stroke-linecap:round;stroke-linejoin:round;stroke-miterlimit:10;" d="M121.525,301.644
			c-1.376-7.91-9.801-22.698-9.801-22.698s-2.071-0.084-3.913-0.652c0.044,0.104,0.084,0.199,0.13,0.309
			c0.86,2.063,4.127,11.177,4.127,11.177l-19.43,2.063c0,0-0.86-1.376-3.095-6.534c-1.21-2.792-3.474-4.772-5.3-6.006
			c-3.322,0.828-7.547,1.568-10.175,4.803c-4.383,5.395,5.283,43.022,5.662,44.486c31.211,0.676,38.53-2.186,38.53-2.186
			S122.901,309.554,121.525,301.644z"/>
		<g>
			
				<rect x="113.097" y="300.4" transform="matrix(0.9965 0.0833 -0.0833 0.9965 27.1777 -9.9596)" style="fill:#263238;stroke:#263238;stroke-linecap:round;stroke-linejoin:round;stroke-miterlimit:10;" width="39.676" height="40.582"/>
			<polygon style="fill:#FFFFFF;stroke:#263238;stroke-linecap:round;stroke-linejoin:round;stroke-miterlimit:10;" points="
				145.186,320.791 123.346,305.624 121.131,332.121 			"/>
		</g>
		<path style="fill:#FFFFFF;stroke:#263238;stroke-linecap:round;stroke-linejoin:round;stroke-miterlimit:10;" d="M84.212,288.748
			c0,0-1.892-7.05-7.566-6.534c-5.674,0.516-9.457,6.19-8.426,14.616s7.222,41.268,8.426,43.848
			c1.204,2.579,49.006,7.394,49.006,7.394s5.503,2.063,7.222,2.063s10.489-0.344,11.349-1.376c0.86-1.032,1.891-1.719,1.204-2.235
			c-0.688-0.516-5.502,0.172-6.706-0.344c-1.204-0.516-4.471-2.923-4.471-2.923s4.299-0.344,4.987-0.86
			c0.688-0.516,2.923-2.407,1.204-2.407c-1.719,0-4.299,0.516-6.534,0.516c-2.235,0-7.05,1.72-7.05,1.72s-11.005-3.095-18.227-6.19
			c-7.222-3.095-16.851-7.394-16.851-7.394L84.212,288.748z"/>
		<g>
			<path style="fill:#263238;stroke:#263238;stroke-linecap:round;stroke-linejoin:round;stroke-miterlimit:10;" d="
				M102.094,243.185c0,0,3.955-1.891,2.751-10.489c-1.204-8.598-17.539-8.941-26.824-5.33c-9.285,3.611-16.679,7.394-14.96,18.227
				c1.719,10.833,9.973,13.412,11.521,14.788c1.548,1.376,2.407,3.955,1.376,5.846c-1.032,1.891-2.407,1.548-2.407,1.548
				s-0.172,1.892,4.643,2.407c4.815,0.516,8.426-3.267,9.113-6.19c0.688-2.923-1.204-7.566,1.548-11.349s5.846-7.738,5.674-10.317
				c-0.172-2.579-0.344-3.611-0.344-3.611L102.094,243.185z"/>
			<path style="fill:#FFFFFF;stroke:#263238;stroke-linecap:round;stroke-linejoin:round;stroke-miterlimit:10;" d="M91.563,236.735
				c0,0,0.295,7.949-5.005,14.427c-5.3,6.477-7.949,7.066-7.949,7.066s-1.472,6.183,10.894,10.599
				c12.366,4.416,15.31-3.239,15.899-8.833c0.589-5.594-0.883-15.31-3.533-18.254C99.218,238.796,91.563,236.735,91.563,236.735z"/>
			<path style="fill:#FFFFFF;stroke:#263238;stroke-linecap:round;stroke-linejoin:round;stroke-miterlimit:10;" d="M82.142,259.7
				c0,0-5.005-8.244-7.655-3.239c-2.65,5.005,0.589,8.244,4.122,8.244c3.533,0,5.594-0.883,5.594-0.883"/>
			<path style="fill:none;stroke:#263238;stroke-linecap:round;stroke-linejoin:round;stroke-miterlimit:10;" d="M96.42,245.248
				c0,0,1.376,3.095,3.267,3.095c1.891,0,3.783-1.204,2.923,1.032c-0.86,2.235-1.892,2.751-1.892,2.751"/>
			<path style="fill:none;stroke:#263238;stroke-linecap:round;stroke-linejoin:round;stroke-miterlimit:10;" d="M91.777,256.081
				c0,0,4.643,1.892,8.77-1.204"/>
			<path style="fill:#263238;" d="M93.079,247.788c0.459,1.146,0.401,2.247-0.128,2.459c-0.529,0.212-1.33-0.546-1.788-1.692
				c-0.458-1.146-0.401-2.247,0.128-2.459C91.82,245.884,92.621,246.642,93.079,247.788z"/>
			<path style="fill:#263238;" d="M100.031,245.248c0.459,1.146,0.401,2.247-0.128,2.459c-0.529,0.212-1.33-0.546-1.788-1.692
				c-0.459-1.146-0.401-2.247,0.128-2.459C98.772,243.344,99.573,244.102,100.031,245.248z"/>
		</g>
		<path style="fill:#FFFFFF;stroke:#263238;stroke-linecap:round;stroke-linejoin:round;stroke-miterlimit:10;" d="M158.072,307.234
			c-0.808-0.55-1.801-0.749-2.772-0.637c-1.278,0.148-3.037,0.47-3.037,1.128c0,1.033,4.751,2.065,6.196,1.033
			C159.183,308.241,158.718,307.673,158.072,307.234z"/>
		<path style="fill:#FFFFFF;stroke:#263238;stroke-linecap:round;stroke-linejoin:round;stroke-miterlimit:10;" d="M158.769,309.865
			c-0.808-0.55-1.801-0.749-2.772-0.637c-1.278,0.148-3.037,0.47-3.037,1.128c0,1.033,4.75,2.065,6.196,1.033
			C159.879,310.872,159.414,310.304,158.769,309.865z"/>
		<path style="fill:#FFFFFF;stroke:#263238;stroke-linecap:round;stroke-linejoin:round;stroke-miterlimit:10;" d="M158.573,312.66
			c-0.808-0.549-1.801-0.749-2.772-0.637c-1.278,0.148-3.037,0.47-3.037,1.128c0,1.033,4.75,2.065,6.196,1.033
			C159.683,313.667,159.218,313.099,158.573,312.66z"/>
		<path style="fill:#FFFFFF;stroke:#263238;stroke-linecap:round;stroke-linejoin:round;stroke-miterlimit:10;" d="M156.813,315.132
			c-0.607-0.413-1.353-0.563-2.083-0.479c-0.96,0.111-2.281,0.353-2.281,0.847c0,0.776,3.569,1.552,4.655,0.776
			C157.647,315.889,157.298,315.462,156.813,315.132z"/>
	</g>
</g>
<g id="Floor_1_">
	
		<line style="fill:none;stroke:#263238;stroke-linecap:round;stroke-linejoin:round;stroke-miterlimit:10;" x1="23" y1="481" x2="477" y2="481"/>
</g>
</svg>
