<?xml version="1.0" encoding="utf-8"?>
<!-- Generator: Adobe Illustrator 27.5.0, SVG Export Plug-In . SVG Version: 6.00 Build 0)  -->
<svg version="1.1" xmlns="http://www.w3.org/2000/svg" xmlns:xlink="http://www.w3.org/1999/xlink" x="0px" y="0px"
	 viewBox="0 0 500 500" style="enable-background:new 0 0 500 500;" xml:space="preserve">
<g id="Background_Simple">
	<g>
		<path style="opacity:0.7;fill:#FFFFFF;" d="M67.931,167.086c0,0-27.877,71.988,11.297,144.503
			c39.174,72.516,119.879,110.802,184.469,143.548c64.59,32.746,131.661,16.799,163.534-36.838
			c31.873-53.637-11.845-91.928-11.897-168.418c-0.051-76.49,11.447-96.742-29.963-161.364
			c-41.41-64.623-143.059-78.925-219.9-30.996C88.631,105.45,67.931,167.086,67.931,167.086z"/>
	</g>
	<g>
		<path style="fill:#92E3A9;" d="M73.945,188.662c35.417-35.404,65.406-5.701,78.043-53.242
			c28.543-107.385,146.913-106.339,162.478-29.952c28.048,137.645,150.189,50.232,149.281,148.817
			c-0.969,105.255-78.371,187.232-217.193,195.424C122.101,457.055,15.264,247.322,73.945,188.662z"/>
		<path style="opacity:0.7;fill:#FFFFFF;" d="M73.945,188.662c35.417-35.404,65.406-5.701,78.043-53.242
			c28.543-107.385,146.913-106.339,162.478-29.952c28.048,137.645,150.189,50.232,149.281,148.817
			c-0.969,105.255-78.371,187.232-217.193,195.424C122.101,457.055,15.264,247.322,73.945,188.662z"/>
	</g>
</g>
<g id="Discount">
	<g>
		<g>
			<g>
				<path style="fill:#263238;" d="M161.81,128.348c-0.224-1.908,0.633-3.081,2.46-3.295c1.829-0.214,2.933,0.73,3.156,2.638
					l0.714,6.093c0.223,1.907-0.633,3.083-2.461,3.297c-1.828,0.214-2.932-0.732-3.156-2.639L161.81,128.348z M164.394,134.356
					c0.096,0.822,0.481,1.125,1.09,1.054c0.583-0.068,0.914-0.456,0.817-1.278l-0.745-6.357c-0.096-0.821-0.508-1.123-1.091-1.054
					c-0.609,0.071-0.913,0.456-0.816,1.278L164.394,134.356z M171.598,124.328l1.722-0.202l-5.14,19.4l-1.722,0.202L171.598,124.328
					z M171.797,134.053c-0.223-1.907,0.633-3.082,2.461-3.296c1.828-0.214,2.932,0.73,3.155,2.638l0.714,6.094
					c0.224,1.907-0.633,3.082-2.461,3.296c-1.828,0.214-2.932-0.73-3.156-2.638L171.797,134.053z M174.381,140.061
					c0.096,0.821,0.48,1.126,1.09,1.054c0.583-0.068,0.914-0.457,0.817-1.278l-0.745-6.358c-0.096-0.821-0.508-1.122-1.09-1.053
					c-0.609,0.071-0.913,0.456-0.817,1.277L174.381,140.061z"/>
			</g>
			<path style="fill:none;stroke:#263238;stroke-linecap:round;stroke-linejoin:round;stroke-miterlimit:10;" d="M182.47,146.959
				l-21.649,2.536c-1.026,0.12-1.955-0.614-2.075-1.64l-2.619-22.363c-0.099-0.844,0.197-1.686,0.802-2.283l9.038-8.909
				c0.898-0.886,2.284-1.048,3.362-0.394l10.852,6.579c0.727,0.44,1.209,1.192,1.308,2.036l2.619,22.363
				C184.23,145.91,183.496,146.839,182.47,146.959z"/>
			<path style="fill:none;stroke:#263238;stroke-linecap:round;stroke-linejoin:round;stroke-miterlimit:10;" d="M169.363,116.791
				c0.089,0.762-0.456,1.453-1.219,1.542c-0.762,0.089-1.453-0.456-1.542-1.219c-0.089-0.762,0.456-1.453,1.219-1.542
				C168.584,115.483,169.274,116.029,169.363,116.791z"/>
			<path style="fill:none;stroke:#263238;stroke-linecap:round;stroke-linejoin:round;stroke-miterlimit:10;" d="M167.983,101.128
				c0,0,4.233,16.291,0,15.824"/>
			<path style="fill:none;stroke:#263238;stroke-linecap:round;stroke-linejoin:round;stroke-miterlimit:10;" d="M166.904,113.697
				c0.826-4.527,4.977-12.156,4.977-12.156"/>
			<path style="fill:none;stroke:#263238;stroke-linecap:round;stroke-linejoin:round;stroke-miterlimit:10;" d="M167.983,116.952
				c-0.56-0.062-0.904-0.377-1.078-0.877"/>
		</g>
		<g>
			<path style="fill:none;stroke:#263238;stroke-linecap:round;stroke-linejoin:round;stroke-miterlimit:10;" d="M186.874,107.176
				c3.732,3.013,6.686,7.003,8.438,11.655"/>
			<path style="fill:none;stroke:#263238;stroke-linecap:round;stroke-linejoin:round;stroke-miterlimit:10;" d="M143.042,121.628
				c2.695-10.354,11.347-18.61,22.6-20.259c6.768-0.992,13.32,0.576,18.676,3.973"/>
			<path style="fill:none;stroke:#263238;stroke-linecap:round;stroke-linejoin:round;stroke-miterlimit:10;" d="M151.587,149.236
				c-4.773-4.154-8.14-9.969-9.13-16.721"/>
			<path style="fill:none;stroke:#263238;stroke-linecap:round;stroke-linejoin:round;stroke-miterlimit:10;" d="M168.546,155.974
				c-5.124-0.195-9.969-1.823-14.075-4.543"/>
			<path style="fill:none;stroke:#263238;stroke-linecap:round;stroke-linejoin:round;stroke-miterlimit:10;" d="M196.788,124.554
				c2.198,15.003-8.182,28.948-23.185,31.146"/>
		</g>
	</g>
</g>
<g id="Gift">
	<g>
		<g>
			<path style="fill:none;stroke:#263238;stroke-linecap:round;stroke-linejoin:round;stroke-miterlimit:10;" d="M129.04,244.88
				l-31.289-6.032c-0.898-0.173-1.485-1.041-1.312-1.939l3.98-20.647l34.54,6.659l-3.98,20.647
				C130.806,244.465,129.938,245.053,129.04,244.88z"/>
			<path style="fill:none;stroke:#263238;stroke-linecap:round;stroke-linejoin:round;stroke-miterlimit:10;" d="M102.532,209.334
				l33.042,6.37c0.898,0.173,1.485,1.041,1.312,1.939l-1.05,5.446l-36.293-6.997l1.05-5.446
				C100.766,209.749,101.634,209.161,102.532,209.334z"/>
			
				<rect x="113.709" y="212.249" transform="matrix(0.9819 0.1893 -0.1893 0.9819 45.1064 -17.8928)" style="fill:none;stroke:#263238;stroke-linecap:round;stroke-linejoin:round;stroke-miterlimit:10;" width="5.03" height="29.885"/>
			<path style="fill:none;stroke:#263238;stroke-linecap:round;stroke-linejoin:round;stroke-miterlimit:10;" d="M119.053,212.519
				c0,0,8.562-6.248,12.523-4.356c3.961,1.892,2.005,7.157,0.011,6.772"/>
			<path style="fill:none;stroke:#263238;stroke-linecap:round;stroke-linejoin:round;stroke-miterlimit:10;" d="M122.439,213.172
				c0,0,6.97-3.468,7.984-1.901c1.014,1.567-2,3.055-4.312,2.609"/>
			<path style="fill:none;stroke:#263238;stroke-linecap:round;stroke-linejoin:round;stroke-miterlimit:10;" d="M119.284,212.094
				c0,0,3.618-6.574,3.145-8.672l2.414-0.005c0,0,0.786,2.493-2.032,6.75"/>
			<path style="fill:none;stroke:#263238;stroke-linecap:round;stroke-linejoin:round;stroke-miterlimit:10;" d="M119.053,212.519
				c0,0-5.626-8.983-10.006-8.699s-4.522,5.898-2.528,6.283"/>
			<path style="fill:none;stroke:#263238;stroke-linecap:round;stroke-linejoin:round;stroke-miterlimit:10;" d="M115.667,211.867
				c0,0-5.181-5.811-6.705-4.733c-1.524,1.078,0.721,3.579,3.033,4.025"/>
			<path style="fill:none;stroke:#263238;stroke-linecap:round;stroke-linejoin:round;stroke-miterlimit:10;" d="M118.997,212.038
				c0,0-0.915-7.448,0.304-9.219l-2.24-0.902c0,0-1.656,2.022-0.623,7.021"/>
		</g>
		<g>
			<path style="fill:none;stroke:#263238;stroke-linecap:round;stroke-linejoin:round;stroke-miterlimit:10;" d="M144.548,201.995
				c3.797,4.805,6.349,10.609,7.218,16.897"/>
			<path style="fill:none;stroke:#263238;stroke-linecap:round;stroke-linejoin:round;stroke-miterlimit:10;" d="M85.88,207.618
				c6.28-12.134,19.386-19.973,33.865-18.849c8.708,0.676,16.426,4.478,22.137,10.221"/>
			<path style="fill:none;stroke:#263238;stroke-linecap:round;stroke-linejoin:round;stroke-miterlimit:10;" d="M88.727,244.413
				c-4.771-6.521-7.323-14.714-6.649-23.402"/>
			<path style="fill:none;stroke:#263238;stroke-linecap:round;stroke-linejoin:round;stroke-miterlimit:10;" d="M107.945,257.592
				c-6.326-1.69-11.9-5.085-16.247-9.631"/>
			<path style="fill:none;stroke:#263238;stroke-linecap:round;stroke-linejoin:round;stroke-miterlimit:10;" d="M151.988,226.437
				c-1.498,19.305-18.363,33.741-37.668,32.243"/>
		</g>
	</g>
</g>
<g id="Update">
	<g>
		<g>
			<g>
				<path style="fill:none;stroke:#263238;stroke-linecap:round;stroke-linejoin:round;stroke-miterlimit:10;" d="M290.681,133.075
					l-2.941-1.504c0.532-1.295,0.522-2.929,0.433-4.01c0.96,0.442,1.926,0.897,2.839,1.333
					C290.96,130.102,290.861,131.53,290.681,133.075z"/>
				<path style="fill:none;stroke:#263238;stroke-linecap:round;stroke-linejoin:round;stroke-miterlimit:10;" d="M294.964,130.829
					c0.955,0.488,1.952,0.815,2.959,0.99c0.697,3.861,0.998,10.282-2.407,16.939c-0.756,1.479-8.733-2.602-7.977-4.081
					c1.824-3.565,2.713-7.911,3.141-11.602c0.179-1.545,0.279-2.973,0.331-4.182C292.673,129.686,294.14,130.408,294.964,130.829z"
					/>
				<path style="fill:none;stroke:#263238;stroke-linecap:round;stroke-linejoin:round;stroke-miterlimit:10;" d="M304.464,112.26
					c2.557,1.308,4.354,3.541,5.165,6.077c0.826,2.53,0.675,5.393-0.633,7.95c-1.314,2.567-3.542,4.354-6.082,5.175
					c-1.585,0.518-3.301,0.651-4.991,0.357c-1.007-0.175-2.004-0.502-2.959-0.99c-0.824-0.422-2.291-1.143-3.952-1.936
					c-0.912-0.435-1.879-0.89-2.839-1.333c-2.3-1.06-4.528-2.035-5.681-2.41l10.07-19.683
					C294.692,107.026,302.103,111.052,304.464,112.26z"/>
				<path style="fill:none;stroke:#263238;stroke-linecap:round;stroke-linejoin:round;stroke-miterlimit:10;" d="M282.796,96.179
					c2.837,3.533,6.118,6.655,9.766,9.289l-10.07,19.683c-4.271-1.417-8.722-2.251-13.247-2.484l-3.907-0.204l15.007-29.333
					L282.796,96.179z"/>
				<path style="fill:none;stroke:#263238;stroke-linecap:round;stroke-linejoin:round;stroke-miterlimit:10;" d="M260.796,123.294
					l17.566-34.337c0.277-0.542,0.942-0.757,1.484-0.48l1.299,0.665c0.542,0.277,0.757,0.942,0.48,1.484l-1.281,2.504
					l-15.007,29.333l-1.279,2.499c-0.277,0.542-0.942,0.757-1.484,0.48l-1.299-0.665C260.734,124.5,260.519,123.836,260.796,123.294
					z"/>
			</g>
			
				<line style="fill:#757575;stroke:#263238;stroke-linecap:round;stroke-linejoin:round;stroke-miterlimit:10;" x1="261.319" y1="101.902" x2="254.548" y2="98.438"/>
			
				<line style="fill:#757575;stroke:#263238;stroke-linecap:round;stroke-linejoin:round;stroke-miterlimit:10;" x1="269.25" y1="91.039" x2="264.983" y2="83.572"/>
			
				<line style="fill:#757575;stroke:#263238;stroke-linecap:round;stroke-linejoin:round;stroke-miterlimit:10;" x1="257.153" y1="114.685" x2="248.601" y2="115.594"/>
		</g>
		<g>
			<path style="fill:none;stroke:#263238;stroke-linecap:round;stroke-linejoin:round;stroke-miterlimit:10;" d="M313.741,82.359
				c-5.81-5.371-13.03-9.239-21.042-10.986"/>
			<path style="fill:none;stroke:#263238;stroke-linecap:round;stroke-linejoin:round;stroke-miterlimit:10;" d="M300.634,157.364
				c16.257-6.876,27.664-22.974,27.664-41.736c0-11.284-4.126-21.605-10.953-29.535"/>
			<path style="fill:none;stroke:#263238;stroke-linecap:round;stroke-linejoin:round;stroke-miterlimit:10;" d="M253.525,150.02
				c7.923,6.797,18.221,10.903,29.478,10.903"/>
			<path style="fill:none;stroke:#263238;stroke-linecap:round;stroke-linejoin:round;stroke-miterlimit:10;" d="M238.47,123.948
				c1.544,8.317,5.361,15.837,10.782,21.889"/>
			<path style="fill:none;stroke:#263238;stroke-linecap:round;stroke-linejoin:round;stroke-miterlimit:10;" d="M283.003,70.333
				c-25.016,0-45.295,20.279-45.295,45.295"/>
		</g>
	</g>
</g>
<g id="Heart">
	<g>
		<path style="fill:none;stroke:#263238;stroke-linecap:round;stroke-linejoin:round;stroke-miterlimit:10;" d="M202.781,188.557
			c-3.802-3.397-7.741-1.907-9.758-0.714c-0.405-2.309-1.843-6.273-6.896-6.953c-5.486-0.73-9.973,4.623-8.504,12.073
			c1.064,5.359,4.487,10.268,6.324,12.591c0.219,0.279,0.424,0.523,0.592,0.719c0.258,0,0.576-0.002,0.931-0.018
			c2.959-0.115,8.914-0.706,13.669-3.387C205.763,199.144,206.903,192.25,202.781,188.557z"/>
		<g>
			<g>
				<path style="fill:none;stroke:#263238;stroke-linecap:round;stroke-linejoin:round;" d="M181.428,209.755
					c0,0-0.267,0.498-0.63,1.358"/>
				<path style="fill:none;stroke:#263238;stroke-linecap:round;stroke-linejoin:round;stroke-dasharray:2.9483,2.9483;" d="
					M179.808,213.885c-1.462,4.927-2.332,13.126,5.517,18.131c19.72,12.572,26.355-17.085,11.256-14.42
					c-10.35,1.827,0.528,29.133,16.719,23.838"/>
				<path style="fill:none;stroke:#263238;stroke-linecap:round;stroke-linejoin:round;" d="M214.685,240.905
					c0.446-0.194,0.895-0.414,1.348-0.66"/>
			</g>
		</g>
	</g>
</g>
<g id="Character">
	<g>
		<g>
			<g>
				<defs>
					<path id="XMLID_4_" d="M190.454,422.095c0,0-11.13,7.573-15.614,7.069c-0.557-0.055-0.995-0.231-1.319-0.559
						c-2.925-3.017-5.274-8.314-5.274-8.314s1.391-1.934,5.69,3.191l2.732-2.507l-5.64-5.665c0,0,3.175-2.521,8.563,0.686
						c-0.179-0.386-3.658-7.952-1.035-18.254l-13.138-12.656l11.629-10.132l0.896-0.78c0,0,0.734,0.722,1.917,1.841
						c1.146,1.086,2.723,2.539,4.437,4.043c4.102,3.604,9.062,7.509,11.212,7.473C199.489,387.453,190.454,422.095,190.454,422.095z
						"/>
				</defs>
				<use xlink:href="#XMLID_4_"  style="overflow:visible;fill:#FFFFFF;"/>
				<clipPath id="XMLID_00000085214555916832148870000009489611854792534154_">
					<use xlink:href="#XMLID_4_"  style="overflow:visible;"/>
				</clipPath>
				<path style="opacity:0.4;clip-path:url(#XMLID_00000085214555916832148870000009489611854792534154_);fill:#92E3A9;" d="
					M181.848,417.132c0,0-6.34,6.538-7.007,12.032c-0.557-0.055-0.995-0.231-1.319-0.559c-2.925-3.017-5.274-8.314-5.274-8.314
					s1.391-1.934,5.69,3.191l2.732-2.507l-5.64-5.665c0,0,3.175-2.521,8.563,0.686c-0.179-0.386-3.658-7.952-1.035-18.254
					l-13.138-12.656l11.629-10.132l2.813,1.061c1.146,1.086,2.723,2.539,4.437,4.043c-2.461,3.613-7.732,11.07-7.732,11.07
					l4.554,6.179C181.121,397.308,178.36,412.885,181.848,417.132z"/>
				
					<use xlink:href="#XMLID_4_"  style="overflow:visible;fill:none;stroke:#263238;stroke-linecap:round;stroke-linejoin:round;stroke-miterlimit:10;"/>
			</g>
			<path style="fill:none;stroke:#263238;stroke-linecap:round;stroke-linejoin:round;stroke-miterlimit:10;" d="M176.67,420.978
				c0,0,0.968-3.039,2.934-4.974"/>
		</g>
		<path style="fill:#92E3A9;" d="M384.373,333.911c-1.579,2.4-3.73,4.663-6.301,6.792c0,0-0.01-0.001-0.011,0.009
			c-20.47,16.948-67.663,25.323-67.663,25.323s-1.577,2.37-4.008,5.744c-4.365,6.056-11.512,15.358-17.339,20.022l-0.01-0.001
			c-2.458,1.977-4.688,3.121-6.369,2.813l8.85,32.704l3.963,14.198c0,0-40.691,17.753-110.296-2.551c0,0-0.787-9.084-0.198-11.022
			c0.027-0.088,0.055-0.186,0.093-0.283c0.649-1.563,2.727-3.43,2.727-3.43s-0.388-5.841-0.587-11.786
			c-0.157-4.618-0.198-9.297,0.142-11.376c0.495-3,2.689-10.246,3.791-13.808c0.394-1.262,0.649-2.064,0.649-2.064l-3.464-32.437
			l-0.997-9.342c0,0-0.016-0.172-0.051-0.486c-0.004-0.071-0.009-0.141-0.021-0.232l-0.546-5.011l-17.902,5.468
			c0,0,0.954,2.094,2.229,5.037c2.352,5.378,5.81,13.575,6.579,16.818c0.059,0.266,0.138,0.523,0.228,0.781
			c1.662,4.73,7.965,9.025,7.965,9.025l-16.95,19.812l-5.013-3.498c0,0-0.729,0.573-2.02,1.271
			c-3.296,1.789-10.211,4.418-17.761,0.403c-2.76-1.468-5.599-3.816-8.377-7.413c-13.363-17.299-19.1-31.39-17.221-47.972
			c1.88-16.592,76.346-67.599,91.121-67.07l21.979,4.856c0.473-0.393,1.76-1.412,2.749-1.362c3.997,0.204,4.101,4.848,4.101,4.848
			l49.254,7.995c0,0,5.104-2.555,5.993-2.513c2.178,0.107,3.11,1.978,3.11,1.978s12.761-7.642,16.87-5.863
			C327.156,286.11,394.343,318.759,384.373,333.911z"/>
		<g>
			<path style="opacity:0.2;" d="M213.265,414.859c0,0-7.646,9.392-21.316,11.562c-2.592,0.411-4.873,0.828-6.863,1.238
				c0.649-1.563,2.727-3.43,2.727-3.43s-0.388-5.841-0.587-11.786C193.008,416.223,203.075,420.622,213.265,414.859z"/>
			<path style="opacity:0.2;" d="M191.158,387.258c0.394-1.262,0.649-2.064,0.649-2.064l-3.464-32.437
				c5.176,7.423,23.638,32.722,36.368,35.452C238.014,391.055,202.439,396.09,191.158,387.258z"/>
			<path style="opacity:0.2;" d="M291.523,427.318c-13.898-1.581-33.559-5.085-35.526-12.358
				c-3.06-11.365,11.841-18.181,33.044-23.16c-2.458,1.977-4.688,3.121-6.369,2.813L291.523,427.318z"/>
			<path style="opacity:0.2;" d="M378.061,340.712c-20.47,16.948-67.663,25.323-67.663,25.323s-1.577,2.37-4.008,5.744
				c-3.988-9.324-9.736-28.602-3.014-52.296c0,0,3.637,19.689,18.728,24.367c0,0-11.551-8.604-7.52-29.315
				c0,0,3.938,24.379,29.588,31.108C356.647,348.915,368.83,345.29,378.061,340.712z"/>
			<path style="opacity:0.2;" d="M187.295,342.929l-0.567-5.243l-17.902,5.468c0,0,0.954,2.094,2.229,5.037
				c-6.845-0.707-19.833,5.652-22.099-1.274c-2.732-8.359,14.08-5.478,14.08-5.478l15.859-9.226
				c-3.001-12.825,4.635-22.468,4.635-22.468l1.45,8.947c0.696-17.011,7.348-26.316,7.348-26.316
				C186.794,305.829,186.947,338.938,187.295,342.929z"/>
			<path style="opacity:0.2;" d="M185.828,374.815l-16.95,19.812l-5.013-3.498c0,0-0.729,0.573-2.02,1.271
				c-3.296,1.789-10.211,4.418-17.761,0.403c5.494-7.6,16.837-18.788,30.341-23.109c0,0-5.557,8.127-9.006,15.391l3.483,3.433
				C168.902,388.519,177.593,378.611,185.828,374.815z"/>
			<path style="opacity:0.2;" d="M227.003,287.554c-0.005,1.744-1.104,21.568,13.315,26.806c14.419,5.237,27.241-3.645,27.241-3.645
				s-22.116,21.327-35.571,9.93C218.534,309.246,227.003,287.554,227.003,287.554z"/>
		</g>
		<path style="fill:none;stroke:#263238;stroke-linecap:round;stroke-linejoin:round;stroke-miterlimit:10;" d="M185.19,438.96
			c0,0-0.782-9.083-0.202-11.018c0.486-1.621,2.821-3.712,2.821-3.712s-1.224-18.414-0.44-23.16
			c0.672-4.067,4.442-15.88,4.442-15.88l-5.079-47.504l-17.902,5.472c0,0,7.622,16.838,8.802,21.855c1.18,5.018,8.2,9.805,8.2,9.805
			l-16.957,19.807l-5.008-3.492c0,0-14.794,11.566-28.158-5.74c-13.364-17.306-19.099-31.393-17.222-47.98
			c1.877-16.587,76.352-67.596,91.127-67.071l21.975,4.859c0.476-0.391,1.761-1.41,2.749-1.36c3.997,0.204,4.101,4.849,4.101,4.849
			l49.249,7.995c0,0,5.112-2.555,6-2.511c2.179,0.109,3.111,1.972,3.111,1.972s12.755-7.637,16.871-5.861
			c13.487,5.819,80.672,38.472,70.704,53.624c-14.15,21.509-73.971,32.121-73.971,32.121s-19.897,30.005-27.733,28.577
			l12.816,46.908"/>
		<path style="fill:#92E3A9;stroke:#263238;stroke-linecap:round;stroke-linejoin:round;stroke-miterlimit:10;" d="M332.326,337.195
			c22.601,14.931,40.819,12.166,55.081-7.044c0,0,11.872-15.303,11.031-31.818c-0.841-16.514-4.785-70.365-56.238-56.596
			c-8.467,2.266-28.234,28.737-29.9,36.01c-0.761,3.324-8.696,20.247-16.397,37.763"/>
		<path style="fill:#263238;" d="M271.174,179.021c0,0,14.394-2.185,24.401,6.772c12.649,11.322,26.847,41.84,6.621,92.423
			c0,0-29.875-19.836-80.865-6.571c0,0,4.39-11.867-3.317-49.214C214.53,205.545,223.291,166.611,271.174,179.021z"/>
		<g>
			<path style="fill:#FFFFFF;stroke:#263238;stroke-linecap:round;stroke-linejoin:round;stroke-miterlimit:10;" d="
				M249.343,305.948c21.31,3.454,43.956-20.135,43.956-20.135s-11.588-1.428-12.625-6.868
				c-3.324-17.161,10.045-38.358,10.045-38.358s-51.743,1.432-42.695,13.141c1.898,2.458,3.204,4.811,4.092,7.018
				c3.137,7.708,0.961,13.523-0.709,14.942c-0.121,0.103-0.258,0.185-0.376,0.25c-3.131,1.431-15.991-0.7-15.991-0.7
				S229.899,302.796,249.343,305.948z"/>
			<path style="fill:none;stroke:#263238;stroke-linecap:round;stroke-linejoin:round;stroke-miterlimit:10;" d="M285.962,292.344
				c0,0-9.825,3.931-24.22,2.762l-6.484,3.177"/>
			<path style="fill:none;stroke:#263238;stroke-linecap:round;stroke-linejoin:round;stroke-miterlimit:10;" d="M248.804,297.759
				l-0.476-4.255c0,0-10.612-3.324-13.898-9.635"/>
			<path style="fill:#263238;" d="M251.408,275.687c15.847,4.142,23.288-16.181,23.288-16.181s-12.677-3.78-22.579,1.239
				C255.254,268.453,253.078,274.268,251.408,275.687z"/>
		</g>
		<g>
			<path style="fill:#FFFFFF;stroke:#263238;stroke-linecap:round;stroke-linejoin:round;stroke-miterlimit:10;" d="
				M291.634,229.896c3.855-21.639-0.43-47.608-33.365-45.456c-23.53,1.537-23.337,27.336-21.779,35.036
				c2.62,12.951-1.134,18.051,2.9,28.93c2.9,7.818,9.638,16.561,17.567,19.837c4.878,2.015,24.627-11.843,26.087-18.179"/>
			<path style="fill:none;stroke:#263238;stroke-linecap:round;stroke-linejoin:round;stroke-miterlimit:10;" d="M250.249,223.516
				c-0.197,2.429-0.483,8.447-5.628,12.886c-3.328,2.871,4.312,5.81,4.312,5.81"/>
			<path style="fill:none;stroke:#263238;stroke-linecap:round;stroke-linejoin:round;stroke-miterlimit:10;" d="M244.782,214.93
				c0,0-7.268-3.541-12.179,2.302"/>
			<path style="fill:none;stroke:#263238;stroke-linecap:round;stroke-linejoin:round;stroke-miterlimit:10;" d="M256.973,214.472
				c0,0,7.024-2.519,15.537,0.611"/>
			<path style="fill:#263238;" d="M264.522,224.687c0.226,2.088,1.631,3.648,3.139,3.485c1.508-0.163,2.547-1.988,2.321-4.075
				c-0.226-2.088-1.631-3.648-3.139-3.485C265.336,220.775,264.296,222.599,264.522,224.687z"/>
			<path style="fill:none;stroke:#263238;stroke-linecap:round;stroke-linejoin:round;stroke-miterlimit:10;" d="M249.293,249.05
				c9.14-1.109,16.254-5.937,16.254-5.937s0.678,9.078-6.924,10.966c-5.832,1.448-8.09-5.208-8.09-5.208"/>
			<path style="fill:#263238;" d="M270.667,192.684c0,0-2.084,25.642,20.552,34.958l10.604-24.648l-16.042-17.768l-24.172-6.983
				c-36.112,2.251-51.66,24.694-31.609,84.476C230,262.719,224.393,191.517,270.667,192.684z"/>
			<path style="fill:#FFFFFF;stroke:#263238;stroke-linecap:round;stroke-linejoin:round;stroke-miterlimit:10;" d="M286.27,228.73
				c-0.312-2.882,6.977-10.223,9.444-5.512c4.205,8.028,1.141,15.028-3.207,17.77c-1.948,1.228-4.415,3.528-6.15,1.358"/>
			<path style="fill:#263238;" d="M242.484,225.641c0.226,2.088,1.631,3.648,3.139,3.485c1.508-0.163,2.547-1.988,2.321-4.075
				c-0.226-2.088-1.631-3.648-3.139-3.485C243.298,221.729,242.258,223.553,242.484,225.641z"/>
			<g style="opacity:0.2;">
				<path style="fill:none;stroke:#FFFFFF;stroke-linecap:round;stroke-linejoin:round;stroke-miterlimit:10;" d="M226.798,221.432
					c-0.271,1.74-0.456,3.494-0.563,5.252"/>
				<path style="fill:none;stroke:#FFFFFF;stroke-linecap:round;stroke-linejoin:round;stroke-miterlimit:10;" d="M266.916,188.019
					c-18.294-0.483-35.295,11.178-39.341,29.488"/>
				<path style="fill:none;stroke:#FFFFFF;stroke-linecap:round;stroke-linejoin:round;stroke-miterlimit:10;" d="M263.649,182.792
					c0,0-26.38-6.205-36.272,11.294"/>
				<path style="fill:none;stroke:#FFFFFF;stroke-linecap:round;stroke-linejoin:round;stroke-miterlimit:10;" d="M285.052,213.277
					c1.614,2.241,3.488,4.315,5.687,5.996"/>
				<path style="fill:none;stroke:#FFFFFF;stroke-linecap:round;stroke-linejoin:round;stroke-miterlimit:10;" d="M274.589,186.21
					c1.413,8.245,4.129,16.619,8.368,23.842"/>
				<path style="fill:none;stroke:#FFFFFF;stroke-linecap:round;stroke-linejoin:round;stroke-miterlimit:10;" d="M301.096,265.57
					c-0.468,2.101-1.018,4.183-1.643,6.243"/>
				<path style="fill:none;stroke:#FFFFFF;stroke-linecap:round;stroke-linejoin:round;stroke-miterlimit:10;" d="M299.571,230.709
					c4.28,9.502,3.986,21.324,2.229,31.325"/>
				<path style="fill:none;stroke:#FFFFFF;stroke-linecap:round;stroke-linejoin:round;stroke-miterlimit:10;" d="M296.429,247.257
					c0,0,1.311,10.604-7.436,19.551"/>
				<path style="fill:none;stroke:#FFFFFF;stroke-linecap:round;stroke-linejoin:round;stroke-miterlimit:10;" d="M284.265,189.27
					c4.489,6.07,7.82,12.577,13.023,18.12c5.477,5.835,10.953,12.522,11.982,20.743"/>
				<path style="fill:none;stroke:#FFFFFF;stroke-linecap:round;stroke-linejoin:round;stroke-miterlimit:10;" d="M277.941,182.961
					c1.289,0.836,2.458,1.844,3.52,2.952"/>
			</g>
		</g>
		<path style="fill:#263238;stroke:#263238;stroke-linecap:round;stroke-linejoin:round;stroke-miterlimit:10;" d="M368.191,323.767
			c-0.521,0.118-1.05,0.206-1.588,0.282c-14.16,2.02-30.042-9.715-35.397-23.815c-4.233-11.129-0.527-23.761,1.487-29.165
			c0.639-1.694,1.101-2.68,1.101-2.68c8.536-12.199,58.187,11.661,58.764,24.811C393.135,306.34,382.737,320.585,368.191,323.767z"
			/>
		<g>
			<defs>
				<path id="XMLID_3_" d="M383.724,294.98c0,0-2.821,20.89-17.12,29.069c-14.16,2.02-30.042-9.715-35.397-23.815
					c-4.233-11.129-0.527-23.761,1.487-29.165c0.001-0.01,0.011-0.009,0.011-0.009C349.432,261.513,383.724,294.98,383.724,294.98z"
					/>
			</defs>
			<use xlink:href="#XMLID_3_"  style="overflow:visible;fill:#FFFFFF;"/>
			<clipPath id="XMLID_00000165956419333826078480000015868778231579053477_">
				<use xlink:href="#XMLID_3_"  style="overflow:visible;"/>
			</clipPath>
			<path style="opacity:0.4;clip-path:url(#XMLID_00000165956419333826078480000015868778231579053477_);fill:#92E3A9;" d="
				M383.724,294.98c0,0-2.821,20.89-17.12,29.069c-14.16,2.02-30.042-9.715-35.397-23.815c-4.233-11.129-0.527-23.761,1.487-29.165
				c0.001-0.01,0.011-0.009,0.011-0.009C349.432,261.513,383.724,294.98,383.724,294.98z"/>
			
				<use xlink:href="#XMLID_3_"  style="overflow:visible;fill:none;stroke:#263238;stroke-linecap:round;stroke-linejoin:round;stroke-miterlimit:10;"/>
		</g>
		<path style="fill:none;stroke:#263238;stroke-linecap:round;stroke-linejoin:round;stroke-miterlimit:10;" d="M325.182,305.983
			c0,0,16.121,23.14,34.946,25.066c18.825,1.927,30.865-13.93,31.647-25.89"/>
		<path style="fill:#FFFFFF;stroke:#263238;stroke-linecap:round;stroke-linejoin:round;stroke-miterlimit:10;" d="M316.112,201.532
			c1.419-3.967,11.588-2.636,14.811,9.73c3.223,12.366,15.947,42.404,15.947,42.404s50.529-74.356,59.594-77.222
			c9.065-2.866,5.473,10.018-6.629,27.896c0,0,11.336-1.996,14.311,0.009c2.975,2.005,1.528,14.008,3.113,18.217
			c2.656,7.055-3.248,8.545-3.248,8.545s4.647-0.042,7.892,3c3.246,3.042,1.618,15.619,2.544,19.175
			c0.927,3.556-5.269,6.563-5.269,6.563s14.899,8.126,11.535,10.159c-5.672,3.428-8.909-0.083-8.909-0.083
			s-22.888,28.752-40.151,35.15c-17.264,6.398-50.876-19.043-54.488-32.902c-3.612-13.859,0.699-13.005-2.041-36.067
			C322.383,213.045,316.112,201.532,316.112,201.532z"/>
		<g>
			<path style="fill:#FFFFFF;stroke:#263238;stroke-linecap:round;stroke-linejoin:round;stroke-miterlimit:10;" d="
				M389.828,155.869l-66.569,17.349c-2.364,0.616-3.781,3.032-3.165,5.397l31.465,120.729c0.616,2.364,3.032,3.781,5.397,3.165
				l66.569-17.349c2.364-0.616,3.782-3.032,3.165-5.397l-31.465-120.729C394.609,156.67,392.192,155.253,389.828,155.869z"/>
			<g>
				<path style="fill:#92E3A9;stroke:#263238;stroke-linecap:round;stroke-linejoin:round;stroke-miterlimit:10;" d="
					M351.69,169.717c0.151,0.579-0.196,1.171-0.775,1.321c-0.579,0.151-1.171-0.196-1.321-0.775
					c-0.151-0.579,0.196-1.171,0.775-1.321C350.947,168.791,351.539,169.138,351.69,169.717z"/>
				<path style="fill:#92E3A9;stroke:#263238;stroke-linecap:round;stroke-linejoin:round;stroke-miterlimit:10;" d="
					M365.401,166.144c0.095,0.363-0.123,0.734-0.486,0.828c-0.363,0.095-0.734-0.123-0.828-0.486
					c-0.095-0.363,0.123-0.734,0.486-0.828C364.936,165.563,365.306,165.781,365.401,166.144z"/>
				<path style="fill:#92E3A9;stroke:#263238;stroke-linecap:round;stroke-linejoin:round;stroke-miterlimit:10;" d="
					M361.829,167.471l-7.985,2.081c-0.17,0.044-0.344-0.057-0.388-0.227l-0.033-0.126c-0.044-0.17,0.058-0.344,0.228-0.388
					l7.985-2.081c0.17-0.044,0.343,0.058,0.388,0.228l0.033,0.126C362.1,167.253,361.999,167.426,361.829,167.471z"/>
			</g>
			<path style="fill:#92E3A9;stroke:#263238;stroke-linecap:round;stroke-linejoin:round;stroke-miterlimit:10;" d="M393.22,160.251
				l31.207,119.742c0.365,1.399-0.474,2.829-1.874,3.194l-65.716,17.127c-1.399,0.365-2.829-0.474-3.194-1.874l-31.207-119.742
				c-0.365-1.399,0.474-2.83,1.874-3.194l13.491-3.516c0.888-0.231,1.827,0.113,2.353,0.865l0.975,1.39
				c0.527,0.751,1.465,1.096,2.353,0.865l29.616-7.719c0.888-0.232,1.539-0.99,1.632-1.904l0.172-1.689
				c0.093-0.913,0.744-1.672,1.632-1.903l13.491-3.516C391.425,158.013,392.856,158.852,393.22,160.251z"/>
			<g>
				
					<ellipse transform="matrix(0.3983 -0.9172 0.9172 0.3983 24.146 469.6457)" style="fill:#FFFFFF;stroke:#263238;stroke-linecap:round;stroke-linejoin:round;stroke-miterlimit:10;" cx="370.063" cy="216.417" rx="27.762" ry="27.762"/>
				<g>
					<path style="fill:#92E3A9;stroke:#263238;stroke-linecap:round;stroke-linejoin:round;stroke-miterlimit:10;" d="
						M358.577,232.339c0.459,1.161,1.783,1.728,2.982,1.382l9.122-2.635c0.024,0.194,0.059,0.388,0.115,0.581
						c0.58,2.006,2.676,3.163,4.682,2.583c2.006-0.58,3.163-2.676,2.583-4.682c-0.056-0.193-0.13-0.376-0.212-0.553l9.121-2.635
						c1.199-0.346,2.017-1.533,1.786-2.759c-0.265-1.407-1.671-2.249-3.014-1.861l-0.773-0.464c-1.66-0.997-2.881-2.585-3.419-4.445
						l-1.735-6.008c-1.496-5.178-6.574-8.336-11.761-7.584c0.675-0.72,0.973-1.759,0.68-2.776c-0.443-1.534-2.046-2.419-3.58-1.975
						c-1.534,0.443-2.419,2.046-1.975,3.58c0.294,1.017,1.1,1.737,2.055,1.986c-4.789,2.13-7.401,7.509-5.905,12.687l1.755,6.075
						c0.62,2.145,0.273,4.453-0.948,6.322l0,0C358.791,229.545,358.051,231.007,358.577,232.339z M367.578,200.817
						c0.259,0.896-0.258,1.833-1.154,2.092c-0.896,0.259-1.833-0.258-2.092-1.154c-0.259-0.896,0.258-1.833,1.154-2.092
						C366.383,199.404,367.319,199.92,367.578,200.817z"/>
					
						<line style="fill:#92E3A9;stroke:#263238;stroke-linecap:round;stroke-linejoin:round;stroke-miterlimit:10;" x1="376.188" y1="229.164" x2="372.165" y2="230.327"/>
					
						<line style="fill:#92E3A9;stroke:#263238;stroke-linecap:round;stroke-linejoin:round;stroke-miterlimit:10;" x1="382.144" y1="222.721" x2="363.691" y2="228.052"/>
				</g>
			</g>
			<path style="fill:#263238;" d="M401.429,260.01l-37.465,9.764c-4.491,1.171-9.081-1.521-10.251-6.013l0,0
				c-1.171-4.491,1.522-9.081,6.013-10.251l37.465-9.764c4.491-1.17,9.081,1.521,10.251,6.013l0,0
				C408.612,254.25,405.92,258.84,401.429,260.01z"/>
			<g>
				<path style="fill:#FFFFFF;" d="M359.839,258.078c0.215-0.414,0.617-0.699,1.207-0.853c0.591-0.154,1.08-0.103,1.471,0.154
					c0.389,0.257,0.666,0.699,0.829,1.325l0.063,0.243l-1.15,0.3l-0.084-0.32c-0.069-0.266-0.171-0.445-0.306-0.54
					c-0.135-0.095-0.302-0.116-0.501-0.064c-0.199,0.052-0.335,0.152-0.406,0.301c-0.071,0.148-0.072,0.354-0.004,0.62
					c0.085,0.325,0.246,0.587,0.482,0.785c0.236,0.197,0.568,0.406,0.996,0.626c0.357,0.19,0.65,0.364,0.88,0.521
					c0.23,0.157,0.444,0.363,0.646,0.617c0.2,0.255,0.348,0.567,0.444,0.936c0.163,0.627,0.134,1.148-0.088,1.564
					c-0.223,0.416-0.629,0.701-1.219,0.854c-0.591,0.153-1.084,0.104-1.48-0.151c-0.397-0.255-0.678-0.695-0.841-1.322l-0.125-0.476
					l1.15-0.3l0.145,0.553c0.131,0.502,0.406,0.697,0.827,0.588c0.42-0.109,0.565-0.415,0.435-0.917
					c-0.085-0.324-0.246-0.585-0.483-0.783c-0.236-0.198-0.568-0.407-0.996-0.627c-0.356-0.19-0.65-0.364-0.879-0.52
					c-0.23-0.156-0.445-0.362-0.646-0.617c-0.2-0.255-0.348-0.566-0.444-0.936C359.599,259.013,359.624,258.492,359.839,258.078z"/>
				<path style="fill:#FFFFFF;" d="M366.288,262.333c0.131,0.502,0.405,0.697,0.826,0.588s0.566-0.415,0.436-0.916l-1.558-5.974
					l1.15-0.3l1.536,5.896c0.164,0.627,0.135,1.148-0.088,1.564c-0.223,0.417-0.629,0.702-1.219,0.855
					c-0.59,0.154-1.083,0.103-1.48-0.152c-0.398-0.254-0.678-0.694-0.841-1.321l-1.537-5.896l1.218-0.317L366.288,262.333z"/>
				<path style="fill:#FFFFFF;" d="M371.294,255.116c0.363,0.217,0.624,0.627,0.781,1.231l0.072,0.276
					c0.104,0.398,0.125,0.743,0.063,1.035c-0.062,0.292-0.209,0.534-0.441,0.729c0.666,0.078,1.112,0.553,1.34,1.423l0.164,0.631
					c0.155,0.597,0.117,1.094-0.114,1.488c-0.231,0.396-0.649,0.671-1.255,0.829l-1.914,0.498l-2.018-7.743l1.836-0.479
					C370.435,254.873,370.93,254.899,371.294,255.116z M370.011,258.351l0.475-0.124c0.244-0.064,0.41-0.174,0.499-0.331
					c0.089-0.156,0.095-0.383,0.018-0.678l-0.112-0.432c-0.073-0.28-0.176-0.47-0.309-0.569c-0.132-0.1-0.306-0.121-0.519-0.065
					l-0.586,0.152L370.011,258.351z M370.919,261.835l0.696-0.182c0.214-0.056,0.358-0.154,0.431-0.295
					c0.074-0.142,0.074-0.353,0.001-0.633l-0.176-0.675c-0.093-0.354-0.218-0.583-0.374-0.688c-0.157-0.105-0.376-0.121-0.656-0.048
					l-0.542,0.142L370.919,261.835z"/>
				<path style="fill:#FFFFFF;" d="M372.87,254.682c0.215-0.414,0.616-0.698,1.207-0.852c0.59-0.153,1.08-0.102,1.469,0.155
					c0.391,0.256,0.667,0.698,0.83,1.325l0.063,0.243l-1.15,0.3l-0.083-0.321c-0.069-0.266-0.171-0.445-0.307-0.54
					c-0.135-0.095-0.302-0.116-0.5-0.064c-0.2,0.053-0.335,0.152-0.406,0.301c-0.072,0.15-0.073,0.355-0.004,0.621
					c0.084,0.324,0.244,0.586,0.481,0.784c0.237,0.198,0.569,0.406,0.997,0.626c0.355,0.191,0.649,0.364,0.879,0.521
					c0.23,0.157,0.445,0.363,0.646,0.618c0.2,0.255,0.349,0.567,0.444,0.936c0.164,0.627,0.135,1.148-0.088,1.564
					c-0.222,0.416-0.629,0.701-1.219,0.855c-0.59,0.154-1.083,0.103-1.48-0.151c-0.397-0.254-0.678-0.694-0.841-1.321l-0.124-0.477
					l1.15-0.3l0.145,0.553c0.131,0.502,0.406,0.698,0.826,0.589c0.42-0.109,0.565-0.416,0.435-0.917
					c-0.085-0.325-0.245-0.586-0.481-0.784c-0.237-0.198-0.569-0.407-0.997-0.627c-0.356-0.19-0.649-0.363-0.879-0.521
					c-0.23-0.156-0.445-0.362-0.645-0.617c-0.201-0.255-0.349-0.566-0.445-0.936C372.629,255.617,372.654,255.096,372.87,254.682z"
					/>
				<path style="fill:#FFFFFF;" d="M381.663,258.231c0.163,0.627,0.133,1.148-0.09,1.565c-0.222,0.416-0.628,0.7-1.218,0.854
					c-0.591,0.153-1.083,0.104-1.48-0.151c-0.398-0.255-0.678-0.695-0.841-1.322l-1.05-4.027c-0.163-0.626-0.134-1.148,0.089-1.564
					c0.223-0.416,0.628-0.701,1.218-0.855c0.59-0.154,1.084-0.104,1.48,0.151c0.397,0.255,0.679,0.695,0.842,1.322l0.196,0.752
					l-1.151,0.301l-0.216-0.83c-0.133-0.509-0.409-0.708-0.83-0.599c-0.42,0.109-0.564,0.418-0.432,0.927l1.09,4.182
					c0.131,0.502,0.406,0.697,0.826,0.588c0.421-0.109,0.566-0.415,0.436-0.916l-0.289-1.107l1.151-0.3L381.663,258.231z"/>
				<path style="fill:#FFFFFF;" d="M385.251,258.903c-0.043-0.107-0.103-0.305-0.178-0.592l-0.317-1.217
					c-0.092-0.354-0.22-0.59-0.386-0.709c-0.164-0.118-0.387-0.141-0.667-0.068l-0.42,0.109l0.821,3.152l-1.217,0.317l-2.019-7.743
					l1.837-0.479c0.626-0.163,1.122-0.137,1.485,0.08c0.363,0.216,0.624,0.627,0.782,1.23l0.158,0.609
					c0.208,0.796,0.078,1.389-0.388,1.778c0.319,0.043,0.577,0.187,0.775,0.431c0.197,0.243,0.352,0.58,0.463,1.007l0.312,1.195
					c0.058,0.221,0.112,0.397,0.162,0.53c0.05,0.133,0.122,0.258,0.216,0.375l-1.238,0.322
					C385.354,259.12,385.295,259.01,385.251,258.903z M382.995,255.321l0.475-0.124c0.243-0.063,0.41-0.174,0.499-0.331
					c0.089-0.157,0.095-0.383,0.019-0.678l-0.199-0.764c-0.072-0.28-0.176-0.47-0.309-0.569c-0.132-0.1-0.305-0.121-0.519-0.066
					l-0.586,0.152L382.995,255.321z"/>
				<path style="fill:#FFFFFF;" d="M386.533,250.678l2.019,7.743l-1.217,0.317l-2.019-7.743L386.533,250.678z"/>
				<path style="fill:#FFFFFF;" d="M390.739,250.048c0.364,0.217,0.625,0.627,0.782,1.231l0.072,0.276
					c0.104,0.398,0.124,0.744,0.063,1.035c-0.062,0.292-0.209,0.535-0.441,0.729c0.666,0.079,1.112,0.553,1.339,1.423l0.165,0.631
					c0.155,0.597,0.117,1.094-0.114,1.488c-0.232,0.396-0.65,0.672-1.254,0.829l-1.914,0.499l-2.018-7.743l1.836-0.479
					C389.881,249.805,390.376,249.832,390.739,250.048z M389.457,253.282l0.475-0.124c0.244-0.064,0.41-0.173,0.499-0.331
					c0.089-0.156,0.096-0.383,0.018-0.678l-0.112-0.431c-0.073-0.28-0.176-0.471-0.309-0.569c-0.132-0.1-0.305-0.122-0.52-0.066
					l-0.586,0.152L389.457,253.282z M390.365,256.767l0.696-0.182c0.214-0.056,0.357-0.153,0.432-0.295
					c0.072-0.142,0.073-0.352,0-0.632l-0.176-0.675c-0.092-0.354-0.217-0.584-0.375-0.688c-0.156-0.105-0.375-0.121-0.655-0.048
					l-0.542,0.142L390.365,256.767z"/>
				<path style="fill:#FFFFFF;" d="M395.646,251.787l0.288,1.107l-1.67,0.436l0.591,2.268l2.102-0.548l0.288,1.107l-3.318,0.864
					l-2.019-7.743l3.319-0.864l0.288,1.105l-2.102,0.548l0.563,2.157L395.646,251.787z"/>
				<path style="fill:#FFFFFF;" d="M397.904,247.714c0.604-0.157,1.101-0.113,1.488,0.132c0.386,0.246,0.661,0.683,0.825,1.309
					l1.02,3.916c0.163,0.627,0.136,1.143-0.081,1.546c-0.219,0.403-0.63,0.684-1.234,0.841l-1.926,0.502l-2.018-7.743
					L397.904,247.714z M398.927,254.535l0.686-0.179c0.199-0.052,0.336-0.15,0.413-0.297c0.075-0.146,0.079-0.351,0.011-0.616
					l-1.05-4.026c-0.069-0.266-0.173-0.443-0.311-0.534c-0.138-0.09-0.306-0.109-0.505-0.058l-0.686,0.179L398.927,254.535z"/>
			</g>
		</g>
		<path style="fill:none;stroke:#263238;stroke-linecap:round;stroke-linejoin:round;stroke-miterlimit:10;" d="M310.401,366.032
			c0,0-11.367-26.452-5.569-58.528"/>
		<path style="fill:none;stroke:#263238;stroke-linecap:round;stroke-linejoin:round;stroke-miterlimit:10;" d="M282.669,394.609
			c0,0-22.978,7.025-25.309,12.313c-2.331,5.288,10.306,0.837,10.306,0.837"/>
		<path style="fill:none;stroke:#263238;stroke-linecap:round;stroke-linejoin:round;stroke-miterlimit:10;" d="M296.797,286.147
			c0,0-21.161,20.969-35.317,26.566"/>
		<path style="fill:none;stroke:#263238;stroke-linecap:round;stroke-linejoin:round;stroke-miterlimit:10;" d="M227.461,280.513
			c0,0-3.853,28.312,10.535,33.657"/>
		<path style="fill:none;stroke:#263238;stroke-linecap:round;stroke-linejoin:round;stroke-miterlimit:10;" d="M186.731,337.685
			c0,0-0.117-37.121,7.257-48.598"/>
		<path style="fill:none;stroke:#263238;stroke-linecap:round;stroke-linejoin:round;stroke-miterlimit:10;" d="M183.982,299.867
			c0,0-2.074,23.051,2.575,30.573"/>
		<path style="fill:none;stroke:#263238;stroke-linecap:round;stroke-linejoin:round;stroke-miterlimit:10;" d="M168.828,343.158
			c0,0-16.094-5.543-19.431,1.33s9.598,0.78,9.598,0.78"/>
		<path style="fill:none;stroke:#263238;stroke-linecap:round;stroke-linejoin:round;stroke-miterlimit:10;" d="M178.508,367.228
			c0,0-15.805,8.903-16.616,13.997"/>
		<path style="fill:none;stroke:#263238;stroke-linecap:round;stroke-linejoin:round;stroke-miterlimit:10;" d="M204.324,342.6
			c0,0,30.25,45.721,46.949,41.521"/>
		<path style="fill:none;stroke:#263238;stroke-linecap:round;stroke-linejoin:round;stroke-miterlimit:10;" d="M224.994,406.727
			c0,0-23.721,17.389-27.174,15.918"/>
		<path style="opacity:0.2;" d="M391.137,332.534c1.602-1.315,2.655-2.182,2.999-2.455
			C393.779,330.391,392.743,331.29,391.137,332.534z"/>
	</g>
</g>
</svg>
