<?xml version="1.0" encoding="utf-8"?>
<!-- Generator: Adobe Illustrator 27.5.0, SVG Export Plug-In . SVG Version: 6.00 Build 0)  -->
<svg version="1.1" xmlns="http://www.w3.org/2000/svg" xmlns:xlink="http://www.w3.org/1999/xlink" x="0px" y="0px"
	 viewBox="0 0 500 500" style="enable-background:new 0 0 500 500;" xml:space="preserve">
<g id="Background_Simple">
	<g>
		<path style="fill:#92E3A9;" d="M486.548,272.024c-0.067-30.003-5.074-59.485-13.242-86.796
			c-24.392-81.563-80.726-152.81-153.99-149.219c-46.978,2.302-93.938,10.176-140.917,16.416
			C138.299,57.751,98.432,62.63,64.815,98.488c-14.549,15.519-26.722,34.999-34.837,56.824
			C7.415,215.99,16.752,287.623,43.537,339.928c26.786,52.305,68.664,87.999,112.274,116.106
			c17.782,11.461,37.879,22.081,58.101,14.932c12.453-4.403,23.335-15.083,35.313-21.732c40.299-22.37,83.668,3.947,126.314-1.723
			c25.333-3.368,50.387-18.598,69.431-42.205c22.747-28.197,36.363-67.334,40.285-106.459
			C486.153,289.889,486.568,280.933,486.548,272.024z"/>
		<path style="opacity:0.7;fill:#FFFFFF;" d="M486.548,272.024c-0.067-30.003-5.074-59.485-13.242-86.796
			c-24.392-81.563-80.726-152.81-153.99-149.219c-46.978,2.302-93.938,10.176-140.917,16.416
			C138.299,57.751,98.432,62.63,64.815,98.488c-14.549,15.519-26.722,34.999-34.837,56.824
			C7.415,215.99,16.752,287.623,43.537,339.928c26.786,52.305,68.664,87.999,112.274,116.106
			c17.782,11.461,37.879,22.081,58.101,14.932c12.453-4.403,23.335-15.083,35.313-21.732c40.299-22.37,83.668,3.947,126.314-1.723
			c25.333-3.368,50.387-18.598,69.431-42.205c22.747-28.197,36.363-67.334,40.285-106.459
			C486.153,289.889,486.568,280.933,486.548,272.024z"/>
	</g>
</g>
<g id="Graphics">
	<g>
		<g>
			<path style="fill:#92E3A9;" d="M193.447,96.195c-1.36,0.041-2.683-1.537-4.425-4.065c-1.724-2.538-3.938-6.12-6.817-10.184
				c-9.696-13.688-22.916-25.708-40.127-28.144c-25.407-3.596-45.442,14.145-68.056,21.936c-7.796,2.686-14.396,3.467-18.71,0.28
				c-4.306-3.162-4.723-10.842-0.449-19.921c2.126-4.537,5.445-9.392,9.961-14.067c4.521-4.655,10.261-9.128,17.077-12.677
				c3.4-1.768,8.379-4.042,14.745-6.019c34.654-10.763,74.503-0.02,92.406,33.157c3.811,7.037,6.007,13.904,7.161,19.81
				c1.126,5.926,1.17,10.931,0.504,14.44C196.065,94.263,194.76,96.161,193.447,96.195z"/>
		</g>
		<g>
			<path style="fill:#263238;" d="M172.688,301.943c1.057,2.48-7.953,8.966-21.174,19.409c-3.304,2.602-6.861,5.457-10.558,8.563
				c-1.86,1.539-3.738,3.161-5.65,4.828c-0.969,0.818-1.909,1.692-2.874,2.555c-0.481,0.432-0.966,0.867-1.452,1.304l-0.732,0.655
				l-0.632,0.62c-6.788,6.525-12.816,15.17-16.278,24.478c-5.564,15.272-2.886,33.522,9.393,45.041
				c8.843,8.296,22.221,10.621,33.036,4.818c14.186-7.612,15.969-23.973,20.06-38.024c0.547-1.879,1.173-3.879,2.699-5.104
				c3.149-2.527,7.85-0.261,10.764,2.534c8.33,7.991,12.078,20.015,11.519,31.544c-1.261,25.986-24.61,48.347-50.526,50.625
				c-31.338,2.754-60.801-21.548-68.56-51.213c-8.314-31.783,7.871-64.408,34.632-81.87l0.993-0.651l0.924-0.556
				c0.615-0.368,1.226-0.734,1.833-1.097c1.217-0.722,2.409-1.451,3.618-2.112c2.398-1.357,4.746-2.644,7.057-3.821
				c4.603-2.386,9.001-4.428,13.096-6.149C160.25,301.422,171.669,299.492,172.688,301.943z"/>
		</g>
		<g>
			<path style="fill:#A8A8A8;" d="M139.124,287.101c0.865,1.022,0.566,2.94-0.792,5.644c-0.711,1.308-1.698,2.797-2.96,4.416
				c-1.302,1.561-2.838,3.318-4.72,5.024c-3.72,3.475-8.631,7.078-14.523,10.213c-17.762,9.448-40.574,12.435-60.174,7.923
				c-20.027-4.61-39.818-19.993-39.977-42.099c-0.043-4.414,0.701-8.443,1.839-11.901c2.318-6.94,6.012-11.684,9.63-14.855
				c3.662-3.161,7.343-4.799,10.565-5.251c3.224-0.446,5.998,0.297,7.989,2.086c1.994,1.79,3.288,4.168,4.138,6.918
				c0.851,2.74,1.27,5.872,1.601,9.003c0.001,0.012,0.002,0.023,0.004,0.035c1.503,14.2,7.687,21.545,21.893,25.528
				c16.236,4.552,33.343,3.289,49.504-0.7C131.482,287.023,137.326,284.988,139.124,287.101z"/>
		</g>
		<g>
			<path style="fill:#92E3A9;" d="M267.947,367.033c0.643-1.162,2.621-1.559,5.728-1.137c3.071,0.464,7.234,1.812,11.943,4.248
				c29.131,15.07,51.676,52.806,35.259,84.846c-7.88,15.379-25.607,26.663-42.752,28.011c-19.809,1.557-37.202-20.576-20.794-36.414
				c13.879-13.396,41.873-19.315,30.357-44.499c-1.187-2.595-2.404-5.161-3.749-7.553c-2.633-4.828-5.469-9.161-8.048-12.837
				c-2.579-3.679-4.886-6.729-6.387-9.187C267.981,370.099,267.293,368.213,267.947,367.033z"/>
		</g>
		<g>
			<path style="fill:#A8A8A8;" d="M363.389,148.823c-1.986-0.158-3.242-2.748-3.663-4.889c-6.524-33.148,23.168-65.59,54.781-70.541
				c23.576-3.692,49.511,6.107,58.746,29.33c2.353,5.921,3.169,11.424,3.007,16.081c-0.347,9.338-4.39,15.318-9.647,16.191
				c-5.284,0.897-10.706-2.209-16.106-6.727c-7.685-6.43-13.958-15.179-23.704-18.643c-9.064-3.222-19.282-1.178-27.942,3.01
				c-8.755,4.234-16.46,10.622-22.242,18.441c-3.595,4.861-6.438,10.231-9.764,15.28c-0.698,1.059-1.545,2.191-2.791,2.427
				C363.829,148.829,363.605,148.84,363.389,148.823z"/>
		</g>
		<g>
			<path style="fill:#263238;" d="M222.16,79.122c-0.665-0.075-1.221-0.796-1.671-2.083c-0.482-1.29-0.719-3.124-0.782-5.391
				c-0.36-12.962,6.261-25.285,15.051-34.427c4.501-4.68,10.654-10.118,16.887-12.22c5.963-2.011,13.131-0.383,13.356,6.626
				c0.243,7.588-10.221,14.54-15.29,18.653c-9.189,7.458-16.353,12.811-22.684,23.219C225.007,76.849,223.534,79.271,222.16,79.122z
				"/>
		</g>
		<g>
			<path style="fill:#263238;" d="M133.691,271.58c-0.108,1.334-2.489,2.317-6.365,2.979c-0.972,0.205-2.013,0.202-3.14,0.25
				c-1.125,0.032-2.326,0.037-3.588,0.017c-0.316-0.007-0.635-0.013-0.957-0.02c-0.318-0.035-0.639-0.071-0.962-0.107
				c-0.651-0.081-1.311-0.163-1.98-0.246c-1.335-0.202-2.745-0.327-4.12-0.667c-5.57-1.174-11.265-3.495-15.89-6.107
				c-1.129-0.69-2.212-1.367-3.229-2.019c-1.034-0.631-1.895-1.371-2.74-1.993c-1.689-1.246-2.943-2.456-3.813-3.325
				c-3.465-3.517-5.366-7.816-5.613-11.413c-0.269-3.609,1.062-6.513,3.505-7.616c2.438-1.104,5.215-0.893,7.984,0.12
				c2.772,1.028,5.52,2.828,7.973,5.322c0.624,0.618,1.423,1.572,2.503,2.628c0.54,0.526,1.057,1.185,1.716,1.761
				c0.643,0.596,1.32,1.242,2.022,1.931c2.92,2.599,6.58,5.472,10.484,7.899c0.954,0.649,1.981,1.128,2.945,1.715
				c0.489,0.287,0.971,0.571,1.446,0.85c0.239,0.144,0.475,0.286,0.71,0.428c0.243,0.12,0.485,0.238,0.724,0.355
				c0.957,0.475,1.881,0.954,2.758,1.432c0.88,0.462,1.696,1,2.489,1.354C131.685,268.679,133.799,270.246,133.691,271.58z"/>
		</g>
		<g>
			<path style="fill:#263238;" d="M346.672,412.047c0.858-0.32,2.062-0.103,3.55,0.574c0.742,0.339,1.561,0.791,2.429,1.35
				c0.829,0.574,1.712,1.255,2.64,2.03c3.626,3.112,7.631,7.934,10.208,13.632c2.675,5.664,3.892,12.121,3.66,17.698
				c-0.154,5.59-1.616,10.235-2.715,12.678c-2.192,4.927-6.509,8.742-10.989,10.691c-4.484,1.976-9.103,2.137-12.151,0.431
				c-8.661-4.854-4.353-16.857-1.916-24.054c3.509-10.365,5.011-16.879,3.828-28.082c-0.096-0.907-0.144-1.757-0.137-2.534
				c-0.034-0.765-0.017-1.454,0.077-2.055C345.341,413.206,345.814,412.367,346.672,412.047z"/>
		</g>
		<circle style="fill:#92E3A9;" cx="409.574" cy="178.843" r="16.685"/>
		<circle style="fill:#263238;" cx="50.655" cy="202.512" r="13.193"/>
		<circle style="fill:#263238;" cx="124.767" cy="95.03" r="8.924"/>
		<circle style="fill:#263238;" cx="318.777" cy="36.827" r="13.581"/>
		<circle style="fill:#A8A8A8;" cx="229.533" cy="383.718" r="20.565"/>
		
			<ellipse transform="matrix(0.1595 -0.9872 0.9872 0.1595 38.4154 751.2498)" style="fill:#263238;" cx="460.405" cy="353.064" rx="13.193" ry="13.193"/>
	</g>
</g>
<g id="Slice">
	<g>
		<path style="fill:#FFFFFF;stroke:#263238;stroke-linecap:round;stroke-linejoin:round;stroke-miterlimit:10;" d="M331.755,64.749
			c0,0-13.253-10.492-25.402-7.179c-12.149,3.313-21.537,18.223-49.148,29.82s-32.581,15.462-73.998,22.089
			c-41.417,6.627-73.446,7.731-89.46,20.432c-16.014,12.701-15.462,26.507-9.94,38.656c5.522,12.149,18.776,21.537,18.776,21.537
			s36.999,65.162,71.237,98.296c34.238,33.133,98.848,58.536,138.608,78.968c39.76,20.432,75.655,57.983,83.938,67.371
			c8.283,9.388,33.686,3.313,34.79-28.716c1.104-32.029-13.253-98.848-32.581-144.683c-19.328-45.835-44.73-99.4-51.357-119.281
			s-11.044-35.895-11.044-35.895S350.53,83.524,331.755,64.749z"/>
		<path style="fill:#FFFFFF;stroke:#263238;stroke-linecap:round;stroke-linejoin:round;stroke-miterlimit:10;" d="M431.21,402.522
			c0.033-33.193-13.985-96.952-32.636-141.181c-19.328-45.835-44.73-99.401-51.357-119.281
			c-6.627-19.88-11.044-35.895-11.044-35.895s1.086-1.719,2.27-4.592c-3.448-3.985-5.584-6.453-5.584-6.453L134.61,166.358
			c0,0-13.253,18.223-26.507,20.432c0,0,11.547,19.054,36.447,49.7c28.716,35.342,45.835,50.252,53.566,56.879
			c7.731,6.627,70.133,39.76,111.549,57.431s69.58,49.7,77.864,64.61c1.299,2.338,2.48,4.477,3.591,6.453l-0.277,0.173
			c0,0,0,6.627,9.388,14.91c9.388,8.283,2.209,21.537,8.283,23.193c6.075,1.657,8.836-14.358,11.597-16.567
			c2.761-2.209,7.179-1.104,10.492-8.283C433.369,429.297,432.286,412.912,431.21,402.522z"/>
		<g>
			<path style="fill:#FFFFFF;stroke:#263238;stroke-linecap:round;stroke-linejoin:round;stroke-miterlimit:10;" d="
				M289.543,225.941c0.754,0.673,1.599,1.38,2.546,2.121c10.321,8.077,21.539,7.629,25.578,9.872"/>
			<path style="fill:#FFFFFF;stroke:#263238;stroke-linecap:round;stroke-linejoin:round;stroke-miterlimit:10;" d="
				M283.562,215.946c0,0-0.833,1.874,1.898,5.622"/>
			<path style="fill:#FFFFFF;stroke:#263238;stroke-linecap:round;stroke-linejoin:round;stroke-miterlimit:10;" d="M287.152,316.24
				c3.366-1.234,7.18-2.468,8.975-2.468c3.59,0,16.919,8.048,33.207-4.487"/>
			<path style="fill:#FFFFFF;stroke:#263238;stroke-linecap:round;stroke-linejoin:round;stroke-miterlimit:10;" d="M280.87,318.708
				c0,0,0.854-0.362,2.172-0.889"/>
			<path style="fill:#FFFFFF;stroke:#263238;stroke-linecap:round;stroke-linejoin:round;stroke-miterlimit:10;" d="
				M365.332,349.634c2.181,0.851,4.549,1.505,7.081,1.831"/>
			<path style="fill:#FFFFFF;stroke:#263238;stroke-linecap:round;stroke-linejoin:round;stroke-miterlimit:10;" d="
				M349.527,338.003c0,0,3.378,4.391,9.201,8.2"/>
			<path style="fill:#FFFFFF;stroke:#263238;stroke-linecap:round;stroke-linejoin:round;stroke-miterlimit:10;" d="
				M379.144,377.044c8.526,4.039,13.462,4.487,13.462,4.487s1.346,12.116-2.692,17.501"/>
			<path style="fill:#FFFFFF;stroke:#263238;stroke-linecap:round;stroke-linejoin:round;stroke-miterlimit:10;" d="
				M371.067,368.069c0,0-0.252,2.777,3.218,5.869"/>
			<path style="fill:#FFFFFF;stroke:#263238;stroke-linecap:round;stroke-linejoin:round;stroke-miterlimit:10;" d="
				M399.241,284.029c1.155,2.081,2.123,4.499,2.788,7.306"/>
			<path style="fill:#FFFFFF;stroke:#263238;stroke-linecap:round;stroke-linejoin:round;stroke-miterlimit:10;" d="M382.734,271.59
				c0,0,7.895,1.393,13.83,8.523"/>
			<path style="fill:#FFFFFF;stroke:#263238;stroke-linecap:round;stroke-linejoin:round;stroke-miterlimit:10;" d="
				M162.071,244.225c2.577,2.193,5.661,4.002,9.307,4.928"/>
			<path style="fill:#FFFFFF;stroke:#263238;stroke-linecap:round;stroke-linejoin:round;stroke-miterlimit:10;" d="
				M151.184,227.613c0,0,2.622,8.334,8.939,14.791"/>
			<path style="fill:#FFFFFF;stroke:#263238;stroke-linecap:round;stroke-linejoin:round;stroke-miterlimit:10;" d="
				M288.441,169.591c-3.219,3.833-6.925,9.84-7.971,17.948"/>
			<path style="fill:#FFFFFF;stroke:#263238;stroke-linecap:round;stroke-linejoin:round;stroke-miterlimit:10;" d="
				M293.662,164.576c0,0-1.442,1.004-3.384,2.988"/>
		</g>
		<path style="fill:#263238;" d="M108.104,186.79c0,0,14.883,8.409,29.98,0.281c15.096-8.129,69.772-36.535,80.465-40.041
			c10.693-3.506,82.11-19.764,96.045-24.409c13.935-4.645,21.578-16.456,21.578-16.456s-54.236-2.33-99.454,18.966
			C191.501,146.427,108.104,186.79,108.104,186.79z"/>
		<path style="fill:#92E3A9;stroke:#263238;stroke-linecap:round;stroke-linejoin:round;stroke-miterlimit:10;" d="M331.755,64.749
			c0,0-13.253-10.492-25.402-7.179c-12.149,3.313-21.537,18.223-49.148,29.82c-27.611,11.597-32.581,15.462-73.998,22.089
			c-41.417,6.627-73.446,7.731-89.46,20.432c-16.015,12.701-15.462,26.507-9.94,38.656c1.534,3.376,3.666,6.536,5.944,9.344
			c2.407,1.712,3.996,2.805,3.996,2.805s-12.701-13.253-9.388-33.133c0,0,2.209-16.015,15.462-12.701
			c13.253,3.313,20.432,14.358,20.985,26.507c0.552,12.149,0.552,13.253-6.074,19.328c-6.627,6.074-13.806,2.761-6.627,6.074
			c7.179,3.313,14.91,1.104,28.716-6.074c13.806-7.179,55.445-26.712,81.729-33.686c27.059-7.179,53.046-16.989,66.819-20.432
			c35.342-8.836,50.805-20.432,50.805-20.432S350.53,83.524,331.755,64.749z"/>
		<path style="fill:#FFFFFF;stroke:#263238;stroke-linecap:round;stroke-linejoin:round;stroke-miterlimit:10;" d="M188.728,278.46
			c0,0,4.418,12.701,11.045,22.089c6.627,9.388,4.97,32.581,14.358,35.895c9.388,3.313,1.104-23.193,4.97-24.85
			c3.866-1.657,6.627,9.388,12.701,10.492c6.075,1.104,9.94-7.179,9.94-7.179"/>
		<g style="opacity:0.16;">
			<path d="M123.032,141.884c0.527,2.59,0.253,5.303,0.88,7.871c1.089,4.461,4.847,8.503,3.874,12.991
				c-0.632,2.918-3.242,5.63-2.284,8.458c1.075,3.177,5.786,3.294,8.571,1.425c2.785-1.869,4.596-4.931,7.373-6.811
				c5.163-3.495,12.3-2.132,17.927-4.817c3.95-1.885,6.852-5.815,7.491-10.145c0.336-2.275,0.005-4.791-1.539-6.494
				c-1.226-1.352-3.019-2.003-4.625-2.871c-5.153-2.785-8.766-9.329-6.3-14.642c0.634-1.366,1.645-2.85,1.055-4.235
				c-0.569-1.337-2.275-1.682-3.723-1.81c-4.07-0.36-8.165-0.45-12.247-0.27c-2.944,0.13-6.242,0.588-8.029,2.93
				c-1.07,1.403-1.729,3.529-3.481,3.739c-1.407,0.169-2.522-1.07-3.648-1.928c-3.841-2.928-22.614,0.143-19.215,4.923
				c1.19,1.673,7.466,1.42,9.394,2.162C118.653,133.96,122.126,137.434,123.032,141.884z"/>
			<path d="M182.123,141.897c-4.543,2.208-9.933,3.4-13.035,7.388c-0.815,1.049-1.447,2.391-1.122,3.679
				c0.688,2.721,4.503,2.791,7.244,2.191c13.199-2.892,26.105-7.121,38.456-12.602c3.405-1.511,6.814-3.132,10.479-3.797
				c1.89-0.343,3.838-0.429,5.664-1.027c5.011-1.641,8.219-7.49,6.908-12.598c-1.361-5.304-13.288-1.643-17.024-1.197
				c-4.005,0.479-8.115,0.067-12.091,0.689C197.096,126.267,191.351,137.412,182.123,141.897z"/>
			<path d="M225.11,106.349c-13.555,6.225-27.887,10.757-42.556,13.457c-2.601,0.479-5.278,0.923-7.561,2.26
				c-2.283,1.336-4.117,3.802-3.88,6.436c0.269,2.993,3.271,5.269,6.275,5.331c3.005,0.062,5.826-1.706,7.692-4.062
				c0.95-1.2,1.709-2.566,2.84-3.596c1.856-1.69,4.447-2.253,6.915-2.71c16.745-3.103,34.316-4.43,49.228-12.655
				c3.809-2.101,7.389-4.629,11.347-6.434c5.638-2.572,12.608-4.193,15.269-9.789c-8.837-1.361-17.967-0.794-26.567,1.65
				c-2.878,0.818-5.782,1.894-7.972,3.933c-1.461,1.36-2.934,3.266-4.915,3.02"/>
			<path d="M251.012,124.907c-0.039,0.28-0.059,0.574,0.042,0.837c0.182,0.472,0.692,0.718,1.163,0.905
				c9.532,3.772,21.279,0.998,28.117-6.64c1.053-1.176,2.034-2.483,3.421-3.237c1.888-1.025,4.182-0.844,6.307-0.527
				c7.314,1.094,15.205,3.39,21.763-0.028c6.106-3.183,9.235-10.554,15.464-13.489c1.711-0.806,3.647-1.273,5.022-2.571
				c1.338-1.263,1.93-3.121,2.274-4.929c1.288-6.752-0.268-14-4.213-19.629c-3.945-5.629-10.227-9.565-17.013-10.658
				c-2.74-0.442-5.707-0.397-8.092,1.022c-2.385,1.419-3.91,4.538-2.805,7.085c1.179,2.718,4.492,3.602,7.051,5.094
				c1.797,1.048,3.4,2.626,3.938,4.636c0.538,2.01-0.268,4.451-2.156,5.323c-1.792,0.828-3.91,0.092-5.627-0.882
				c-3.626-2.058-6.627-5.202-8.515-8.92c-1.265-2.491-2.77-5.729-5.559-5.569c-0.97,0.056-1.85,0.558-2.689,1.048
				c-3.858,2.252-7.717,4.504-11.575,6.756c-2.512,1.466-9.529,3.974-10.346,7.124c-0.915,3.53,5.163,1.641,7.831,3.444
				c2.22,1.5,3.175,3.426,3.008,6.092c-0.382,6.09-6.85,11.576-11.428,14.752C261.441,115.381,251.977,117.929,251.012,124.907z"/>
		</g>
	</g>
</g>
<g id="Basil">
	<g>
		<path style="fill:#92E3A9;stroke:#263238;stroke-linecap:round;stroke-linejoin:round;stroke-miterlimit:10;" d="M263.494,202.925
			c0,0,7.449-1.652,11.526-11.388c4.076-9.736,0.703-17.82-6.27-17.458c-6.974,0.362-13.428,7.267-13.021,12.792
			c0.407,5.525-2.651,15.148-2.153,17.774C254.074,207.272,263.494,202.925,263.494,202.925z"/>
		<path style="fill:none;stroke:#263238;stroke-linecap:round;stroke-linejoin:round;stroke-miterlimit:10;" d="M271.513,175.735
			c0,0-3.917,16.935-14.784,27.506"/>
		<path style="fill:none;stroke:#263238;stroke-linecap:round;stroke-linejoin:round;stroke-miterlimit:10;" d="M273.754,182.264
			l-5.707,4.023c0,0,0.94-5.991-1.879-8.086"/>
		<path style="fill:none;stroke:#263238;stroke-linecap:round;stroke-linejoin:round;stroke-miterlimit:10;" d="M272.09,191.368
			l-7.371,1.086c0,0-0.793-4.728-2.319-8.037"/>
		<path style="fill:none;stroke:#263238;stroke-linecap:round;stroke-linejoin:round;stroke-miterlimit:10;" d="M258.737,193.207
			l1.752,6.138c0,0,5.374-1.399,7.185-1.154"/>
	</g>
	<g>
		<path style="fill:#92E3A9;stroke:#263238;stroke-linecap:round;stroke-linejoin:round;stroke-miterlimit:10;" d="M285.278,299.427
			c0,0-4.126-6.419-14.671-6.877c-10.545-0.458-16.964,5.502-14.213,11.92c2.751,6.419,11.462,10.086,16.505,7.794
			c5.043-2.292,15.13-2.751,17.422-4.126C292.614,306.763,285.278,299.427,285.278,299.427z"/>
		<path style="fill:none;stroke:#263238;stroke-linecap:round;stroke-linejoin:round;stroke-miterlimit:10;" d="M256.992,301.305
			c0,0,17.244-2.18,30.921,4.361"/>
		<path style="fill:none;stroke:#263238;stroke-linecap:round;stroke-linejoin:round;stroke-miterlimit:10;" d="M262.344,296.944
			l5.748,3.964c0,0-5.946,1.189-6.937,4.559"/>
		<path style="fill:none;stroke:#263238;stroke-linecap:round;stroke-linejoin:round;stroke-miterlimit:10;" d="M271.462,295.358
			l3.568,6.541c0,0-4.162,2.379-6.739,4.955"/>
		<path style="fill:none;stroke:#263238;stroke-linecap:round;stroke-linejoin:round;stroke-miterlimit:10;" d="M277.805,307.251
			l5.153-3.766c0,0-3.171-4.559-3.568-6.343"/>
	</g>
	<g>
		<path style="fill:#92E3A9;stroke:#263238;stroke-linecap:round;stroke-linejoin:round;stroke-miterlimit:10;" d="M228.633,160.714
			c0,0-4.126-6.419-14.671-6.877c-10.545-0.459-16.964,5.502-14.213,11.92c2.751,6.419,11.462,10.087,16.505,7.794
			c5.043-2.292,15.13-2.751,17.422-4.126C235.969,168.05,228.633,160.714,228.633,160.714z"/>
		<path style="fill:none;stroke:#263238;stroke-linecap:round;stroke-linejoin:round;stroke-miterlimit:10;" d="M200.347,162.592
			c0,0,17.244-2.18,30.921,4.361"/>
		<path style="fill:none;stroke:#263238;stroke-linecap:round;stroke-linejoin:round;stroke-miterlimit:10;" d="M205.699,158.231
			l5.748,3.964c0,0-5.946,1.189-6.937,4.559"/>
		<path style="fill:none;stroke:#263238;stroke-linecap:round;stroke-linejoin:round;stroke-miterlimit:10;" d="M214.817,156.645
			l3.568,6.541c0,0-4.162,2.378-6.739,4.955"/>
		<path style="fill:none;stroke:#263238;stroke-linecap:round;stroke-linejoin:round;stroke-miterlimit:10;" d="M221.16,168.538
			l5.153-3.766c0,0-3.171-4.559-3.568-6.343"/>
	</g>
	<g>
		<path style="fill:#92E3A9;stroke:#263238;stroke-linecap:round;stroke-linejoin:round;stroke-miterlimit:10;" d="M404.575,405.89
			c0,0,7.45-1.652,11.526-11.388c4.076-9.736,0.703-17.82-6.27-17.458c-6.974,0.362-13.428,7.267-13.021,12.792
			c0.407,5.525-2.651,15.148-2.153,17.774C395.155,410.236,404.575,405.89,404.575,405.89z"/>
		<path style="fill:none;stroke:#263238;stroke-linecap:round;stroke-linejoin:round;stroke-miterlimit:10;" d="M412.594,378.7
			c0,0-3.917,16.935-14.784,27.506"/>
		<path style="fill:none;stroke:#263238;stroke-linecap:round;stroke-linejoin:round;stroke-miterlimit:10;" d="M414.835,385.229
			l-5.707,4.023c0,0,0.94-5.991-1.879-8.086"/>
		<path style="fill:none;stroke:#263238;stroke-linecap:round;stroke-linejoin:round;stroke-miterlimit:10;" d="M413.17,394.333
			l-7.371,1.086c0,0-0.792-4.728-2.319-8.037"/>
		<path style="fill:none;stroke:#263238;stroke-linecap:round;stroke-linejoin:round;stroke-miterlimit:10;" d="M399.818,396.172
			l1.752,6.138c0,0,5.374-1.399,7.185-1.154"/>
	</g>
	<g>
		<path style="fill:#92E3A9;stroke:#263238;stroke-linecap:round;stroke-linejoin:round;stroke-miterlimit:10;" d="M342.744,334.815
			c0,0,0.999-7.565-6.753-14.729c-7.751-7.164-16.501-6.763-18.55-0.087c-2.048,6.676,2.23,15.104,7.56,16.614
			c5.33,1.509,13.324,7.677,15.962,8.109C343.602,345.153,342.744,334.815,342.744,334.815z"/>
		<path style="fill:none;stroke:#263238;stroke-linecap:round;stroke-linejoin:round;stroke-miterlimit:10;" d="M319.944,317.97
			c0,0,14.569,9.479,20.78,23.309"/>
		<path style="fill:none;stroke:#263238;stroke-linecap:round;stroke-linejoin:round;stroke-miterlimit:10;" d="M326.846,318.1
			l1.825,6.74c0,0-5.307-2.935-8.24-1.004"/>
		<path style="fill:none;stroke:#263238;stroke-linecap:round;stroke-linejoin:round;stroke-miterlimit:10;" d="M334.829,322.781
			l-1.504,7.297c0,0-4.714-0.874-8.345-0.573"/>
		<path style="fill:none;stroke:#263238;stroke-linecap:round;stroke-linejoin:round;stroke-miterlimit:10;" d="M331.984,335.956
			l6.367,0.456c0,0,0.526-5.529,1.376-7.146"/>
	</g>
	<g>
		<path style="fill:#92E3A9;stroke:#263238;stroke-linecap:round;stroke-linejoin:round;stroke-miterlimit:10;" d="M373.08,262.294
			c0,0,0.999-7.565-6.753-14.729c-7.751-7.164-16.501-6.763-18.55-0.087c-2.048,6.676,2.23,15.104,7.56,16.614
			c5.33,1.509,13.324,7.677,15.962,8.109C373.939,272.632,373.08,262.294,373.08,262.294z"/>
		<path style="fill:none;stroke:#263238;stroke-linecap:round;stroke-linejoin:round;stroke-miterlimit:10;" d="M350.28,245.449
			c0,0,14.569,9.479,20.78,23.309"/>
		<path style="fill:none;stroke:#263238;stroke-linecap:round;stroke-linejoin:round;stroke-miterlimit:10;" d="M357.182,245.579
			l1.825,6.74c0,0-5.307-2.935-8.24-1.004"/>
		<path style="fill:none;stroke:#263238;stroke-linecap:round;stroke-linejoin:round;stroke-miterlimit:10;" d="M365.165,250.261
			l-1.504,7.297c0,0-4.714-0.874-8.345-0.573"/>
		<path style="fill:none;stroke:#263238;stroke-linecap:round;stroke-linejoin:round;stroke-miterlimit:10;" d="M362.321,263.435
			l6.366,0.456c0,0,0.526-5.528,1.376-7.146"/>
	</g>
	<g>
		<path style="fill:#92E3A9;stroke:#263238;stroke-linecap:round;stroke-linejoin:round;stroke-miterlimit:10;" d="M311.418,145.966
			c0,0,2.637-7.16,12.832-9.893c10.195-2.732,17.753,1.695,16.458,8.557c-1.295,6.862-9.004,12.331-14.424,11.185
			c-5.42-1.145-15.366,0.593-17.902-0.253C305.846,154.717,311.418,145.966,311.418,145.966z"/>
		<path style="fill:none;stroke:#263238;stroke-linecap:round;stroke-linejoin:round;stroke-miterlimit:10;" d="M339.438,141.67
			c0,0-17.307,1.608-29.241,10.957"/>
		<path style="fill:none;stroke:#263238;stroke-linecap:round;stroke-linejoin:round;stroke-miterlimit:10;" d="M333.269,138.572
			l-4.753,5.115c0,0,6.063-0.128,7.76,2.947"/>
		<path style="fill:none;stroke:#263238;stroke-linecap:round;stroke-linejoin:round;stroke-miterlimit:10;" d="M324.024,139
			l-2.066,7.159c0,0,4.579,1.42,7.653,3.377"/>
		<path style="fill:none;stroke:#263238;stroke-linecap:round;stroke-linejoin:round;stroke-miterlimit:10;" d="M320.409,151.984
			l-5.847-2.56c0,0,2.108-5.138,2.109-6.965"/>
	</g>
	<g>
		<path style="fill:#92E3A9;stroke:#263238;stroke-linecap:round;stroke-linejoin:round;stroke-miterlimit:10;" d="M192.256,250.365
			c0,0,7.471-1.553,15.186,5.649c7.716,7.202,7.96,15.958,1.453,18.493c-6.507,2.535-15.227-1.111-17.126-6.315
			c-1.898-5.204-8.638-12.722-9.263-15.322C181.882,250.271,192.256,250.365,192.256,250.365z"/>
		<path style="fill:none;stroke:#263238;stroke-linecap:round;stroke-linejoin:round;stroke-miterlimit:10;" d="M210.735,271.863
			c0,0-10.527-13.831-24.776-19.006"/>
		<path style="fill:none;stroke:#263238;stroke-linecap:round;stroke-linejoin:round;stroke-miterlimit:10;" d="M210.097,264.989
			l-6.856-1.324c0,0,3.318,5.076,1.608,8.144"/>
		<path style="fill:none;stroke:#263238;stroke-linecap:round;stroke-linejoin:round;stroke-miterlimit:10;" d="M204.839,257.372
			l-7.167,2.038c0,0,1.219,4.636,1.186,8.28"/>
		<path style="fill:none;stroke:#263238;stroke-linecap:round;stroke-linejoin:round;stroke-miterlimit:10;" d="M191.91,261.18
			l-0.924-6.316c0,0,5.475-0.932,7.025-1.899"/>
	</g>
</g>
<g id="Olives">
	<g>
		<g>
			<path style="fill:#263238;" d="M255.853,229.208c-10.741,0-19.448,7.891-19.448,17.625c0,9.734,8.707,17.625,19.448,17.625
				c10.741,0,19.448-7.891,19.448-17.625C275.301,237.099,266.594,229.208,255.853,229.208z M255.853,254.602
				c-4.735,0-8.573-3.478-8.573-7.769s3.838-7.769,8.573-7.769c4.735,0,8.573,3.478,8.573,7.769S260.587,254.602,255.853,254.602z"
				/>
			<g style="opacity:0.34;">
				<path style="fill:#FFFFFF;" d="M244.433,247c0,4.842,3.776,8.77,8.456,8.835c-3.874-0.85-6.781-4.396-6.781-8.645
					c0-4.883,3.838-8.841,8.573-8.841c0.04,0,0.078,0.006,0.117,0.006c-0.578-0.127-1.177-0.197-1.792-0.197
					C248.271,238.159,244.433,242.117,244.433,247z"/>
				<path style="fill:#FFFFFF;" d="M255.975,230.455c9.328,1.23,16.479,8.127,16.479,16.477c0,9.218-8.707,16.691-19.448,16.691
					c-0.437,0-0.865-0.032-1.294-0.056c0.971,0.128,1.957,0.215,2.969,0.215c10.741,0,19.448-7.473,19.448-16.692
					C274.128,238.247,266.109,231.029,255.975,230.455z"/>
			</g>
		</g>
		<g>
			<path style="fill:#263238;" d="M287.21,137.04c-7.767,0-14.064,5.706-14.064,12.746c0,7.039,6.297,12.746,14.064,12.746
				c7.768,0,14.064-5.706,14.064-12.746C301.274,142.747,294.978,137.04,287.21,137.04z M287.21,155.404
				c-3.424,0-6.2-2.515-6.2-5.618c0-3.103,2.776-5.618,6.2-5.618c3.424,0,6.2,2.516,6.2,5.618
				C293.41,152.889,290.634,155.404,287.21,155.404z"/>
			<g style="opacity:0.34;">
				<path style="fill:#FFFFFF;" d="M278.951,149.907c0,3.502,2.731,6.342,6.115,6.39c-2.801-0.615-4.904-3.179-4.904-6.252
					c0-3.531,2.776-6.394,6.2-6.394c0.029,0,0.056,0.004,0.085,0.004c-0.418-0.092-0.851-0.142-1.296-0.142
					C281.727,143.513,278.951,146.376,278.951,149.907z"/>
				<path style="fill:#FFFFFF;" d="M287.298,137.942c6.746,0.889,11.917,5.877,11.917,11.916c0,6.667-6.297,12.071-14.064,12.071
					c-0.316,0-0.625-0.023-0.936-0.041c0.702,0.093,1.415,0.155,2.147,0.155c7.768,0,14.064-5.404,14.064-12.071
					C300.426,143.577,294.627,138.357,287.298,137.942z"/>
			</g>
		</g>
		<g>
			<path style="fill:#263238;" d="M398.745,345.842c-9.182,0-16.625,6.746-16.625,15.067c0,8.321,7.444,15.067,16.625,15.067
				c9.182,0,16.625-6.746,16.625-15.067C415.37,352.588,407.927,345.842,398.745,345.842z M398.745,370.138
				c-5.624,0-10.184-4.132-10.184-9.229c0-5.097,4.559-9.229,10.184-9.229c5.624,0,10.184,4.132,10.184,9.229
				C408.929,366.006,404.369,370.138,398.745,370.138z"/>
			<g style="opacity:0.34;">
				<path style="fill:#FFFFFF;" d="M385.746,360.637c0,5.609,4.373,10.158,9.794,10.234c-4.487-0.985-7.854-5.092-7.854-10.013
					c0-5.656,4.446-10.241,9.93-10.241c0.046,0,0.09,0.006,0.136,0.007c-0.67-0.147-1.363-0.228-2.075-0.228
					C390.192,350.397,385.746,354.982,385.746,360.637z"/>
				<path style="fill:#FFFFFF;" d="M398.849,346.909c7.974,1.051,14.087,6.948,14.087,14.086c0,7.881-7.443,14.269-16.625,14.269
					c-0.374,0-0.739-0.027-1.107-0.048c0.83,0.109,1.673,0.184,2.538,0.184c9.182,0,16.625-6.389,16.625-14.269
					C414.368,353.57,407.513,347.4,398.849,346.909z"/>
			</g>
		</g>
		<g>
			<path style="fill:#263238;" d="M245.998,168.72c-9.182,0-16.625,6.746-16.625,15.067c0,8.321,7.443,15.067,16.625,15.067
				c9.182,0,16.625-6.746,16.625-15.067C262.624,175.466,255.18,168.72,245.998,168.72z M245.998,193.016
				c-5.624,0-10.183-4.132-10.183-9.229c0-5.097,4.559-9.229,10.183-9.229c5.624,0,10.184,4.132,10.184,9.229
				C256.182,188.884,251.623,193.016,245.998,193.016z"/>
			<g style="opacity:0.34;">
				<path style="fill:#FFFFFF;" d="M233,183.516c0,5.609,4.373,10.158,9.794,10.234c-4.487-0.985-7.854-5.092-7.854-10.013
					c0-5.656,4.446-10.241,9.93-10.241c0.046,0,0.09,0.006,0.136,0.007c-0.67-0.147-1.363-0.228-2.076-0.228
					C237.445,173.275,233,177.86,233,183.516z"/>
				<path style="fill:#FFFFFF;" d="M246.103,169.787c7.974,1.051,14.087,6.948,14.087,14.086c0,7.881-7.443,14.269-16.625,14.269
					c-0.374,0-0.739-0.027-1.107-0.048c0.83,0.109,1.673,0.184,2.538,0.184c9.182,0,16.625-6.389,16.625-14.269
					C261.622,176.448,254.767,170.278,246.103,169.787z"/>
			</g>
		</g>
		<g>
			<path style="fill:#263238;" d="M142.12,190.05c-8.174,0-14.801,6.005-14.801,13.413c0,7.408,6.627,13.413,14.801,13.413
				c8.174,0,14.801-6.005,14.801-13.413C156.921,196.055,150.294,190.05,142.12,190.05z M142.12,211.679
				c-5.007,0-9.066-3.678-9.066-8.216s4.059-8.216,9.066-8.216c5.007,0,9.066,3.678,9.066,8.216S147.127,211.679,142.12,211.679z"/>
			<g style="opacity:0.34;">
				<path style="fill:#FFFFFF;" d="M130.548,203.221c0,4.993,3.894,9.043,8.719,9.111c-3.995-0.877-6.992-4.533-6.992-8.914
					c0-5.035,3.958-9.117,8.84-9.117c0.041,0,0.08,0.006,0.121,0.006c-0.596-0.131-1.214-0.203-1.848-0.203
					C134.505,194.104,130.548,198.186,130.548,203.221z"/>
				<path style="fill:#FFFFFF;" d="M142.213,190.999c7.099,0.936,12.541,6.185,12.541,12.54c0,7.016-6.627,12.703-14.801,12.703
					c-0.333,0-0.658-0.024-0.985-0.043c0.739,0.097,1.489,0.163,2.26,0.163c8.174,0,14.801-5.687,14.801-12.703
					C156.029,196.929,149.926,191.436,142.213,190.999z"/>
			</g>
		</g>
		<g>
			<path style="fill:#263238;" d="M237.044,281.185c-7.768,0-14.064,5.707-14.064,12.746c0,7.039,6.297,12.746,14.064,12.746
				c7.768,0,14.064-5.706,14.064-12.746C251.108,286.892,244.811,281.185,237.044,281.185z M237.044,299.549
				c-3.424,0-6.2-2.516-6.2-5.619c0-3.103,2.776-5.618,6.2-5.618c3.424,0,6.2,2.516,6.2,5.618
				C243.243,297.034,240.468,299.549,237.044,299.549z"/>
			<g style="opacity:0.34;">
				<path style="fill:#FFFFFF;" d="M228.785,294.052c0,3.502,2.731,6.342,6.115,6.389c-2.801-0.615-4.904-3.179-4.904-6.252
					c0-3.531,2.776-6.394,6.2-6.394c0.029,0,0.056,0.004,0.085,0.004c-0.418-0.092-0.851-0.142-1.296-0.142
					C231.561,287.658,228.785,290.521,228.785,294.052z"/>
				<path style="fill:#FFFFFF;" d="M237.132,282.087c6.746,0.889,11.917,5.877,11.917,11.916c0,6.667-6.297,12.071-14.064,12.071
					c-0.316,0-0.625-0.023-0.936-0.041c0.702,0.092,1.415,0.155,2.147,0.155c7.768,0,14.064-5.404,14.064-12.071
					C250.26,287.722,244.461,282.503,237.132,282.087z"/>
			</g>
		</g>
		<g>
			<path style="fill:#263238;" d="M364.697,217.359c-7.767,0-14.064,5.706-14.064,12.746s6.297,12.746,14.064,12.746
				c7.768,0,14.064-5.706,14.064-12.746S372.464,217.359,364.697,217.359z M364.697,235.723c-3.424,0-6.2-2.515-6.2-5.618
				c0-3.103,2.776-5.618,6.2-5.618c3.424,0,6.2,2.516,6.2,5.618C370.896,233.208,368.121,235.723,364.697,235.723z"/>
			<g style="opacity:0.34;">
				<path style="fill:#FFFFFF;" d="M356.438,230.226c0,3.502,2.731,6.342,6.115,6.389c-2.802-0.615-4.904-3.179-4.904-6.252
					c0-3.531,2.776-6.394,6.2-6.394c0.029,0,0.056,0.004,0.085,0.004c-0.418-0.092-0.851-0.142-1.296-0.142
					C359.214,223.832,356.438,226.695,356.438,230.226z"/>
				<path style="fill:#FFFFFF;" d="M364.785,218.261c6.746,0.889,11.917,5.878,11.917,11.916c0,6.667-6.297,12.071-14.064,12.071
					c-0.316,0-0.625-0.023-0.936-0.041c0.702,0.092,1.415,0.155,2.147,0.155c7.767,0,14.064-5.404,14.064-12.071
					C377.913,223.896,372.114,218.676,364.785,218.261z"/>
			</g>
		</g>
	</g>
</g>
<g id="Pepperoni">
	<g>
		<g>
			<path style="fill:#92E3A9;stroke:#263238;stroke-linecap:round;stroke-linejoin:round;stroke-miterlimit:10;" d="
				M185.302,181.166c-7.176,2.259-13.625,6.536-17.985,12.684c-9.761,13.763-5.135,34.862,8.14,44.881
				c15.462,11.67,35.895,9.549,44.179,3.713c20.818-14.666,18.116-46.425-3.907-58.614
				C206.616,178.786,195.26,178.031,185.302,181.166z"/>
			<g style="opacity:0.16;">
				<path d="M229.3,209.738c-0.749-3.465-1.893-7.604-3.574-11.133c-3.694-7.758-9.974-8.127-9.974-8.127
					c-4.433-2.586-7.388-4.433-9.235-4.802c-1.847-0.369,1.847-1.847-1.847-0.369c-3.694,1.478-9.605-2.216-11.452-1.108
					c0,0-5.172-0.739-3.694,2.586c1.478,3.325,4.802,2.586,5.172,4.802c0.369,2.217,3.694,5.172-0.739,5.541
					c-4.433,0.369-6.28,0-7.388-2.586c-1.108-2.586-0.369-4.433-3.694-2.586c-3.325,1.847-5.911,3.325-5.541,5.172
					c0.369,1.847,3.325,3.694,6.649,4.433c3.325,0.739,6.649,1.108,3.694,3.694c-2.955,2.586-8.496,2.586-8.496,2.586
					s-5.172-1.108-6.28-2.216s-1.847-7.019-1.847-7.019s-4.433-5.172-4.802,2.955c-0.369,8.127-0.739,7.758,1.847,12.191
					c2.586,4.433,4.063,9.235,7.758,4.802c3.694-4.433,6.28-6.649,6.28-6.649s4.063,0.739,7.019,0
					c2.955-0.739,11.821-9.605,8.496,0.739c-3.325,10.343-1.478,11.821-3.325,12.929c-1.847,1.108-7.019,1.108-4.063,5.172
					c2.955,4.063,1.478,4.802,5.91,6.28c4.433,1.478,2.217,6.28,4.433,1.478c2.216-4.802,4.433-5.91,2.216-11.821
					c-2.216-5.91,2.955-13.299,2.955-13.299s11.082,2.955,11.452,6.28c0.369,3.325-1.108,12.19-1.108,12.19
					s-4.063,1.847-4.802,4.802c-0.739,2.955,4.433,5.172,8.127,1.478c3.694-3.694,9.605-7.388,10.343-13.668
					C230.406,219.219,231.526,212.955,229.3,209.738z M210.95,202.3c-3.325-1.108-5.172-3.325-5.172-3.325s3.694-5.172,5.541-4.433
					c1.847,0.739,4.802,5.541,5.911,5.541c1.108,0,2.586,0.739,1.847-2.586c3.333,2.698,5.914,6.692,7.776,10.37
					C222.241,205.733,214.104,203.351,210.95,202.3z"/>
				<path d="M181.397,218.923c0,0-5.541,2.217-8.127,5.541c-2.586,3.325-1.478,4.063,2.586,7.388
					c4.064,3.325,6.649,6.649,7.758,2.955c1.108-3.694,5.91-13.668,4.063-15.515C185.83,217.445,186.199,215.229,181.397,218.923z"
					/>
				<path d="M213.905,226.68c0,0-6.649-7.388-8.496,1.108c-1.847,8.496,0.739,9.235,3.325,6.649
					C211.319,231.852,214.644,229.636,213.905,226.68z"/>
			</g>
		</g>
		<g>
			<path style="fill:#92E3A9;stroke:#263238;stroke-linecap:round;stroke-linejoin:round;stroke-miterlimit:10;" d="M307.66,167.518
				c-6.346,2.981-11.801,7.895-15.127,14.452c-7.447,14.68-0.851,35.173,12.465,43.768c15.511,10.01,34.061,5.804,41.03-0.847
				c17.512-16.713,11.503-47.998-10.098-57.851C326.992,162.964,316.467,163.38,307.66,167.518z"/>
			<g style="opacity:0.16;">
				<path d="M299.949,192.093c1.183-0.357,1.944-1.485,2.531-2.573c0.587-1.087,1.15-2.272,2.195-2.931
					c1.045-0.66,2.741-0.448,3.137,0.722c0.166,0.49,0.072,1.035,0.216,1.532c0.37,1.272,2.021,1.614,3.338,1.475
					c1.317-0.139,2.751-0.504,3.891,0.17c1.09,0.645,1.509,2.026,2.465,2.857c1.53,1.331,4.037,0.822,5.523-0.559
					c1.485-1.381,2.201-3.378,2.865-5.295c0.44-1.269,0.881-2.66,0.428-3.924c-0.473-1.319-1.841-2.15-3.223-2.382
					c-1.382-0.232-2.793,0.029-4.17,0.29c-0.765-1.362,0.143-3.174,1.507-3.937c1.363-0.763,3.008-0.76,4.57-0.738
					c2.918,0.041,5.835,0.083,8.752,0.124c0.75-2.334-0.833-4.918-2.995-6.073c-6.134-3.279-20.279-0.806-26.512,2.264
					C299.429,175.598,291.702,194.584,299.949,192.093z"/>
				<path d="M333.135,200.703c-1.706,1.342-4.189,0.773-6.205-0.031c-2.016-0.804-4.211-1.797-6.267-1.104
					c-2.909,0.981-3.773,4.694-3.593,7.758c0.057,0.97,0.177,1.959,0.598,2.835c0.793,1.652,2.502,2.636,4.143,3.45
					c2.257,1.12,4.674,2.133,7.193,2.06c2.519-0.074,5.157-1.511,5.894-3.921c0.282-0.92,0.274-1.911,0.572-2.826
					c0.298-0.915,1.058-1.806,2.02-1.773c0.541,0.018,1.024,0.323,1.495,0.59c1.868,1.062,3.989,1.676,6.135,1.776
					c0.568,0.026,1.165,0.01,1.66-0.269c0.585-0.33,0.922-0.964,1.196-1.577c3.231-7.227,2.001-21.035-7.182-23.506
					c-3.377-0.909-6.75,0.286-8.563,3.33c-1.029,1.728-1.558,4.385-1.169,6.383C331.418,195.715,334.667,198.863,333.135,200.703z"
					/>
				<path d="M296.233,199.633c-2.254,1.21-3.732,3.743-3.677,6.301c0.054,2.499,1.43,4.771,2.95,6.756
					c3.817,4.986,8.799,9.017,14.265,12.109c3.326,1.882,6.882,3.441,10.645,4.107c2.18,0.385,4.527,0.443,6.497-0.567
					c1.97-1.01,3.387-3.346,2.746-5.464c-0.826-2.732-4.18-3.574-6.954-4.246c-1.924-0.467-3.817-1.063-5.662-1.783
					c-6.976-2.724-0.941-8.3-5.613-12.081C307.965,201.96,300.626,197.275,296.233,199.633z"/>
				<path d="M343.455,214.813c-2.372,1.728-4.818,3.356-7.328,4.877c-1.428,0.865-3.088,2.115-2.815,3.763
					c0.209,1.259,1.572,2.06,2.849,2.077c1.277,0.017,2.479-0.551,3.628-1.107c1.028-0.498,2.057-0.995,3.085-1.493
					c1.246-0.603,2.515-1.222,3.507-2.187c0.992-0.965,1.675-2.355,1.448-3.72c-0.228-1.365-1.586-2.551-2.942-2.274"/>
			</g>
		</g>
		<g>
			<path style="fill:#92E3A9;stroke:#263238;stroke-linecap:round;stroke-linejoin:round;stroke-miterlimit:10;" d="
				M359.117,283.855c-5.662,2.66-10.529,7.044-13.496,12.893c-6.644,13.096-0.759,31.38,11.121,39.048
				c13.839,8.931,30.388,5.178,36.605-0.755c15.624-14.911,10.263-42.822-9.009-51.612
				C376.364,279.793,366.975,280.164,359.117,283.855z"/>
			<path style="opacity:0.16;" d="M348.843,305.106c1.1,4,4.138,7.418,7.981,8.979c3.843,1.561,8.404,1.23,11.982-0.87
				c1.235-0.725,2.38-1.678,3.065-2.935c1.598-2.931,0.442-6.92,2.431-9.6c2.276-3.068,6.892-2.45,10.712-2.475
				c0.583-0.004,1.22-0.052,1.645-0.451c0.411-0.386,0.508-1.001,0.495-1.564c-0.05-2.224-1.454-4.242-3.231-5.58
				c-1.777-1.338-3.906-2.108-6-2.859c-2.097-0.752-4.871-1.32-6.19,0.475c-1.546,2.104,0.503,5.694-1.468,7.454
				c-3.031,2.707-6.998-1.964-9.495-2.971C354.621,290.227,347.232,299.245,348.843,305.106z"/>
			<path style="opacity:0.16;" d="M387.496,302.662c-1.923-0.042-3.583,1.31-4.884,2.728c-3.172,3.459-5.379,7.795-6.307,12.396
				c-0.122,0.602-0.211,1.27,0.106,1.796c0.303,0.503,0.896,0.74,1.447,0.944c3.449,1.275,6.897,2.55,10.346,3.824
				c0.579,0.214,1.187,0.432,1.799,0.354c0.854-0.109,1.524-0.759,2.126-1.375c1.996-2.041,4.046-4.165,5.036-6.842
				C399.429,310.365,394.11,302.806,387.496,302.662z"/>
			<path style="opacity:0.16;" d="M353.731,318.684c-0.464-0.151-0.97-0.329-1.424-0.149c-0.545,0.216-0.777,0.847-0.935,1.411
				c-0.464,1.656-0.798,3.53,0.069,5.016c0.428,0.734,1.105,1.284,1.767,1.817c1.848,1.487,3.695,2.975,5.543,4.462
				c1.723,1.387,3.487,2.797,5.566,3.552c2.079,0.754,4.567,0.747,6.339-0.576c1.773-1.322,2.416-4.164,0.96-5.828
				c-0.759-0.868-2.068-1.638-1.798-2.759c0.753-3.126,4.194-6.754-1.249-7.518C363.589,317.413,358.961,320.385,353.731,318.684z"
				/>
			<path style="opacity:0.16;" d="M373.95,336.712c-0.073,0.381-0.144,0.79,0.016,1.143c0.246,0.544,0.913,0.726,1.497,0.846
				c1.419,0.29,2.872,0.581,4.306,0.38c1.229-0.172,2.36-0.691,3.438-1.324c0.577-0.339,1.139-0.71,1.692-1.078
				c1.359-0.904,2.718-1.808,4.077-2.712c0.86-0.572,1.74-1.163,2.342-2.003c3.761-5.251-3.513-6.185-6.835-5.211
				C379.832,328.118,374.911,331.717,373.95,336.712z"/>
		</g>
		<g>
			<path style="fill:#92E3A9;stroke:#263238;stroke-linecap:round;stroke-linejoin:round;stroke-miterlimit:10;" d="
				M287.707,244.692c-6.346,2.982-11.801,7.895-15.128,14.452c-7.447,14.68-0.851,35.173,12.465,43.768
				c15.511,10.01,34.061,5.804,41.03-0.847c17.512-16.713,11.503-47.998-10.098-57.851
				C307.04,240.138,296.515,240.554,287.707,244.692z"/>
			<path style="opacity:0.16;" d="M276.192,268.511c1.233,4.483,4.638,8.314,8.946,10.064c4.308,1.75,9.42,1.378,13.43-0.975
				c1.384-0.813,2.668-1.88,3.436-3.29c1.791-3.285,0.496-7.756,2.725-10.761c2.551-3.439,7.725-2.746,12.007-2.775
				c0.653-0.004,1.368-0.058,1.844-0.506c0.46-0.433,0.57-1.122,0.555-1.753c-0.056-2.493-1.629-4.754-3.621-6.254
				c-1.992-1.5-4.379-2.363-6.726-3.204c-2.35-0.843-5.46-1.48-6.939,0.532c-1.733,2.358,0.563,6.382-1.645,8.355
				c-3.397,3.034-7.844-2.201-10.643-3.33C282.668,251.834,274.385,261.942,276.192,268.511z"/>
			<path style="opacity:0.16;" d="M319.517,265.772c-2.156-0.047-4.016,1.468-5.474,3.057c-3.556,3.877-6.029,8.738-7.07,13.895
				c-0.136,0.675-0.237,1.423,0.118,2.013c0.34,0.564,1.004,0.829,1.621,1.058c3.866,1.429,7.731,2.858,11.596,4.287
				c0.649,0.24,1.33,0.484,2.017,0.397c0.957-0.122,1.708-0.851,2.383-1.541c2.237-2.287,4.535-4.669,5.645-7.67
				C332.893,274.406,326.93,265.933,319.517,265.772z"/>
			<path style="opacity:0.16;" d="M281.67,283.73c-0.52-0.169-1.088-0.368-1.596-0.167c-0.611,0.242-0.871,0.95-1.048,1.582
				c-0.52,1.856-0.894,3.957,0.077,5.622c0.48,0.823,1.239,1.439,1.981,2.036c2.071,1.667,4.142,3.334,6.212,5.001
				c1.931,1.554,3.908,3.136,6.238,3.981c2.33,0.846,5.119,0.837,7.106-0.645c1.987-1.482,2.708-4.667,1.076-6.533
				c-0.851-0.973-2.318-1.836-2.016-3.092c0.844-3.504,4.701-7.571-1.4-8.427C292.72,282.306,287.532,285.637,281.67,283.73z"/>
			<path style="opacity:0.16;" d="M304.333,303.938c-0.082,0.427-0.161,0.885,0.018,1.281c0.275,0.61,1.023,0.814,1.679,0.948
				c1.591,0.325,3.219,0.651,4.826,0.426c1.377-0.193,2.645-0.775,3.853-1.484c0.647-0.38,1.277-0.796,1.897-1.208
				c1.523-1.013,3.047-2.026,4.57-3.039c0.964-0.641,1.95-1.303,2.625-2.245c4.216-5.886-3.938-6.932-7.662-5.841
				C310.926,294.305,305.41,298.339,304.333,303.938z"/>
		</g>
	</g>
</g>
</svg>
