<svg fill="#72E2AEFF" width="40px" height="40px" viewBox="0 0 40 40" xmlns="http://www.w3.org/2000/svg">
    <g id="HTML"
       transform="translate(0.000000,64.000000) scale(0.100000,-0.100000)"
       stroke="none">
        <path d="M40 608 c1 -97 38 -520 46 -527 5 -5 60 -25 122 -46 l112 -37 113 37
c61 21 116 41 121 46 8 7 45 430 46 527 l0 32 -280 0 -280 0 0 -32z m460 -98
l0 -40 -141 0 -140 0 3 -47 3 -48 132 -3 132 -3 -6 -97 c-3 -53 -9 -104 -14
-112 -4 -9 -39 -26 -79 -38 l-71 -23 -67 21 c-72 24 -92 41 -92 77 0 20 5 23
40 23 22 0 40 -4 40 -8 0 -5 18 -14 40 -21 60 -18 116 1 124 42 14 70 19 67
-118 67 -69 0 -127 3 -129 8 -3 4 -8 60 -11 125 l-7 117 180 0 181 0 0 -40z"/>
    </g>

    <g id="CSS" transform="translate(0.000000,64.000000) scale(0.100000,-0.100000)"
       stroke="none">
        <path d="M44 588 c3 -29 15 -159 26 -288 12 -129 22 -235 23 -236 1 -1 53 -16
115 -33 l112 -31 113 31 c61 17 113 32 114 33 1 1 11 107 23 236 11 129 23
259 26 288 l6 52 -282 0 -282 0 6 -52z m449 -115 c-3 -27 -10 -106 -16 -178
l-12 -130 -55 -18 c-30 -10 -71 -19 -90 -19 -19 0 -60 9 -90 19 l-55 18 -3 58
-3 58 33 -3 c28 -2 34 -8 38 -32 6 -36 43 -50 107 -41 49 7 48 6 58 63 l7 42
-126 0 -126 0 0 35 0 34 128 3 127 3 3 38 3 37 -135 0 c-75 0 -136 3 -136 8 0
4 -3 17 -6 30 l-6 22 179 0 180 0 -4 -47z"/>
    </g>

    <g id="React" transform="translate(0.000000,64.000000) scale(0.100000,-0.100000)"
       stroke="none">
        <path d="M144 579 c-15 -17 -19 -35 -18 -89 l2 -68 -38 -11 c-42 -12 -90 -61
-90 -91 0 -30 48 -79 90 -91 l38 -11 -2 -68 c-1 -54 3 -72 18 -89 27 -30 73
-27 129 9 l47 30 47 -30 c56 -36 102 -39 129 -9 15 17 19 35 18 90 -2 67 -1
68 27 74 37 8 99 66 99 93 0 31 -47 80 -90 93 l-38 11 2 68 c1 54 -3 72 -18
89 -29 32 -83 28 -134 -9 l-42 -30 -42 30 c-51 37 -105 41 -134 9z m102 -35
c21 -15 41 -28 43 -30 2 -1 -6 -16 -18 -33 -25 -35 -87 -53 -102 -30 -12 19
-11 76 1 100 14 25 30 24 76 -7z m224 7 c12 -24 13 -81 1 -100 -15 -23 -77 -5
-102 30 -12 17 -20 32 -18 33 19 18 85 56 95 56 7 0 18 -9 24 -19z m-135 -91
c3 -5 -3 -10 -15 -10 -12 0 -18 5 -15 10 3 6 10 10 15 10 5 0 12 -4 15 -10z
m66 -95 l24 -45 -24 -45 -24 -45 -57 0 -57 0 -24 45 -24 45 24 45 24 45 57 0
57 0 24 -45z m-191 26 c0 -17 -18 -21 -24 -6 -3 9 0 15 9 15 8 0 15 -4 15 -9z
m244 -6 c-4 -8 -10 -12 -15 -9 -14 8 -10 24 6 24 9 0 12 -6 9 -15z m-295 -30
c10 -28 10 -42 0 -70 -14 -38 -25 -39 -84 -6 -47 27 -41 60 15 89 24 12 47 22
50 22 3 0 12 -16 19 -35z m406 6 c55 -31 31 -81 -50 -105 -31 -9 -51 50 -34
99 14 38 25 39 84 6z m-355 -112 c0 -5 -7 -9 -15 -9 -9 0 -12 6 -9 15 6 15 24
11 24 -6z m239 -8 c-15 -5 -22 6 -14 19 6 9 10 9 16 -1 5 -8 4 -15 -2 -18z
m-188 -70 c16 -16 29 -33 29 -38 0 -11 -80 -63 -97 -63 -26 0 -43 72 -27 114
10 27 62 20 95 -13z m213 13 c16 -42 -1 -114 -27 -114 -17 0 -97 52 -97 63 0
5 13 22 29 38 33 33 85 40 95 13z m-142 -6 c-9 -9 -15 -9 -24 0 -9 9 -7 12 12
12 19 0 21 -3 12 -12z"/>
        <path d="M285 355 c-14 -13 -25 -29 -25 -35 0 -14 46 -60 60 -60 14 0 60 46
60 60 0 6 -11 22 -25 35 -13 14 -29 25 -35 25 -6 0 -22 -11 -35 -25z"/>
    </g>

    <g id="JS" transform="translate(0.000000,48.000000) scale(0.100000,-0.100000)"
       stroke="none">
        <path d="M109 292 c-4 -144 -12 -162 -64 -162 -28 0 -33 -4 -38 -27 -7 -37 7
-45 67 -40 40 4 55 10 78 36 28 31 28 32 28 176 l0 145 -34 0 -34 0 -3 -128z"/>
        <path d="M290 398 c-24 -16 -38 -35 -44 -61 -13 -49 11 -83 83 -118 61 -30 74
-45 60 -71 -11 -20 -86 -25 -119 -8 -16 8 -19 5 -25 -21 -9 -40 0 -48 62 -55
96 -12 168 34 168 106 0 48 -24 75 -93 106 -59 26 -75 50 -46 71 13 10 33 12
65 8 44 -6 47 -5 53 20 4 15 4 30 1 33 -3 3 -34 8 -68 10 -53 3 -67 0 -97 -20z"/>
    </g>

    <g id="Redux" transform="translate(0.000000,48.000000) scale(0.100000,-0.100000)"
       stroke="none">
        <path d="M180 452 c-22 -11 -44 -35 -58 -63 -20 -37 -22 -54 -18 -109 2 -36
11 -87 19 -115 12 -41 18 -51 39 -53 16 -2 28 3 31 12 9 22 -2 46 -20 46 -21
0 -43 62 -43 122 0 74 26 119 77 137 37 13 43 13 68 -3 15 -10 36 -38 46 -62
23 -52 45 -59 35 -12 -9 43 -31 75 -69 98 -40 25 -63 25 -107 2z"/>
        <path d="M185 314 c-31 -31 7 -67 49 -45 71 38 216 -57 216 -141 0 -19 -10
-40 -30 -60 -27 -26 -36 -29 -78 -26 -51 3 -67 -12 -26 -26 41 -13 94 2 132
40 32 32 34 38 29 80 -2 26 -13 58 -24 73 -32 43 -109 89 -161 96 -26 3 -55
10 -64 16 -23 12 -24 12 -43 -7z"/>
        <path d="M37 221 c-49 -58 -47 -132 5 -176 65 -55 208 -19 265 67 14 20 31 39
39 42 18 7 18 40 0 55 -15 13 -45 5 -47 -13 -1 -6 0 -21 0 -32 3 -30 -78 -99
-132 -112 -55 -14 -93 -6 -117 26 -28 35 -26 84 6 122 18 21 23 35 17 41 -7 7
-19 0 -36 -20z"/>
    </g>

    <g id="API" transform="translate(0.000000,64.000000) scale(0.100000,-0.100000)"
       stroke="none">
        <path d="M107 623 c-8 -10 -36 -52 -61 -93 -37 -60 -46 -83 -46 -120 0 -25 5
-51 12 -58 9 -9 9 -18 0 -37 -15 -33 -15 -108 0 -123 9 -9 9 -18 0 -37 -19
-42 -15 -112 8 -135 19 -19 31 -20 128 -18 142 4 140 22 -3 28 l-110 5 -3 48
c-5 74 1 77 144 77 102 0 124 3 124 15 0 12 -24 15 -132 17 l-133 3 -3 48 c-2
27 2 55 9 63 16 19 538 21 557 2 7 -7 12 -36 12 -66 0 -38 4 -52 13 -49 8 2
11 23 10 63 -1 32 -2 66 -2 74 -1 8 2 38 5 67 5 46 2 59 -24 105 -17 29 -45
72 -61 96 l-31 42 -199 0 c-176 0 -200 -2 -214 -17z m433 -55 c16 -22 30 -45
30 -50 0 -4 -112 -8 -250 -8 -137 0 -250 4 -250 8 0 5 14 28 30 50 l30 42 190
0 190 0 30 -42z m59 -102 c7 -8 11 -36 9 -63 l-3 -48 -285 0 -285 0 -3 48 c-2
27 2 55 9 63 17 21 541 21 558 0z"/>
        <path d="M60 429 c-10 -18 -9 -25 8 -41 27 -28 65 -9 60 30 -4 36 -51 44 -68
11z m41 -22 c-13 -13 -26 -3 -16 12 3 6 11 8 17 5 6 -4 6 -10 -1 -17z"/>
        <path d="M320 440 c0 -6 47 -10 120 -10 73 0 120 4 120 10 0 6 -47 10 -120 10
-73 0 -120 -4 -120 -10z"/>
        <path d="M323 388 c3 -10 35 -13 117 -13 82 0 114 3 118 13 3 9 -25 12 -118
12 -93 0 -121 -3 -117 -12z"/>
        <path d="M60 269 c-10 -18 -9 -25 8 -41 27 -28 65 -9 60 30 -4 36 -51 44 -68
11z m41 -22 c-13 -13 -26 -3 -16 12 3 6 11 8 17 5 6 -4 6 -10 -1 -17z"/>
        <path d="M320 280 c0 -6 47 -10 120 -10 73 0 120 4 120 10 0 6 -47 10 -120 10
-73 0 -120 -4 -120 -10z"/>
        <path d="M400 233 c-24 -9 -70 -55 -70 -70 0 -7 -13 -25 -30 -40 -39 -34 -42
-85 -6 -109 38 -24 285 -17 315 10 51 46 31 135 -36 156 -21 7 -48 21 -60 32
-21 20 -86 32 -113 21z m101 -48 c13 -13 34 -25 47 -25 29 0 62 -34 62 -63 0
-12 -7 -33 -16 -45 -14 -21 -22 -22 -149 -22 -126 0 -135 1 -145 21 -9 16 -8
25 6 40 9 10 23 19 31 19 7 0 13 11 13 24 0 66 104 101 151 51z"/>
        <path d="M60 109 c-10 -18 -9 -25 8 -41 27 -28 65 -9 60 30 -4 36 -51 44 -68
11z m41 -22 c-13 -13 -26 -3 -16 12 3 6 11 8 17 5 6 -4 6 -10 -1 -17z"/>
    </g>

    <g id="Git" transform="translate(0.000000,48.000000) scale(0.100000,-0.100000)"
       stroke="none">
        <path d="M200 455 l-23 -25 24 -26 c13 -14 34 -30 47 -35 12 -5 26 -19 31 -31
10 -26 47 -62 74 -71 38 -14 28 -67 -14 -67 -17 0 -43 32 -34 42 3 3 -6 15
-20 28 l-25 23 0 -61 c0 -34 5 -71 12 -81 9 -15 9 -23 -1 -35 -17 -20 -35 -20
-56 0 -14 15 -14 18 0 40 19 30 20 132 0 158 -8 10 -12 22 -10 26 2 4 -9 20
-26 36 l-29 28 -75 -74 c-41 -41 -75 -81 -75 -90 0 -20 220 -240 240 -240 20
0 240 221 240 240 0 20 -221 240 -241 240 -8 0 -26 -11 -39 -25z"/>
    </g>

    <g id="Test" transform="translate(0.000000,612.000000) scale(0.100000,-0.100000)"
       stroke="none">
        <path d="M1635 4571 c-47 -22 -89 -64 -104 -104 -8 -19 -11 -393 -11 -1188 0
-1131 0 -1161 20 -1198 39 -77 104 -111 213 -111 l57 0 0 960 0 960 1248 -2
1247 -3 3 -957 2 -958 53 0 c110 1 184 39 220 113 16 35 17 107 15 1210 l-3
1173 -25 37 c-15 22 -46 48 -74 62 l-50 25 -1385 0 c-1328 0 -1388 -1 -1426
-19z m441 -238 c53 -35 72 -119 41 -180 -23 -43 -93 -76 -142 -67 -101 19
-146 139 -83 219 43 55 125 67 184 28z m371 2 c139 -92 20 -308 -130 -236 -52
25 -77 65 -77 123 0 106 118 171 207 113z m378 -3 c55 -40 72 -125 38 -183
-24 -41 -92 -72 -137 -63 -97 18 -146 126 -93 205 44 67 132 86 192 41z m1483
-109 l3 -103 -611 0 -610 0 0 98 c0 54 3 102 7 106 4 3 277 5 607 4 l601 -3 3
-102z"/>
        <path d="M2743 3379 c-43 -16 -38 -45 22 -136 l56 -84 -22 -47 c-20 -41 -39
-152 -27 -152 3 0 27 10 54 22 79 34 144 48 234 48 90 0 155 -14 234 -48 26
-12 52 -20 56 -17 11 7 -6 99 -29 151 l-21 47 56 82 c60 88 64 118 21 134 -35
13 -50 3 -101 -70 -27 -38 -52 -68 -55 -66 -71 40 -108 49 -177 45 -49 -3 -84
-12 -109 -27 -20 -11 -40 -19 -44 -17 -3 3 -27 34 -51 70 -46 68 -62 78 -97
65z"/>
        <path d="M2372 3088 c-12 -6 -25 -22 -28 -35 -7 -25 49 -311 67 -349 6 -11 39
-37 74 -57 l63 -36 -20 -63 c-10 -35 -22 -88 -26 -118 l-7 -55 -57 -3 -57 -3
-57 113 c-31 62 -63 121 -72 131 -33 37 -112 7 -112 -43 0 -30 146 -316 165
-324 9 -3 56 -6 105 -6 l87 0 12 -60 c7 -33 19 -76 27 -96 9 -20 12 -40 7 -44
-4 -4 -44 -20 -88 -35 -44 -16 -86 -33 -93 -40 -27 -24 -222 -349 -222 -370 0
-29 36 -65 64 -65 33 0 54 25 159 189 l92 144 83 29 83 29 45 -50 c57 -63 150
-125 220 -148 29 -9 56 -15 58 -12 3 2 28 131 57 287 29 155 56 282 59 282 3
0 18 -66 33 -147 82 -440 78 -423 100 -423 47 0 172 73 240 141 l67 67 90 -30
c50 -16 90 -33 90 -37 0 -13 181 -296 197 -308 38 -29 103 3 103 51 0 21 -195
347 -223 372 -7 6 -48 23 -92 39 -44 15 -84 31 -88 35 -5 4 -2 24 7 44 8 20
20 63 27 96 l12 60 97 0 c66 0 101 4 108 13 22 26 152 298 152 317 0 50 -79
80 -112 43 -9 -10 -41 -69 -72 -131 l-57 -113 -57 3 -57 3 -7 55 c-4 30 -16
83 -26 118 l-20 62 68 40 c38 22 71 48 74 58 20 67 67 327 62 346 -8 33 -54
51 -89 35 -32 -14 -32 -15 -62 -158 -14 -64 -27 -125 -30 -136 -2 -11 -24 -31
-48 -44 l-43 -24 -54 57 c-108 114 -213 165 -361 173 -81 5 -108 2 -174 -18
-94 -28 -172 -77 -244 -154 l-55 -58 -43 24 c-24 13 -46 33 -48 44 -3 11 -16
73 -30 139 -28 128 -36 150 -61 160 -21 8 -35 7 -62 -6z"/>
    </g>

    <g id="Styling" transform="translate(0.000000,64.000000) scale(0.100000,-0.100000)"
       stroke="none">
        <path d="M71 622 c-65 -35 -71 -60 -71 -302 0 -189 2 -219 18 -249 33 -62 65
-71 249 -71 l163 0 0 83 c0 74 3 86 23 105 20 19 35 22 105 22 l82 0 0 127 0
128 -120 -120 c-75 -74 -120 -127 -120 -140 0 -35 -35 -88 -71 -107 -50 -27
-209 -26 -233 1 -48 53 57 241 135 241 13 0 227 226 267 282 13 17 5 18 -190
18 -178 0 -208 -2 -237 -18z"/>
        <path d="M443 479 c-65 -72 -119 -134 -120 -137 -1 -4 12 -18 28 -31 l31 -24
129 129 c71 71 129 136 129 146 0 24 -27 48 -55 48 -18 0 -54 -33 -142 -131z"/>
        <path d="M206 269 c-30 -24 -66 -88 -66 -119 0 -18 6 -20 68 -20 77 0 112 14
130 54 11 22 11 33 2 57 -22 53 -86 66 -134 28z"/>
        <path d="M487 153 c-12 -11 -8 -143 4 -143 14 0 139 125 139 139 0 12 -132 16
-143 4z"/>
    </g>

    <g id="portfolio" transform="translate(0.000000,512.000000) scale(0.100000,-0.100000)"
       stroke="none">
        <path d="M1900 5106 c-143 -40 -248 -146 -286 -290 -19 -72 -18 -199 2 -243
37 -77 134 -113 208 -78 55 26 86 73 96 146 9 66 28 99 74 133 27 21 38 21
566 21 528 0 539 0 566 -21 46 -34 65 -67 74 -133 10 -73 41 -120 96 -146 74
-35 171 1 208 78 19 41 21 150 5 229 -32 149 -142 264 -293 304 -71 19 -1248
19 -1316 0z"/>
        <path d="M507 4144 c-225 -48 -399 -207 -478 -434 -21 -61 -23 -85 -27 -382
-3 -284 -2 -320 14 -353 52 -111 197 -125 272 -27 l27 35 5 311 c5 305 5 312
29 361 32 63 93 124 156 156 l50 24 2005 0 2005 0 50 -24 c63 -32 124 -93 156
-156 23 -48 24 -58 27 -304 3 -227 1 -262 -17 -343 -86 -371 -343 -639 -709
-740 -72 -20 -108 -22 -542 -27 l-465 -6 -66 -31 c-64 -31 -99 -61 -204 -175
-87 -95 -213 -132 -326 -95 -75 25 -115 55 -189 143 -55 65 -79 85 -144 118
l-78 40 -467 6 c-500 6 -505 7 -656 64 -84 31 -151 69 -241 136 -38 28 -98 65
-133 82 -224 106 -494 -29 -551 -275 -6 -26 -10 -300 -10 -691 0 -553 2 -659
16 -724 41 -199 166 -360 349 -448 143 -69 11 -65 2195 -65 1759 0 1979 2
2047 16 252 52 446 246 497 496 22 107 22 308 0 355 -52 109 -198 122 -272 25
-26 -34 -27 -42 -32 -186 -5 -133 -8 -157 -30 -201 -31 -63 -92 -124 -155
-156 l-50 -24 -2005 0 -2005 0 -50 24 c-63 32 -124 93 -156 156 l-24 50 -3
658 -3 657 25 25 c34 34 73 32 127 -6 206 -143 321 -201 484 -244 142 -38 237
-45 593 -45 388 0 377 2 454 -102 59 -80 89 -108 161 -152 90 -54 164 -66 397
-66 233 0 307 12 397 66 72 44 102 72 164 155 75 101 58 98 504 102 347 4 389
6 479 26 538 120 939 559 1006 1101 16 135 13 507 -6 597 -40 197 -168 362
-347 447 -147 70 -9 66 -2204 65 -1697 -1 -1988 -3 -2046 -15z"/>
        <path d="M4892 1904 c-107 -55 -121 -198 -26 -271 96 -73 238 -10 251 111 14
119 -120 214 -225 160z"/>
    </g>

    <g id="left" transform="translate(0.000000,64.000000) scale(0.100000,-0.100000)"
       stroke="none">
        <path d="M305 410 l-90 -90 92 -92 c74 -73 95 -90 105 -80 10 10 -4 29 -67 92
l-80 80 79 79 c68 68 87 101 58 101 -4 0 -48 -41 -97 -90z"/>
    </g>

    <g id="right" transform="translate(0.000000,64.000000) scale(0.100000,-0.100000)"
       stroke="none">
        <path d="M224 489 c-4 -6 28 -45 72 -90 l79 -79 -80 -80 c-63 -63 -77 -82 -67
-92 10 -10 31 7 105 80 l92 92 -90 90 c-49 49 -93 90 -97 90 -4 0 -10 -5 -14
-11z"/>
    </g>

    <g id="top" transform="translate(0.000000,64.000000) scale(0.100000,-0.100000)"
       stroke="none">
        <path d="M225 330 c-71 -71 -87 -92 -77 -102 10 -10 29 4 92 67 l80 80 80 -80
c63 -63 82 -77 92 -67 10 10 -6 31 -77 102 -49 50 -92 90 -95 90 -3 0 -46 -40
-95 -90z"/>
    </g>

</svg>