<?xml version="1.0" encoding="utf-8"?>
<!-- Generator: Adobe Illustrator 27.5.0, SVG Export Plug-In . SVG Version: 6.00 Build 0)  -->
<svg version="1.1" xmlns="http://www.w3.org/2000/svg" xmlns:xlink="http://www.w3.org/1999/xlink" x="0px" y="0px"
	 viewBox="0 0 500 500" style="enable-background:new 0 0 500 500;" xml:space="preserve">
<g id="Background_Simple">
	<g>
		<path style="opacity:0.7;fill:#FFFFFF;" d="M67.931,167.086c0,0-27.877,71.988,11.297,144.503
			c39.174,72.516,119.879,110.802,184.469,143.548c64.59,32.746,131.661,16.799,163.534-36.838
			c31.873-53.637-11.845-91.928-11.897-168.418c-0.051-76.49,11.447-96.742-29.963-161.364
			c-41.41-64.623-143.059-78.925-219.9-30.996C88.631,105.45,67.931,167.086,67.931,167.086z"/>
	</g>
	<g>
		<path style="fill:#92E3A9;" d="M99.438,95.224c0.186-0.169,0.373-0.338,0.56-0.507c51.569-46.435,120.064-48.528,169.964,1.457
			c26.008,26.052,72.187,21.067,105.227,30.49c113.919,32.49,94.223,187.055,37.951,261.771
			c-50.78,67.424-160.807,82.656-234.731,49.482C113.45,408.766,67.71,343.642,51.432,275.548
			c-1.632-6.829-2.975-13.727-4.001-20.673C38.868,196.909,55.315,135.346,99.438,95.224z"/>
		<path style="opacity:0.7;fill:#FFFFFF;" d="M99.438,95.224c0.186-0.169,0.373-0.338,0.56-0.507
			c51.569-46.435,120.064-48.528,169.964,1.457c26.008,26.052,72.187,21.067,105.227,30.49
			c113.919,32.49,94.223,187.055,37.951,261.771c-50.78,67.424-160.807,82.656-234.731,49.482
			C113.45,408.766,67.71,343.642,51.432,275.548c-1.632-6.829-2.975-13.727-4.001-20.673
			C38.868,196.909,55.315,135.346,99.438,95.224z"/>
	</g>
</g>
<g id="Car_window">
	<g>
		<path style="fill:none;stroke:#263238;stroke-linecap:round;stroke-linejoin:round;stroke-miterlimit:10;" d="M63.745,271.003
			c0,0,65.084-72.655,117.513-103.517c52.429-30.862,223.137-44.684,223.137-44.684l-24.684,173.313
			c0,0-201.155-4.587-315.966,5.698"/>
		<path style="fill:none;stroke:#263238;stroke-linecap:round;stroke-linejoin:round;stroke-miterlimit:10;" d="M54.46,230.658
			c0,0,89.036-65.552,122.305-85.53c0,0-77.482-23.327-104.393-59.519"/>
		<path style="fill:none;stroke:#263238;stroke-linecap:round;stroke-linejoin:round;stroke-miterlimit:10;" d="M427.604,98.234
			c0,0-122.419-2.613-246.346,42.725"/>
		<path style="fill:none;stroke:#263238;stroke-linecap:round;stroke-linejoin:round;stroke-miterlimit:10;" d="M427.604,125.151
			c0,0,1.166,27.994-7.719,167.603"/>
		<path style="fill:none;stroke:#263238;stroke-linecap:round;stroke-linejoin:round;stroke-miterlimit:10;" d="M118.66,367.13
			c11.47,0,78.61-31.652,214.354-36.616"/>
		<path style="fill:none;stroke:#263238;stroke-linecap:round;stroke-linejoin:round;stroke-miterlimit:10;" d="M141.71,365.881
			c0,0,4.273,46.892,141.924,49.566"/>
		<path style="fill:none;stroke:#263238;stroke-linecap:round;stroke-linejoin:round;stroke-miterlimit:10;" d="M77.11,292.754
			c0,0,193.995-9.85,296.382-1.978"/>
		<path style="fill:none;stroke:#263238;stroke-linecap:round;stroke-linejoin:round;stroke-miterlimit:10;" d="M63.745,114.345
			c0,0,34.684,32.392,92.86,41.971"/>
		<path style="fill:none;stroke:#263238;stroke-linecap:round;stroke-linejoin:round;stroke-miterlimit:10;" d="M72.372,263.486
			c0,0,9.398-0.353,19.727-5.936c10.329-5.583,71.457-70.597,103.794-81.125c32.337-10.529,204.378-33.951,204.378-33.951"/>
	</g>
</g>
<g id="Interface">
	<g>
		<g>
			<defs>
				<path id="XMLID_292_" d="M138.1,145.7v46.98c0,2.14-1.74,3.87-3.87,3.87H68.76c-2.14,0-3.87-1.73-3.87-3.87V145.7
					c0-2.14,1.73-3.87,3.87-3.87h65.47C136.36,141.83,138.1,143.56,138.1,145.7z"/>
			</defs>
			<use xlink:href="#XMLID_292_"  style="overflow:visible;fill:#FFFFFF;"/>
			<clipPath id="XMLID_00000129204267050900355980000003554115893319560377_">
				<use xlink:href="#XMLID_292_"  style="overflow:visible;"/>
			</clipPath>
			<path style="opacity:0.4;clip-path:url(#XMLID_00000129204267050900355980000003554115893319560377_);fill:#92E3A9;" d="
				M138.1,181.44v11.24c0,2.14-1.74,3.87-3.87,3.87h-16.59v-10.62c0-2.48,2.01-4.49,4.49-4.49H138.1z"/>
			
				<use xlink:href="#XMLID_292_"  style="overflow:visible;fill:none;stroke:#263238;stroke-linecap:round;stroke-linejoin:round;stroke-miterlimit:10;"/>
		</g>
		<g>
			<path style="fill:#92E3A9;stroke:#263238;stroke-linecap:round;stroke-linejoin:round;stroke-miterlimit:10;" d="
				M123.097,188.068H79.888c-2.271,0-4.113-1.841-4.113-4.113v-1.103c0-2.271,1.841-4.113,4.113-4.113h43.209
				c2.271,0,4.113,1.841,4.113,4.113v1.103C127.21,186.227,125.369,188.068,123.097,188.068z"/>
			<g>
				<rect x="105.2" y="181.441" style="fill:#263238;" width="3.926" height="3.926"/>
				<g>
					<rect x="96.401" y="181.441" style="fill:#263238;" width="1.234" height="3.926"/>
					<rect x="94.008" y="181.441" style="fill:#263238;" width="1.234" height="3.926"/>
				</g>
				<polygon style="fill:#263238;" points="119.595,181.441 119.595,183.348 116.18,181.441 116.18,185.366 119.595,183.459 
					119.595,185.366 120.829,185.366 120.829,181.441 				"/>
				<polygon style="fill:#263238;" points="83.39,185.366 83.39,183.459 86.805,185.366 86.805,181.441 83.39,183.348 
					83.39,181.441 82.156,181.441 82.156,185.366 				"/>
			</g>
			<g>
				<path style="fill:#92E3A9;stroke:#263238;stroke-linecap:round;stroke-linejoin:round;stroke-miterlimit:10;" d="
					M95.629,171.473H76.972c-0.692,0-1.253-0.561-1.253-1.253v-18.656c0-0.692,0.561-1.253,1.253-1.253h18.657
					c0.692,0,1.253,0.561,1.253,1.253v18.656C96.882,170.912,96.321,171.473,95.629,171.473z"/>
				<g>
					<path style="fill:#263238;" d="M81.149,166.427c0,1.34,1.657,2.427,3.702,2.427s3.702-1.087,3.702-2.427
						c0-1.34-1.657-2.427-3.702-2.427S81.149,165.087,81.149,166.427z"/>
					<path style="fill:#263238;" d="M85.301,153.516l2.543,12.912h0.708l-1.859-9.441l-0.484-2.451
						c-0.573-0.484-0.87-0.958-0.906-1.014L85.301,153.516z"/>
					<path style="fill:#263238;" d="M85.303,153.52l0.628,3.121c0,0,0.274,0.175,0.762,0.344c0.562,0.198,1.408,0.389,2.454,0.302
						c1.895-0.158,2.767,1.397,2.817,1.489c-0.035-0.142-0.764-2.897-3.329-3.178c-1.069-0.116-1.873-0.595-2.425-1.064
						C85.636,154.051,85.339,153.577,85.303,153.52z"/>
				</g>
				<rect x="102.216" y="160.892" style="fill:#263238;" width="1.907" height="10.581"/>
				<rect x="106.073" y="160.892" style="fill:#263238;" width="1.907" height="10.581"/>
				<rect x="109.93" y="157.49" style="fill:#263238;" width="1.907" height="13.983"/>
				<rect x="113.787" y="155.222" style="fill:#263238;" width="1.907" height="16.252"/>
				<rect x="117.644" y="157.49" style="fill:#263238;" width="1.907" height="13.983"/>
				<rect x="121.501" y="155.222" style="fill:#263238;" width="1.907" height="16.252"/>
				<rect x="125.358" y="160.892" style="fill:#263238;" width="1.907" height="10.581"/>
			</g>
		</g>
		<path style="fill:none;stroke:#263238;stroke-linecap:round;stroke-linejoin:round;stroke-miterlimit:10;" d="M109.945,199.55
			h24.285c3.788,0,6.87-3.081,6.87-6.87v-22.999"/>
		
			<line style="fill:none;stroke:#263238;stroke-linecap:round;stroke-linejoin:round;stroke-miterlimit:10;" x1="101.637" y1="199.55" x2="106.78" y2="199.55"/>
		<path style="fill:none;stroke:#263238;stroke-linecap:round;stroke-linejoin:round;stroke-miterlimit:10;" d="M61.89,171.264
			v21.417c0,3.788,3.082,6.87,6.87,6.87h22.987"/>
		<path style="fill:none;stroke:#263238;stroke-linecap:round;stroke-linejoin:round;stroke-miterlimit:10;" d="M79.088,138.83
			H68.76c-3.788,0-6.87,3.082-6.87,6.87v17.256"/>
		
			<line style="fill:none;stroke:#263238;stroke-linecap:round;stroke-linejoin:round;stroke-miterlimit:10;" x1="87.396" y1="138.83" x2="82.648" y2="138.83"/>
		<path style="fill:none;stroke:#263238;stroke-linecap:round;stroke-linejoin:round;stroke-miterlimit:10;" d="M141.1,152.275
			V145.7c0-3.788-3.082-6.87-6.87-6.87H93.725"/>
		
			<line style="fill:none;stroke:#263238;stroke-linecap:round;stroke-linejoin:round;stroke-miterlimit:10;" x1="141.1" y1="168.099" x2="141.1" y2="163.747"/>
	</g>
	<g>
		<g>
			<path style="fill:none;stroke:#263238;stroke-miterlimit:10;" d="M139.615,181.403h-10.983c-3.788,0-6.869,3.082-6.869,6.869
				v11.475"/>
			<line style="fill:none;stroke:#263238;stroke-miterlimit:10;" x1="159" y1="181.403" x2="151.483" y2="181.403"/>
			<path style="fill:none;stroke:#263238;stroke-miterlimit:10;" d="M228.869,199.747v-11.475c0-3.788-3.081-6.869-6.87-6.869
				h-59.835"/>
			<path style="fill:none;stroke:#263238;stroke-miterlimit:10;" d="M193.418,262.98h28.582c3.788,0,6.87-3.081,6.87-6.869v-26.298"
				/>
			<line style="fill:none;stroke:#263238;stroke-miterlimit:10;" x1="168.494" y1="262.98" x2="177.989" y2="262.98"/>
			<path style="fill:none;stroke:#263238;stroke-miterlimit:10;" d="M121.763,215.176v40.936c0,3.788,3.081,6.869,6.869,6.869
				h34.719"/>
			<line style="fill:none;stroke:#263238;stroke-miterlimit:10;" x1="228.869" y1="222.692" x2="228.869" y2="215.176"/>
		</g>
		<path style="fill:#FFFFFF;stroke:#263238;stroke-linecap:round;stroke-linejoin:round;stroke-miterlimit:10;" d="M222,259.981
			h-93.367c-2.137,0-3.869-1.732-3.869-3.869v-67.839c0-2.137,1.732-3.869,3.869-3.869H222c2.137,0,3.869,1.732,3.869,3.869v67.839
			C225.869,258.248,224.137,259.981,222,259.981z"/>
		<g>
			<g>
				
					<ellipse transform="matrix(0.2284 -0.9736 0.9736 0.2284 -54.5302 359.5885)" style="fill:#92E3A9;stroke:#263238;stroke-linecap:round;stroke-linejoin:round;stroke-miterlimit:10;" cx="199.602" cy="214.198" rx="13.323" ry="13.323"/>
				<path style="fill:#263238;" d="M206.114,206.981l-0.363-0.363c-0.376-0.376-0.986-0.376-1.362,0l-2.874,2.874
					c-0.376,0.376-0.376,0.986,0,1.362l1.01,1.01c0.423,0.423,0.423,1.11,0,1.534l-3.724,3.724c-0.423,0.424-1.11,0.424-1.534,0
					l-1.009-1.01c-0.376-0.376-0.986-0.376-1.362,0l-2.874,2.874c-0.376,0.376-0.376,0.986,0,1.362l0.363,0.363
					c1.801,1.801,4.72,1.801,6.521,0l7.208-7.208C207.915,211.701,207.915,208.781,206.114,206.981z"/>
			</g>
			<g>
				<path style="fill:#92E3A9;stroke:#263238;stroke-linecap:round;stroke-linejoin:round;stroke-miterlimit:10;" d="
					M171.259,234.763h-33.836c-0.904,0-1.637-0.733-1.637-1.637v-33.836c0-0.904,0.733-1.637,1.637-1.637h33.836
					c0.904,0,1.637,0.733,1.637,1.637v33.836C172.897,234.03,172.164,234.763,171.259,234.763z"/>
				<g>
					<path style="fill:#263238;" d="M166.192,204.769c0,0,1.906-1.692,3.385,3.865c1.479,5.557,0.492,11.744-2.284,17.852
						c-2.776,6.108,3.317,5.695,3.42,8.277h-30.931c0,0-4.079-4.883,0-8.277c4.079-3.393,3.77-2.267,2.84-6.29
						s-2.375-14.617,7.07-19.411C164.085,193.48,166.192,204.769,166.192,204.769z"/>
					
						<path style="fill:#FFFFFF;stroke:#263238;stroke-width:0.5;stroke-linecap:round;stroke-linejoin:round;stroke-miterlimit:10;" d="
						M160.227,227.224c0,0-1.493,4.131-0.667,7.126h-11.877c0,0,2.198-3.365,1.099-8.395
						C147.683,220.924,160.227,227.224,160.227,227.224z"/>
					<g>
						
							<path style="fill:#FFFFFF;stroke:#263238;stroke-width:0.5;stroke-linecap:round;stroke-linejoin:round;stroke-miterlimit:10;" d="
							M146.615,214.299c0,0-0.848-1.302-1.606-1.039c-0.758,0.263-0.755,3.795-0.694,4.714c0.061,0.919,1.907,2.972,2.681,2.409"/>
						
							<path style="fill:#FFFFFF;stroke:#263238;stroke-width:0.5;stroke-linecap:round;stroke-linejoin:round;stroke-miterlimit:10;" d="
							M165.244,217.043c0,0,1.188-1.002,1.837-0.532c0.65,0.47-0.371,3.852-0.694,4.714c-0.323,0.862-2.683,2.296-3.262,1.534"/>
					</g>
					
						<path style="fill:#FFFFFF;stroke:#263238;stroke-width:0.5;stroke-linecap:round;stroke-linejoin:round;stroke-miterlimit:10;" d="
						M153.735,230.565c-3.12-0.46-6.216-5.749-6.589-7.237c-0.415-1.657-1.33-9.828,0.452-14.305
						c2.002-5.031,6.192-7.153,10.275-6.551c4.083,0.602,7.483,3.842,7.949,9.236c0.415,4.8-2.817,12.361-3.692,13.828
						C161.345,226.853,157.024,231.049,153.735,230.565z"/>
					<path style="fill:#263238;" d="M160.803,217.457c-0.085,0.578-0.412,1.008-0.73,0.961c-0.318-0.047-0.507-0.553-0.422-1.131
						s0.412-1.008,0.73-0.961C160.699,216.373,160.888,216.88,160.803,217.457z"/>
					<path style="fill:#263238;" d="M150.623,215.958c-0.085,0.578,0.104,1.084,0.422,1.131c0.318,0.047,0.645-0.383,0.73-0.961
						c0.085-0.578-0.104-1.084-0.422-1.131C151.035,214.95,150.708,215.38,150.623,215.958z"/>
					
						<path style="fill:#FFFFFF;stroke:#263238;stroke-width:0.5;stroke-linecap:round;stroke-linejoin:round;stroke-miterlimit:10;" d="
						M154.905,217.179c0.081,1.992-1.627,2.329-1.301,3.019c0.326,0.69,1.097,0.911,1.097,0.911"/>
					
						<path style="fill:none;stroke:#263238;stroke-width:0.5;stroke-linecap:round;stroke-linejoin:round;stroke-miterlimit:10;" d="
						M151.41,222.742c0,0,3.355,1.564,6.599,0.972"/>
					
						<path style="fill:none;stroke:#263238;stroke-width:0.5;stroke-linecap:round;stroke-linejoin:round;stroke-miterlimit:10;" d="
						M151.871,222.934c0,0-0.019,2.977,2.046,3.495c2.064,0.518,3.678-2.652,3.678-2.652"/>
					
						<path style="fill:none;stroke:#263238;stroke-width:0.5;stroke-linecap:round;stroke-linejoin:round;stroke-miterlimit:10;" d="
						M148.782,213.334c0,0,1.861-2.348,4.739-1.603"/>
					
						<path style="fill:none;stroke:#263238;stroke-width:0.5;stroke-linecap:round;stroke-linejoin:round;stroke-miterlimit:10;" d="
						M163.05,215.435c0,0-1.104-2.785-4.076-2.901"/>
					<path style="fill:#263238;" d="M160.932,206.776c0,0-1.959,2.571-6.214,3.312c-5.327,0.928-8.268,5.537-8.196,7.458
						c0,0-1.639-3.609-0.911-8.479c1.057-7.07,7.654-9.093,12.451-8.601c4.797,0.493,7.112,5.302,7.112,5.302
						s3.601,2.805,3.079,6.34c-0.499,3.383-1.322,3.478-1.757,4.243c-0.602,1.061,0.188,1.503-1.918,3.244
						c0,0,0.832-4.722-0.201-8.245C163.346,207.827,160.932,206.776,160.932,206.776z"/>
					<path style="fill:#263238;" d="M162.25,205.579c0,0-1.878,7.175-12.558,8.297c0,0,7.194-1.301,10.521-7.875L162.25,205.579z"/>
				</g>
			</g>
			<rect x="135.786" y="242.508" style="fill:#263238;" width="37.111" height="3.408"/>
			<g>
				<g>
					
						<rect x="184.359" y="240.811" style="fill:#92E3A9;stroke:#263238;stroke-linecap:round;stroke-linejoin:round;stroke-miterlimit:10;" width="8.675" height="5.408"/>
					<polygon style="fill:#92E3A9;stroke:#263238;stroke-linecap:round;stroke-linejoin:round;stroke-miterlimit:10;" points="
						193.034,242.624 195.822,241.54 195.822,245.49 193.034,244.329 					"/>
				</g>
				<polygon style="fill:#92E3A9;stroke:#263238;stroke-linecap:round;stroke-linejoin:round;stroke-miterlimit:10;" points="
					214.846,245.165 211.451,245.165 210.128,246.731 209.05,245.165 205.41,245.165 205.41,240.299 214.846,240.299 				"/>
			</g>
		</g>
	</g>
	<g>
		<path style="fill:none;stroke:#263238;stroke-linecap:round;stroke-linejoin:round;stroke-miterlimit:10;" d="M204.396,146.648
			h10.551c3.788,0,6.869-3.081,6.869-6.87v-19.548"/>
		
			<line style="fill:none;stroke:#263238;stroke-linecap:round;stroke-linejoin:round;stroke-miterlimit:10;" x1="191.736" y1="146.648" x2="198.462" y2="146.648"/>
		<path style="fill:none;stroke:#263238;stroke-linecap:round;stroke-linejoin:round;stroke-miterlimit:10;" d="M148.58,116.275
			v23.504c0,3.788,3.081,6.87,6.869,6.87h32.727"/>
		<path style="fill:none;stroke:#263238;stroke-linecap:round;stroke-linejoin:round;stroke-miterlimit:10;" d="M164.44,90.388
			h-8.99c-3.788,0-6.869,3.082-6.869,6.869v13.479"/>
		
			<line style="fill:none;stroke:#263238;stroke-linecap:round;stroke-linejoin:round;stroke-miterlimit:10;" x1="176.308" y1="90.388" x2="171.956" y2="90.388"/>
		<path style="fill:none;stroke:#263238;stroke-linecap:round;stroke-linejoin:round;stroke-miterlimit:10;" d="M221.816,106.385
			v-9.127c0-3.788-3.081-6.869-6.869-6.869h-35.474"/>
		<path style="fill:#FFFFFF;stroke:#263238;stroke-linecap:round;stroke-linejoin:round;stroke-miterlimit:10;" d="M214.947,143.648
			h-59.497c-2.137,0-3.869-1.732-3.869-3.869V97.257c0-2.137,1.732-3.869,3.869-3.869h59.497c2.137,0,3.869,1.732,3.869,3.869
			v42.521C218.816,141.915,217.084,143.648,214.947,143.648z"/>
		<g>
			<g>
				<defs>
					<rect id="XMLID_293_" x="158.195" y="101.207" width="54.005" height="34.623"/>
				</defs>
				<use xlink:href="#XMLID_293_"  style="overflow:visible;fill:#FFFFFF;"/>
				<clipPath id="XMLID_00000174594215415093417160000015652363284577402019_">
					<use xlink:href="#XMLID_293_"  style="overflow:visible;"/>
				</clipPath>
				
					<rect x="158.195" y="101.207" style="opacity:0.3;clip-path:url(#XMLID_00000174594215415093417160000015652363284577402019_);fill:#92E3A9;" width="54.005" height="34.623"/>
				
					<use xlink:href="#XMLID_293_"  style="overflow:visible;fill:none;stroke:#263238;stroke-linecap:round;stroke-linejoin:round;stroke-miterlimit:10;"/>
			</g>
			
				<rect x="158.195" y="101.207" style="fill:#92E3A9;stroke:#263238;stroke-linecap:round;stroke-linejoin:round;stroke-miterlimit:10;" width="54.005" height="4.67"/>
			<g>
				<g>
					<rect x="175.926" y="109.352" style="fill:#263238;" width="5.632" height="3.805"/>
					<rect x="182.382" y="109.352" style="fill:#263238;" width="5.632" height="3.805"/>
					<rect x="188.838" y="109.352" style="fill:#263238;" width="5.632" height="3.805"/>
					<rect x="195.294" y="109.352" style="fill:#263238;" width="5.632" height="3.805"/>
					<rect x="201.75" y="109.352" style="fill:#263238;" width="5.632" height="3.805"/>
				</g>
				<g>
					<rect x="163.014" y="113.868" style="fill:#263238;" width="5.632" height="3.805"/>
					<rect x="169.47" y="113.868" style="fill:#263238;" width="5.632" height="3.805"/>
					<rect x="175.926" y="113.868" style="fill:#263238;" width="5.632" height="3.805"/>
					<rect x="182.382" y="113.868" style="fill:#263238;" width="5.632" height="3.805"/>
					<rect x="188.838" y="113.868" style="fill:#263238;" width="5.632" height="3.805"/>
					<rect x="195.294" y="113.868" style="fill:#263238;" width="5.632" height="3.805"/>
					<rect x="201.75" y="113.868" style="fill:#263238;" width="5.632" height="3.805"/>
				</g>
				<g>
					<rect x="163.014" y="118.383" style="fill:#263238;" width="5.632" height="3.805"/>
					<rect x="169.47" y="118.383" style="fill:#263238;" width="5.632" height="3.805"/>
					<rect x="175.926" y="118.383" style="fill:#263238;" width="5.632" height="3.805"/>
					<rect x="182.382" y="118.383" style="fill:#263238;" width="5.632" height="3.805"/>
					
						<rect x="188.838" y="118.383" style="fill:#FFFFFF;stroke:#263238;stroke-linecap:round;stroke-linejoin:round;stroke-miterlimit:10;" width="5.632" height="3.805"/>
					<rect x="195.294" y="118.383" style="fill:#263238;" width="5.632" height="3.805"/>
					<rect x="201.75" y="118.383" style="fill:#263238;" width="5.632" height="3.805"/>
				</g>
				<g>
					<rect x="163.014" y="122.899" style="fill:#263238;" width="5.632" height="3.805"/>
					
						<rect x="169.47" y="122.899" style="fill:#FFFFFF;stroke:#263238;stroke-linecap:round;stroke-linejoin:round;stroke-miterlimit:10;" width="5.632" height="3.805"/>
					<rect x="175.926" y="122.899" style="fill:#263238;" width="5.632" height="3.805"/>
					<rect x="182.382" y="122.899" style="fill:#263238;" width="5.632" height="3.805"/>
					<rect x="188.838" y="122.899" style="fill:#263238;" width="5.632" height="3.805"/>
					<rect x="195.294" y="122.899" style="fill:#263238;" width="5.632" height="3.805"/>
					<rect x="201.75" y="122.899" style="fill:#263238;" width="5.632" height="3.805"/>
				</g>
				<g>
					<rect x="163.014" y="127.414" style="fill:#263238;" width="5.632" height="3.805"/>
					<rect x="169.47" y="127.414" style="fill:#263238;" width="5.632" height="3.805"/>
					<rect x="175.926" y="127.414" style="fill:#263238;" width="5.632" height="3.805"/>
					<rect x="182.382" y="127.414" style="fill:#263238;" width="5.632" height="3.805"/>
				</g>
			</g>
		</g>
	</g>
	<g>
		
			<line style="fill:none;stroke:#263238;stroke-linecap:round;stroke-linejoin:round;stroke-miterlimit:10;" x1="321.697" y1="149.505" x2="321.697" y2="143.176"/>
		<path style="fill:none;stroke:#263238;stroke-linecap:round;stroke-linejoin:round;stroke-miterlimit:10;" d="M305.483,182.417
			h9.345c3.788,0,6.869-3.081,6.869-6.869v-22.086"/>
		
			<line style="fill:none;stroke:#263238;stroke-linecap:round;stroke-linejoin:round;stroke-miterlimit:10;" x1="281.747" y1="182.417" x2="285.703" y2="182.417"/>
		<path style="fill:none;stroke:#263238;stroke-linecap:round;stroke-linejoin:round;stroke-miterlimit:10;" d="M232.983,164.143
			v11.405c0,3.788,3.082,6.869,6.869,6.869h35.566"/>
		
			<line style="fill:none;stroke:#263238;stroke-linecap:round;stroke-linejoin:round;stroke-miterlimit:10;" x1="232.983" y1="149.901" x2="232.983" y2="160.187"/>
		<path style="fill:none;stroke:#263238;stroke-linecap:round;stroke-linejoin:round;stroke-miterlimit:10;" d="M253.659,114.586
			h-13.807c-3.788,0-6.869,3.082-6.869,6.87v22.511"/>
		
			<line style="fill:none;stroke:#263238;stroke-linecap:round;stroke-linejoin:round;stroke-miterlimit:10;" x1="275.022" y1="114.586" x2="267.901" y2="114.586"/>
		<path style="fill:none;stroke:#263238;stroke-linecap:round;stroke-linejoin:round;stroke-miterlimit:10;" d="M321.697,136.846
			v-15.391c0-3.788-3.081-6.87-6.869-6.87h-36.641"/>
		<path style="fill:#FFFFFF;stroke:#263238;stroke-linecap:round;stroke-linejoin:round;stroke-miterlimit:10;" d="M314.828,179.417
			h-74.976c-2.137,0-3.869-1.732-3.869-3.869v-54.092c0-2.137,1.732-3.869,3.869-3.869h74.976c2.137,0,3.869,1.732,3.869,3.869
			v54.092C318.698,177.684,316.965,179.417,314.828,179.417z"/>
		<g>
			
				<rect x="244.407" y="126.191" style="fill:#92E3A9;stroke:#263238;stroke-linecap:round;stroke-linejoin:round;stroke-miterlimit:10;" width="65.866" height="44.62"/>
			<polygon style="fill:#FFFFFF;stroke:#263238;stroke-linecap:round;stroke-linejoin:round;stroke-miterlimit:10;" points="
				310.273,148.642 301.521,150.359 305.519,170.811 299.714,170.811 295.934,151.449 263.962,157.702 265.461,165.404 
				281.889,162.2 285.529,161.482 286.169,164.737 287.361,170.811 283.568,170.811 282.517,165.455 266.102,168.658 
				266.525,170.811 261.348,170.811 258.977,158.676 254.005,159.637 256.184,170.811 251.545,170.811 249.533,160.521 
				244.407,161.521 244.407,155.575 257.862,152.948 255.286,139.762 244.407,141.889 244.407,137.981 246.099,137.648 
				244.407,129.023 244.407,126.191 247.47,126.191 249.571,136.968 254.556,135.995 252.634,126.191 257.798,126.191 
				262.834,151.974 270.062,150.564 268.601,143.119 267.678,138.365 269.485,135.674 275.866,126.191 281.261,126.191 
				272.291,139.531 274.277,149.744 310.273,142.696 			"/>
			<path style="fill:#263238;" d="M295.146,134.928L295.146,134.928c-2.646-2.646-6.936-2.646-9.582,0l0,0
				c-2.646,2.646-2.646,6.936,0,9.583l4.791,4.791l4.791-4.791C297.792,141.864,297.792,137.574,295.146,134.928z M292.327,141.692
				L292.327,141.692c-1.09,1.09-2.856,1.09-3.946,0c-1.09-1.09-1.09-2.856,0-3.946c1.09-1.09,2.856-1.09,3.946,0l0,0
				C293.417,138.836,293.417,140.602,292.327,141.692z"/>
		</g>
	</g>
</g>
<g id="Character">
	<g>
		<g>
			<g>
				<defs>
					<path id="XMLID_298_" d="M151.09,359.41c-15.43-7.29-29.2-5.77-29.2-5.77l-3.45-9.39l-5.46-14.88
						c1.05-8.44,19.32-34.46,19.32-34.46l2.25,7.74L151.09,359.41z"/>
				</defs>
				<use xlink:href="#XMLID_298_"  style="overflow:visible;fill:#757575;"/>
				<clipPath id="XMLID_00000069365061320266483630000015032692360382581131_">
					<use xlink:href="#XMLID_298_"  style="overflow:visible;"/>
				</clipPath>
				<path style="opacity:0.3;clip-path:url(#XMLID_00000069365061320266483630000015032692360382581131_);fill-opacity:0.7;" d="
					M151.09,359.41c-15.43-7.29-29.2-5.77-29.2-5.77l-3.45-9.39l3.8,0.74l-4.65-10.63l10.9-6.56c0,0-1.14-16.25,6.06-25.15
					L151.09,359.41z"/>
				
					<use xlink:href="#XMLID_298_"  style="overflow:visible;fill:none;stroke:#263238;stroke-linecap:round;stroke-linejoin:round;stroke-miterlimit:10;"/>
			</g>
			<g>
				<defs>
					<path id="XMLID_299_" d="M127.19,359.41c-0.63,1.35-11.31,23.11-11.31,23.11l-34.42-58.16c0,0,4.73-0.41,10.4-0.79
						c7.25-0.48,16.04-0.91,18.48-0.39c1.6,0.34,4.4,5.16,7.25,11.18h0.01c1.59,3.36,3.2,7.09,4.64,10.63
						C125.23,352.33,127.46,358.83,127.19,359.41z"/>
				</defs>
				<use xlink:href="#XMLID_299_"  style="overflow:visible;fill:#757575;"/>
				<clipPath id="XMLID_00000044178494953629519140000018255300556086399412_">
					<use xlink:href="#XMLID_299_"  style="overflow:visible;"/>
				</clipPath>
				<path style="opacity:0.3;clip-path:url(#XMLID_00000044178494953629519140000018255300556086399412_);fill-opacity:0.7;" d="
					M127.19,359.41c-0.63,1.35-11.31,23.11-11.31,23.11l-34.42-58.16c0,0,4.73-0.41,10.4-0.79l17.3,18.86l13.08,2.56
					C125.23,352.33,127.46,358.83,127.19,359.41z"/>
				
					<use xlink:href="#XMLID_299_"  style="overflow:visible;fill:none;stroke:#263238;stroke-linecap:round;stroke-linejoin:round;stroke-miterlimit:10;"/>
			</g>
			<g>
				<defs>
					<path id="XMLID_300_" d="M129.73,406.67c-30.19-26.02-53.42-60.58-67.87-97.79c-1.3-3.35-2.54-6.72-3.69-10.1
						c-1.34-3.91-2.57-7.84-3.71-11.79c7.46-3.21,18.13-7.05,27-7.26c3.14-0.07,2.79,13.78,2.03,24.64
						c-0.12,1.69-0.25,3.3-0.37,4.78c-0.4,4.65-0.78,7.97-0.78,7.97s39.2,59.07,44.88,71.33
						C129.24,392.83,129.82,399.68,129.73,406.67z"/>
				</defs>
				<use xlink:href="#XMLID_300_"  style="overflow:visible;fill:#757575;"/>
				<clipPath id="XMLID_00000168804585629109596620000001903097395743941040_">
					<use xlink:href="#XMLID_300_"  style="overflow:visible;"/>
				</clipPath>
				<path style="opacity:0.3;clip-path:url(#XMLID_00000168804585629109596620000001903097395743941040_);fill-opacity:0.7;" d="
					M129.73,406.67c-30.19-26.02-53.42-60.58-67.87-97.79c-1.3-3.35-2.54-6.72-3.69-10.1c6.65-1.98,15.13-3.98,18.94-2.67
					c2.49,0.86,4.65,4.28,6.38,8.26c-0.12,1.69-0.25,3.3-0.37,4.78c-0.4,4.65-0.78,7.97-0.78,7.97s39.2,59.07,44.88,71.33
					C129.24,392.83,129.82,399.68,129.73,406.67z"/>
				
					<use xlink:href="#XMLID_300_"  style="overflow:visible;fill:none;stroke:#263238;stroke-linecap:round;stroke-linejoin:round;stroke-miterlimit:10;"/>
			</g>
			<path style="opacity:0.3;fill-opacity:0.7;" d="M117.6,334.36c1.59,3.36,3.2,7.09,4.64,10.63l-4.65-10.63H117.6z"/>
		</g>
		<g>
			<defs>
				<path id="XMLID_294_" d="M267.79,434.34v20.4c-8.24,0.21-16.47-0.02-24.6-0.7c-22.95-1.91-45.14-7.31-64.78-16.12
					c-6.27-2.81-12.36-5.96-18.26-9.42c-8.79-5.14-17.16-10.96-25.09-17.37c0,0,18.8-3.29,27.7-2.11
					C171.66,410.21,267.79,434.34,267.79,434.34z"/>
			</defs>
			<use xlink:href="#XMLID_294_"  style="overflow:visible;fill:#92E3A9;"/>
			<clipPath id="XMLID_00000001657531467840181340000008300122343299705219_">
				<use xlink:href="#XMLID_294_"  style="overflow:visible;"/>
			</clipPath>
			<path style="opacity:0.3;clip-path:url(#XMLID_00000001657531467840181340000008300122343299705219_);fill-opacity:0.7;" d="
				M267.79,434.34v20.4c-8.24,0.21-16.47-0.02-24.6-0.7c-22.95-1.91-45.14-7.31-64.78-16.12c-6.27-2.81-12.36-5.96-18.26-9.42
				c-8.79-5.14-17.16-10.96-25.09-17.37c0,0,18.8-3.29,27.7-2.11C171.66,410.21,267.79,434.34,267.79,434.34z"/>
			
				<use xlink:href="#XMLID_294_"  style="overflow:visible;fill:none;stroke:#263238;stroke-linecap:round;stroke-linejoin:round;stroke-miterlimit:10;"/>
		</g>
		<g>
			<defs>
				<path id="XMLID_297_" d="M427.85,365.59c-4.52,8.2-9.46,15.87-14.71,22.85c-8.31,11.03-18.21,20.67-29.28,28.93
					c-17.72,13.22-38.44,22.9-60.44,29.09c-0.07,0.02-0.15,0.04-0.22,0.06c-8.86,2.49-17.92,4.41-27.08,5.77l20.93-37.11
					l66.33-117.57c0,0,7.16-17.62,16.98-23.31c0.98-0.57,1.98-1.02,3-1.32c1.37-0.4,2.9-0.73,4.54-0.99c0,0,0,0,0.01,0
					c8.78-1.39,20.62-0.86,26.83,0c2.23,0.31,3.73,0.67,4.12,0.99C440.22,274.12,445.85,306.02,427.85,365.59z"/>
			</defs>
			<use xlink:href="#XMLID_297_"  style="overflow:visible;fill:#757575;"/>
			<clipPath id="XMLID_00000047776928721030638830000012199636587704715159_">
				<use xlink:href="#XMLID_297_"  style="overflow:visible;"/>
			</clipPath>
			<path style="opacity:0.3;clip-path:url(#XMLID_00000047776928721030638830000012199636587704715159_);fill-opacity:0.7;" d="
				M427.85,365.59c-4.52,8.2-9.46,15.87-14.71,22.85c-8.31,11.03-18.21,20.67-29.28,28.93c-17.72,13.22-38.44,22.9-60.44,29.09
				c-3.29-3.05-5.5-5.38-5.39-6.15c0.16-1.14-0.33-12.3-0.98-25.13l66.33-117.57c0,0,7.16-17.62,16.98-23.31
				c6.83,7.71,11.22,21.86,8.27,41.02c-3.96,25.66,0.93,33.5,0.93,33.5s8.34-8.59,9.04-33.93c0.71-25.34,2.29-31.47,11.78-34.8
				c0,0-23.21,1.24-22.48-8.1c0,0,0,0,0.01,0c8.78-1.39,20.62-0.86,26.83,0c2.23,0.31,3.73,0.67,4.12,0.99
				C440.22,274.12,445.85,306.02,427.85,365.59z"/>
			
				<use xlink:href="#XMLID_297_"  style="overflow:visible;fill:none;stroke:#263238;stroke-linecap:round;stroke-linejoin:round;stroke-miterlimit:10;"/>
		</g>
		<g>
			<defs>
				<path id="XMLID_296_" d="M434.74,271.99c-12.14,10.83-26.84,0-26.84,0s-1.11-1.7-2.67-4.27c-3.59-5.94-9.53-16.5-9.53-21.29
					c0-6.86,12.56-58.25,21.05-58.67c8.49-0.41,17.99-3.28,20.36,0c0.2,0.27,0.42,0.99,0.67,2.1
					C440.56,202.18,445.87,262.05,434.74,271.99z"/>
			</defs>
			<use xlink:href="#XMLID_296_"  style="overflow:visible;fill:#757575;"/>
			<clipPath id="XMLID_00000118371667370140741130000007745662010236106940_">
				<use xlink:href="#XMLID_296_"  style="overflow:visible;"/>
			</clipPath>
			<path style="opacity:0.3;clip-path:url(#XMLID_00000118371667370140741130000007745662010236106940_);fill-opacity:0.7;" d="
				M434.74,271.99c-12.14,10.83-26.84,0-26.84,0s-1.11-1.7-2.67-4.27c12.37-0.03,7.35-7.26,7.35-7.26
				c-2.77-4.95,3.17-45.28,11.19-57.48c4.26-6.49,9.78-10.65,14.01-13.12C440.56,202.18,445.87,262.05,434.74,271.99z"/>
			
				<use xlink:href="#XMLID_296_"  style="overflow:visible;fill:none;stroke:#263238;stroke-linecap:round;stroke-linejoin:round;stroke-miterlimit:10;"/>
		</g>
		<g>
			<path style="fill:#FFFFFF;stroke:#263238;stroke-linecap:round;stroke-linejoin:round;stroke-miterlimit:10;" d="M175.96,294.908
				l-25.004-7.718c0,0-22.205-19.569-23.762-21.198c-1.557-1.629-14.216,2.991-14.216,6.483c0,3.492,4.812,12.779,4.812,12.779
				l9.404-5.522c0,0,3.196,17.836,6.883,21.639c3.686,3.803,15.824,2.831,15.824,2.831l28.484,12.912L175.96,294.908z"/>
			<path style="fill:none;stroke:#263238;stroke-linecap:round;stroke-linejoin:round;stroke-miterlimit:10;" d="M143.237,304.203
				c-6.249-1.13-10.044-2.299-10.94-9.295c-0.897-6.996-14.637-20.589-9.099-26.128c0,0,1.385-0.396,2.374,1.187
				c0.989,1.582,4.882,5.965,6.99,7.829c2.109,1.863,2.9,5.82,5.471,7.6"/>
		</g>
		<g>
			<path style="fill:#263238;" d="M368.275,279.732c0,0-59.604,4.911-72.791,7.43s-51.692,13.091-51.692,13.091
				s-53.275-6.784-61.187-10.261c-7.912-3.477-13.714,0.783-13.714,0.783l-10.022-2.766c0,0-3.165,16.183,0,24.487l8.44,2.823
				c0,0-0.527,9.909,24.264,19.036c24.791,9.127,61.714,12.819,78.593,12.819c6.543,0,33.597-2.645,33.597-2.645l3.712,14.877
				L368.275,279.732z"/>
			<path style="fill:none;stroke:#FFFFFF;stroke-linecap:round;stroke-linejoin:round;stroke-miterlimit:10;" d="M299.967,290.776
				c0,0-4.484,24.487-2.11,48.224"/>
			<path style="fill:none;stroke:#FFFFFF;stroke-linecap:round;stroke-linejoin:round;stroke-miterlimit:10;" d="M282.56,313.454
				c0,0,2.901,16.315,10.549,21.59"/>
			<path style="fill:none;stroke:#FFFFFF;stroke-linecap:round;stroke-linejoin:round;stroke-miterlimit:10;" d="M243.527,301.813
				c0,0-2.901,4.226,0,10.684c2.901,6.458,9.231,10.678,9.231,10.678"/>
			<path style="fill:none;stroke:#FFFFFF;stroke-linecap:round;stroke-linejoin:round;stroke-miterlimit:10;" d="M168.363,292.754
				c0,0-2.738,7.381-1.055,17.235"/>
			<path style="fill:none;stroke:#FFFFFF;stroke-linecap:round;stroke-linejoin:round;stroke-miterlimit:10;" d="M310.359,306.297
				c0,0-9.933,18.198-13.196,36.132"/>
		</g>
		<path style="fill:#263238;" d="M348.204,280.095c0,0-7.687,2.842-12.856,8.426c-5.168,5.584-7.38,15.682-7.38,15.682
			l24.332-15.997L348.204,280.095z"/>
		<path style="fill:#FFFFFF;stroke:#263238;stroke-linecap:round;stroke-linejoin:round;stroke-miterlimit:10;" d="M340.43,301.73
			c0.19-0.48,7.58-18.44,5.19-20.12c-1.38-0.96-1.45-2.69-2.7-4.77c-1.31-2.17-3.91-4.73-10.62-7.22c-0.39-0.15-0.8-0.29-1.22-0.44
			l10.75-36.05l32.74,5.1c0,0-3.58,24.75,5.14,38.71L340.43,301.73z"/>
		<path style="fill:#263238;" d="M383.86,417.37c-17.78,13.26-38.58,22.96-60.66,29.15c-25.84,7.26-53.826-6.205-53.826-6.205
			l-6.505-8.525c7.4-5.98,11.512-5.73,11.512-5.73s21.1-138.9,105.33-149.12c0,0,19.56,20.11,21.55,59.73
			C402.8,367.33,390.54,401.34,383.86,417.37z"/>
		<path style="fill:#92E3A9;stroke:#263238;stroke-linecap:round;stroke-linejoin:round;stroke-miterlimit:10;" d="M340.112,290.224
			c0,0-6.737,3.431-7.72,13.978c0,0-29.74,42.007-38.588,76.17v5.899l6.145-7.374c0,0,19.908-55.012,35.147-74.696l10.522-8.832
			L340.112,290.224z"/>
		<path style="fill:#263238;" d="M379.711,272.273c-10.293-1.785-39.208,14.457-39.208,14.457l-2.443,21.821l47.621-25.332
			C385.681,283.22,382.211,272.707,379.711,272.273z"/>
		<path style="fill:none;stroke:#FFFFFF;stroke-linecap:round;stroke-linejoin:round;stroke-miterlimit:10;" d="M338.637,303.4
			l-0.577,5.152c0,0,19.38-22.186,45.321-27.288"/>
		<path style="fill:none;stroke:#FFFFFF;stroke-linecap:round;stroke-linejoin:round;stroke-miterlimit:10;" d="M332.319,292.793
			c0,0-3.614,6.516-4.351,11.41c0,0,5.544-9.336,10.092-13.978"/>
		<path style="fill:#999999;stroke:#263238;stroke-linecap:round;stroke-linejoin:round;stroke-miterlimit:10;" d="M165.341,379.991
			l-38.506-104.463c-0.891-2.418-3.574-3.655-5.992-2.764c-2.418,0.891-3.655,3.574-2.764,5.992l38.506,104.463
			c0.891,2.418,3.574,3.655,5.992,2.764C164.995,385.091,166.233,382.409,165.341,379.991z"/>
		<g>
			<path style="fill:#263238;" d="M368.354,306.977c-13.845-0.422-79.832,64.348-79.832,64.348s-64.687-2.746-72.631-2.414
				c-7.945,0.332-12.855,3.017-12.855,3.017l-10.805-0.626c0,0-0.87,18.333,3.109,24.904l7.109,0.412
				c0,0,11.804,12.075,21.303,14.62c14.7,3.938,64.486,4.9,76.933,3.768c12.447-1.132,82.696-39.103,90.799-61.149"/>
			<g>
				<path style="fill:#FFFFFF;stroke:#263238;stroke-linecap:round;stroke-linejoin:round;stroke-miterlimit:10;" d="M197.95,393.14
					l-7.833-0.951c-3.969,4.943-15.029,2.987-15.029,2.987c0.077,4.252-12.764,2.855-14.707,1.113
					c-1.943-1.743-5.358-9.384-5.918-10.792c-0.559-1.407,1.667-11.199,1.667-11.199s-16.616,2.754-22.036,2.621
					c-4.725-0.116-4.338-3.924-4.338-3.924s15.263-2.057,30.851-5.975c2.204-0.554,22.772,6.007,22.772,6.007l11.215,1.458
					C194.594,374.485,198.395,381.254,197.95,393.14z"/>
				<path style="fill:none;stroke:#263238;stroke-linecap:round;stroke-linejoin:round;stroke-miterlimit:10;" d="M156.464,389.884
					c0,0,0.509-4.777,4.805-13.981"/>
				<path style="fill:none;stroke:#263238;stroke-linecap:round;stroke-linejoin:round;stroke-miterlimit:10;" d="M156.13,374.298
					c0,0,1.388-2.828,0.782-3.988"/>
				<path style="fill:none;stroke:#263238;stroke-linecap:round;stroke-linejoin:round;stroke-miterlimit:10;" d="M160.381,396.289
					c-0.952-2.545,4.098-13.083,4.871-14.387"/>
				<path style="fill:none;stroke:#263238;stroke-linecap:round;stroke-linejoin:round;stroke-miterlimit:10;" d="M175.088,395.176
					c0,0-4.879-2.786-5.606-7.964"/>
				<path style="fill:none;stroke:#263238;stroke-linecap:round;stroke-linejoin:round;stroke-miterlimit:10;" d="M170.763,390.801
					c0,0-1.054,2.105-4.374,3.59"/>
				<path style="fill:none;stroke:#263238;stroke-linecap:round;stroke-linejoin:round;stroke-miterlimit:10;" d="M170.763,387.211"
					/>
			</g>
			<path style="fill:none;stroke:#FFFFFF;stroke-linecap:round;stroke-linejoin:round;stroke-miterlimit:10;" d="M204.89,375.903
				c0,0,3.326,12.172,1.978,17.903"/>
			<path style="fill:none;stroke:#FFFFFF;stroke-linecap:round;stroke-linejoin:round;stroke-miterlimit:10;" d="M291.817,372.598
				c0,0,22.623-6.59,31.54-3.677"/>
			<path style="fill:none;stroke:#FFFFFF;stroke-linecap:round;stroke-linejoin:round;stroke-miterlimit:10;" d="M333.73,351.819
				c0,0,39.043,7.356,49.651-5.303"/>
			<path style="fill:none;stroke:#FFFFFF;stroke-linecap:round;stroke-linejoin:round;stroke-miterlimit:10;" d="M314.867,346.517
				c0,0,8.6-7.834,18.147-8.269c0,0,27.771-35.184,46.697-28.259"/>
			<path style="fill:none;stroke:#FFFFFF;stroke-linecap:round;stroke-linejoin:round;stroke-miterlimit:10;" d="M355.395,309.989
				c0,0-17.418,14.332-18.093,23.254"/>
			<path style="fill:none;stroke:#FFFFFF;stroke-linecap:round;stroke-linejoin:round;stroke-miterlimit:10;" d="M385.681,367.131
				c0,0-16.86,19.439-34.144,22.753c0,0-36.071,27.831-57.732,25.462"/>
			<path style="fill:none;stroke:#FFFFFF;stroke-linecap:round;stroke-linejoin:round;stroke-miterlimit:10;" d="M345.573,394.189
				c0,0,16.372,4.776,26.658-3.448"/>
			<path style="fill:none;stroke:#FFFFFF;stroke-linecap:round;stroke-linejoin:round;stroke-miterlimit:10;" d="M337.302,402.692
				c0.907,2.374,13.095,13.978,23.419,16.484"/>
		</g>
		<g>
			<g>
				<defs>
					<path id="XMLID_302_" d="M148.74,414.7l-4.63,2.64l-0.54,0.31c-1.65-1.2-3.29-2.42-4.9-3.67l-14.79-34.62l-5.22-12.23h11.47
						c0,0,6.86,10.93,12.34,24.76C145.32,399.09,147.8,407.07,148.74,414.7z"/>
				</defs>
				<use xlink:href="#XMLID_302_"  style="overflow:visible;fill:#999999;"/>
				<clipPath id="XMLID_00000110469986820993527690000018415601194515222427_">
					<use xlink:href="#XMLID_302_"  style="overflow:visible;"/>
				</clipPath>
				<path style="opacity:0.3;clip-path:url(#XMLID_00000110469986820993527690000018415601194515222427_);fill-opacity:0.7;" d="
					M144.11,417.34c0.09,0.29,0.17,0.59,0.25,0.88c-0.26-0.19-0.53-0.38-0.79-0.57c-1.65-1.2-3.29-2.42-4.9-3.67l-14.79-34.62h4.61
					c0,0,0.12,0.1,0.35,0.29c1.49,1.21,7.58,6.24,13.63,12.24c2.85,7.2,5.33,15.18,6.27,22.81L144.11,417.34z"/>
				
					<use xlink:href="#XMLID_302_"  style="overflow:visible;fill:none;stroke:#263238;stroke-linecap:round;stroke-linejoin:round;stroke-miterlimit:10;"/>
			</g>
			<g>
				<defs>
					<path id="XMLID_301_" d="M144.36,418.22c-0.26-0.19-0.53-0.38-0.79-0.57c-1.65-1.2-3.29-2.42-4.9-3.67
						c-3.04-2.35-6.03-4.78-8.94-7.31c-21.74-18.74-39.87-41.91-53.72-67.3c-5.38-9.87-10.11-20.08-14.15-30.49l21.26,0.27
						l3.89,0.05c0,0,18.81,27.15,35.35,57.93c2.22,4.12,4.39,8.32,6.48,12.52c6.48,13.05,12.08,26.18,15.27,37.69
						C144.2,417.63,144.28,417.93,144.36,418.22z"/>
				</defs>
				<use xlink:href="#XMLID_301_"  style="overflow:visible;fill:#999999;"/>
				<clipPath id="XMLID_00000052817804354965447510000004306936489359753358_">
					<use xlink:href="#XMLID_301_"  style="overflow:visible;"/>
				</clipPath>
				<path style="opacity:0.3;clip-path:url(#XMLID_00000052817804354965447510000004306936489359753358_);fill-opacity:0.7;" d="
					M144.36,418.22c-5.04-3.62-9.92-7.47-14.63-11.55c-21.74-18.74-39.87-41.91-53.72-67.3c8.47,0.23,18.71,0.46,21.61,0.3
					c5.2-0.27,26.26,39.69,26.26,39.69h4.61c0,0,0.12,0.1,0.35,0.29C135.49,393.03,141.21,406.5,144.36,418.22z"/>
				
					<use xlink:href="#XMLID_301_"  style="overflow:visible;fill:none;stroke:#263238;stroke-linecap:round;stroke-linejoin:round;stroke-miterlimit:10;"/>
			</g>
		</g>
		<path style="fill:none;stroke:#263238;stroke-linecap:round;stroke-linejoin:round;stroke-miterlimit:10;" d="M437.11,346.89
			c-2.86,6.47-5.95,12.73-9.26,18.7c-4.52,8.2-9.46,15.87-14.71,22.85c-8.31,11.03-18.21,20.67-29.28,28.93
			c-17.78,13.26-38.58,22.96-60.66,29.15c-8.86,2.49-17.92,4.41-27.08,5.77c-9.38,1.41-18.87,2.22-28.33,2.45
			c-8.24,0.21-16.47-0.02-24.6-0.7c-22.95-1.91-45.14-7.31-64.78-16.12c-6.27-2.81-12.36-5.96-18.26-9.42
			c-8.79-5.14-17.16-10.96-25.09-17.37C93.18,377.3,63.8,327.28,51.43,275.55c-1.63-6.83-2.97-13.73-4-20.67
			c-1.74-11.78-2.45-23.71-2.1-35.57"/>
		<g>
			<defs>
				<path id="XMLID_295_" d="M323.2,446.52c-12.44,3.49-25.28,5.88-38.23,7.17c-13.94,1.38-28,1.5-41.78,0.35
					c-22.95-1.91-45.14-7.31-64.78-16.12c-6.27-2.81-12.36-5.96-18.26-9.42c2.38-1.21,4.62-2.06,6.61-2.44
					c5.2-0.98,25.26,1,49.58,4.11c13.94,1.78,29.28,3.93,44.03,6.12C287.47,440.31,312.56,444.43,323.2,446.52z"/>
			</defs>
			<use xlink:href="#XMLID_295_"  style="overflow:visible;fill:#92E3A9;"/>
			<clipPath id="XMLID_00000118398501242059087410000010354048531229478843_">
				<use xlink:href="#XMLID_295_"  style="overflow:visible;"/>
			</clipPath>
			<path style="opacity:0.3;clip-path:url(#XMLID_00000118398501242059087410000010354048531229478843_);fill-opacity:0.7;" d="
				M323.2,446.52c-12.44,3.49-25.28,5.88-38.23,7.17c-2.9-3.07-6.69-6.23-11.24-8.27c-11.48-5.15-57.39-15.25-57.39-15.25
				c13.94,1.78,29.28,3.93,44.03,6.12C287.47,440.31,312.56,444.43,323.2,446.52z"/>
			
				<use xlink:href="#XMLID_295_"  style="overflow:visible;fill:none;stroke:#263238;stroke-linecap:round;stroke-linejoin:round;stroke-miterlimit:10;"/>
		</g>
		<path style="fill:#263238;" d="M347.29,265.42c0,0-0.12,7.16-4.37,11.42c-1.31-2.17-3.91-4.73-10.62-7.22
			c0.36-1.3,0.71-2.18,0.71-2.18L347.29,265.42z"/>
		<g>
			<path style="fill:#FFFFFF;stroke:#263238;stroke-linecap:round;stroke-linejoin:round;stroke-miterlimit:10;" d="
				M377.639,246.919c1.591-4.13,2.351-8.784,1.978-14.021c-2.409-33.83-10.409-41.703-23.59-39.506
				c-49.203,8.202-34.621,33.196-36.509,41.476c-1.889,8.28-8.86,8.922-7.904,12.701c0.377,1.489,6.173,1.64,6.173,1.64l0.35,7.811
				l2.212,0.531c0,0,1.781,17.767,6.31,19.831c5.733,2.613,22.857-7.73,22.829-14.149"/>
			<path style="fill:none;stroke:#263238;stroke-linecap:round;stroke-linejoin:round;stroke-miterlimit:10;" d="M323.357,222.735
				c0,0,6.915-1.412,10.372,4.113"/>
			<path style="fill:#263238;" d="M326.242,232.964c0.253,1.636,1.149,2.856,2.003,2.724c0.854-0.132,1.341-1.565,1.089-3.201
				c-0.253-1.636-1.149-2.856-2.003-2.724S325.99,231.327,326.242,232.964z"/>
			<path style="fill:none;stroke:#263238;stroke-linecap:round;stroke-linejoin:round;stroke-miterlimit:10;" d="M320.349,257.55
				c0,0,6.759,0,10.731-1.551"/>
			<path style="fill:#263238;" d="M352.3,240.947l-3.755,2.145c0,0-0.164-9.306-4.047-13.698
				c-3.883-4.392-6.178-14.912-4.002-18.091c0,0-11.069-4.19-19.958,1.349c0,0-11.004-5.288-7.808-21.977
				c0,0,6.605,5.376,15.058,1.175c14.19-7.052,31.515-6.499,38.102,0.414c0,0,17.491-3.594,21.142,24.341
				c2.268,17.354-6.529,33.188-11.974,38.759c0,0-3.274-1.339-4.532-7.781c-1.193-6.11,0.246-15.913-7.868-17.657
				C346.85,226.53,352.3,240.947,352.3,240.947z"/>
			<path style="fill:#FFFFFF;stroke:#263238;stroke-linecap:round;stroke-linejoin:round;stroke-miterlimit:10;" d="
				M354.058,230.082c0,0,5.121-7.883,9.669-8.076c4.548-0.193,7.615,15.69,3.442,21.74c-4.173,6.05-8.279,8.196-10.172,6.375
				c-1.892-1.82-1.347-4.559-1.347-4.559"/>
			<path style="fill:none;stroke:#263238;stroke-linecap:round;stroke-linejoin:round;stroke-miterlimit:10;" d="M329.589,256.478
				c0,0-2.85,3.986-5.431,3.986c-2.581,0-2.704-1.993-2.704-1.993"/>
			<path style="opacity:0.4;fill:none;stroke:#FFFFFF;stroke-linecap:round;stroke-linejoin:round;stroke-miterlimit:10;" d="
				M316.253,195.593c0,0,2.95,6.923,14.827,3.363c11.877-3.56,22.087-8.11,29.641-4.945"/>
			<path style="opacity:0.4;fill:none;stroke:#FFFFFF;stroke-linecap:round;stroke-linejoin:round;stroke-miterlimit:10;" d="
				M356.802,196.459c0,0-6.921,1.53-10.568,6.954c-3.646,5.424-0.312,16,4.436,19.16"/>
			<path style="opacity:0.4;fill:none;stroke:#FFFFFF;stroke-linecap:round;stroke-linejoin:round;stroke-miterlimit:10;" d="
				M361.6,198.956c0,0-2.622,11.133,3.707,16.276c6.33,5.143,11.67,10.059,11.868,16.276"/>
			<path style="opacity:0.4;fill:none;stroke:#FFFFFF;stroke-linecap:round;stroke-linejoin:round;stroke-miterlimit:10;" d="
				M367.088,196.459c0,0,14.637,0.943,18.593,21.288"/>
		</g>
	</g>
</g>
</svg>
