<?xml version="1.0" encoding="utf-8"?>
<!-- Generator: Adobe Illustrator 27.5.0, SVG Export Plug-In . SVG Version: 6.00 Build 0)  -->
<svg version="1.1" xmlns="http://www.w3.org/2000/svg" xmlns:xlink="http://www.w3.org/1999/xlink" x="0px" y="0px"
	 viewBox="0 0 500 500" style="enable-background:new 0 0 500 500;" xml:space="preserve">
<g id="Background_Simple">
	<g>
		<path style="fill:#92E3A9;" d="M21.623,175.936c0,0,19.242-81.357,95.109-120.968C192.6,15.357,283.065,32.232,356.714,43.872
			c73.649,11.64,120.529,68.001,115.516,135.608c-5.013,67.607-64.418,74.023-109.784,141.787
			c-45.366,67.765-47.708,92.953-120.777,124.16C168.6,476.636,74.756,425.317,38.621,334.458
			C2.486,243.598,21.623,175.936,21.623,175.936z"/>
		<path style="opacity:0.7;fill:#FFFFFF;" d="M21.623,175.936c0,0,19.242-81.357,95.109-120.968
			C192.6,15.357,283.065,32.232,356.714,43.872c73.649,11.64,120.529,68.001,115.516,135.608
			c-5.013,67.607-64.418,74.023-109.784,141.787c-45.366,67.765-47.708,92.953-120.777,124.16
			C168.6,476.636,74.756,425.317,38.621,334.458C2.486,243.598,21.623,175.936,21.623,175.936z"/>
	</g>
</g>
<g id="Floor">
	<ellipse style="fill:#263238;" cx="245.5" cy="452.5" rx="184.5" ry="15.5"/>
</g>
<g id="Graphics">
	<g>
		<g>
			<g style="opacity:0.1;">
				<g>
					<path d="M171.801,78.335h-20.644V57.691h20.644V78.335z M152.561,76.93h17.835V59.095h-17.835V76.93z"/>
				</g>
				<g>
					<path d="M162.153,71.886l-5.39-6.587c-0.368-0.45-0.302-1.114,0.148-1.482c0.45-0.369,1.114-0.302,1.482,0.148l3.971,4.853
						l13.218-12.239c0.427-0.395,1.094-0.37,1.489,0.057c0.395,0.427,0.37,1.093-0.057,1.489L162.153,71.886z"/>
				</g>
			</g>
			<g style="opacity:0.1;">
				<rect x="180.022" y="63.093" width="71.206" height="1.78"/>
			</g>
			<g style="opacity:0.1;">
				<rect x="180.022" y="69.916" width="44.374" height="1.78"/>
			</g>
		</g>
		<g>
			<g style="opacity:0.1;">
				<g>
					<path d="M186.932,403.215h-20.644V382.57h20.644V403.215z M167.692,401.81h17.835v-17.835h-17.835V401.81z"/>
				</g>
				<g>
					<path d="M177.284,396.766l-5.39-6.587c-0.368-0.45-0.302-1.114,0.148-1.483c0.45-0.369,1.114-0.302,1.482,0.149l3.971,4.853
						l13.218-12.239c0.427-0.395,1.093-0.37,1.488,0.057c0.395,0.427,0.37,1.093-0.057,1.489L177.284,396.766z"/>
				</g>
			</g>
			<g style="opacity:0.1;">
				<rect x="195.153" y="387.973" width="71.207" height="1.78"/>
			</g>
			<g style="opacity:0.1;">
				<rect x="195.153" y="394.796" width="44.374" height="1.78"/>
			</g>
		</g>
		<g style="opacity:0.1;">
			<g>
				<path d="M78.436,191.417h-27.28V154.54h27.28V191.417z M52.046,190.527h25.5V155.43h-25.5V190.527z"/>
			</g>
			<g>
				<g>
					<rect x="56.628" y="162.232" width="16.435" height="0.89"/>
				</g>
				<g>
					<rect x="56.628" y="167.59" width="16.435" height="0.89"/>
				</g>
				<g>
					<rect x="56.628" y="172.95" width="16.435" height="0.89"/>
				</g>
				<g>
					<rect x="56.628" y="178.309" width="16.435" height="0.89"/>
				</g>
				<g>
					<rect x="56.628" y="183.668" width="16.435" height="0.89"/>
				</g>
			</g>
		</g>
		<g style="opacity:0.1;">
			<g>
				<path d="M442.479,296.809h-48.838V230.79h48.838V296.809z M395.235,295.215h45.651v-62.832h-45.651V295.215z"/>
			</g>
			<g>
				<g>
					<rect x="403.439" y="244.56" width="29.421" height="1.593"/>
				</g>
				<g>
					<rect x="403.439" y="254.154" width="29.421" height="1.593"/>
				</g>
				<g>
					<rect x="403.439" y="263.749" width="29.421" height="1.593"/>
				</g>
				<g>
					<rect x="403.439" y="273.343" width="29.421" height="1.593"/>
				</g>
				<g>
					<rect x="403.439" y="282.937" width="29.421" height="1.593"/>
				</g>
			</g>
		</g>
		<g style="opacity:0.1;">
			<path d="M198.643,184.296c-12.364,0-22.423,10.059-22.423,22.423s10.059,22.423,22.423,22.423
				c12.364,0,22.423-10.059,22.423-22.423S211.007,184.296,198.643,184.296z M198.643,228.253c-11.874,0-21.533-9.66-21.533-21.533
				c0-11.874,9.66-21.533,21.533-21.533c11.873,0,21.533,9.66,21.533,21.533C220.176,218.593,210.516,228.253,198.643,228.253z"/>
			<path d="M199.128,203.816v-13.527h-0.89v13.519c-1.437,0.199-2.547,1.42-2.547,2.912c0,1.63,1.322,2.952,2.952,2.952
				c1.631,0,2.952-1.322,2.952-2.952c0-0.011-0.003-0.021-0.003-0.033h11.51v-0.89h-11.668
				C201.094,204.771,200.216,203.997,199.128,203.816z"/>
		</g>
		<g style="opacity:0.1;">
			<path d="M88.811,53.441c-20.41,0-37.015,16.604-37.015,37.015s16.605,37.015,37.015,37.015c20.41,0,37.015-16.604,37.015-37.015
				S109.221,53.441,88.811,53.441z M88.811,126.002c-19.6,0-35.546-15.946-35.546-35.546c0-19.6,15.946-35.546,35.546-35.546
				c19.6,0,35.546,15.945,35.546,35.546C124.356,110.056,108.411,126.002,88.811,126.002z"/>
			<path d="M89.611,85.664V63.334h-1.469V85.65c-2.372,0.328-4.205,2.344-4.205,4.806c0,2.692,2.182,4.874,4.874,4.874
				c2.691,0,4.873-2.182,4.873-4.874c0-0.018-0.005-0.035-0.006-0.053h19v-1.469H93.417C92.856,87.24,91.408,85.962,89.611,85.664z"
				/>
		</g>
		<g style="opacity:0.1;">
			<path d="M452.078,355.032h-2.858v-2.445h-0.89v2.445h-10.67v-2.445h-0.89v2.445h-3.684c-1.612,0-2.922,1.311-2.922,2.922v16.101
				c0,1.611,1.311,2.921,2.922,2.921h18.992c1.611,0,2.922-1.311,2.922-2.921v-16.101C455,356.343,453.689,355.032,452.078,355.032z
				 M433.086,355.922h3.684v2.032h0.89v-2.032h10.67v2.032h0.89v-2.032h2.858c1.12,0,2.032,0.912,2.032,2.032v4.096h-23.056v-4.096
				C431.054,356.834,431.966,355.922,433.086,355.922z M452.078,376.087h-18.992c-1.12,0-2.032-0.911-2.032-2.031V362.94h23.056
				v11.116C454.11,375.177,453.198,376.087,452.078,376.087z"/>
			<rect x="435.563" y="366.592" width="14.45" height="0.89"/>
			<rect x="435.563" y="370.308" width="14.45" height="0.89"/>
		</g>
		<g style="opacity:0.1;">
			<path d="M98.031,323.643h-5.632v-4.819h-1.754v4.819H69.618v-4.819h-1.754v4.819h-7.26c-3.176,0-5.759,2.583-5.759,5.759v31.731
				c0,3.174,2.583,5.757,5.759,5.757h37.426c3.176,0,5.759-2.583,5.759-5.757v-31.731
				C103.79,326.226,101.207,323.643,98.031,323.643z M60.605,325.397h7.26v4.005h1.754v-4.005h21.027v4.005h1.754v-4.005h5.632
				c2.208,0,4.005,1.797,4.005,4.005v8.072H56.6v-8.072C56.6,327.194,58.397,325.397,60.605,325.397z M98.031,365.136H60.605
				c-2.208,0-4.005-1.795-4.005-4.003v-21.905h45.436v21.905C102.036,363.341,100.239,365.136,98.031,365.136z"/>
			<rect x="65.487" y="346.423" width="28.476" height="1.754"/>
			<rect x="65.487" y="353.746" width="28.476" height="1.754"/>
		</g>
		<g style="opacity:0.1;">
			<path d="M218.58,90.819h-2.858v-2.445h-0.89v2.445h-10.67v-2.445h-0.89v2.445h-3.684c-1.611,0-2.922,1.311-2.922,2.922v16.101
				c0,1.611,1.311,2.921,2.922,2.921h18.992c1.612,0,2.922-1.311,2.922-2.921V93.742C221.502,92.13,220.191,90.819,218.58,90.819z
				 M199.588,91.709h3.684v2.032h0.89v-2.032h10.67v2.032h0.89v-2.032h2.858c1.12,0,2.032,0.912,2.032,2.032v4.096h-23.056v-4.096
				C197.556,92.621,198.468,91.709,199.588,91.709z M218.58,111.874h-18.992c-1.12,0-2.032-0.911-2.032-2.031V98.727h23.056v11.116
				C220.612,110.963,219.7,111.874,218.58,111.874z"/>
			<rect x="202.065" y="102.379" width="14.45" height="0.89"/>
			<rect x="202.065" y="106.095" width="14.45" height="0.89"/>
		</g>
		<g style="opacity:0.1;">
			<path d="M445.471,83.539h-3.806v-3.256h-1.185v3.256h-14.21v-3.256h-1.185v3.256h-4.906c-2.146,0-3.892,1.746-3.892,3.892v21.443
				c0,2.145,1.746,3.891,3.892,3.891h25.292c2.146,0,3.892-1.746,3.892-3.891V87.431C449.363,85.284,447.617,83.539,445.471,83.539z
				 M420.179,84.724h4.906v2.706h1.185v-2.706h14.21v2.706h1.185v-2.706h3.806c1.492,0,2.706,1.214,2.706,2.706v5.455h-30.705
				v-5.455C417.472,85.938,418.687,84.724,420.179,84.724z M445.471,111.579h-25.292c-1.492,0-2.707-1.213-2.707-2.705V94.071
				h30.705v14.803C448.177,110.366,446.963,111.579,445.471,111.579z"/>
			<rect x="423.478" y="98.934" width="19.244" height="1.186"/>
			<rect x="423.478" y="103.882" width="19.244" height="1.185"/>
		</g>
	</g>
</g>
<g id="Plants">
	<g>
		<path style="fill:#92E3A9;" d="M122.044,354.162c3.882-1.406,10.451-7.93,10.455-7.935c0.068-0.068-5.614-3.024-5.994-3.17
			c-4.398-1.682-13.883-2.347-17.187,1.762c-2.379,2.961-1.304,7.134,1.753,9.119C114.193,355.966,118.737,355.36,122.044,354.162z"
			/>
		<path style="fill:#92E3A9;" d="M191.333,291.186c0.094-0.019-3.014-5.619-3.25-5.95c-2.74-3.829-10.285-9.617-15.307-8.011
			c-3.618,1.157-5.023,5.231-3.569,8.572c1.485,3.413,5.611,5.414,9.029,6.24C182.249,293.004,191.326,291.187,191.333,291.186z"/>
		<path style="fill:#92E3A9;" d="M188.275,247.844c-4.191,3.2-3.761,12.699-2.189,17.137c0.137,0.383,2.951,6.138,3.02,6.07
			c0,0,0.064-0.063,0.08-0.078c0.056,1.5,0.133,3.108,0.253,4.863c0.248,3.238,0.557,6.896,1.161,10.854
			c0.594,3.956,1.351,8.239,2.555,12.677c1.202,4.451,2.692,9.07,4.844,13.632c0.024,0.052,0.056,0.102,0.081,0.154
			c-1.044-1.139-4.068-4.225-4.328-4.436c-3.654-2.969-12.459-6.56-16.879-3.685c-3.184,2.072-3.463,6.372-1.178,9.211
			c2.334,2.899,6.841,3.741,10.356,3.633c3.964-0.12,11.68-3.918,12.293-4.222c2.089,4.326,4.584,8.594,7.347,12.776
			c1.577,2.392,3.24,4.753,4.937,7.098c-0.934-0.956-1.776-1.803-1.907-1.909c-3.654-2.97-12.459-6.559-16.879-3.685
			c-3.185,2.071-3.464,6.371-1.179,9.211c2.334,2.9,6.841,3.74,10.357,3.634c3.566-0.109,10.21-3.214,11.957-4.059
			c0.661,0.893,1.31,1.792,1.974,2.682c3.184,4.273,6.381,8.523,9.389,12.788c1.061,1.502,2.05,3.021,3.045,4.537
			c-0.831-0.847-1.537-1.555-1.656-1.651c-3.654-2.97-12.459-6.56-16.879-3.685c-3.185,2.071-3.464,6.371-1.178,9.211
			c2.333,2.899,6.841,3.74,10.356,3.633c3.403-0.103,9.561-2.915,11.642-3.909c0.972,1.583,1.949,3.167,2.82,4.744
			c0.57,1.091,1.195,2.102,1.707,3.229c0.53,1.106,1.056,2.2,1.575,3.284c0.924,2.124,1.892,4.31,2.742,6.406
			c0.602,1.452,1.149,2.848,1.704,4.251c-1.038-1.508-3.133-4.417-3.335-4.64c-2.101-2.318-6.408-5.241-10.471-6.311
			c-0.308-0.344-0.645-0.66-1.013-0.941c-2.897-2.211-7.189-1.822-9.177,1.414c-2.761,4.492,1.053,13.203,4.115,16.779
			c0.18,0.211,2.397,2.281,3.816,3.564c-0.949-0.627-1.863-1.247-2.848-1.88c-1.939-1.266-3.911-2.473-6.029-3.78
			c-1.044-0.594-2.1-1.195-3.165-1.801c-1.044-0.625-2.226-1.151-3.346-1.738c-2.628-1.304-5.354-2.498-8.128-3.64
			c1.105-1.701,4.941-7.796,5.493-11.286c0.549-3.473,0.284-8.051-2.298-10.732c-2.528-2.625-6.829-2.891-9.286,0.007
			c-3.41,4.022-0.959,13.21,1.526,17.209c0.155,0.25,2.26,2.918,3.446,4.362c-1.673-0.673-3.338-1.354-5.052-1.98
			c-4.948-1.809-10.012-3.486-15.057-5.181c-1.546-0.518-3.079-1.054-4.617-1.583c0.4-0.601,5.117-7.748,5.735-11.656
			c0.55-3.473,0.284-8.051-2.298-10.732c-2.528-2.625-6.829-2.891-9.286,0.007c-3.409,4.022-0.959,13.21,1.526,17.209
			c0.188,0.301,3.223,4.137,4.042,5.075c-3.385-1.169-6.748-2.364-10.016-3.677c-4.511-1.806-8.837-3.827-12.883-6.095
			c0.187-0.279,5.143-7.716,5.777-11.719c0.55-3.473,0.284-8.051-2.298-10.731c-2.528-2.626-6.83-2.891-9.286,0.007
			c-3.41,4.022-0.959,13.21,1.526,17.209c0.163,0.263,2.474,3.19,3.605,4.554c-0.107,0.126-0.087,0.103-0.194,0.229
			c-4.307-2.482-8.165-5.429-11.64-8.365c-2.016-1.697-3.849-3.431-5.593-5.159c1.065-1.29,5.868-7.242,6.836-10.781
			c0.928-3.392,1.166-7.971-1.105-10.919c-2.225-2.887-6.471-3.623-9.231-1.013c-3.83,3.623-2.403,13.025-0.373,17.272
			c0.11,0.231,1.493,2.455,2.523,4.061c-0.775-0.792-1.59-1.594-2.318-2.368c-2.74-2.896-5.07-5.717-7.115-8.233
			c-1.151-1.44-2.163-2.765-3.097-4.014c0.385-1.812,1.843-9.132,1.085-12.655c-0.74-3.438-2.638-7.611-6.013-9.181
			c-3.305-1.537-7.413-0.234-8.659,3.355c-1.73,4.981,3.869,12.667,7.628,15.502c0.325,0.245,5.846,3.492,5.868,3.397
			c0,0,0.019-0.088,0.023-0.109c0.874,1.22,1.826,2.519,2.894,3.916c1.993,2.565,4.269,5.445,6.957,8.412
			c2.678,2.972,5.672,6.126,9.125,9.163c3.457,3.049,7.249,6.081,11.56,8.698c0.049,0.03,0.104,0.054,0.152,0.084
			c-1.498-0.374-5.724-1.28-6.057-1.312c-4.686-0.461-14.01,1.402-16.111,6.238c-1.513,3.485,0.626,7.225,4.098,8.333
			c3.546,1.131,7.769-0.655,10.642-2.683c3.24-2.287,7.581-9.711,7.924-10.303c4.129,2.456,8.565,4.64,13.176,6.603
			c2.635,1.126,5.324,2.178,8.033,3.198c-1.306-0.282-2.476-0.524-2.643-0.54c-4.686-0.461-14.011,1.403-16.111,6.239
			c-1.514,3.485,0.626,7.225,4.098,8.332c3.546,1.132,7.77-0.654,10.643-2.682c2.915-2.058,6.743-8.313,7.734-9.982
			c1.043,0.38,2.081,0.772,3.126,1.148c5.014,1.806,10.025,3.588,14.885,5.486c1.714,0.668,3.376,1.389,5.043,2.104
			c-1.161-0.249-2.14-0.449-2.293-0.464c-4.686-0.461-14.01,1.402-16.111,6.238c-1.514,3.484,0.626,7.225,4.098,8.333
			c3.546,1.131,7.769-0.655,10.642-2.683c2.782-1.964,6.367-7.705,7.554-9.683c1.684,0.784,3.373,1.566,4.969,2.401
			c1.078,0.595,2.157,1.093,3.205,1.751c1.052,0.63,2.094,1.253,3.125,1.87c1.943,1.262,3.956,2.552,5.82,3.83
			c1.304,0.879,2.53,1.741,3.767,2.606c-1.697-0.685-5.05-1.955-5.342-2.03c-4.561-1.166-14.061-0.737-16.87,3.726
			c-2.023,3.215-0.476,7.236,2.789,8.857c3.334,1.655,7.779,0.53,10.926-1.039c3.464-1.729,8.697-8.123,9.346-8.926
			c2.042,1.438,4.016,2.856,5.856,4.225c3.136,2.319,5.967,4.504,8.461,6.482l2.466-2.342c-2.662-2.024-5.704-4.274-9.095-6.671
			c-2.069-1.469-4.308-2.997-6.623-4.544c0.278-0.602,1.84-4.035,2.895-7.423c3.969,0.261,11.339-2.019,12.288-2.321
			c0.91,2.326,1.774,4.598,2.554,6.754c1.217,3.337,2.278,6.429,3.206,9.243l2.648-2.514c-0.873-2.427-1.848-5.048-2.931-7.829
			c-0.915-2.366-1.94-4.876-3.017-7.444c0.862-0.533,7.883-4.925,10.038-8.148c1.954-2.924,3.63-7.191,2.41-10.708
			c-1.196-3.443-4.991-5.485-8.435-3.883c-4.781,2.223-6.405,11.593-5.824,16.265c0.034,0.276,0.74,3.224,1.217,5.078
			c-0.445-1.047-0.866-2.068-1.338-3.14c-0.918-2.126-1.898-4.221-2.943-6.478c-0.543-1.072-1.092-2.156-1.646-3.249
			c-0.526-1.096-1.221-2.188-1.833-3.295c-1.473-2.537-3.088-5.037-4.771-7.52c1.86-0.809,8.422-3.776,10.808-6.382
			c2.374-2.594,4.678-6.558,4.003-10.219c-0.661-3.584-4.102-6.178-7.749-5.117c-5.062,1.474-8.087,10.489-8.221,15.196
			c-0.009,0.293,0.276,3.681,0.467,5.539c-1.023-1.484-2.037-2.971-3.122-4.439c-3.128-4.238-6.428-8.431-9.7-12.628
			c-1.004-1.285-1.987-2.578-2.977-3.868c0.664-0.28,8.542-3.639,11.213-6.558c2.375-2.594,4.678-6.558,4.004-10.219
			c-0.661-3.584-4.101-6.178-7.749-5.116c-5.062,1.474-8.087,10.489-8.221,15.195c-0.01,0.355,0.406,5.229,0.572,6.463
			c-2.179-2.842-4.325-5.695-6.325-8.592c-2.766-3.995-5.26-8.067-7.383-12.191c0.31-0.13,8.547-3.598,11.283-6.588
			c2.375-2.594,4.678-6.558,4.004-10.219c-0.66-3.584-4.102-6.178-7.749-5.117c-5.063,1.474-8.087,10.489-8.221,15.195
			c-0.009,0.309,0.304,4.022,0.494,5.785c-0.16,0.046-0.131,0.037-0.29,0.083c-2.222-4.444-3.814-9.031-5.093-13.396
			c-0.745-2.528-1.317-4.984-1.819-7.389c1.601-0.488,8.889-2.803,11.649-5.221c2.645-2.318,5.37-6.005,5.102-9.717
			c-0.263-3.635-3.399-6.592-7.14-5.937c-5.194,0.909-9.19,9.538-9.84,14.2c-0.035,0.254-0.109,2.871-0.136,4.779
			c-0.21-1.088-0.447-2.207-0.628-3.254c-0.687-3.928-1.075-7.566-1.392-10.792c-0.165-1.836-0.279-3.498-0.368-5.056
			c1.32-1.299,6.575-6.6,7.886-9.956c1.279-3.275,1.999-7.804,0.049-10.975C195.439,246.718,191.293,245.539,188.275,247.844z"/>
	</g>
	<g>
		<path style="fill:#92E3A9;" d="M481.782,140.042c-3.071,0.057-9.373-2.727-9.377-2.729c-0.065-0.029,3.096-3.596,3.32-3.798
			c2.608-2.339,9.022-5.327,12.411-3.352c2.442,1.424,2.805,4.61,1.21,6.803C487.717,139.205,484.398,139.993,481.782,140.042z"/>
		<path style="fill:#92E3A9;" d="M416.872,114.733c-0.071,0.012,0.598-4.707,0.674-5c0.884-3.39,4.586-9.42,8.503-9.642
			c2.822-0.16,4.883,2.297,4.762,5.006c-0.123,2.767-2.457,5.256-4.612,6.739C423.668,113.578,416.877,114.732,416.872,114.733z"/>
		<path style="fill:#92E3A9;" d="M407.457,83.805c3.764,1.108,5.995,7.822,6.084,11.324c0.007,0.303-0.416,5.05-0.482,5.022
			c0,0-0.061-0.026-0.077-0.033c0.361,1.057,0.735,2.195,1.119,3.446c0.69,2.316,1.449,4.94,2.083,7.851
			c0.641,2.907,1.255,6.084,1.6,9.488c0.35,3.412,0.545,7.019,0.264,10.762c-0.003,0.042-0.012,0.086-0.015,0.128
			c0.422-1.069,1.702-4.019,1.826-4.234c1.748-3.036,6.91-7.875,10.747-7.055c2.764,0.592,4.103,3.505,3.271,6.086
			c-0.85,2.636-3.757,4.421-6.228,5.282c-2.786,0.972-9.158,0.388-9.666,0.34c-0.3,3.562-0.897,7.192-1.703,10.833
			c-0.459,2.082-0.986,4.165-1.54,6.246c0.395-0.913,0.754-1.725,0.817-1.834c1.748-3.036,6.91-7.875,10.746-7.054
			c2.764,0.591,4.103,3.505,3.271,6.086c-0.849,2.636-3.757,4.42-6.228,5.282c-2.507,0.874-7.95,0.485-9.388,0.363
			c-0.221,0.796-0.433,1.594-0.658,2.389c-1.075,3.817-2.164,7.621-3.119,11.385c-0.337,1.326-0.62,2.645-0.908,3.963
			c0.351-0.81,0.654-1.49,0.711-1.588c1.748-3.036,6.91-7.875,10.747-7.054c2.764,0.591,4.103,3.505,3.271,6.086
			c-0.849,2.635-3.758,4.42-6.229,5.281c-2.392,0.834-7.419,0.521-9.13,0.384c-0.254,1.359-0.511,2.719-0.696,4.047
			c-0.106,0.91-0.271,1.779-0.326,2.698c-0.074,0.91-0.148,1.81-0.22,2.701c-0.077,1.722-0.167,3.498-0.199,5.181
			c-0.032,1.169-0.04,2.285-0.052,3.408c0.32-1.324,1.001-3.903,1.082-4.112c0.842-2.17,3.057-5.347,5.595-7.173
			c0.123-0.321,0.272-0.63,0.453-0.924c1.424-2.308,4.51-3.18,6.753-1.461c3.114,2.386,2.784,9.454,1.608,12.754
			c-0.069,0.195-1.058,2.223-1.702,3.492c0.492-0.689,0.962-1.363,1.478-2.065c1.01-1.396,2.059-2.76,3.183-4.232
			c0.567-0.691,1.141-1.39,1.72-2.094c0.559-0.712,1.24-1.392,1.862-2.098c1.479-1.606,3.055-3.161,4.678-4.693
			c-1.22-0.888-5.509-4.101-6.821-6.379c-1.306-2.267-2.341-5.518-1.26-8.068c1.058-2.497,3.975-3.827,6.454-2.467
			c3.44,1.887,4.183,8.923,3.521,12.363c-0.041,0.215-0.794,2.63-1.233,3.948c0.983-0.913,1.959-1.829,2.983-2.721
			c2.956-2.574,6.029-5.088,9.083-7.609c0.936-0.772,1.859-1.552,2.786-2.329c-0.438-0.311-5.618-4.021-7.088-6.572
			c-1.307-2.267-2.341-5.518-1.261-8.068c1.058-2.497,3.975-3.827,6.454-2.467c3.44,1.887,4.184,8.923,3.522,12.363
			c-0.05,0.259-1.138,3.733-1.458,4.603c2.041-1.714,4.06-3.439,5.98-5.222c2.654-2.456,5.122-5.012,7.329-7.665
			c-0.204-0.144-5.628-3.992-7.134-6.604c-1.307-2.267-2.341-5.518-1.26-8.068c1.057-2.497,3.976-3.827,6.453-2.468
			c3.44,1.887,4.183,8.923,3.522,12.363c-0.043,0.226-0.87,2.875-1.292,4.124c0.108,0.059,0.088,0.048,0.196,0.107
			c2.331-2.871,4.228-5.946,5.861-8.911c0.949-1.716,1.761-3.409,2.513-5.074c-1.084-0.613-6.005-3.469-7.62-5.671
			c-1.548-2.11-2.933-5.228-2.139-7.881c0.777-2.598,3.532-4.24,6.144-3.161c3.626,1.498,5.138,8.41,4.858,11.902
			c-0.015,0.19-0.384,2.103-0.672,3.493c0.328-0.756,0.68-1.531,0.98-2.262c1.133-2.742,2.001-5.323,2.751-7.615
			c0.416-1.307,0.767-2.497,1.083-3.613c-0.75-1.156-3.712-5.854-4.123-8.504c-0.401-2.585-0.194-5.991,1.733-7.98
			c1.887-1.948,5.088-2.136,6.909,0.025c2.528,3,0.685,9.831-1.173,12.802c-0.161,0.257-3.133,3.983-3.173,3.923
			c0,0-0.037-0.056-0.045-0.07c-0.283,1.081-0.598,2.236-0.968,3.491c-0.702,2.313-1.516,4.92-2.594,7.697
			c-1.069,2.778-2.31,5.767-3.9,8.796c-1.59,3.039-3.418,6.155-5.716,9.121c-0.026,0.034-0.057,0.065-0.083,0.098
			c0.941-0.659,3.636-2.413,3.859-2.524c3.133-1.568,10.108-2.756,12.855,0.044c1.979,2.018,1.489,5.187-0.629,6.881
			c-2.163,1.73-5.572,1.614-8.108,0.969c-2.86-0.727-7.853-4.729-8.249-5.049c-2.215,2.806-4.716,5.504-7.397,8.096
			c-1.531,1.484-3.119,2.931-4.73,4.361c0.833-0.544,1.581-1.023,1.693-1.079c3.133-1.568,10.108-2.756,12.855,0.045
			c1.979,2.018,1.489,5.186-0.629,6.88c-2.163,1.73-5.573,1.614-8.109,0.97c-2.573-0.654-6.898-3.98-8.031-4.876
			c-0.624,0.542-1.24,1.091-1.866,1.63c-3.003,2.59-6.01,5.162-8.882,7.775c-1.013,0.921-1.976,1.864-2.944,2.805
			c0.74-0.482,1.367-0.882,1.469-0.933c3.133-1.568,10.108-2.756,12.855,0.045c1.979,2.018,1.489,5.187-0.629,6.881
			c-2.163,1.73-5.572,1.614-8.109,0.969c-2.456-0.624-6.475-3.658-7.826-4.716c-0.961,0.993-1.927,1.986-2.813,2.992
			c-0.59,0.701-1.207,1.334-1.761,2.07c-0.564,0.718-1.121,1.428-1.674,2.131c-1.014,1.394-2.069,2.826-3.024,4.211
			c-0.672,0.958-1.294,1.883-1.923,2.814c0.997-0.928,2.988-2.703,3.171-2.833c2.859-2.025,9.573-4.256,12.714-1.903
			c2.262,1.695,2.258,4.901,0.421,6.896c-1.876,2.038-5.264,2.439-7.868,2.187c-2.867-0.279-8.206-3.328-8.87-3.714
			c-1.036,1.543-2.03,3.054-2.944,4.495c-1.561,2.446-2.947,4.718-4.154,6.756l-2.337-0.97c1.311-2.115,2.826-4.489,4.543-7.056
			c1.046-1.571,2.195-3.229,3.392-4.921c-0.353-0.344-2.353-2.313-3.988-4.387c-2.688,1.238-8.416,1.616-9.156,1.659
			c-0.013,1.859-0.008,3.667,0.024,5.373c0.043,2.642,0.129,5.073,0.233,7.276l-2.509-1.042c-0.04-1.919-0.06-4-0.048-6.22
			c0.005-1.888,0.049-3.905,0.114-5.975c-0.741-0.14-6.788-1.323-9.144-2.989c-2.136-1.511-4.437-4.03-4.525-6.798
			c-0.086-2.711,2.007-5.14,4.827-4.944c3.914,0.272,7.537,6.35,8.377,9.75c0.05,0.201,0.344,2.437,0.507,3.852
			c0.031-0.846,0.051-1.668,0.094-2.538c0.072-1.722,0.195-3.438,0.32-5.285c0.092-0.89,0.184-1.788,0.279-2.696
			c0.073-0.902,0.266-1.845,0.396-2.778c0.348-2.155,0.804-4.322,1.313-6.495c-1.508-0.067-6.858-0.382-9.209-1.557
			c-2.34-1.17-4.997-3.311-5.502-6.034c-0.495-2.666,1.205-5.385,4.022-5.619c3.91-0.324,8.412,5.135,9.758,8.37
			c0.084,0.202,0.789,2.631,1.15,3.973c0.316-1.304,0.624-2.607,0.987-3.915c1.045-3.777,2.221-7.569,3.378-11.356
			c0.355-1.16,0.694-2.32,1.039-3.48c-0.536-0.018-6.904-0.254-9.537-1.571c-2.34-1.17-4.997-3.311-5.503-6.034
			c-0.495-2.666,1.205-5.385,4.022-5.618c3.91-0.324,8.412,5.135,9.757,8.369c0.101,0.244,1.11,3.741,1.324,4.643
			c0.758-2.555,1.489-5.108,2.107-7.654c0.858-3.512,1.507-7.006,1.884-10.436c-0.25-0.008-6.897-0.225-9.593-1.573
			c-2.341-1.17-4.997-3.311-5.503-6.034c-0.495-2.666,1.205-5.385,4.022-5.618c3.91-0.324,8.412,5.135,9.758,8.369
			c0.089,0.213,0.859,2.875,1.197,4.151c0.123-0.011,0.101-0.009,0.223-0.019c0.361-3.68,0.246-7.29-0.028-10.664
			c-0.155-1.955-0.412-3.814-0.703-5.618c-1.242,0.087-6.923,0.419-9.484-0.526c-2.455-0.906-5.33-2.742-6.132-5.393
			c-0.785-2.596,0.606-5.485,3.38-6.026c3.851-0.751,8.925,4.18,10.618,7.247c0.092,0.167,0.84,1.966,1.367,3.284
			c-0.144-0.812-0.277-1.653-0.43-2.428c-0.568-2.912-1.268-5.543-1.906-7.869c-0.374-1.319-0.738-2.505-1.09-3.611
			c-1.263-0.551-6.325-2.835-8.13-4.818c-1.761-1.935-3.466-4.89-2.956-7.612C402.179,84.929,404.746,83.006,407.457,83.805z"/>
	</g>
</g>
<g id="Window_1_">
	<g>
		<path style="fill:#FFFFFF;stroke:#263238;stroke-linecap:round;stroke-linejoin:round;stroke-miterlimit:10;" d="M406.189,40.459
			h-70.596l-2.936,5.445c-3.125,5.796-9.293,9.427-16.015,9.427c-6.722,0-12.89-3.631-16.015-9.427l-2.935-5.445h-70.597
			c-7.533,0-13.64,5.947-13.64,13.283v363.55c0,7.336,6.107,13.284,13.64,13.284h179.094c7.533,0,13.64-5.947,13.64-13.284V53.742
			C419.829,46.406,413.723,40.459,406.189,40.459z"/>
		<g>
			<g>
				<g>
					<path style="fill:#263238;" d="M405.633,53.901h-14.235c-0.227,0-0.41-0.184-0.41-0.411v-7.806c0-0.226,0.184-0.411,0.41-0.411
						h14.235c0.227,0,0.41,0.184,0.41,0.411v7.806C406.043,53.717,405.859,53.901,405.633,53.901z M391.808,53.079h13.415v-6.985
						h-13.415V53.079z"/>
				</g>
				<g>
					<rect x="391.398" y="45.684" style="fill:#263238;" width="11.101" height="7.806"/>
					<path style="fill:#263238;" d="M402.498,53.853h-11.101c-0.2,0-0.362-0.162-0.362-0.362v-7.806c0-0.2,0.162-0.362,0.362-0.362
						h11.101c0.2,0,0.362,0.162,0.362,0.362v7.806C402.86,53.69,402.698,53.853,402.498,53.853z M391.76,53.128h10.376v-7.082
						H391.76V53.128z"/>
				</g>
				<g>
					<rect x="405.602" y="47.868" style="fill:#263238;" width="2.005" height="3.438"/>
					<path style="fill:#263238;" d="M407.607,51.668h-2.005c-0.2,0-0.362-0.162-0.362-0.362v-3.438c0-0.2,0.162-0.362,0.362-0.362
						h2.005c0.2,0,0.362,0.162,0.362,0.362v3.438C407.97,51.506,407.808,51.668,407.607,51.668z M405.965,50.944h1.28V48.23h-1.28
						V50.944z"/>
				</g>
			</g>
			<g>
				<g>
					<rect x="225.21" y="48.106" style="fill:#263238;" width="2.61" height="4.474"/>
					<path style="fill:#263238;" d="M227.82,53.021h-2.61c-0.244,0-0.441-0.198-0.441-0.442v-4.474c0-0.244,0.197-0.441,0.441-0.441
						h2.61c0.244,0,0.441,0.198,0.441,0.441v4.474C228.262,52.823,228.064,53.021,227.82,53.021z M225.651,52.138h1.728v-3.591
						h-1.728V52.138z"/>
				</g>
				<g>
					<rect x="229.311" y="46.535" style="fill:#263238;" width="2.61" height="6.045"/>
					<path style="fill:#263238;" d="M231.921,53.021h-2.609c-0.244,0-0.441-0.198-0.441-0.442v-6.045
						c0-0.244,0.197-0.441,0.441-0.441h2.609c0.244,0,0.441,0.198,0.441,0.441v6.045C232.362,52.823,232.165,53.021,231.921,53.021z
						 M229.753,52.138h1.727v-5.162h-1.727V52.138z"/>
				</g>
				<g>
					<rect x="233.412" y="44.679" style="fill:#263238;" width="2.61" height="7.901"/>
					<path style="fill:#263238;" d="M236.022,53.021h-2.61c-0.244,0-0.441-0.198-0.441-0.442v-7.901
						c0-0.244,0.197-0.441,0.441-0.441h2.61c0.244,0,0.441,0.198,0.441,0.441v7.901C236.464,52.823,236.267,53.021,236.022,53.021z
						 M233.854,52.138h1.727V45.12h-1.727V52.138z"/>
				</g>
			</g>
			<g>
				<g>
					<g>
						<path style="fill:#263238;" d="M381.866,53.336c0-0.517-0.419-0.936-0.936-0.936s-0.936,0.419-0.936,0.936
							s0.419,0.937,0.936,0.937S381.866,53.853,381.866,53.336z"/>
					</g>
				</g>
				<g>
					<g>
						<path style="fill:#263238;" d="M375.941,48.608c1.255-1.324,3.025-2.155,4.988-2.155c1.84,0,3.51,0.73,4.747,1.911
							l0.517-0.542c-1.371-1.309-3.223-2.119-5.264-2.119c-2.178,0-4.14,0.922-5.532,2.389L375.941,48.608z"/>
					</g>
					<g>
						<path style="fill:#263238;" d="M376.925,49.541l0.548,0.52c0.871-0.918,2.094-1.499,3.457-1.499
							c1.277,0,2.432,0.511,3.29,1.33l0.521-0.546c-0.992-0.948-2.333-1.534-3.811-1.534
							C379.353,47.811,377.933,48.478,376.925,49.541z"/>
					</g>
					<g>
						<path style="fill:#263238;" d="M378.625,51.151l0.543,0.514c0.444-0.468,1.067-0.764,1.762-0.764
							c0.651,0,1.24,0.26,1.677,0.678l0.517-0.541c-0.572-0.546-1.342-0.887-2.194-0.887
							C380.021,50.152,379.206,50.539,378.625,51.151z"/>
					</g>
				</g>
			</g>
		</g>
		<g>
			<path style="fill:#263238;" d="M246.838,83.282l-0.39,2.033h-1.038l1.933-10.094h1.629l1.933,10.094h-1.125l-0.389-2.033H246.838
				z M246.982,82.315h2.249l-1.139-5.825L246.982,82.315z"/>
			<path style="fill:#263238;" d="M251.787,85.315V75.221h1.124v9.07h2.884v1.024H251.787z"/>
			<path style="fill:#263238;" d="M256.648,85.315V75.221h1.124v9.07h2.884v1.024H256.648z"/>
			<path style="fill:#263238;" d="M264.739,85.315h-1.009V75.221h1.428l2.336,7.296v-7.296h0.995v10.094h-1.168l-2.582-8.162V85.315
				z"/>
			<path style="fill:#263238;" d="M269.559,77.658c0-1.543,0.765-2.538,2.308-2.538c1.557,0,2.321,0.995,2.321,2.538v5.22
				c0,1.529-0.765,2.538-2.321,2.538c-1.543,0-2.308-1.009-2.308-2.538V77.658z M270.669,82.936c0,0.923,0.39,1.456,1.197,1.456
				c0.821,0,1.196-0.534,1.196-1.456v-5.335c0-0.909-0.375-1.457-1.196-1.457c-0.808,0-1.197,0.548-1.197,1.457V82.936z"/>
			<path style="fill:#263238;" d="M276.727,85.315v-9.07h-1.86v-1.024h4.845v1.024h-1.86v9.07H276.727z"/>
			<path style="fill:#263238;" d="M284.083,79.691v1.009h-2.466v3.59h3.028v1.024h-4.152V75.221h4.152v1.024h-3.028v3.446H284.083z"
				/>
			<path style="fill:#263238;" d="M290.056,77.644v0.274h-1.067v-0.331c0-0.908-0.346-1.442-1.153-1.442
				c-0.808,0-1.154,0.534-1.154,1.428c0,2.264,3.389,2.48,3.389,5.321c0,1.528-0.735,2.523-2.278,2.523
				c-1.543,0-2.264-0.995-2.264-2.523v-0.577h1.053v0.635c0,0.908,0.375,1.442,1.183,1.442c0.808,0,1.183-0.534,1.183-1.442
				c0-2.25-3.374-2.466-3.374-5.307c0-1.557,0.721-2.523,2.234-2.523C289.334,75.12,290.056,76.115,290.056,77.644z"/>
		</g>
		<g>
			<g>
				<path style="fill:#263238;" d="M236.502,138.697v0.86h-1.95v3.671h-0.945v-8.481h3.368v0.86h-2.423v3.089H236.502z"/>
				<path style="fill:#263238;" d="M238.673,134.747v8.481h-0.945v-8.481H238.673z"/>
				<path style="fill:#263238;" d="M240.479,143.228h-0.848v-8.481h1.199l1.963,6.13v-6.13h0.836v8.481h-0.981l-2.169-6.857V143.228
					z"/>
				<path style="fill:#263238;" d="M245.545,134.747v8.481H244.6v-8.481H245.545z"/>
				<path style="fill:#263238;" d="M250.186,136.783v0.23h-0.896v-0.278c0-0.764-0.29-1.212-0.969-1.212
					c-0.679,0-0.97,0.448-0.97,1.2c0,1.902,2.848,2.083,2.848,4.47c0,1.285-0.618,2.121-1.914,2.121
					c-1.297,0-1.902-0.836-1.902-2.121v-0.484h0.884v0.533c0,0.763,0.315,1.211,0.994,1.211c0.679,0,0.993-0.448,0.993-1.211
					c0-1.89-2.835-2.072-2.835-4.458c0-1.309,0.605-2.12,1.878-2.12C249.58,134.663,250.186,135.499,250.186,136.783z"/>
				<path style="fill:#263238;" d="M251.968,139.412v3.816h-0.945v-8.481h0.945v3.816h2.084v-3.816h0.945v8.481h-0.945v-3.816
					H251.968z"/>
				<path style="fill:#263238;" d="M259.083,143.228v-7.621h-1.564v-0.86h4.071v0.86h-1.564v7.621H259.083z"/>
				<path style="fill:#263238;" d="M263.191,139.412v3.816h-0.945v-8.481h0.945v3.816h2.084v-3.816h0.944v8.481h-0.944v-3.816
					H263.191z"/>
				<path style="fill:#263238;" d="M270.208,138.503v0.848h-2.071v3.017h2.544v0.86h-3.489v-8.481h3.489v0.86h-2.544v2.895H270.208z
					"/>
				<path style="fill:#263238;" d="M275.323,134.747c1.332,0,1.89,0.679,1.89,1.939v0.691c0,0.933-0.327,1.514-1.054,1.745
					c0.775,0.23,1.065,0.86,1.065,1.769v1.321c0,0.376,0.013,0.727,0.17,1.018h-0.957c-0.109-0.242-0.157-0.46-0.157-1.03v-1.332
					c0-0.958-0.448-1.26-1.236-1.26h-0.666v3.623h-0.945v-8.481H275.323z M275.081,138.745c0.751,0,1.199-0.242,1.199-1.163v-0.812
					c0-0.763-0.279-1.163-0.981-1.163h-0.921v3.138H275.081z"/>
				<path style="fill:#263238;" d="M281.225,138.503v0.848h-2.071v3.017h2.544v0.86h-3.489v-8.481h3.489v0.86h-2.544v2.895H281.225z
					"/>
				<path style="fill:#263238;" d="M284.425,134.747c1.333,0,1.902,0.788,1.902,2.072v1.018c0,1.345-0.63,2.048-1.975,2.048h-0.836
					v3.344h-0.945v-8.481H284.425z M284.352,139.036c0.703,0,1.042-0.327,1.042-1.139v-1.127c0-0.775-0.278-1.163-0.97-1.163h-0.908
					v3.429H284.352z"/>
				<path style="fill:#263238;" d="M287.032,136.795c0-1.296,0.642-2.132,1.939-2.132c1.309,0,1.95,0.836,1.95,2.132v4.386
					c0,1.284-0.642,2.132-1.95,2.132c-1.297,0-1.939-0.848-1.939-2.132V136.795z M287.965,141.229c0,0.775,0.327,1.224,1.006,1.224
					c0.69,0,1.006-0.448,1.006-1.224v-4.483c0-0.763-0.315-1.224-1.006-1.224c-0.679,0-1.006,0.46-1.006,1.224V141.229z"/>
				<path style="fill:#263238;" d="M293.709,134.747c1.332,0,1.89,0.679,1.89,1.939v0.691c0,0.933-0.327,1.514-1.054,1.745
					c0.775,0.23,1.065,0.86,1.065,1.769v1.321c0,0.376,0.013,0.727,0.17,1.018h-0.957c-0.109-0.242-0.157-0.46-0.157-1.03v-1.332
					c0-0.958-0.448-1.26-1.236-1.26h-0.666v3.623h-0.945v-8.481H293.709z M293.466,138.745c0.752,0,1.2-0.242,1.2-1.163v-0.812
					c0-0.763-0.279-1.163-0.982-1.163h-0.921v3.138H293.466z"/>
				<path style="fill:#263238;" d="M297.83,143.228v-7.621h-1.563v-0.86h4.071v0.86h-1.564v7.621H297.83z"/>
			</g>
			<g>
				<path style="fill:#B2B2B2;" d="M233.276,153.819c0.101,0.007,0.208,0.007,0.301,0.007c0.392-0.023,0.63-0.208,0.63-0.753v-4.091
					h0.593v4.053c0,1.008-0.5,1.323-1.146,1.338c-0.138,0-0.246,0.007-0.377-0.008V153.819z"/>
				<path style="fill:#B2B2B2;" d="M235.962,153.096c0,0.484,0.192,0.777,0.631,0.777c0.43,0,0.622-0.292,0.622-0.777v-4.114h0.561
					v4.083c0,0.815-0.377,1.361-1.207,1.361c-0.823,0-1.2-0.546-1.2-1.361v-4.083h0.593V153.096z"/>
				<path style="fill:#B2B2B2;" d="M238.369,154.365v-5.383h0.6v4.837h1.538v0.546H238.369z"/>
				<path style="fill:#B2B2B2;" d="M241.438,152.435l-1.139-3.453h0.623l0.838,2.645l0.846-2.645h0.569l-1.145,3.453v1.93h-0.592
					V152.435z"/>
				<path style="fill:#B2B2B2;" d="M246.983,153.281v1.085h-0.584v-1.085h-1.738v-0.546l1.669-3.753h0.653v3.753h0.432v0.546
					H246.983z M245.215,152.735h1.185v-2.63L245.215,152.735z"/>
			</g>
		</g>
		<g>
			<g>
				<path style="fill:#B2B2B2;" d="M235.415,194.308h-0.577l-0.892-4.284v4.292h-0.523v-5.383h0.838l0.885,4.299l0.854-4.299h0.839
					v5.383h-0.569v-4.33L235.415,194.308z"/>
				<path style="fill:#B2B2B2;" d="M238.061,193.231l-0.207,1.085H237.3l1.031-5.383h0.869l1.03,5.383h-0.6l-0.208-1.085H238.061z
					 M238.139,192.716h1.199l-0.607-3.107L238.139,192.716z"/>
				<path style="fill:#B2B2B2;" d="M241.899,188.933c0.847,0,1.2,0.431,1.2,1.23v0.438c0,0.592-0.208,0.961-0.669,1.107
					c0.492,0.146,0.677,0.546,0.677,1.122v0.838c0,0.238,0.008,0.461,0.107,0.646h-0.607c-0.069-0.154-0.1-0.292-0.1-0.654v-0.846
					c0-0.607-0.285-0.8-0.785-0.8H241.3v2.299h-0.6v-5.383H241.899z M241.746,191.471c0.477,0,0.762-0.154,0.762-0.738v-0.516
					c0-0.484-0.177-0.738-0.623-0.738H241.3v1.992H241.746z"/>
				<path style="fill:#B2B2B2;" d="M246.106,190.232v0.484h-0.568v-0.515c0-0.485-0.192-0.777-0.631-0.777
					c-0.431,0-0.631,0.292-0.631,0.777v2.845c0,0.484,0.2,0.777,0.631,0.777c0.438,0,0.631-0.292,0.631-0.777v-0.7h0.568v0.669
					c0,0.815-0.384,1.354-1.215,1.354c-0.822,0-1.207-0.538-1.207-1.354v-2.784c0-0.815,0.385-1.354,1.207-1.354
					C245.723,188.879,246.106,189.417,246.106,190.232z"/>
				<path style="fill:#B2B2B2;" d="M247.254,191.893v2.422h-0.6v-5.383h0.6v2.422h1.323v-2.422h0.6v5.383h-0.6v-2.422H247.254z"/>
				<path style="fill:#B2B2B2;" d="M252.084,189.909c-0.2,0.123-0.461,0.215-0.746,0.231v-0.492
					c0.585-0.023,0.784-0.338,0.923-0.715h0.416v5.383h-0.593V189.909z"/>
				<path style="fill:#B2B2B2;" d="M256,190.225v0.1h-0.562v-0.139c0-0.484-0.2-0.769-0.639-0.769c-0.453,0-0.653,0.292-0.653,0.869
					v1.208c0.146-0.369,0.439-0.577,0.869-0.577c0.692,0,0.999,0.499,0.999,1.276v0.816c0,0.823-0.407,1.361-1.23,1.361
					c-0.83,0-1.237-0.538-1.237-1.361v-2.746c0-0.854,0.384-1.384,1.237-1.384C255.615,188.879,256,189.402,256,190.225z
					 M254.146,192.239v0.808c0,0.484,0.2,0.777,0.638,0.777c0.432,0,0.639-0.292,0.639-0.777v-0.808
					c0-0.484-0.207-0.776-0.639-0.776C254.347,191.463,254.146,191.755,254.146,192.239z"/>
			</g>
			<g>
				<path style="fill:#263238;" d="M237.35,178.194v0.727h-0.896v-0.775c0-0.763-0.303-1.224-0.994-1.224
					c-0.678,0-0.993,0.46-0.993,1.224v4.483c0,0.763,0.315,1.224,0.993,1.224c0.691,0,0.994-0.46,0.994-1.224v-1.696h-0.873v-0.848
					h1.77v2.496c0,1.284-0.606,2.132-1.914,2.132c-1.297,0-1.902-0.848-1.902-2.132v-4.386c0-1.285,0.605-2.132,1.902-2.132
					C236.744,176.061,237.35,176.909,237.35,178.194z"/>
				<path style="fill:#263238;" d="M240.139,176.146c1.332,0,1.89,0.679,1.89,1.939v0.691c0,0.933-0.327,1.514-1.054,1.745
					c0.775,0.23,1.065,0.86,1.065,1.769v1.321c0,0.375,0.013,0.727,0.17,1.018h-0.957c-0.109-0.242-0.157-0.46-0.157-1.03v-1.333
					c0-0.958-0.448-1.26-1.236-1.26h-0.666v3.623h-0.945v-8.481H240.139z M239.895,180.144c0.752,0,1.2-0.242,1.2-1.163v-0.811
					c0-0.763-0.279-1.163-0.981-1.163h-0.921v3.138H239.895z"/>
				<path style="fill:#263238;" d="M242.951,178.194c0-1.296,0.642-2.132,1.938-2.132c1.309,0,1.95,0.836,1.95,2.132v4.386
					c0,1.284-0.642,2.132-1.95,2.132c-1.297,0-1.938-0.848-1.938-2.132V178.194z M243.884,182.628c0,0.775,0.327,1.224,1.006,1.224
					c0.69,0,1.006-0.448,1.006-1.224v-4.483c0-0.763-0.315-1.224-1.006-1.224c-0.679,0-1.006,0.46-1.006,1.224V182.628z"/>
				<path style="fill:#263238;" d="M251.482,178.194v0.763h-0.896v-0.812c0-0.763-0.303-1.224-0.994-1.224
					c-0.678,0-0.993,0.46-0.993,1.224v4.483c0,0.763,0.315,1.224,0.993,1.224c0.691,0,0.994-0.46,0.994-1.224v-1.102h0.896v1.054
					c0,1.284-0.606,2.132-1.914,2.132c-1.297,0-1.902-0.848-1.902-2.132v-4.386c0-1.285,0.605-2.132,1.902-2.132
					C250.876,176.061,251.482,176.909,251.482,178.194z"/>
				<path style="fill:#263238;" d="M255.36,179.902v0.848h-2.071v3.017h2.544v0.86h-3.489v-8.481h3.489v0.86h-2.544v2.895H255.36z"
					/>
				<path style="fill:#263238;" d="M258.598,176.146c1.332,0,1.89,0.679,1.89,1.939v0.691c0,0.933-0.327,1.514-1.054,1.745
					c0.775,0.23,1.065,0.86,1.065,1.769v1.321c0,0.375,0.013,0.727,0.17,1.018h-0.957c-0.109-0.242-0.157-0.46-0.157-1.03v-1.333
					c0-0.958-0.448-1.26-1.236-1.26h-0.666v3.623h-0.945v-8.481H258.598z M258.354,180.144c0.752,0,1.2-0.242,1.2-1.163v-0.811
					c0-0.763-0.279-1.163-0.981-1.163h-0.921v3.138H258.354z"/>
				<path style="fill:#263238;" d="M262.864,181.586l-1.793-5.44h0.98l1.321,4.168l1.332-4.168h0.897l-1.805,5.44v3.041h-0.933
					V181.586z"/>
				<path style="fill:#263238;" d="M268.161,184.627v-8.481h0.945v7.621h2.423v0.86H268.161z"/>
				<path style="fill:#263238;" d="M273.19,176.146v8.481h-0.945v-8.481H273.19z"/>
				<path style="fill:#263238;" d="M277.831,178.182v0.23h-0.897v-0.278c0-0.764-0.29-1.212-0.969-1.212s-0.97,0.448-0.97,1.2
					c0,1.902,2.848,2.084,2.848,4.47c0,1.285-0.618,2.121-1.914,2.121c-1.297,0-1.902-0.836-1.902-2.121v-0.484h0.884v0.533
					c0,0.763,0.315,1.211,0.994,1.211c0.678,0,0.993-0.448,0.993-1.211c0-1.89-2.835-2.072-2.835-4.459
					c0-1.309,0.605-2.12,1.878-2.12C277.225,176.061,277.831,176.897,277.831,178.182z"/>
				<path style="fill:#263238;" d="M279.905,184.627v-7.621h-1.563v-0.86h4.071v0.86h-1.563v7.621H279.905z"/>
			</g>
		</g>
		<g>
			<g>
				<path style="fill:#B2B2B2;" d="M233.276,235.286c0.101,0.007,0.208,0.007,0.301,0.007c0.392-0.023,0.63-0.208,0.63-0.753v-4.091
					h0.593v4.053c0,1.008-0.5,1.323-1.146,1.338c-0.138,0-0.246,0.007-0.377-0.008V235.286z"/>
				<path style="fill:#B2B2B2;" d="M236,234.747l-0.208,1.084h-0.553l1.03-5.383h0.869l1.03,5.383h-0.6l-0.208-1.084H236z
					 M236.077,234.232h1.199l-0.607-3.107L236.077,234.232z"/>
				<path style="fill:#B2B2B2;" d="M239.169,235.831h-0.538v-5.383h0.762l1.245,3.892v-3.892h0.531v5.383h-0.623l-1.377-4.353
					V235.831z"/>
				<path style="fill:#B2B2B2;" d="M242.354,234.563c0,0.484,0.192,0.777,0.63,0.777c0.432,0,0.623-0.292,0.623-0.777v-4.114h0.561
					v4.083c0,0.816-0.377,1.361-1.207,1.361c-0.823,0-1.2-0.546-1.2-1.361v-4.083h0.593V234.563z"/>
				<path style="fill:#B2B2B2;" d="M245.369,234.747l-0.208,1.084h-0.553l1.03-5.383h0.869l1.03,5.383h-0.6l-0.208-1.084H245.369z
					 M245.446,234.232h1.199l-0.607-3.107L245.446,234.232z"/>
				<path style="fill:#B2B2B2;" d="M249.208,230.448c0.846,0,1.199,0.431,1.199,1.23v0.439c0,0.592-0.208,0.961-0.669,1.107
					c0.492,0.146,0.677,0.546,0.677,1.123v0.838c0,0.238,0.008,0.462,0.107,0.646h-0.607c-0.069-0.154-0.1-0.292-0.1-0.654v-0.846
					c0-0.607-0.285-0.8-0.785-0.8h-0.423v2.299h-0.6v-5.383H249.208z M249.054,232.986c0.477,0,0.762-0.154,0.762-0.738v-0.516
					c0-0.484-0.178-0.738-0.623-0.738h-0.585v1.992H249.054z"/>
				<path style="fill:#B2B2B2;" d="M251.915,233.901l-1.138-3.453h0.623l0.838,2.646l0.847-2.646h0.568l-1.145,3.453v1.93h-0.593
					V233.901z"/>
				<path style="fill:#B2B2B2;" d="M257.069,230.986h-1.83v-0.538h2.438v0.523l-1.385,4.86h-0.6L257.069,230.986z"/>
			</g>
			<g>
				<path style="fill:#263238;" d="M236.502,219.914v0.86h-1.95v3.671h-0.945v-8.481h3.368v0.86h-2.423v3.089H236.502z"/>
				<path style="fill:#263238;" d="M238.527,222.737l-0.327,1.708h-0.872l1.624-8.481h1.368l1.624,8.481h-0.945l-0.327-1.708
					H238.527z M238.648,221.925h1.891l-0.957-4.894L238.648,221.925z"/>
				<path style="fill:#263238;" d="M243.097,215.964l1.382,7.378l1.368-7.378h0.873l-1.588,8.481h-1.393l-1.6-8.481H243.097z"/>
				<path style="fill:#263238;" d="M247.363,218.012c0-1.296,0.642-2.132,1.939-2.132c1.309,0,1.95,0.836,1.95,2.132v4.386
					c0,1.284-0.642,2.132-1.95,2.132c-1.297,0-1.939-0.848-1.939-2.132V218.012z M248.296,222.446c0,0.775,0.327,1.224,1.006,1.224
					c0.69,0,1.006-0.448,1.006-1.224v-4.483c0-0.763-0.315-1.224-1.006-1.224c-0.679,0-1.006,0.46-1.006,1.224V222.446z"/>
				<path style="fill:#263238;" d="M254.041,215.964c1.332,0,1.89,0.679,1.89,1.938v0.691c0,0.933-0.327,1.514-1.054,1.745
					c0.775,0.23,1.065,0.86,1.065,1.769v1.321c0,0.376,0.013,0.727,0.17,1.018h-0.957c-0.109-0.242-0.157-0.46-0.157-1.03v-1.333
					c0-0.957-0.448-1.26-1.236-1.26h-0.666v3.622h-0.945v-8.481H254.041z M253.798,219.962c0.752,0,1.2-0.242,1.2-1.163v-0.812
					c0-0.763-0.279-1.163-0.981-1.163h-0.921v3.138H253.798z"/>
				<path style="fill:#263238;" d="M257.871,215.964v8.481h-0.945v-8.481H257.871z"/>
				<path style="fill:#263238;" d="M260.077,224.445v-7.621h-1.564v-0.86h4.071v0.86h-1.564v7.621H260.077z"/>
				<path style="fill:#263238;" d="M266.257,219.72v0.848h-2.071v3.017h2.544v0.86h-3.489v-8.481h3.489v0.86h-2.544v2.895H266.257z"
					/>
				<path style="fill:#263238;" d="M271.274,218v0.23h-0.896v-0.278c0-0.764-0.29-1.212-0.969-1.212c-0.679,0-0.97,0.448-0.97,1.2
					c0,1.902,2.848,2.083,2.848,4.47c0,1.285-0.618,2.121-1.914,2.121c-1.297,0-1.902-0.836-1.902-2.121v-0.484h0.884v0.533
					c0,0.763,0.315,1.211,0.994,1.211c0.678,0,0.993-0.448,0.993-1.211c0-1.89-2.835-2.072-2.835-4.458
					c0-1.309,0.605-2.12,1.878-2.12C270.669,215.88,271.274,216.716,271.274,218z"/>
				<path style="fill:#263238;" d="M275.893,215.964c1.32,0,1.842,0.63,1.842,1.878v0.4c0,0.896-0.255,1.454-0.994,1.684
					c0.824,0.23,1.14,0.884,1.14,1.817v0.715c0,1.272-0.618,1.987-1.939,1.987h-1.951v-8.481H275.893z M275.663,219.563
					c0.752,0,1.139-0.243,1.139-1.127v-0.497c0-0.751-0.254-1.115-0.933-1.115h-0.933v2.738H275.663z M275.942,223.585
					c0.69,0,1.005-0.363,1.005-1.151v-0.751c0-0.945-0.375-1.26-1.187-1.26h-0.824v3.162H275.942z"/>
				<path style="fill:#263238;" d="M278.67,218.012c0-1.296,0.642-2.132,1.939-2.132c1.309,0,1.95,0.836,1.95,2.132v4.386
					c0,1.284-0.642,2.132-1.95,2.132c-1.297,0-1.939-0.848-1.939-2.132V218.012z M279.602,222.446c0,0.775,0.327,1.224,1.006,1.224
					c0.69,0,1.006-0.448,1.006-1.224v-4.483c0-0.763-0.315-1.224-1.006-1.224c-0.679,0-1.006,0.46-1.006,1.224V222.446z"/>
				<path style="fill:#263238;" d="M283.385,218.012c0-1.296,0.642-2.132,1.938-2.132c1.309,0,1.95,0.836,1.95,2.132v4.386
					c0,1.284-0.642,2.132-1.95,2.132c-1.297,0-1.938-0.848-1.938-2.132V218.012z M284.317,222.446c0,0.775,0.327,1.224,1.006,1.224
					c0.69,0,1.006-0.448,1.006-1.224v-4.483c0-0.763-0.316-1.224-1.006-1.224c-0.679,0-1.006,0.46-1.006,1.224V222.446z"/>
				<path style="fill:#263238;" d="M289.613,220.762l-0.497,0.836v2.847h-0.945v-8.481h0.945v4.095l2.254-4.095h0.957l-2.145,3.865
					l2.217,4.616h-0.969L289.613,220.762z"/>
				<path style="fill:#263238;" d="M296.739,218v0.23h-0.897v-0.278c0-0.764-0.29-1.212-0.969-1.212s-0.97,0.448-0.97,1.2
					c0,1.902,2.848,2.083,2.848,4.47c0,1.285-0.618,2.121-1.914,2.121c-1.297,0-1.902-0.836-1.902-2.121v-0.484h0.884v0.533
					c0,0.763,0.315,1.211,0.994,1.211c0.678,0,0.993-0.448,0.993-1.211c0-1.89-2.835-2.072-2.835-4.458
					c0-1.309,0.605-2.12,1.878-2.12C296.134,215.88,296.739,216.716,296.739,218z"/>
			</g>
		</g>
		<g>
			<g>
				<path style="fill:#B2B2B2;" d="M234.692,271.092c0.838,0,1.223,0.508,1.223,1.338v2.715c0,0.823-0.385,1.331-1.223,1.331h-1.262
					v-5.384H234.692z M234.684,275.93c0.431,0,0.638-0.27,0.638-0.762V272.4c0-0.492-0.207-0.762-0.645-0.762h-0.646v4.292H234.684z
					"/>
				<path style="fill:#B2B2B2;" d="M238.392,273.476v0.539h-1.316v1.915h1.615v0.546h-2.215v-5.384h2.215v0.546h-1.615v1.838
					H238.392z"/>
				<path style="fill:#B2B2B2;" d="M241.622,272.392v0.484h-0.568v-0.515c0-0.485-0.192-0.777-0.631-0.777
					c-0.431,0-0.631,0.292-0.631,0.777v2.845c0,0.484,0.2,0.777,0.631,0.777c0.439,0,0.631-0.293,0.631-0.777v-0.699h0.568v0.669
					c0,0.815-0.384,1.353-1.215,1.353c-0.822,0-1.207-0.538-1.207-1.353v-2.784c0-0.815,0.385-1.354,1.207-1.354
					C241.238,271.039,241.622,271.577,241.622,272.392z"/>
				<path style="fill:#B2B2B2;" d="M244.084,273.476v0.539h-1.315v1.915h1.615v0.546h-2.215v-5.384h2.215v0.546h-1.615v1.838
					H244.084z"/>
				<path style="fill:#B2B2B2;" d="M246.923,276.469h-0.577l-0.892-4.284v4.292h-0.523v-5.384h0.838l0.885,4.299l0.854-4.299h0.839
					v5.384h-0.569v-4.33L246.923,276.469z"/>
				<path style="fill:#B2B2B2;" d="M250.168,271.092c0.839,0,1.169,0.4,1.169,1.192v0.254c0,0.568-0.161,0.923-0.63,1.068
					c0.522,0.146,0.723,0.561,0.723,1.154v0.453c0,0.808-0.393,1.262-1.23,1.262h-1.238v-5.384H250.168z M250.022,273.377
					c0.477,0,0.723-0.153,0.723-0.715v-0.315c0-0.477-0.161-0.708-0.592-0.708h-0.593v1.738H250.022z M250.199,275.93
					c0.439,0,0.638-0.231,0.638-0.731v-0.477c0-0.6-0.238-0.8-0.753-0.8h-0.523v2.008H250.199z"/>
				<path style="fill:#B2B2B2;" d="M253.892,273.476v0.539h-1.315v1.915h1.615v0.546h-2.215v-5.384h2.215v0.546h-1.615v1.838
					H253.892z"/>
				<path style="fill:#B2B2B2;" d="M255.946,271.092c0.846,0,1.199,0.431,1.199,1.23v0.439c0,0.592-0.208,0.961-0.669,1.107
					c0.492,0.147,0.677,0.546,0.677,1.123v0.838c0,0.238,0.008,0.462,0.107,0.646h-0.607c-0.069-0.154-0.1-0.293-0.1-0.654v-0.846
					c0-0.607-0.285-0.8-0.785-0.8h-0.423v2.3h-0.6v-5.384H255.946z M255.792,273.631c0.476,0,0.762-0.154,0.762-0.738v-0.516
					c0-0.484-0.178-0.738-0.623-0.738h-0.585v1.992H255.792z"/>
				<path style="fill:#B2B2B2;" d="M261.392,272.4c0,1.623-1.823,2.207-1.831,3.445v0.085h1.77v0.546h-2.361v-0.462
					c0-1.738,1.822-2.076,1.822-3.591c0-0.554-0.185-0.847-0.63-0.847c-0.439,0-0.631,0.315-0.631,0.792v0.478h-0.561v-0.439
					c0-0.823,0.377-1.369,1.207-1.369C261.015,271.039,261.392,271.577,261.392,272.4z"/>
				<path style="fill:#B2B2B2;" d="M264.369,272.4c0,1.623-1.823,2.207-1.831,3.445v0.085h1.77v0.546h-2.361v-0.462
					c0-1.738,1.822-2.076,1.822-3.591c0-0.554-0.185-0.847-0.63-0.847c-0.438,0-0.631,0.315-0.631,0.792v0.478h-0.562v-0.439
					c0-0.823,0.377-1.369,1.207-1.369C263.992,271.039,264.369,271.577,264.369,272.4z"/>
			</g>
			<g>
				<path style="fill:#263238;" d="M234.552,261.335v3.816h-0.945v-8.481h0.945v3.816h2.084v-3.816h0.945v8.481h-0.945v-3.816
					H234.552z"/>
				<path style="fill:#263238;" d="M239.509,263.442l-0.327,1.709h-0.872l1.624-8.481h1.368l1.624,8.481h-0.945l-0.327-1.709
					H239.509z M239.63,262.631h1.891l-0.957-4.895L239.63,262.631z"/>
				<path style="fill:#263238;" d="M245.52,256.67c1.333,0,1.902,0.788,1.902,2.071v1.018c0,1.346-0.63,2.049-1.975,2.049h-0.836
					v3.344h-0.945v-8.481H245.52z M245.447,260.959c0.703,0,1.042-0.327,1.042-1.139v-1.127c0-0.775-0.278-1.163-0.97-1.163h-0.908
					v3.429H245.447z"/>
				<path style="fill:#263238;" d="M250.016,256.67c1.333,0,1.902,0.788,1.902,2.071v1.018c0,1.346-0.63,2.049-1.975,2.049h-0.836
					v3.344h-0.945v-8.481H250.016z M249.943,260.959c0.703,0,1.042-0.327,1.042-1.139v-1.127c0-0.775-0.278-1.163-0.97-1.163h-0.908
					v3.429H249.943z"/>
				<path style="fill:#263238;" d="M254.138,262.11l-1.793-5.44h0.98l1.321,4.168l1.332-4.168h0.896l-1.805,5.44v3.041h-0.933
					V262.11z"/>
				<path style="fill:#263238;" d="M261.337,256.67c1.32,0,1.842,0.63,1.842,1.878v0.4c0,0.897-0.255,1.453-0.994,1.684
					c0.824,0.23,1.14,0.885,1.14,1.817v0.715c0,1.273-0.618,1.987-1.939,1.987h-1.951v-8.481H261.337z M261.106,260.268
					c0.752,0,1.139-0.242,1.139-1.127v-0.496c0-0.752-0.254-1.115-0.933-1.115h-0.933v2.738H261.106z M261.386,264.29
					c0.69,0,1.005-0.363,1.005-1.15v-0.751c0-0.945-0.375-1.261-1.186-1.261h-0.824v3.162H261.386z"/>
				<path style="fill:#263238;" d="M265.131,256.67v8.481h-0.945v-8.481H265.131z"/>
				<path style="fill:#263238;" d="M267.991,256.67c1.332,0,1.89,0.679,1.89,1.938v0.691c0,0.932-0.327,1.514-1.054,1.744
					c0.775,0.23,1.065,0.859,1.065,1.769v1.321c0,0.375,0.013,0.727,0.17,1.017h-0.957c-0.109-0.242-0.157-0.461-0.157-1.03v-1.333
					c0-0.957-0.448-1.26-1.236-1.26h-0.666v3.623H266.1v-8.481H267.991z M267.749,260.668c0.751,0,1.199-0.242,1.199-1.163v-0.812
					c0-0.763-0.279-1.163-0.981-1.163h-0.921v3.138H267.749z"/>
				<path style="fill:#263238;" d="M272.1,265.151v-7.621h-1.563v-0.86h4.059v0.86h-1.563v7.621H272.1z"/>
				<path style="fill:#263238;" d="M276.184,261.335v3.816h-0.945v-8.481h0.945v3.816h2.084v-3.816h0.944v8.481h-0.944v-3.816
					H276.184z"/>
				<path style="fill:#263238;" d="M282.171,256.67c1.32,0,1.926,0.8,1.926,2.108v4.276c0,1.296-0.605,2.097-1.926,2.097h-1.987
					v-8.481H282.171z M282.158,264.29c0.679,0,1.006-0.424,1.006-1.199v-4.361c0-0.775-0.327-1.199-1.018-1.199h-1.017v6.76H282.158
					z"/>
				<path style="fill:#263238;" d="M285.929,263.442l-0.327,1.709h-0.872l1.624-8.481h1.368l1.624,8.481H288.4l-0.327-1.709H285.929
					z M286.05,262.631h1.891l-0.957-4.895L286.05,262.631z"/>
				<path style="fill:#263238;" d="M290.995,262.11l-1.793-5.44h0.98l1.321,4.168l1.332-4.168h0.896l-1.805,5.44v3.041h-0.933
					V262.11z"/>
				<path style="fill:#263238;" d="M297.999,258.706v0.229h-0.897v-0.278c0-0.764-0.29-1.212-0.969-1.212
					c-0.679,0-0.97,0.448-0.97,1.2c0,1.901,2.848,2.083,2.848,4.47c0,1.284-0.618,2.12-1.914,2.12c-1.297,0-1.902-0.836-1.902-2.12
					v-0.484h0.884v0.533c0,0.763,0.315,1.212,0.994,1.212c0.678,0,0.993-0.449,0.993-1.212c0-1.89-2.835-2.071-2.835-4.458
					c0-1.309,0.605-2.121,1.878-2.121C297.393,256.585,297.999,257.421,297.999,258.706z"/>
			</g>
		</g>
		<g>
			<g>
				<path style="fill:#B2B2B2;" d="M233.276,316.846c0.101,0.008,0.208,0.008,0.301,0.008c0.392-0.023,0.63-0.208,0.63-0.754v-4.091
					h0.593v4.053c0,1.008-0.5,1.322-1.146,1.338c-0.138,0-0.246,0.008-0.377-0.008V316.846z"/>
				<path style="fill:#B2B2B2;" d="M235.962,316.123c0,0.484,0.192,0.776,0.631,0.776c0.43,0,0.622-0.292,0.622-0.776v-4.114h0.561
					v4.083c0,0.815-0.377,1.361-1.207,1.361c-0.823,0-1.2-0.546-1.2-1.361v-4.083h0.593V316.123z"/>
				<path style="fill:#B2B2B2;" d="M238.369,317.392v-5.383h0.6v4.837h1.538v0.546H238.369z"/>
				<path style="fill:#B2B2B2;" d="M241.438,315.462l-1.139-3.453h0.623l0.838,2.646l0.846-2.646h0.569l-1.145,3.453v1.93h-0.592
					V315.462z"/>
				<path style="fill:#B2B2B2;" d="M245.899,312.986c-0.2,0.123-0.461,0.215-0.746,0.23v-0.492c0.585-0.022,0.785-0.338,0.923-0.715
					h0.415v5.383h-0.592V312.986z"/>
				<path style="fill:#B2B2B2;" d="M249.815,313.301v0.1h-0.562v-0.139c0-0.484-0.2-0.769-0.639-0.769
					c-0.453,0-0.653,0.292-0.653,0.869v1.207c0.146-0.369,0.438-0.576,0.869-0.576c0.691,0,1,0.499,1,1.276v0.815
					c0,0.822-0.408,1.36-1.23,1.36c-0.831,0-1.238-0.538-1.238-1.36v-2.746c0-0.854,0.384-1.384,1.238-1.384
					C249.431,311.955,249.815,312.478,249.815,313.301z M247.962,315.316v0.808c0,0.484,0.2,0.776,0.639,0.776
					c0.43,0,0.638-0.292,0.638-0.776v-0.808c0-0.484-0.208-0.776-0.638-0.776C248.162,314.539,247.962,314.831,247.962,315.316z"/>
			</g>
			<g>
				<path style="fill:#263238;" d="M234.442,305.569h-0.848v-8.48h1.199l1.963,6.13v-6.13h0.836v8.48h-0.981l-2.169-6.857V305.569z"
					/>
				<path style="fill:#263238;" d="M241.58,300.844v0.848h-2.071v3.017h2.544v0.86h-3.489v-8.48h3.489v0.86h-2.544v2.896H241.58z"/>
				<path style="fill:#263238;" d="M245.943,300.844v0.848h-2.071v3.017h2.544v0.86h-3.489v-8.48h3.489v0.86h-2.544v2.896H245.943z"
					/>
				<path style="fill:#263238;" d="M249.277,297.088c1.32,0,1.926,0.8,1.926,2.108v4.276c0,1.296-0.605,2.096-1.926,2.096h-1.987
					v-8.48H249.277z M249.265,304.708c0.679,0,1.006-0.424,1.006-1.199v-4.361c0-0.775-0.327-1.199-1.018-1.199h-1.018v6.76H249.265
					z"/>
				<path style="fill:#263238;" d="M255.191,305.569v-7.62h-1.563v-0.86h4.059v0.86h-1.563v7.62H255.191z"/>
				<path style="fill:#263238;" d="M258.259,299.136c0-1.297,0.642-2.133,1.939-2.133c1.309,0,1.95,0.836,1.95,2.133v4.386
					c0,1.284-0.642,2.132-1.95,2.132c-1.297,0-1.939-0.848-1.939-2.132V299.136z M259.191,303.57c0,0.775,0.327,1.224,1.006,1.224
					c0.69,0,1.006-0.448,1.006-1.224v-4.482c0-0.764-0.315-1.224-1.006-1.224c-0.679,0-1.006,0.46-1.006,1.224V303.57z"/>
				<path style="fill:#263238;" d="M266.778,297.088c1.333,0,1.902,0.787,1.902,2.071v1.018c0,1.346-0.63,2.048-1.975,2.048h-0.836
					v3.344h-0.945v-8.48H266.778z M266.706,301.377c0.703,0,1.042-0.327,1.042-1.139v-1.127c0-0.775-0.278-1.163-0.97-1.163h-0.908
					v3.429H266.706z"/>
				<path style="fill:#263238;" d="M270.221,303.861l-0.327,1.708h-0.872l1.624-8.48h1.368l1.624,8.48h-0.945l-0.327-1.708H270.221z
					 M270.342,303.049h1.891l-0.957-4.895L270.342,303.049z"/>
				<path style="fill:#263238;" d="M275.287,302.528l-1.794-5.439h0.981l1.321,4.168l1.332-4.168h0.896l-1.805,5.439v3.041h-0.933
					V302.528z"/>
			</g>
		</g>
		<g>
			<g>
				<line style="fill:none;stroke:#92E3A9;stroke-miterlimit:10;" x1="221.293" y1="74.987" x2="237.435" y2="74.987"/>
				<line style="fill:none;stroke:#92E3A9;stroke-miterlimit:10;" x1="221.293" y1="80.368" x2="237.435" y2="80.368"/>
				<line style="fill:none;stroke:#92E3A9;stroke-miterlimit:10;" x1="221.293" y1="85.749" x2="237.435" y2="85.749"/>
			</g>
			<g>
				<rect x="392.586" y="74.736" style="fill:none;stroke:#92E3A9;stroke-miterlimit:10;" width="4.932" height="4.932"/>
				<rect x="400.258" y="74.736" style="fill:none;stroke:#92E3A9;stroke-miterlimit:10;" width="4.932" height="4.932"/>
				<rect x="392.586" y="81.739" style="fill:none;stroke:#92E3A9;stroke-miterlimit:10;" width="4.932" height="4.932"/>
				<rect x="400.258" y="81.739" style="fill:none;stroke:#92E3A9;stroke-miterlimit:10;" width="4.932" height="4.932"/>
			</g>
		</g>
		<path style="fill:#E5E5E5;" d="M400.727,127.736h-167c-6.351,0-11.5-5.149-11.5-11.5l0,0c0-6.351,5.149-11.5,11.5-11.5h167
			c6.351,0,11.5,5.149,11.5,11.5l0,0C412.227,122.588,407.079,127.736,400.727,127.736z"/>
		<g>
			<path style="fill:#B2B2B2;" d="M237.323,114.93v0.199h-0.775v-0.241c0-0.661-0.252-1.048-0.839-1.048
				c-0.587,0-0.839,0.388-0.839,1.038c0,1.646,2.464,1.803,2.464,3.868c0,1.111-0.535,1.834-1.656,1.834
				c-1.122,0-1.646-0.723-1.646-1.834v-0.419h0.766v0.461c0,0.661,0.272,1.048,0.859,1.048s0.859-0.388,0.859-1.048
				c0-1.635-2.452-1.792-2.452-3.857c0-1.132,0.523-1.834,1.624-1.834C236.799,113.096,237.323,113.819,237.323,114.93z"/>
			<path style="fill:#B2B2B2;" d="M240.658,116.418v0.734h-1.792v2.61h2.201v0.744h-3.02v-7.338h3.02v0.744h-2.201v2.505H240.658z"
				/>
			<path style="fill:#B2B2B2;" d="M242.651,119.029l-0.282,1.478h-0.755l1.404-7.338h1.185l1.404,7.338h-0.817l-0.283-1.478H242.651
				z M242.757,118.326h1.635l-0.828-4.235L242.757,118.326z"/>
			<path style="fill:#B2B2B2;" d="M247.886,113.169c1.153,0,1.635,0.587,1.635,1.677v0.598c0,0.807-0.282,1.31-0.911,1.509
				c0.671,0.199,0.922,0.744,0.922,1.531v1.143c0,0.325,0.011,0.629,0.148,0.88h-0.828c-0.095-0.209-0.137-0.398-0.137-0.891v-1.153
				c0-0.828-0.388-1.09-1.069-1.09h-0.576v3.134h-0.818v-7.338H247.886z M247.676,116.628c0.65,0,1.038-0.21,1.038-1.006v-0.703
				c0-0.66-0.241-1.006-0.85-1.006h-0.796v2.715H247.676z"/>
			<path style="fill:#B2B2B2;" d="M253.621,114.94v0.661h-0.775v-0.703c0-0.66-0.262-1.059-0.859-1.059
				c-0.587,0-0.859,0.398-0.859,1.059v3.879c0,0.66,0.273,1.059,0.859,1.059c0.598,0,0.859-0.398,0.859-1.059v-0.954h0.775v0.912
				c0,1.111-0.523,1.845-1.656,1.845c-1.121,0-1.646-0.734-1.646-1.845v-3.795c0-1.111,0.524-1.845,1.646-1.845
				C253.098,113.096,253.621,113.829,253.621,114.94z"/>
			<path style="fill:#B2B2B2;" d="M255.186,117.204v3.302h-0.818v-7.338h0.818v3.302h1.803v-3.302h0.817v7.338h-0.817v-3.302
				H255.186z"/>
		</g>
		<g>
			<path style="fill:#92E3A9;" d="M341.25,383.349h-46.999c-6.351,0-11.5-5.149-11.5-11.5v0c0-6.351,5.149-11.5,11.5-11.5h46.999
				c6.351,0,11.5,5.149,11.5,11.5v0C352.75,378.2,347.601,383.349,341.25,383.349z"/>
			<g>
				<path style="fill:#263238;" d="M297.504,376.688h-1.009v-10.094h1.428l2.336,7.296v-7.296h0.995v10.094h-1.169l-2.581-8.162
					V376.688z"/>
				<path style="fill:#263238;" d="M306,371.064v1.01h-2.466v3.59h3.028v1.024h-4.152v-10.094h4.152v1.023h-3.028v3.446H306z"/>
				<path style="fill:#263238;" d="M310.284,376.688h-1.543l-1.384-10.094h1.096l1.183,8.594l1.124-8.579h1.11l1.11,8.594
					l1.14-8.608h0.98l-1.37,10.094h-1.485l-0.966-6.85L310.284,376.688z"/>
				<path style="fill:#263238;" d="M319.243,376.688h-1.009v-10.094h1.428l2.336,7.296v-7.296h0.995v10.094h-1.168l-2.582-8.162
					V376.688z"/>
				<path style="fill:#263238;" d="M324.063,369.031c0-1.543,0.765-2.538,2.308-2.538c1.557,0,2.321,0.995,2.321,2.538v5.22
					c0,1.529-0.765,2.538-2.321,2.538c-1.543,0-2.308-1.009-2.308-2.538V369.031z M325.173,374.309c0,0.923,0.39,1.457,1.197,1.457
					c0.821,0,1.196-0.534,1.196-1.457v-5.335c0-0.908-0.375-1.456-1.196-1.456c-0.808,0-1.197,0.548-1.197,1.456V374.309z"/>
				<path style="fill:#263238;" d="M331.217,376.688v-9.07h-1.86v-1.023h4.831v1.023h-1.86v9.07H331.217z"/>
				<path style="fill:#263238;" d="M338.543,371.064v1.01h-2.466v3.59h3.028v1.024h-4.152v-10.094h4.152v1.023h-3.028v3.446H338.543
					z"/>
			</g>
		</g>
		<g>
			<line style="fill:none;stroke:#CCCCCC;stroke-miterlimit:10;" x1="221.293" y1="98.817" x2="411.93" y2="98.817"/>
			<line style="fill:none;stroke:#CCCCCC;stroke-miterlimit:10;" x1="221.293" y1="161.483" x2="411.93" y2="161.483"/>
			<line style="fill:none;stroke:#CCCCCC;stroke-miterlimit:10;" x1="221.293" y1="201.817" x2="411.93" y2="201.817"/>
			<line style="fill:none;stroke:#CCCCCC;stroke-miterlimit:10;" x1="221.293" y1="242.15" x2="411.93" y2="242.15"/>
			<line style="fill:none;stroke:#CCCCCC;stroke-miterlimit:10;" x1="221.293" y1="282.483" x2="411.93" y2="282.483"/>
			<line style="fill:none;stroke:#CCCCCC;stroke-miterlimit:10;" x1="221.293" y1="322.817" x2="411.93" y2="322.817"/>
			<line style="fill:none;stroke:#CCCCCC;stroke-miterlimit:10;" x1="221.293" y1="395.078" x2="411.93" y2="395.078"/>
			<g>
				<polygon style="fill:none;stroke:#CCCCCC;stroke-miterlimit:10;" points="276.603,402.676 283.61,406.721 283.61,398.63 				"/>
				<path style="fill:none;stroke:#CCCCCC;stroke-miterlimit:10;" d="M320.911,402.676c0-2.062-1.672-3.734-3.734-3.734
					c-2.062,0-3.734,1.672-3.734,3.734c0,2.062,1.672,3.734,3.734,3.734C319.239,406.41,320.911,404.738,320.911,402.676z"/>
				<rect x="350.202" y="398.63" style="fill:none;stroke:#CCCCCC;stroke-miterlimit:10;" width="8.091" height="8.091"/>
			</g>
		</g>
	</g>
</g>
<g id="Character">
	<g>
		<g>
			<path style="fill:#CFCFCF;stroke:#263238;stroke-miterlimit:10;" d="M137.105,339.141c0,0-5.661,21.07-5.032,27.359
				c0.629,6.289,3.774,12.893,0.629,23.271c-3.145,10.378-11.321,27.359-11.321,27.359l-0.314,2.201c0,0,1.572,0,1.572,4.088
				s0,6.29,0,6.29s7.233,7.233,8.176,9.749c0.943,2.516-0.314,11.95-5.346,11.95c-10.049,0-11.129-5.853-13.837-12.265
				c-4.925-11.66-5.032-12.579-3.459-20.126c1.572-7.548,1.887-20.126,1.572-28.303c-0.314-8.176-0.943-23.9,0.629-30.504
				c1.572-6.604,1.572-26.416,0.629-29.875c-0.943-3.459,27.674,5.661,27.674,5.661L137.105,339.141z"/>
			<path style="fill:#CFCFCF;stroke:#263238;stroke-miterlimit:10;" d="M130.816,439.459c-0.944-2.516-8.176-9.749-8.176-9.749
				s0-2.201,0-6.29s-1.572-4.088-1.572-4.088s-5.661-1.258-7.233,1.258c-1.572,2.516-1.572,2.516-1.572,2.516
				s-2.066-3.306-3.738-5.999c-0.11,0.663-0.225,1.308-0.35,1.911c-1.572,7.547-1.466,8.467,3.459,20.126
				c2.708,6.411,3.787,12.265,13.837,12.265C130.501,451.409,131.759,441.975,130.816,439.459z"/>
			<path style="fill:none;stroke:#263238;stroke-miterlimit:10;" d="M122.639,429.71c0,0-3.145,3.459-9.12,2.201"/>
		</g>
		<g>
			<path style="fill:#FFFFFF;stroke:#263238;stroke-miterlimit:10;" d="M83.645,330.021c0,0,4.403,16.667,4.717,23.586
				c0.314,6.919-5.346,20.126-2.516,32.705s8.176,31.762,9.12,36.479c0.943,4.717,0.943,6.29,0.943,6.29s-6.604-4.717-11.321-2.83
				c-4.717,1.887-5.975,9.434-2.516,18.24c3.459,8.805,18.554,14.151,22.328,15.409c3.774,1.258,9.434-2.201,9.12-5.975
				c-0.314-3.774-1.258-5.975-1.258-5.975s0.944-1.258,0.629-4.403c-0.315-3.145-1.258-4.403-1.258-4.403s-3.145-33.02-0.943-44.027
				c2.201-11.007,5.032-18.554,3.774-26.73c-1.258-8.176-1.887-16.982-1.887-16.982s2.201-14.466,2.201-17.925
				C114.778,330.021,100.941,317.757,83.645,330.021z"/>
			<g>
				<path style="fill:#FFFFFF;stroke:#263238;stroke-miterlimit:10;" d="M113.52,453.925c-0.314-3.774-1.258-5.975-1.258-5.975
					s0.944-1.258,0.629-4.403c-0.315-3.145-1.258-4.403-1.258-4.403l-1.887,0.629c0,0-1.572-4.403-3.774-6.918
					c-2.201-2.516-5.346,0.314-5.346,0.314c-1.258-2.201-4.717-4.088-4.717-4.088s-6.604-4.717-11.321-2.83
					c-4.717,1.887-5.975,9.434-2.516,18.24c3.459,8.805,18.554,14.151,22.328,15.409
					C108.174,461.158,113.834,457.698,113.52,453.925z"/>
				<path style="fill:#878787;stroke:#263238;stroke-miterlimit:10;" d="M82.072,444.49c3.459,8.805,18.554,14.151,22.328,15.409
					c2.641,0.88,6.198-0.552,7.993-2.783c-0.988-2.545-5.054-4.037-7.679-5.708c-3.459-2.201-5.66-8.176-9.12-17.611
					c-3.459-9.434-11.007-7.547-11.007-7.547C79.871,428.138,78.613,435.685,82.072,444.49z"/>
				<path style="fill:none;stroke:#263238;stroke-miterlimit:10;" d="M100.626,433.169c0,0,3.459,1.572,3.774,7.862"/>
			</g>
		</g>
		<path style="fill:#263238;stroke:#263238;stroke-miterlimit:10;" d="M74.174,229c0,0-10,30-10.333,51.667
			c-0.333,21.667,5.333,34.667,5.333,43.333s0.333,20.333,0.333,20.333l8-2.333v-16.333l4.333,15.667c0,0,9.333-10,18-9.333
			c8.667,0.667,13.667,6.333,25.333,9.333s24.333,0.333,24.333,0.333s0.914-11.818,3.334-26.334
			c2.707-16.246,3.005-33.037,0.562-49.335c-1.15-7.676-2.938-15.248-5.604-22.541c-0.49-1.34-5.313-16.156-6.625-16.124
			C141.173,227.333,74.174,229,74.174,229z"/>
		<path style="fill:none;stroke:#828282;stroke-miterlimit:10;" d="M110.077,275.123c2.739,9.601,6.361,23.938,7.264,35.377"/>
		<path style="fill:none;stroke:#828282;stroke-miterlimit:10;" d="M106.841,264.5c0,0,0.492,1.476,1.265,3.981"/>
		<path style="fill:none;stroke:#828282;stroke-miterlimit:10;" d="M118.341,289.5c0,0,3,15,3,27.5"/>
		<g>
			<path style="fill:#FFFFFF;" d="M93.841,157c0,0-18.75,9.75-23,11s-8.5,9-9.25,12.5s-13.75,30.5-17.25,39.75
				s-6.25,13.25-3.25,16.75s11.75,8,16.5,2.5s14.75-28.5,14.75-28.5l0.25,20.25c0,0,11,4.5,31.25,4.75s40.25-5,40.25-5v-27
				l15.5,23.75c0,0,5.5,5.5,13,1.75s7.25-8.5,3.75-16s-20-37-25-45.25s-15.5-10.5-20-11.25s-13.25-1.75-13.25-1.75L93.841,157z"/>
			<g>
				<path style="fill:#92E3A9;" d="M74.113,184.183c1.227,0.794,2.263,1.557,3.265,2.294c4.101,3.018,7.339,5.401,17.676,5.401
					c12.326,0,33.827-4.487,46.679-8.645c3.295-1.066,6.14-2.082,8.648-2.979c2.517-0.899,4.676-1.668,6.626-2.257
					c-0.528-0.927-1.037-1.816-1.526-2.669c-1.861,0.584-3.867,1.3-6.108,2.1c-2.489,0.889-5.311,1.897-8.563,2.949
					c-12.636,4.088-33.722,8.499-45.755,8.499c-9.352,0-11.956-1.917-15.898-4.817c-0.99-0.729-2.111-1.554-3.414-2.396
					c-4.418-2.859-9.902-3.674-13.215-3.897c-0.447,1.033-0.776,1.983-0.936,2.732c-0.013,0.061-0.039,0.146-0.059,0.221
					C64.351,180.846,69.892,181.452,74.113,184.183z"/>
				<path style="fill:#92E3A9;" d="M75.41,175.461c4.012,3.647,5.524,5.154,5.539,5.169l0.414,0.414l0.584,0.024
					c0.062,0.003,1.517,0.059,4.006,0.059c8.345,0,28.285-0.638,46.069-6.088c7.887-2.417,14.65-4.079,20.255-5.226
					c-0.342-0.578-0.659-1.108-0.935-1.564c-0.241-0.398-0.506-0.77-0.771-1.141c-5.48,1.154-11.965,2.775-19.428,5.062
					c-20.74,6.356-44.546,6.024-48.501,5.917c-0.697-0.674-2.295-2.195-5.213-4.847c-2.25-2.046-6.05-3.074-9.332-3.592
					c-0.86,0.753-1.686,1.681-2.446,2.702C69.039,172.715,73.348,173.587,75.41,175.461z"/>
				<path style="fill:#92E3A9;" d="M133.914,157.497c-0.975-0.214-1.856-0.378-2.573-0.497c-0.884-0.147-1.934-0.304-3.047-0.461
					c-17.038,6.225-32.256,4.552-39.559,3.08c-1.257,0.638-2.663,1.347-4.129,2.079c3.007,0.824,9.651,2.302,18.422,2.302
					C111.745,163.999,122.548,162.521,133.914,157.497z"/>
				<path style="fill:#92E3A9;" d="M59.521,218.83c-4.754-2.161-10.11-2.009-14.049-1.407c-0.439,1.059-0.824,2.015-1.131,2.828
					c-0.061,0.16-0.119,0.306-0.179,0.463c3.563-0.736,9.304-1.34,14.118,0.848c3.42,1.554,5.858,2.716,7.537,3.542
					c0.445-0.91,0.882-1.814,1.306-2.702C65.417,221.563,62.962,220.393,59.521,218.83z"/>
				<path style="fill:#92E3A9;" d="M101.325,173.257c3.441,0,7.145-0.23,11.08-0.774c15.172-2.101,26.525-6.883,33.066-10.289
					c-1.016-0.692-2.069-1.292-3.13-1.817c-6.538,3.199-16.967,7.282-30.348,9.135c-17.181,2.378-29.841-1.609-35.408-3.924
					c-1.378,0.641-2.635,1.205-3.674,1.638C76.005,168.793,86.145,173.257,101.325,173.257z"/>
				<path style="fill:#92E3A9;" d="M144.091,222.833c-4.228,1.083-13.249,3.247-26.193,5.577
					c-15.063,2.709-37.968-2.119-45.389-3.858l0.038,3.099c6.434,1.496,21.329,4.578,34.849,4.578c3.867,0,7.623-0.252,11.034-0.867
					c12.296-2.213,21.104-4.284,25.662-5.434V222.833z"/>
				<path style="fill:#92E3A9;" d="M63.142,203.305c9.174,4.037,17.369,8.127,17.451,8.168l0.298,0.148l0.332,0.009
					c0.22,0.006,1.406,0.035,3.316,0.035c7.95,0,28.42-0.508,43.763-5.321c7.831-2.457,13.941-5.306,19.332-7.82
					c7.038-3.282,12.281-5.722,17.739-5.618c-0.544-0.984-1.093-1.973-1.643-2.96c-5.539,0.351-10.886,2.838-17.364,5.86
					c-5.306,2.475-11.32,5.279-18.962,7.677c-17.445,5.473-42.621,5.21-45.774,5.156c-1.574-0.78-9.034-4.452-17.28-8.08
					c-4.077-1.794-7.553-2.43-10.252-2.564c-0.446,0.985-0.898,1.98-1.35,2.978C55.216,200.946,58.785,201.388,63.142,203.305z"/>
				<path style="fill:#92E3A9;" d="M62.817,213.388l6.275,2.51c0.081,0.318,0.178,0.674,0.585,1.041
					c0.602-1.313,1.126-2.475,1.548-3.418l-7.294-2.917c-4.244-1.697-9.987-2.351-14.355-2.595c-0.45,1.005-0.889,1.99-1.312,2.946
					C52.516,211.135,58.599,211.701,62.817,213.388z"/>
				<path style="fill:#92E3A9;" d="M72.378,213.982l0.051,4.138c2.94,0.738,8.59,1.392,19.601,1.711
					c2.787,0.081,5.494,0.118,8.114,0.118c21.454-0.001,36.878-2.477,39.483-3.593c2.285-0.979,4.268-1.348,4.465-1.383v-4.025
					c-0.446,0.486-0.796,0.89-1.032,1.172c-0.874,0.189-2.643,0.633-4.614,1.478c-2.412,1.034-20.931,3.972-46.328,3.234
					c-11.62-0.336-16.645-1.049-18.806-1.566l0.926-0.54L72.378,213.982z"/>
				<path style="fill:#92E3A9;" d="M174.907,210.599c-0.443-0.867-0.946-1.836-1.499-2.885c-9.33,0.966-16.482,5.135-21.134,8.826
					l1.673,2.564C158.47,215.489,165.626,211.263,174.907,210.599z"/>
				<path style="fill:#92E3A9;" d="M170.145,201.615c-0.535-0.988-1.089-2.005-1.656-3.043c-9.489,0.14-17.202,5.578-21.649,9.641
					l1.683,2.579C152.805,206.833,160.696,201.116,170.145,201.615z"/>
				<path style="fill:#92E3A9;" d="M69.027,194.696c3.157,1.611,5.421,2.871,7.24,3.884c3.796,2.112,5.702,3.172,9.241,3.717
					c0.361,0.056,0.872,0.083,1.514,0.083c8.315,0,38.545-4.528,48.975-9.923c8.15-4.216,16.591-7.308,24.132-8.945
					c-0.521-0.926-1.037-1.84-1.541-2.73c-7.577,1.743-15.93,4.851-23.97,9.01c-10.529,5.447-43.917,10.27-48.654,9.54
					c-3.007-0.463-4.539-1.315-8.238-3.374c-1.84-1.024-4.13-2.298-7.334-3.934c-4.962-2.534-9.073-3.348-12.034-3.511
					c-0.413,0.937-0.854,1.926-1.316,2.958C59.594,191.447,63.723,191.987,69.027,194.696z"/>
			</g>
			<g style="opacity:0.4;">
				<path style="fill:#FFFFFF;" d="M74.113,184.183c1.227,0.794,2.263,1.557,3.265,2.294c4.101,3.018,7.339,5.401,17.676,5.401
					c12.326,0,33.827-4.487,46.679-8.645c3.295-1.066,6.14-2.082,8.648-2.979c2.517-0.899,4.676-1.668,6.626-2.257
					c-0.528-0.927-1.037-1.816-1.526-2.669c-1.861,0.584-3.867,1.3-6.108,2.1c-2.489,0.889-5.311,1.897-8.563,2.949
					c-12.636,4.088-33.722,8.499-45.755,8.499c-9.352,0-11.956-1.917-15.898-4.817c-0.99-0.729-2.111-1.554-3.414-2.396
					c-4.418-2.859-9.902-3.674-13.215-3.897c-0.447,1.033-0.776,1.983-0.936,2.732c-0.013,0.061-0.039,0.146-0.059,0.221
					C64.351,180.846,69.892,181.452,74.113,184.183z"/>
				<path style="fill:#FFFFFF;" d="M75.41,175.461c4.012,3.647,5.524,5.154,5.539,5.169l0.414,0.414l0.584,0.024
					c0.062,0.003,1.517,0.059,4.006,0.059c8.345,0,28.285-0.638,46.069-6.088c7.887-2.417,14.65-4.079,20.255-5.226
					c-0.342-0.578-0.659-1.108-0.935-1.564c-0.241-0.398-0.506-0.77-0.771-1.141c-5.48,1.154-11.965,2.775-19.428,5.062
					c-20.74,6.356-44.546,6.024-48.501,5.917c-0.697-0.674-2.295-2.195-5.213-4.847c-2.25-2.046-6.05-3.074-9.332-3.592
					c-0.86,0.753-1.686,1.681-2.446,2.702C69.039,172.715,73.348,173.587,75.41,175.461z"/>
				<path style="fill:#FFFFFF;" d="M133.914,157.497c-0.975-0.214-1.856-0.378-2.573-0.497c-0.884-0.147-1.934-0.304-3.047-0.461
					c-17.038,6.225-32.256,4.552-39.559,3.08c-1.257,0.638-2.663,1.347-4.129,2.079c3.007,0.824,9.651,2.302,18.422,2.302
					C111.745,163.999,122.548,162.521,133.914,157.497z"/>
				<path style="fill:#FFFFFF;" d="M59.521,218.83c-4.754-2.161-10.11-2.009-14.049-1.407c-0.439,1.059-0.824,2.015-1.131,2.828
					c-0.061,0.16-0.119,0.306-0.179,0.463c3.563-0.736,9.304-1.34,14.118,0.848c3.42,1.554,5.858,2.716,7.537,3.542
					c0.445-0.91,0.882-1.814,1.306-2.702C65.417,221.563,62.962,220.393,59.521,218.83z"/>
				<path style="fill:#FFFFFF;" d="M101.325,173.257c3.441,0,7.145-0.23,11.08-0.774c15.172-2.101,26.525-6.883,33.066-10.289
					c-1.016-0.692-2.069-1.292-3.13-1.817c-6.538,3.199-16.967,7.282-30.348,9.135c-17.181,2.378-29.841-1.609-35.408-3.924
					c-1.378,0.641-2.635,1.205-3.674,1.638C76.005,168.793,86.145,173.257,101.325,173.257z"/>
				<path style="fill:#FFFFFF;" d="M144.091,222.833c-4.228,1.083-13.249,3.247-26.193,5.577
					c-15.063,2.709-37.968-2.119-45.389-3.858l0.038,3.099c6.434,1.496,21.329,4.578,34.849,4.578c3.867,0,7.623-0.252,11.034-0.867
					c12.296-2.213,21.104-4.284,25.662-5.434V222.833z"/>
				<path style="fill:#FFFFFF;" d="M63.142,203.305c9.174,4.037,17.369,8.127,17.451,8.168l0.298,0.148l0.332,0.009
					c0.22,0.006,1.406,0.035,3.316,0.035c7.95,0,28.42-0.508,43.763-5.321c7.831-2.457,13.941-5.306,19.332-7.82
					c7.038-3.282,12.281-5.722,17.739-5.618c-0.544-0.984-1.093-1.973-1.643-2.96c-5.539,0.351-10.886,2.838-17.364,5.86
					c-5.306,2.475-11.32,5.279-18.962,7.677c-17.445,5.473-42.621,5.21-45.774,5.156c-1.574-0.78-9.034-4.452-17.28-8.08
					c-4.077-1.794-7.553-2.43-10.252-2.564c-0.446,0.985-0.898,1.98-1.35,2.978C55.216,200.946,58.785,201.388,63.142,203.305z"/>
				<path style="fill:#FFFFFF;" d="M62.817,213.388l6.275,2.51c0.081,0.318,0.178,0.674,0.585,1.041
					c0.602-1.313,1.126-2.475,1.548-3.418l-7.294-2.917c-4.244-1.697-9.987-2.351-14.355-2.595c-0.45,1.005-0.889,1.99-1.312,2.946
					C52.516,211.135,58.599,211.701,62.817,213.388z"/>
				<path style="fill:#FFFFFF;" d="M72.378,213.982l0.051,4.138c2.94,0.738,8.59,1.392,19.601,1.711
					c2.787,0.081,5.494,0.118,8.114,0.118c21.454-0.001,36.878-2.477,39.483-3.593c2.285-0.979,4.268-1.348,4.465-1.383v-4.025
					c-0.446,0.486-0.796,0.89-1.032,1.172c-0.874,0.189-2.643,0.633-4.614,1.478c-2.412,1.034-20.931,3.972-46.328,3.234
					c-11.62-0.336-16.645-1.049-18.806-1.566l0.926-0.54L72.378,213.982z"/>
				<path style="fill:#FFFFFF;" d="M174.907,210.599c-0.443-0.867-0.946-1.836-1.499-2.885c-9.33,0.966-16.482,5.135-21.134,8.826
					l1.673,2.564C158.47,215.489,165.626,211.263,174.907,210.599z"/>
				<path style="fill:#FFFFFF;" d="M170.145,201.615c-0.535-0.988-1.089-2.005-1.656-3.043c-9.489,0.14-17.202,5.578-21.649,9.641
					l1.683,2.579C152.805,206.833,160.696,201.116,170.145,201.615z"/>
				<path style="fill:#FFFFFF;" d="M69.027,194.696c3.157,1.611,5.421,2.871,7.24,3.884c3.796,2.112,5.702,3.172,9.241,3.717
					c0.361,0.056,0.872,0.083,1.514,0.083c8.315,0,38.545-4.528,48.975-9.923c8.15-4.216,16.591-7.308,24.132-8.945
					c-0.521-0.926-1.037-1.84-1.541-2.73c-7.577,1.743-15.93,4.851-23.97,9.01c-10.529,5.447-43.917,10.27-48.654,9.54
					c-3.007-0.463-4.539-1.315-8.238-3.374c-1.84-1.024-4.13-2.298-7.334-3.934c-4.962-2.534-9.073-3.348-12.034-3.511
					c-0.413,0.937-0.854,1.926-1.316,2.958C59.594,191.447,63.723,191.987,69.027,194.696z"/>
			</g>
			<path style="fill:none;stroke:#263238;stroke-miterlimit:10;" d="M93.841,157c0,0-18.75,9.75-23,11s-8.5,9-9.25,12.5
				s-13.75,30.5-17.25,39.75s-6.25,13.25-3.25,16.75s11.75,8,16.5,2.5s14.75-28.5,14.75-28.5l0.25,20.25c0,0,11,4.5,31.25,4.75
				s40.25-5,40.25-5v-27l15.5,23.75c0,0,5.5,5.5,13,1.75s7.25-8.5,3.75-16s-20-37-25-45.25s-15.5-10.5-20-11.25
				s-13.25-1.75-13.25-1.75L93.841,157z"/>
		</g>
		<g>
			<path style="fill:#92E3A9;stroke:#263238;stroke-miterlimit:10;" d="M103.841,161.25c0,0,10.25,11.75,25,19.25s31.25,8,44.25,1
				s19.75-9.25,19.75-9.25l-5.5-14c0,0-10,7.25-25.5,10.25s-31,0.75-36.5-2.5s-11-6.25-11-6.25L103.841,161.25z"/>
			<path style="fill:#92E3A9;stroke:#263238;stroke-miterlimit:10;" d="M107.341,159c1,0.5,21,13.75,36,13.5s21-7,34-15.75
				s27-11,27-11l-1.5-13.75c0,0-20.5-1.75-36,7.5s-26.75,19-33.5,20s-12.5-2.5-12.5-2.5L107.341,159z"/>
			<path style="fill:#263238;stroke:#263238;stroke-miterlimit:10;" d="M107.515,165.039h8.742c0,0,5.434-3.071,6.616-3.78
				c1.181-0.709,2.835-1.654,2.835-1.654l0.883-2.105c0,0-11.279,3.286-15.059,3.286c-3.78,0-6.379,0.945-6.379,0.945
				L107.515,165.039z"/>
			<g>
				<path style="fill:#263238;stroke:#263238;stroke-miterlimit:10;" d="M143.091,125.827c-1.5-2.25,2.5-4.5,2-9.25s-7-5-7.5-8.75
					c-0.5-3.749-1-12.996-6.747-20.996c-10.263-14.285-34.152-14.406-44.503-0.004c-5.75,8-6.25,17.25-6.75,21s-7,4-7.5,8.75
					s3.5,7,2,9.25s-8,5.5-8,11s2,8.75,2,8.75h38.25h4.5h38.25c0,0,2-3.25,2-8.75S144.591,128.077,143.091,125.827z"/>
				<path style="fill:#FFFFFF;stroke:#263238;stroke-miterlimit:10;" d="M89.591,121.577c0,0-4.5-6-5.5,0.25s6.75,8.75,6.75,8.75
					L89.591,121.577z"/>
				<path style="fill:#FFFFFF;stroke:#263238;stroke-miterlimit:10;" d="M127.502,121.577c0,0,4.5-6,5.5,0.25s-6.75,8.75-6.75,8.75
					L127.502,121.577z"/>
				<polygon style="fill:#FFFFFF;stroke:#263238;stroke-miterlimit:10;" points="94.341,132.25 97.841,149.75 120.341,149.75 
					124.091,133.75 				"/>
				<path style="fill:#92E3A9;stroke:#263238;stroke-miterlimit:10;" d="M100.591,145c0,0-6-1.25-6.5,0.25s-1.5,14.25-0.25,15.25
					s7.5,2.75,15.75,2.25s17.25-2.25,17-5.25s-1.5-9.5-1.5-11.5S100.591,145,100.591,145z"/>
				<path style="fill:#263238;stroke:#263238;stroke-miterlimit:10;" d="M100.591,145c0,0-1.401-0.29-2.905-0.423
					c4.299,4.587,9.912,7.669,14.905,6.703c3.228-0.625,6.238-3.074,8.707-6.277C114.419,144.436,100.591,145,100.591,145z"/>
				<g>
					<path style="fill:#FFFFFF;stroke:#263238;stroke-miterlimit:10;" d="M124.341,106.577c-3.75-2-3.25-5.75-3.25-5.75
						s-0.5,0.75-2.5,1.25s-4.5-0.5-6.75-0.5s-3.5,3.5-4.75,7.75s-9.25,1.25-13.75,1.5c-2.759,0.153-4.293,1.996-5.069,3.401
						c0.74,6.675,1.963,14.84,3.819,19.349c3.5,8.5,12.75,16.75,20.5,15.25s14.25-13.5,15-21.25
						c0.356-3.685,0.712-8.387,0.961-13.112C128.078,112.041,126.918,107.951,124.341,106.577z"/>
					<ellipse style="fill:#263238;" cx="103.091" cy="123.077" rx="1.5" ry="3"/>
					<ellipse style="fill:#263238;" cx="115.091" cy="123.077" rx="1.5" ry="3"/>
					<path style="fill:none;stroke:#263238;stroke-miterlimit:10;" d="M105.841,133.327c0,0,2,3.25,4.75,2.5s4-3.5,4-3.5"/>
					<path style="fill:none;stroke:#263238;stroke-miterlimit:10;" d="M97.376,117.285c0,0,2.745-4.942,8.236-2.471"/>
					<path style="fill:none;stroke:#263238;stroke-miterlimit:10;" d="M113.091,113.827c0,0,5.25-1.25,7.5,3.75"/>
					<path style="fill:none;stroke:#263238;stroke-miterlimit:10;" d="M106.091,139.077c0,0,3.25,3,8,0"/>
				</g>
			</g>
		</g>
		<path style="fill:#263238;stroke:#263238;stroke-miterlimit:10;" d="M126.513,213.195l-11.223,0.991
			c-1.371,0.121-2.58-0.892-2.701-2.263l-2.852-28.744c-0.121-1.371,0.892-2.58,2.263-2.701l11.223-0.991
			c1.371-0.121,2.58,0.892,2.701,2.263l2.852,28.744C128.897,211.865,127.884,213.074,126.513,213.195z"/>
		<path style="fill:#FFFFFF;stroke:#263238;stroke-miterlimit:10;" d="M168.95,213.885c0,0-25.913-2.13-29.264-4.15
			c-3.351-2.02-7.601-5.365-9.719-10.297c-2.118-4.932-5.935-4.23-9.943-4.296c-4.007-0.066-9.936,1.974-9.038,3.299
			c0.898,1.325,4.007,0.066,6.768,0.033s6.231,0.492,7.149,1.568c0.918,1.076,1.587,2.132,1.587,2.132s-7.018-0.053-10.415,1.685
			c-3.397,1.738-5.319,3.843-5.477,5.837c-0.157,1.994,2.284-0.166,3.609-1.064c1.325-0.899,3.733-1.844,5.268-2.224
			c1.535-0.38,3.404-0.108,3.404-0.108l2.49,0.551c0,0-1.804,0.61-5.87,1.292c-4.066,0.682-9.464,5.522-8.526,6.348
			c0.938,0.826,5.743-2.216,7.613-2.778c1.739-0.523,2.94-0.652,4.206-0.802c1.266-0.151,2.761-0.033,2.761-0.033
			s-6.277,3.266-8.657,4.833s-0.426,2.223,2.164,1.174c2.591-1.049,7.215-2.44,7.215-2.44s3.122,1.751,5.863,1.968
			c2.741,0.216,4.755,0.125,4.755,0.125s16.429,7.901,23.84,12.499c7.411,4.598,13.989,3.863,17.124-0.905
			c3.135-4.768,2.283-9.851-0.78-12.35S168.95,213.885,168.95,213.885z"/>
		<g>
			<path style="fill:#737373;stroke:#263238;stroke-miterlimit:10;" d="M77.708,232.032l-13.828-0.301
				c0,0-14.73,27.055-16.834,33.367c-2.104,6.313,6.914,12.325,10.822,13.227c3.908,0.902,15.03,0.902,17.135-2.405
				c2.104-3.307,5.712-32.766,6.012-38.478C81.315,231.731,77.708,232.032,77.708,232.032z"/>
			<path style="fill:#454545;stroke:#263238;stroke-miterlimit:10;" d="M77.708,232.032l-5.375-0.117
				c-2.021,5.232-15.235,39.848-13.233,45.281c0.175,0.476,0.418,0.958,0.707,1.437c4.809,0.532,13.374,0.149,15.195-2.712
				c2.104-3.307,5.712-32.766,6.012-38.478C81.315,231.731,77.708,232.032,77.708,232.032z"/>
		</g>
		<path style="fill:#737373;stroke:#263238;stroke-miterlimit:10;" d="M74.401,166.499c0,0,4.208,21.343,5.11,31.864
			c0.902,10.521-4.81,42.686-6.012,46.294c-1.202,3.607,0.601,7.515,2.104,7.515s3.607-3.006,4.208-7.515
			c0.601-4.509,4.209-33.668,4.209-41.183c0-7.515-5.11-39.079-5.11-39.079L74.401,166.499z"/>
		<path style="fill:#FFFFFF;stroke:#263238;stroke-miterlimit:10;" d="M76.635,222.089c0,0-3.106,2.524-5.824,6.212
			c-2.718,3.688-14.753,19.412-19.218,20.383s-13.589-1.553-14.753-6.6c-1.165-5.047,0-10.483,7.182-13.589
			c7.183-3.106,21.742-9.124,21.742-9.124s8.347-9.124,9.124-10.288c0.776-1.165,3.3-5.047,4.077-5.63
			c0.776-0.582,8.735-2.718,10.094-1.941c1.359,0.776,2.135,2.718,1.941,3.688c-0.194,0.971-1.359,1.553-1.359,2.718
			c0,1.165,1.165,8.93-0.194,10.483C88.088,219.953,76.635,222.089,76.635,222.089z"/>
	</g>
</g>
</svg>
