<?xml version="1.0" encoding="utf-8"?>
<!-- Generator: Adobe Illustrator 27.5.0, SVG Export Plug-In . SVG Version: 6.00 Build 0)  -->
<svg version="1.1" xmlns="http://www.w3.org/2000/svg" xmlns:xlink="http://www.w3.org/1999/xlink" x="0px" y="0px"
	 viewBox="0 0 500 500" style="enable-background:new 0 0 500 500;" xml:space="preserve">
<g id="Background_Simple">
	<g>
		<path style="fill:#92E3A9;" d="M36.362,429.984c0,0-39.535-82.366-17.297-163.084c22.239-80.718,102.133-199.325,171.32-210.032
			c69.187-10.708,99.662,9.06,146.611,60.127c46.948,51.067,116.135,59.303,132.608,107.075
			c16.473,47.772-23.886,113.664-36.241,151.553s-6.589,84.837-6.589,84.837H49.541L36.362,429.984z"/>
		<path style="opacity:0.7;fill:#FFFFFF;" d="M36.362,429.984c0,0-39.535-82.366-17.297-163.084
			c22.239-80.718,102.133-199.325,171.32-210.032c69.187-10.708,99.662,9.06,146.611,60.127
			c46.948,51.067,116.135,59.303,132.608,107.075c16.473,47.772-23.886,113.664-36.241,151.553s-6.589,84.837-6.589,84.837H49.541
			L36.362,429.984z"/>
	</g>
</g>
<g id="Streetlight">
	<g>
		<polygon style="fill:#B2B2B2;" points="25.823,453.905 35.664,453.905 34.188,204.102 27.299,204.102 		"/>
		<polygon style="fill:#B2B2B2;" points="23.067,202.892 39.05,202.892 41.048,179.417 21.069,179.417 		"/>
		<polygon style="fill:#FFFFFF;" points="24.853,202.892 37.264,202.892 38.815,179.417 23.301,179.417 		"/>
		
			<rect x="19.387" y="177.253" transform="matrix(-1 -4.487445e-11 4.487445e-11 -1 62 358.4214)" style="fill:#B2B2B2;" width="23.227" height="3.915"/>
		
			<rect x="21.214" y="200.346" transform="matrix(-1 -4.493351e-11 4.493351e-11 -1 62 405.5237)" style="fill:#B2B2B2;" width="19.573" height="4.832"/>
		
			<rect x="22.779" y="174.644" transform="matrix(-1 -4.492419e-11 4.492419e-11 -1 62.261 351.897)" style="fill:#B2B2B2;" width="16.702" height="2.61"/>
		
			<rect x="30.064" y="170.751" transform="matrix(-1 -4.467505e-11 4.467505e-11 -1 62.9989 345.4176)" style="fill:#B2B2B2;" width="2.87" height="3.915"/>
		
			<rect x="21.887" y="438.976" transform="matrix(-1 -4.495172e-11 4.495172e-11 -1 61.093 898.9756)" style="fill:#B2B2B2;" width="17.319" height="21.024"/>
	</g>
</g>
<g id="Clouds_1_">
	<path style="fill:none;stroke:#B2B2B2;stroke-linecap:round;stroke-miterlimit:10;" d="M79.191,81.953
		c1.285-2.381,3.802-3.999,6.697-3.999c0.888,0,1.737,0.16,2.529,0.44c1.016-4.6,5.112-8.044,10.018-8.044
		c3.805,0,7.119,2.075,8.892,5.151c2.58-3.144,6.494-5.151,10.879-5.151c2.067,0,4.024,0.457,5.792,1.258
		c-1.016-1.705-1.61-3.691-1.61-5.82c0-6.299,5.107-11.406,11.406-11.406c1.075,0,2.111,0.159,3.097,0.437
		c-0.033-0.522-0.055-1.047-0.055-1.578c0-13.649,11.064-24.713,24.713-24.713c13.649,0,24.713,11.064,24.713,24.713
		c0,0.854-0.044,1.699-0.128,2.531c3.038-1.835,6.586-2.911,10.394-2.911c10.516,0,19.14,8.058,20.059,18.336
		c1.778-1.478,4.062-2.367,6.555-2.367c5.67,0,10.265,4.596,10.265,10.265"/>
	<path style="fill:none;stroke:#B2B2B2;stroke-linecap:round;stroke-miterlimit:10;" d="M19.714,148.619
		c1.025-1.899,3.033-3.19,5.342-3.19c0.708,0,1.385,0.128,2.017,0.351c0.811-3.67,4.078-6.417,7.992-6.417
		c3.035,0,5.679,1.656,7.093,4.109c2.058-2.508,5.181-4.109,8.678-4.109c1.649,0,3.21,0.365,4.62,1.003
		c-0.81-1.361-1.284-2.945-1.284-4.643c0-5.025,4.074-9.099,9.099-9.099c0.857,0,1.684,0.127,2.471,0.349
		c-0.026-0.417-0.044-0.835-0.044-1.259c0-10.888,8.827-19.715,19.715-19.715c10.888,0,19.715,8.827,19.715,19.715
		c0,0.682-0.035,1.355-0.102,2.019c2.423-1.464,5.254-2.322,8.291-2.322c8.389,0,15.269,6.429,16.002,14.627
		c1.419-1.179,3.241-1.888,5.229-1.888c4.523,0,8.189,3.666,8.189,8.189"/>
</g>
<g id="Bench">
	<g>
		
			<rect x="58.42" y="390.216" transform="matrix(-1 -4.490109e-11 4.490109e-11 -1 260.0474 786.9456)" style="fill:#FFFFFF;stroke:#B2B2B2;stroke-linecap:round;stroke-miterlimit:10;" width="143.207" height="6.514"/>
		
			<rect x="58.42" y="401.011" transform="matrix(-1 -4.490109e-11 4.490109e-11 -1 260.0474 808.5372)" style="fill:#FFFFFF;stroke:#B2B2B2;stroke-linecap:round;stroke-miterlimit:10;" width="143.207" height="6.514"/>
		
			<rect x="58.42" y="411.807" transform="matrix(-1 -4.490109e-11 4.490109e-11 -1 260.0474 830.1288)" style="fill:#FFFFFF;stroke:#B2B2B2;stroke-linecap:round;stroke-miterlimit:10;" width="143.207" height="6.514"/>
		
			<rect x="58.42" y="422.603" transform="matrix(-1 -4.490109e-11 4.490109e-11 -1 260.0474 851.7204)" style="fill:#FFFFFF;stroke:#B2B2B2;stroke-linecap:round;stroke-miterlimit:10;" width="143.207" height="6.514"/>
		<polygon style="fill:#FFFFFF;stroke:#B2B2B2;stroke-linecap:round;stroke-miterlimit:10;" points="207.55,434.167 
			207.623,459.833 205.623,459.833 202.07,435.052 		"/>
		<polygon style="fill:#FFFFFF;stroke:#B2B2B2;stroke-linecap:round;stroke-miterlimit:10;" points="198.55,434.167 
			198.623,459.833 196.623,459.833 193.07,435.052 		"/>
		<polygon style="fill:#FFFFFF;stroke:#B2B2B2;stroke-linecap:round;stroke-miterlimit:10;" points="51.81,434.167 51.736,459.833 
			53.736,459.833 57.29,435.052 		"/>
		<polygon style="fill:#FFFFFF;stroke:#B2B2B2;stroke-linecap:round;stroke-miterlimit:10;" points="60.81,434.167 60.736,459.833 
			62.736,459.833 66.29,435.052 		"/>
		
			<rect x="48.915" y="429.168" transform="matrix(-1 -4.488688e-11 4.488688e-11 -1 260.0475 864.7365)" style="fill:#FFFFFF;stroke:#B2B2B2;stroke-linecap:round;stroke-miterlimit:10;" width="162.218" height="6.402"/>
		<g>
			
				<rect x="48.915" y="409.333" transform="matrix(-1 -4.464885e-11 4.464885e-11 -1 101.4962 838.6666)" style="fill:#FFFFFF;stroke:#B2B2B2;stroke-linecap:round;stroke-miterlimit:10;" width="3.667" height="20"/>
			
				<rect x="48.915" y="409.333" transform="matrix(-1 -4.489132e-11 4.489132e-11 -1 106.6629 821.1405)" style="fill:#FFFFFF;stroke:#B2B2B2;stroke-linecap:round;stroke-miterlimit:10;" width="8.833" height="2.474"/>
		</g>
		<g>
			
				<rect x="207.466" y="409.333" style="fill:#FFFFFF;stroke:#B2B2B2;stroke-linecap:round;stroke-miterlimit:10;" width="3.667" height="20"/>
			
				<rect x="202.299" y="409.333" style="fill:#FFFFFF;stroke:#B2B2B2;stroke-linecap:round;stroke-miterlimit:10;" width="8.833" height="2.474"/>
		</g>
	</g>
</g>
<g id="Trees">
	<g>
		<path style="fill:#92E3A9;" d="M325.31,280.695c0.02-0.448,0.327-0.781,0.66-0.71l18.817,4.029
			c0.664,0.142,0.931-1.097,0.312-1.447l-18.954-10.701c-0.225-0.127-0.365-0.429-0.346-0.754
			c0.786-13.672,2.005-28.667,3.596-43.965c0.045-0.431,0.352-0.726,0.673-0.644l16.652,4.267c0.607,0.155,0.938-0.907,0.428-1.371
			l-16.067-14.595c-0.182-0.165-0.277-0.456-0.243-0.745c0.862-7.386,1.806-14.773,2.825-22.052l1.311-7.276
			c0.082-0.453,0.448-0.702,0.771-0.524l9.693,5.344c0.575,0.317,1.06-0.65,0.62-1.237l-9.648-12.855
			c-0.137-0.182-0.195-0.447-0.154-0.699c1.931-11.971,4.063-23.36,6.362-33.611c0.107-0.478,0.526-0.685,0.844-0.424l12.49,10.24
			c0.529,0.433,1.122-0.413,0.761-1.087l-10.988-20.497c-0.108-0.202-0.135-0.466-0.073-0.7c1.967-7.41,4.033-13.925,6.181-19.245
			c0.141-0.349,0.459-0.488,0.731-0.329l8.666,5.08c0.446,0.261,0.916-0.296,0.773-0.917l-2.721-10.93
			c-0.046-0.197-0.241-0.999-0.456-1.698l-0.709-2.818c2.011-2.473,4.072-3.827,6.171-3.827c2.245,0,4.446,1.529,6.589,4.34
			l-3.231,14.933c-0.143,0.621,0.327,1.178,0.773,0.917l7.795-4.57c0.273-0.16,0.593-0.019,0.733,0.333
			c2.204,5.549,4.32,12.348,6.331,20.079c0.061,0.233,0.033,0.494-0.074,0.694l-10.269,19.154c-0.361,0.673,0.233,1.52,0.761,1.087
			l11.583-9.497c0.319-0.262,0.739-0.053,0.845,0.425c2.31,10.394,4.45,21.932,6.385,34.044c0.04,0.252-0.018,0.516-0.155,0.698
			l-8.765,11.678c-0.44,0.587,0.045,1.554,0.62,1.237l8.941-4.929c0.333-0.183,0.709,0.082,0.778,0.553
			c1.442,9.749,2.751,19.765,3.91,29.767c0.034,0.29-0.061,0.579-0.243,0.744L382.5,229.401c-0.51,0.464-0.178,1.526,0.428,1.371
			l15.608-3.999c0.321-0.082,0.628,0.213,0.673,0.644c1.6,15.425,2.821,30.535,3.602,44.285c0.018,0.325-0.121,0.626-0.347,0.753
			l-17.914,10.114c-0.619,0.349-0.352,1.589,0.312,1.447l17.755-3.802c0.333-0.071,0.64,0.262,0.66,0.71
			c0.348,7.908,0.529,15.232,0.529,21.737c0,4.127-0.075,8.086-0.217,11.891c-0.012,0.318-0.172,0.589-0.4,0.684l-18.722,7.826
			c-0.601,0.251-0.496,1.424,0.133,1.48l17.707,1.573c0.325,0.029,0.567,0.419,0.53,0.85c-1.097,12.806-3.092,23.484-5.803,32.232
			c-0.114,0.367-0.421,0.55-0.704,0.428l-10.871-4.698c-0.56-0.242-0.993,0.668-0.591,1.24l8.402,11.94
			c0.175,0.249,0.205,0.628,0.072,0.92c-7.22,15.895-17.564,22.769-29.053,22.769c-11.262,0-21.421-6.61-28.619-21.842
			c-0.138-0.293-0.111-0.678,0.067-0.931l9.046-12.856c0.402-0.572-0.031-1.482-0.591-1.24l-11.816,5.106
			c-0.282,0.122-0.589-0.06-0.703-0.424c-2.77-8.802-4.807-19.583-5.923-32.549c-0.037-0.431,0.205-0.822,0.53-0.851l18.772-1.667
			c0.628-0.056,0.733-1.229,0.133-1.48l-19.577-8.183c-0.186-0.078-0.329-0.277-0.38-0.528l-0.278-1.39
			c-0.011-0.055-0.017-0.11-0.019-0.167c-0.102-3.265-0.158-6.637-0.158-10.134C324.771,296.093,324.956,288.691,325.31,280.695z"/>
		<polygon style="fill:#263238;" points="362.723,334.665 363.93,265.962 342.811,248.463 364.086,257.106 364.48,234.645 
			364.658,235.013 364.531,231.724 365.099,199.436 347.613,183.295 364.762,193.584 365.142,197.001 365.844,156.995 
			366.228,164.881 368.078,224.671 368.878,223.081 382.597,214.164 368.187,228.171 370.533,303.977 392.201,297.167 
			370.778,311.895 372.39,363.965 380.539,362.335 372.645,372.203 373.523,400.589 374.603,460 360.521,460 362.614,340.891 
			345.555,336.954 		"/>
		<polygon style="opacity:0.5;fill:#FFFFFF;" points="362.723,334.665 363.93,265.962 342.811,248.463 364.086,257.106 
			364.48,234.645 364.658,235.013 364.531,231.724 365.099,199.436 347.613,183.295 364.762,193.584 365.142,197.001 
			365.844,156.995 366.228,164.881 368.078,224.671 368.878,223.081 382.597,214.164 368.187,228.171 370.533,303.977 
			392.201,297.167 370.778,311.895 372.39,363.965 380.539,362.335 372.645,372.203 373.523,400.589 374.603,460 360.521,460 
			362.614,340.891 345.555,336.954 		"/>
	</g>
	<g>
		<path style="fill:#92E3A9;" d="M406.374,335.664c0.014-0.311,0.227-0.542,0.458-0.492l13.049,2.794
			c0.46,0.099,0.646-0.761,0.217-1.003l-13.143-7.42c-0.156-0.088-0.253-0.297-0.24-0.523c0.545-9.481,1.391-19.879,2.493-30.487
			c0.031-0.299,0.244-0.503,0.467-0.446l11.547,2.959c0.421,0.108,0.651-0.629,0.297-0.951l-11.141-10.121
			c-0.126-0.115-0.192-0.316-0.168-0.517c0.598-5.121,1.253-10.244,1.959-15.292l0.909-5.046c0.056-0.314,0.31-0.487,0.534-0.363
			l6.721,3.706c0.399,0.22,0.735-0.451,0.43-0.858l-6.69-8.914c-0.095-0.126-0.135-0.31-0.107-0.485
			c1.339-8.301,2.817-16.199,4.411-23.307c0.074-0.331,0.365-0.475,0.586-0.294l8.661,7.101c0.367,0.301,0.778-0.287,0.528-0.753
			l-7.62-14.213c-0.075-0.14-0.094-0.323-0.051-0.486c1.364-5.139,2.796-9.656,4.286-13.345c0.098-0.242,0.318-0.339,0.507-0.228
			l6.009,3.523c0.309,0.181,0.635-0.206,0.536-0.636l-1.887-7.579c-0.031-0.136-0.167-0.693-0.316-1.178l-0.492-1.954
			c1.395-1.715,2.823-2.654,4.279-2.654c1.557,0,3.083,1.06,4.569,3.009l-2.24,10.355c-0.099,0.43,0.227,0.817,0.536,0.636
			l5.406-3.169c0.19-0.111,0.411-0.013,0.508,0.231c1.528,3.848,2.996,8.563,4.39,13.924c0.042,0.161,0.023,0.342-0.052,0.481
			l-7.121,13.282c-0.25,0.467,0.161,1.054,0.528,0.753l8.032-6.586c0.221-0.182,0.512-0.037,0.586,0.295
			c1.602,7.208,3.086,15.208,4.427,23.608c0.028,0.175-0.012,0.358-0.107,0.484l-6.078,8.098c-0.305,0.407,0.031,1.077,0.43,0.858
			l6.2-3.418c0.231-0.127,0.491,0.057,0.539,0.383c1,6.76,1.908,13.706,2.712,20.641c0.023,0.201-0.042,0.402-0.168,0.516
			l-10.469,9.51c-0.354,0.322-0.124,1.058,0.297,0.951l10.823-2.773c0.222-0.057,0.436,0.148,0.467,0.446
			c1.109,10.696,1.956,21.174,2.497,30.709c0.013,0.225-0.084,0.434-0.24,0.522l-12.422,7.013c-0.429,0.242-0.244,1.102,0.217,1.003
			l12.312-2.636c0.231-0.049,0.444,0.181,0.458,0.492c0.241,5.484,0.367,10.563,0.367,15.073c0,2.862-0.052,5.607-0.151,8.246
			c-0.008,0.22-0.119,0.409-0.277,0.475l-12.983,5.427c-0.417,0.174-0.344,0.987,0.092,1.026l12.279,1.091
			c0.225,0.02,0.393,0.291,0.367,0.59c-0.761,8.88-2.144,16.285-4.024,22.351c-0.079,0.254-0.292,0.382-0.488,0.297l-7.538-3.257
			c-0.388-0.168-0.689,0.463-0.41,0.86l5.826,8.28c0.121,0.173,0.142,0.436,0.05,0.638c-5.007,11.022-12.179,15.789-20.146,15.789
			c-7.809,0-14.854-4.584-19.846-15.146c-0.096-0.203-0.077-0.471,0.047-0.646l6.273-8.915c0.279-0.396-0.022-1.027-0.41-0.86
			l-8.194,3.541c-0.196,0.085-0.408-0.041-0.488-0.294c-1.921-6.104-3.333-13.58-4.107-22.571c-0.026-0.299,0.142-0.57,0.367-0.59
			l13.017-1.156c0.436-0.039,0.509-0.852,0.092-1.026l-13.576-5.674c-0.129-0.054-0.228-0.192-0.263-0.366l-0.193-0.964
			c-0.008-0.038-0.012-0.076-0.013-0.116c-0.071-2.264-0.109-4.603-0.109-7.027C406,346.341,406.128,341.208,406.374,335.664z"/>
		<path style="opacity:0.4;fill:#FFFFFF;" d="M406.374,335.664c0.014-0.311,0.227-0.542,0.458-0.492l13.049,2.794
			c0.46,0.099,0.646-0.761,0.217-1.003l-13.143-7.42c-0.156-0.088-0.253-0.297-0.24-0.523c0.545-9.481,1.391-19.879,2.493-30.487
			c0.031-0.299,0.244-0.503,0.467-0.446l11.547,2.959c0.421,0.108,0.651-0.629,0.297-0.951l-11.141-10.121
			c-0.126-0.115-0.192-0.316-0.168-0.517c0.598-5.121,1.253-10.244,1.959-15.292l0.909-5.046c0.056-0.314,0.31-0.487,0.534-0.363
			l6.721,3.706c0.399,0.22,0.735-0.451,0.43-0.858l-6.69-8.914c-0.095-0.126-0.135-0.31-0.107-0.485
			c1.339-8.301,2.817-16.199,4.411-23.307c0.074-0.331,0.365-0.475,0.586-0.294l8.661,7.101c0.367,0.301,0.778-0.287,0.528-0.753
			l-7.62-14.213c-0.075-0.14-0.094-0.323-0.051-0.486c1.364-5.139,2.796-9.656,4.286-13.345c0.098-0.242,0.318-0.339,0.507-0.228
			l6.009,3.523c0.309,0.181,0.635-0.206,0.536-0.636l-1.887-7.579c-0.031-0.136-0.167-0.693-0.316-1.178l-0.492-1.954
			c1.395-1.715,2.823-2.654,4.279-2.654c1.557,0,3.083,1.06,4.569,3.009l-2.24,10.355c-0.099,0.43,0.227,0.817,0.536,0.636
			l5.406-3.169c0.19-0.111,0.411-0.013,0.508,0.231c1.528,3.848,2.996,8.563,4.39,13.924c0.042,0.161,0.023,0.342-0.052,0.481
			l-7.121,13.282c-0.25,0.467,0.161,1.054,0.528,0.753l8.032-6.586c0.221-0.182,0.512-0.037,0.586,0.295
			c1.602,7.208,3.086,15.208,4.427,23.608c0.028,0.175-0.012,0.358-0.107,0.484l-6.078,8.098c-0.305,0.407,0.031,1.077,0.43,0.858
			l6.2-3.418c0.231-0.127,0.491,0.057,0.539,0.383c1,6.76,1.908,13.706,2.712,20.641c0.023,0.201-0.042,0.402-0.168,0.516
			l-10.469,9.51c-0.354,0.322-0.124,1.058,0.297,0.951l10.823-2.773c0.222-0.057,0.436,0.148,0.467,0.446
			c1.109,10.696,1.956,21.174,2.497,30.709c0.013,0.225-0.084,0.434-0.24,0.522l-12.422,7.013c-0.429,0.242-0.244,1.102,0.217,1.003
			l12.312-2.636c0.231-0.049,0.444,0.181,0.458,0.492c0.241,5.484,0.367,10.563,0.367,15.073c0,2.862-0.052,5.607-0.151,8.246
			c-0.008,0.22-0.119,0.409-0.277,0.475l-12.983,5.427c-0.417,0.174-0.344,0.987,0.092,1.026l12.279,1.091
			c0.225,0.02,0.393,0.291,0.367,0.59c-0.761,8.88-2.144,16.285-4.024,22.351c-0.079,0.254-0.292,0.382-0.488,0.297l-7.538-3.257
			c-0.388-0.168-0.689,0.463-0.41,0.86l5.826,8.28c0.121,0.173,0.142,0.436,0.05,0.638c-5.007,11.022-12.179,15.789-20.146,15.789
			c-7.809,0-14.854-4.584-19.846-15.146c-0.096-0.203-0.077-0.471,0.047-0.646l6.273-8.915c0.279-0.396-0.022-1.027-0.41-0.86
			l-8.194,3.541c-0.196,0.085-0.408-0.041-0.488-0.294c-1.921-6.104-3.333-13.58-4.107-22.571c-0.026-0.299,0.142-0.57,0.367-0.59
			l13.017-1.156c0.436-0.039,0.509-0.852,0.092-1.026l-13.576-5.674c-0.129-0.054-0.228-0.192-0.263-0.366l-0.193-0.964
			c-0.008-0.038-0.012-0.076-0.013-0.116c-0.071-2.264-0.109-4.603-0.109-7.027C406,346.341,406.128,341.208,406.374,335.664z"/>
		<polygon style="fill:#263238;" points="432.317,373.088 433.154,325.447 418.509,313.313 433.262,319.306 433.536,303.731 
			433.659,303.986 433.571,301.706 433.965,279.316 421.839,268.123 433.731,275.258 433.994,277.627 434.482,249.885 
			434.748,255.354 436.031,296.815 436.585,295.712 446.099,289.529 436.106,299.242 437.733,351.808 452.758,347.086 
			437.903,357.299 439.021,393.406 444.672,392.276 439.197,399.119 439.807,418.803 440.555,460 430.79,460 432.241,377.405 
			420.412,374.676 		"/>
		<polygon style="opacity:0.5;fill:#FFFFFF;" points="432.317,373.088 433.154,325.447 418.509,313.313 433.262,319.306 
			433.536,303.731 433.659,303.986 433.571,301.706 433.965,279.316 421.839,268.123 433.731,275.258 433.994,277.627 
			434.482,249.885 434.748,255.354 436.031,296.815 436.585,295.712 446.099,289.529 436.106,299.242 437.733,351.808 
			452.758,347.086 437.903,357.299 439.021,393.406 444.672,392.276 439.197,399.119 439.807,418.803 440.555,460 430.79,460 
			432.241,377.405 420.412,374.676 		"/>
	</g>
</g>
<g id="Sun">
	<g>
		
			<ellipse transform="matrix(0.7071 -0.7071 0.7071 0.7071 78.1795 316.7851)" style="fill:#FFFFFF;stroke:#263238;stroke-linecap:round;stroke-linejoin:round;stroke-miterlimit:10;" cx="421.483" cy="64.022" rx="18.792" ry="18.792"/>
		
			<line style="fill:#FFFFFF;stroke:#263238;stroke-linecap:round;stroke-linejoin:round;stroke-miterlimit:10;" x1="421.502" y1="101.032" x2="421.502" y2="103.923"/>
		
			<line style="fill:#FFFFFF;stroke:#263238;stroke-linecap:round;stroke-linejoin:round;stroke-miterlimit:10;" x1="421.502" y1="88.747" x2="421.502" y2="97.812"/>
		
			<line style="fill:#FFFFFF;stroke:#263238;stroke-linecap:round;stroke-linejoin:round;stroke-miterlimit:10;" x1="421.502" y1="22.794" x2="421.502" y2="37.969"/>
		
			<line style="fill:#FFFFFF;stroke:#263238;stroke-linecap:round;stroke-linejoin:round;stroke-miterlimit:10;" x1="383.859" y1="63.358" x2="380.937" y2="63.358"/>
		
			<line style="fill:#FFFFFF;stroke:#263238;stroke-linecap:round;stroke-linejoin:round;stroke-miterlimit:10;" x1="396.112" y1="63.358" x2="386.864" y2="63.358"/>
		
			<line style="fill:#FFFFFF;stroke:#263238;stroke-linecap:round;stroke-linejoin:round;stroke-miterlimit:10;" x1="450.608" y1="63.358" x2="446.891" y2="63.358"/>
		
			<line style="fill:#FFFFFF;stroke:#263238;stroke-linecap:round;stroke-linejoin:round;stroke-miterlimit:10;" x1="462.066" y1="63.358" x2="452.969" y2="63.358"/>
		
			<line style="fill:#FFFFFF;stroke:#263238;stroke-linecap:round;stroke-linejoin:round;stroke-miterlimit:10;" x1="399.518" y1="41.374" x2="392.818" y2="34.675"/>
		
			<line style="fill:#FFFFFF;stroke:#263238;stroke-linecap:round;stroke-linejoin:round;stroke-miterlimit:10;" x1="403.549" y1="45.405" x2="401.128" y2="42.984"/>
		
			<line style="fill:#FFFFFF;stroke:#263238;stroke-linecap:round;stroke-linejoin:round;stroke-miterlimit:10;" x1="450.185" y1="92.041" x2="439.455" y2="81.311"/>
		
			<line style="fill:#FFFFFF;stroke:#263238;stroke-linecap:round;stroke-linejoin:round;stroke-miterlimit:10;" x1="403.549" y1="81.311" x2="392.818" y2="92.041"/>
		
			<line style="fill:#FFFFFF;stroke:#263238;stroke-linecap:round;stroke-linejoin:round;stroke-miterlimit:10;" x1="443.617" y1="41.243" x2="439.455" y2="45.405"/>
		
			<line style="fill:#FFFFFF;stroke:#263238;stroke-linecap:round;stroke-linejoin:round;stroke-miterlimit:10;" x1="450.185" y1="34.675" x2="445.12" y2="39.74"/>
	</g>
</g>
<g id="Rain">
	<g>
		
			<line style="fill:none;stroke:#263238;stroke-linecap:round;stroke-miterlimit:10;" x1="188.715" y1="92.843" x2="193.848" y2="109.874"/>
		
			<line style="fill:none;stroke:#263238;stroke-linecap:round;stroke-miterlimit:10;" x1="175.91" y1="50.355" x2="187.169" y2="87.715"/>
		
			<line style="fill:none;stroke:#263238;stroke-linecap:round;stroke-miterlimit:10;" x1="124.89" y1="40.051" x2="140.036" y2="90.307"/>
		
			<line style="fill:none;stroke:#263238;stroke-linecap:round;stroke-miterlimit:10;" x1="122.099" y1="30.788" x2="123.697" y2="36.091"/>
		
			<line style="fill:none;stroke:#263238;stroke-linecap:round;stroke-miterlimit:10;" x1="151.828" y1="124.396" x2="166.126" y2="171.839"/>
		
			<line style="fill:none;stroke:#263238;stroke-linecap:round;stroke-miterlimit:10;" x1="148.189" y1="112.32" x2="150.371" y2="119.561"/>
		
			<line style="fill:none;stroke:#263238;stroke-linecap:round;stroke-miterlimit:10;" x1="95.98" y1="85.913" x2="99.27" y2="96.829"/>
		
			<line style="fill:none;stroke:#263238;stroke-linecap:round;stroke-miterlimit:10;" x1="81.332" y1="37.31" x2="94.63" y2="81.434"/>
		
			<line style="fill:none;stroke:#263238;stroke-linecap:round;stroke-miterlimit:10;" x1="69.102" y1="97.645" x2="87.04" y2="157.163"/>
		
			<line style="fill:none;stroke:#263238;stroke-linecap:round;stroke-miterlimit:10;" x1="30.313" y1="85.267" x2="34.043" y2="97.645"/>
		
			<line style="fill:none;stroke:#263238;stroke-linecap:round;stroke-miterlimit:10;" x1="16.106" y1="38.126" x2="28.993" y2="80.885"/>
		
			<line style="fill:none;stroke:#263238;stroke-linecap:round;stroke-miterlimit:10;" x1="23.444" y1="133.519" x2="41.381" y2="193.038"/>
		
			<line style="fill:none;stroke:#263238;stroke-linecap:round;stroke-miterlimit:10;" x1="119.54" y1="222.053" x2="122.099" y2="230.543"/>
		
			<line style="fill:none;stroke:#263238;stroke-linecap:round;stroke-miterlimit:10;" x1="104.161" y1="171.024" x2="117.956" y2="216.796"/>
		
			<line style="fill:none;stroke:#263238;stroke-linecap:round;stroke-miterlimit:10;" x1="225.246" y1="187.191" x2="226.028" y2="189.786"/>
		
			<line style="fill:none;stroke:#263238;stroke-linecap:round;stroke-miterlimit:10;" x1="214.231" y1="150.641" x2="224.111" y2="183.427"/>
		
			<line style="fill:none;stroke:#263238;stroke-linecap:round;stroke-miterlimit:10;" x1="231.353" y1="57.693" x2="249.29" y2="117.212"/>
		
			<line style="fill:none;stroke:#263238;stroke-linecap:round;stroke-miterlimit:10;" x1="41.799" y1="270.285" x2="43.827" y2="277.017"/>
		
			<line style="fill:none;stroke:#263238;stroke-linecap:round;stroke-miterlimit:10;" x1="39.021" y1="261.069" x2="40.537" y2="266.099"/>
		
			<line style="fill:none;stroke:#263238;stroke-linecap:round;stroke-miterlimit:10;" x1="25.89" y1="217.498" x2="38.023" y2="257.759"/>
		
			<line style="fill:none;stroke:#263238;stroke-linecap:round;stroke-miterlimit:10;" x1="34.688" y1="355.575" x2="37.305" y2="364.257"/>
		
			<line style="fill:none;stroke:#263238;stroke-linecap:round;stroke-miterlimit:10;" x1="19.367" y1="304.738" x2="33.524" y2="351.713"/>
		
			<line style="fill:none;stroke:#263238;stroke-linecap:round;stroke-miterlimit:10;" x1="158.899" y1="371.036" x2="169.388" y2="405.839"/>
		
			<line style="fill:none;stroke:#263238;stroke-linecap:round;stroke-miterlimit:10;" x1="151.451" y1="346.32" x2="157.735" y2="367.174"/>
		
			<line style="fill:none;stroke:#263238;stroke-linecap:round;stroke-miterlimit:10;" x1="39.898" y1="437.346" x2="42.197" y2="444.974"/>
		
			<line style="fill:none;stroke:#263238;stroke-linecap:round;stroke-miterlimit:10;" x1="24.259" y1="385.455" x2="38.773" y2="433.613"/>
		
			<line style="fill:none;stroke:#263238;stroke-linecap:round;stroke-miterlimit:10;" x1="86.224" y1="241.958" x2="104.161" y2="301.477"/>
		
			<line style="fill:none;stroke:#263238;stroke-linecap:round;stroke-miterlimit:10;" x1="166.323" y1="289.157" x2="167.614" y2="293.44"/>
		
			<line style="fill:none;stroke:#263238;stroke-linecap:round;stroke-miterlimit:10;" x1="153.081" y1="245.219" x2="165.1" y2="285.099"/>
		
			<line style="fill:none;stroke:#263238;stroke-linecap:round;stroke-miterlimit:10;" x1="146.899" y1="309.669" x2="145.483" y2="311.792"/>
		
			<line style="fill:none;stroke:#263238;stroke-linecap:round;stroke-miterlimit:10;" x1="141.237" y1="310.73" x2="143.36" y2="312.853"/>
		
			<line style="fill:none;stroke:#263238;stroke-linecap:round;stroke-miterlimit:10;" x1="59.142" y1="258.713" x2="58.081" y2="262.252"/>
		
			<line style="fill:none;stroke:#263238;stroke-linecap:round;stroke-miterlimit:10;" x1="56.311" y1="264.375" x2="51.004" y2="261.898"/>
		
			<line style="fill:none;stroke:#263238;stroke-linecap:round;stroke-miterlimit:10;" x1="74.004" y1="232.528" x2="73.297" y2="236.42"/>
		
			<line style="fill:none;stroke:#263238;stroke-linecap:round;stroke-miterlimit:10;" x1="71.881" y1="237.482" x2="68.343" y2="236.42"/>
		
			<line style="fill:none;stroke:#263238;stroke-linecap:round;stroke-miterlimit:10;" x1="186.177" y1="385.748" x2="185.115" y2="388.225"/>
		
			<line style="fill:none;stroke:#263238;stroke-linecap:round;stroke-miterlimit:10;" x1="182.638" y1="387.871" x2="180.161" y2="385.748"/>
		
			<line style="fill:none;stroke:#263238;stroke-linecap:round;stroke-miterlimit:10;" x1="75.066" y1="387.517" x2="74.004" y2="389.287"/>
		
			<line style="fill:none;stroke:#263238;stroke-linecap:round;stroke-miterlimit:10;" x1="70.466" y1="388.933" x2="68.696" y2="386.456"/>
		
			<line style="fill:none;stroke:#263238;stroke-linecap:round;stroke-miterlimit:10;" x1="134.16" y1="425.38" x2="132.391" y2="427.503"/>
		
			<line style="fill:none;stroke:#263238;stroke-linecap:round;stroke-miterlimit:10;" x1="129.56" y1="427.857" x2="127.791" y2="425.38"/>
	</g>
</g>
<g id="Floor">
	<line style="fill:none;stroke:#263238;stroke-linecap:round;stroke-miterlimit:10;" x1="484" y1="460" x2="11" y2="460"/>
</g>
<g id="Line">
	<line style="fill:none;stroke:#263238;stroke-linecap:round;stroke-miterlimit:10;" x1="251" y1="454" x2="251" y2="23"/>
</g>
<g id="Plants_1_">
	<g>
		<g>
			<path style="fill:#263238;" d="M468.407,429.462c-1.026,0.448-3.534,0.391-3.536,0.391c-0.026-0.001,0.539-1.642,0.587-1.742
				c0.55-1.152,2.291-3.053,3.707-2.861c1.02,0.138,1.588,1.159,1.357,2.12C470.287,428.352,469.281,429.081,468.407,429.462z"/>
			<path style="fill:#263238;" d="M467.541,436.729c-1.064,0.155-3.303-0.494-3.481-0.547c-0.353,1.253-0.818,2.511-1.358,3.757
				c-0.308,0.713-0.64,1.422-0.983,2.128c0.204-0.299,0.389-0.565,0.419-0.6c0.835-0.965,3.016-2.339,4.331-1.78
				c0.948,0.402,1.225,1.537,0.75,2.403c-0.486,0.884-1.65,1.322-2.593,1.459c-0.957,0.14-2.877-0.376-3.383-0.519
				c-0.134,0.27-0.265,0.54-0.4,0.809c-0.648,1.291-1.301,2.576-1.902,3.857c-0.212,0.451-0.405,0.903-0.599,1.355
				c0.182-0.266,0.337-0.488,0.364-0.519c0.835-0.965,3.016-2.339,4.331-1.78c0.948,0.402,1.225,1.537,0.749,2.403
				c-0.486,0.884-1.649,1.322-2.593,1.459c-0.913,0.133-2.69-0.326-3.292-0.493c-0.185,0.468-0.371,0.937-0.529,1.4
				c-0.101,0.318-0.22,0.617-0.303,0.942c-0.089,0.32-0.178,0.637-0.265,0.951c-0.147,0.611-0.302,1.24-0.429,1.839
				c-0.092,0.416-0.172,0.814-0.254,1.215c0.206-0.452,0.628-1.327,0.672-1.396c0.679-1.081,2.626-2.769,4.011-2.416
				c0.998,0.254,1.444,1.334,1.105,2.262c-0.346,0.947-1.43,1.556-2.341,1.835c-1.004,0.307-3.226,0.027-3.503-0.01
				c-0.133,0.664-0.256,1.311-0.363,1.924c-0.08,0.451-0.152,0.885-0.219,1.302h-0.89c0.084-0.464,0.175-0.95,0.276-1.458
				c0.132-0.675,0.287-1.393,0.454-2.129c-0.167-0.066-1.115-0.45-1.954-0.919c-0.731,0.792-2.606,1.719-2.848,1.837
				c0.255,0.627,0.509,1.235,0.758,1.805c0.13,0.3,0.257,0.583,0.383,0.864h-0.941c-0.074-0.177-0.147-0.351-0.222-0.535
				c-0.262-0.636-0.529-1.321-0.796-2.026c-0.269,0.056-2.468,0.503-3.494,0.272c-0.93-0.21-2.056-0.736-2.472-1.655
				c-0.408-0.9-0.043-2.01,0.934-2.337c1.355-0.455,3.423,1.083,4.18,2.11c0.045,0.061,0.456,0.772,0.708,1.225
				c-0.108-0.289-0.215-0.568-0.323-0.867c-0.217-0.589-0.415-1.184-0.63-1.823c-0.093-0.312-0.188-0.628-0.283-0.946
				c-0.101-0.314-0.168-0.658-0.254-0.99c-0.184-0.774-0.333-1.567-0.466-2.369c-0.517,0.188-2.36,0.829-3.316,0.762
				c-0.951-0.067-2.143-0.416-2.694-1.262c-0.539-0.828-0.347-1.98,0.568-2.452c1.27-0.655,3.547,0.553,4.452,1.453
				c0.056,0.056,0.633,0.775,0.942,1.176c-0.076-0.483-0.154-0.964-0.215-1.455c-0.176-1.417-0.31-2.857-0.45-4.293
				c-0.042-0.44-0.09-0.878-0.137-1.316c-0.183,0.069-2.358,0.879-3.428,0.803c-0.951-0.066-2.144-0.416-2.694-1.262
				c-0.539-0.828-0.347-1.98,0.568-2.452c1.27-0.655,3.547,0.552,4.452,1.453c0.068,0.068,0.896,1.104,1.094,1.377
				c-0.102-0.966-0.213-1.927-0.36-2.87c-0.202-1.301-0.472-2.567-0.824-3.774c-0.085,0.032-2.352,0.888-3.447,0.811
				c-0.951-0.067-2.144-0.416-2.694-1.262c-0.539-0.828-0.347-1.98,0.568-2.452c1.27-0.655,3.547,0.553,4.452,1.453
				c0.071,0.071,0.961,1.185,1.108,1.399c-0.021-0.072-0.035-0.148-0.057-0.22c-0.392-1.284-0.934-2.478-1.495-3.572
				c-0.325-0.636-0.671-1.226-1.021-1.792c-0.406,0.203-2.271,1.108-3.264,1.148c-0.952,0.038-2.176-0.178-2.816-0.958
				c-0.627-0.763-0.562-1.93,0.295-2.499c1.191-0.791,3.587,0.16,4.585,0.955c0.054,0.043,0.557,0.544,0.918,0.914
				c-0.162-0.253-0.324-0.517-0.484-0.757c-0.598-0.9-1.201-1.688-1.74-2.381c-0.31-0.392-0.598-0.74-0.871-1.063
				c-0.502-0.009-2.524-0.07-3.408-0.485c-0.863-0.405-1.85-1.161-2.058-2.148c-0.204-0.967,0.391-1.972,1.414-2.082
				c1.421-0.153,3.11,1.794,3.629,2.96c0.045,0.101,0.565,1.757,0.539,1.757c0,0-0.024,0-0.03,0
				c0.269,0.305,0.554,0.636,0.858,1.003c0.556,0.683,1.178,1.459,1.797,2.35c0.622,0.889,1.272,1.872,1.864,2.969
				c0.595,1.099,1.164,2.285,1.592,3.584c0.005,0.015,0.008,0.031,0.013,0.045c-0.008-0.419,0.011-1.59,0.023-1.68
				c0.164-1.266,1.225-3.615,2.63-3.875c1.013-0.187,1.87,0.606,1.951,1.591c0.082,1.006-0.647,2.012-1.358,2.647
				c-0.802,0.716-3.027,1.41-3.204,1.465c0.397,1.24,0.703,2.545,0.94,3.882c0.136,0.765,0.25,1.539,0.354,2.317
				c0.005-0.362,0.013-0.686,0.019-0.731c0.164-1.266,1.225-3.615,2.63-3.874c1.013-0.187,1.87,0.606,1.951,1.591
				c0.082,1.006-0.647,2.012-1.357,2.647c-0.721,0.644-2.607,1.274-3.108,1.434c0.037,0.299,0.077,0.597,0.113,0.896
				c0.171,1.434,0.336,2.866,0.541,4.266c0.072,0.493,0.161,0.976,0.248,1.46c0.005-0.322,0.012-0.592,0.017-0.633
				c0.164-1.266,1.225-3.615,2.63-3.875c1.013-0.187,1.87,0.606,1.951,1.591c0.082,1.005-0.647,2.012-1.358,2.647
				c-0.688,0.615-2.423,1.212-3.018,1.404c0.104,0.493,0.208,0.986,0.331,1.459c0.092,0.321,0.157,0.636,0.267,0.953
				c0.102,0.316,0.203,0.629,0.303,0.939c0.215,0.59,0.432,1.2,0.656,1.771c0.153,0.398,0.306,0.774,0.458,1.154
				c-0.077-0.49-0.208-1.453-0.21-1.535c-0.02-0.848,0.281-2.226,0.881-3.195c-0.004-0.125,0.003-0.25,0.023-0.374
				c0.157-0.975,1.073-1.7,2.068-1.435c1.381,0.368,2.257,2.792,2.322,4.066c0.004,0.075-0.045,0.896-0.085,1.413
				c0.07-0.301,0.134-0.593,0.209-0.901c0.145-0.611,0.307-1.216,0.48-1.868c0.094-0.312,0.19-0.627,0.286-0.945
				c0.089-0.317,0.223-0.642,0.334-0.966c0.273-0.747,0.586-1.49,0.918-2.232c-0.535-0.128-2.427-0.61-3.186-1.193
				c-0.756-0.58-1.558-1.53-1.551-2.538c0.007-0.988,0.803-1.843,1.827-1.732c1.421,0.154,2.654,2.418,2.912,3.668
				c0.016,0.078,0.1,0.996,0.137,1.501c0.203-0.444,0.404-0.889,0.624-1.332c0.635-1.279,1.317-2.554,1.993-3.829
				c0.207-0.39,0.409-0.782,0.612-1.173c-0.191-0.044-2.452-0.568-3.303-1.221c-0.756-0.58-1.558-1.53-1.551-2.538
				c0.007-0.988,0.803-1.843,1.827-1.731c1.421,0.154,2.654,2.418,2.912,3.668c0.019,0.094,0.138,1.415,0.152,1.752
				c0.448-0.861,0.885-1.724,1.283-2.592c0.55-1.197,1.023-2.401,1.395-3.602c-0.089-0.02-2.451-0.557-3.323-1.226
				c-0.756-0.58-1.559-1.53-1.551-2.538c0.007-0.988,0.803-1.843,1.827-1.732c1.421,0.154,2.654,2.418,2.912,3.668
				c0.02,0.098,0.148,1.519,0.152,1.778c0.022-0.071,0.053-0.143,0.074-0.214c0.381-1.288,0.588-2.582,0.723-3.804
				c0.08-0.71,0.116-1.393,0.137-2.058c-0.45-0.055-2.505-0.328-3.356-0.844c-0.816-0.494-1.717-1.349-1.821-2.353
				c-0.101-0.983,0.596-1.92,1.625-1.922c1.429-0.003,2.904,2.112,3.297,3.326c0.021,0.066,0.165,0.761,0.262,1.269
				c0.005-0.3,0.015-0.61,0.014-0.898c-0.002-1.081-0.07-2.07-0.138-2.946c-0.043-0.498-0.091-0.947-0.141-1.367
				c-0.413-0.285-2.066-1.451-2.575-2.285c-0.496-0.814-0.902-1.989-0.532-2.927c0.363-0.919,1.414-1.429,2.328-0.957
				c1.27,0.656,1.604,3.212,1.394,4.471c-0.018,0.109-0.498,1.777-0.52,1.763c0,0-0.02-0.014-0.025-0.017
				c0.056,0.403,0.111,0.836,0.162,1.31c0.087,0.876,0.177,1.867,0.203,2.952c0.028,1.084,0.028,2.263-0.083,3.505
				c-0.111,1.244-0.29,2.548-0.649,3.867c-0.004,0.015-0.01,0.03-0.014,0.045c0.225-0.353,0.887-1.32,0.946-1.388
				c0.835-0.965,3.016-2.339,4.331-1.781c0.948,0.403,1.225,1.537,0.75,2.403C469.648,436.154,468.484,436.591,467.541,436.729z"/>
			<path style="fill:#263238;" d="M443.033,430.014c-0.022,0.014-0.456-1.667-0.472-1.776c-0.176-1.264,0.227-3.81,1.514-4.432
				c0.927-0.448,1.964,0.091,2.301,1.019c0.345,0.948-0.092,2.111-0.61,2.911C445.158,428.676,443.035,430.013,443.033,430.014z"/>
		</g>
	</g>
	<g>
		<g>
			<path style="fill:#263238;" d="M269.162,421.515c-1.293,0.565-4.455,0.493-4.458,0.493c-0.033-0.001,0.68-2.07,0.74-2.195
				c0.694-1.452,2.888-3.848,4.673-3.607c1.286,0.174,2.001,1.461,1.711,2.672C271.532,420.115,270.263,421.034,269.162,421.515z"/>
			<path style="fill:#263238;" d="M268.071,430.674c-1.341,0.195-4.163-0.623-4.388-0.689c-0.446,1.58-1.031,3.165-1.712,4.736
				c-0.388,0.899-0.807,1.792-1.238,2.682c0.258-0.377,0.49-0.712,0.528-0.756c1.053-1.217,3.802-2.949,5.46-2.244
				c1.195,0.507,1.545,1.937,0.945,3.029c-0.612,1.114-2.079,1.666-3.268,1.839c-1.207,0.176-3.626-0.474-4.265-0.654
				c-0.169,0.34-0.334,0.681-0.505,1.02c-0.817,1.627-1.64,3.247-2.398,4.861c-0.268,0.569-0.51,1.138-0.755,1.708
				c0.229-0.335,0.425-0.615,0.459-0.655c1.052-1.216,3.801-2.949,5.46-2.244c1.195,0.507,1.545,1.938,0.945,3.029
				c-0.613,1.115-2.079,1.666-3.268,1.839c-1.151,0.168-3.39-0.412-4.15-0.622c-0.233,0.591-0.467,1.182-0.667,1.764
				c-0.127,0.401-0.277,0.778-0.382,1.188c-0.113,0.404-0.224,0.803-0.335,1.199c-0.185,0.769-0.38,1.563-0.541,2.318
				c-0.116,0.525-0.217,1.027-0.32,1.532c0.26-0.569,0.791-1.673,0.846-1.76c0.856-1.362,3.311-3.49,5.057-3.045
				c1.258,0.321,1.82,1.681,1.392,2.851c-0.437,1.194-1.802,1.962-2.951,2.313c-1.265,0.387-4.066,0.033-4.416-0.013
				c-0.168,0.837-0.323,1.652-0.457,2.425c-0.1,0.569-0.192,1.116-0.276,1.642h-1.122c0.106-0.585,0.221-1.197,0.348-1.838
				c0.167-0.85,0.362-1.756,0.572-2.684c-0.21-0.084-1.405-0.567-2.464-1.158c-0.922,0.999-3.285,2.167-3.591,2.316
				c0.321,0.791,0.642,1.557,0.956,2.275c0.164,0.378,0.324,0.735,0.483,1.09h-1.186c-0.093-0.224-0.186-0.442-0.281-0.674
				c-0.33-0.801-0.667-1.665-1.004-2.554c-0.339,0.071-3.112,0.634-4.404,0.342c-1.172-0.265-2.592-0.928-3.116-2.087
				c-0.514-1.134-0.054-2.533,1.177-2.946c1.708-0.574,4.314,1.366,5.269,2.66c0.057,0.076,0.575,0.973,0.893,1.544
				c-0.136-0.364-0.272-0.716-0.407-1.093c-0.273-0.743-0.523-1.492-0.795-2.297c-0.118-0.394-0.237-0.791-0.357-1.192
				c-0.127-0.396-0.212-0.83-0.321-1.248c-0.232-0.975-0.42-1.975-0.587-2.986c-0.651,0.237-2.975,1.046-4.18,0.961
				c-1.199-0.084-2.702-0.524-3.396-1.59c-0.68-1.043-0.437-2.496,0.716-3.091c1.601-0.826,4.472,0.697,5.612,1.832
				c0.071,0.07,0.798,0.977,1.187,1.482c-0.096-0.609-0.194-1.215-0.271-1.834c-0.222-1.786-0.39-3.601-0.567-5.411
				c-0.054-0.554-0.114-1.106-0.172-1.659c-0.231,0.087-2.972,1.108-4.321,1.013c-1.199-0.084-2.702-0.524-3.396-1.59
				c-0.68-1.043-0.437-2.496,0.716-3.091c1.601-0.826,4.471,0.696,5.612,1.831c0.086,0.085,1.13,1.391,1.379,1.736
				c-0.129-1.217-0.268-2.429-0.454-3.617c-0.254-1.641-0.594-3.236-1.038-4.758c-0.107,0.041-2.964,1.119-4.346,1.022
				c-1.199-0.084-2.702-0.525-3.396-1.59c-0.68-1.043-0.437-2.496,0.716-3.091c1.601-0.826,4.472,0.697,5.612,1.831
				c0.089,0.089,1.212,1.494,1.397,1.764c-0.027-0.09-0.044-0.187-0.072-0.277c-0.495-1.618-1.177-3.124-1.885-4.502
				c-0.41-0.802-0.846-1.545-1.287-2.259c-0.512,0.255-2.862,1.397-4.115,1.447c-1.201,0.048-2.744-0.225-3.55-1.208
				c-0.79-0.962-0.709-2.433,0.372-3.151c1.501-0.997,4.521,0.201,5.779,1.204c0.068,0.054,0.702,0.686,1.158,1.152
				c-0.204-0.319-0.408-0.652-0.61-0.954c-0.754-1.135-1.514-2.128-2.194-3.002c-0.391-0.494-0.754-0.933-1.098-1.34
				c-0.632-0.011-3.182-0.088-4.296-0.612c-1.087-0.511-2.331-1.463-2.594-2.708c-0.257-1.218,0.492-2.486,1.783-2.625
				c1.791-0.193,3.92,2.262,4.574,3.731c0.056,0.127,0.713,2.215,0.68,2.215c0,0-0.031,0-0.038,0
				c0.339,0.385,0.698,0.802,1.081,1.265c0.701,0.861,1.484,1.84,2.266,2.963c0.784,1.12,1.604,2.359,2.349,3.742
				c0.749,1.385,1.467,2.881,2.007,4.518c0.006,0.018,0.01,0.039,0.016,0.057c-0.01-0.528,0.014-2.004,0.029-2.117
				c0.207-1.595,1.544-4.557,3.316-4.884c1.276-0.236,2.357,0.764,2.459,2.005c0.104,1.268-0.815,2.536-1.712,3.337
				c-1.011,0.903-3.816,1.777-4.039,1.846c0.5,1.563,0.886,3.208,1.185,4.894c0.172,0.964,0.315,1.94,0.446,2.921
				c0.007-0.457,0.016-0.865,0.024-0.922c0.207-1.596,1.544-4.556,3.316-4.884c1.276-0.236,2.357,0.764,2.459,2.005
				c0.104,1.268-0.815,2.536-1.711,3.337c-0.909,0.812-3.286,1.606-3.918,1.807c0.046,0.376,0.097,0.752,0.142,1.129
				c0.216,1.808,0.424,3.613,0.682,5.377c0.09,0.622,0.203,1.231,0.313,1.84c0.006-0.405,0.015-0.747,0.022-0.798
				c0.207-1.596,1.544-4.557,3.315-4.884c1.277-0.236,2.358,0.764,2.459,2.006c0.104,1.267-0.816,2.536-1.712,3.336
				c-0.868,0.775-3.055,1.527-3.805,1.77c0.131,0.621,0.262,1.243,0.417,1.839c0.115,0.404,0.198,0.802,0.337,1.202
				c0.129,0.398,0.256,0.793,0.382,1.184c0.271,0.744,0.545,1.513,0.827,2.232c0.192,0.502,0.386,0.976,0.578,1.454
				c-0.097-0.618-0.263-1.832-0.265-1.935c-0.025-1.068,0.355-2.806,1.11-4.027c-0.005-0.158,0.004-0.315,0.029-0.471
				c0.198-1.229,1.353-2.143,2.607-1.809c1.741,0.464,2.845,3.52,2.927,5.126c0.005,0.095-0.057,1.129-0.107,1.781
				c0.088-0.379,0.168-0.747,0.263-1.136c0.183-0.77,0.388-1.533,0.605-2.355c0.119-0.393,0.239-0.79,0.361-1.191
				c0.112-0.4,0.281-0.809,0.421-1.218c0.344-0.941,0.739-1.879,1.158-2.814c-0.674-0.161-3.059-0.769-4.016-1.504
				c-0.954-0.731-1.964-1.928-1.956-3.2c0.009-1.246,1.012-2.323,2.303-2.183c1.791,0.194,3.345,3.048,3.671,4.623
				c0.02,0.098,0.126,1.255,0.173,1.892c0.256-0.56,0.509-1.121,0.786-1.679c0.8-1.612,1.66-3.219,2.512-4.826
				c0.261-0.492,0.515-0.985,0.771-1.478c-0.241-0.055-3.091-0.716-4.163-1.539c-0.953-0.731-1.964-1.928-1.955-3.2
				c0.009-1.245,1.012-2.323,2.303-2.183c1.791,0.194,3.345,3.047,3.671,4.623c0.024,0.119,0.175,1.783,0.192,2.208
				c0.564-1.086,1.116-2.173,1.617-3.267c0.693-1.509,1.289-3.027,1.758-4.541c-0.112-0.025-3.09-0.702-4.188-1.545
				c-0.953-0.731-1.965-1.928-1.955-3.2c0.009-1.245,1.012-2.323,2.303-2.183c1.791,0.194,3.345,3.048,3.67,4.623
				c0.026,0.124,0.186,1.915,0.192,2.241c0.028-0.09,0.067-0.18,0.093-0.27c0.48-1.623,0.742-3.255,0.911-4.795
				c0.1-0.895,0.146-1.755,0.172-2.594c-0.568-0.069-3.158-0.414-4.23-1.063c-1.028-0.623-2.164-1.701-2.295-2.966
				c-0.128-1.239,0.751-2.42,2.049-2.423c1.802-0.004,3.66,2.662,4.156,4.192c0.027,0.083,0.208,0.96,0.33,1.6
				c0.006-0.379,0.019-0.769,0.018-1.132c-0.003-1.362-0.089-2.61-0.174-3.714c-0.054-0.628-0.115-1.194-0.177-1.723
				c-0.521-0.359-2.605-1.829-3.246-2.881c-0.626-1.026-1.137-2.507-0.67-3.689c0.457-1.159,1.782-1.802,2.935-1.206
				c1.601,0.827,2.022,4.049,1.757,5.636c-0.023,0.137-0.628,2.24-0.655,2.222c0,0-0.026-0.017-0.031-0.022
				c0.07,0.508,0.14,1.054,0.204,1.651c0.11,1.104,0.223,2.353,0.255,3.721c0.035,1.367,0.036,2.853-0.105,4.418
				c-0.139,1.569-0.366,3.212-0.818,4.875c-0.005,0.019-0.013,0.038-0.018,0.057c0.283-0.445,1.118-1.664,1.192-1.75
				c1.053-1.217,3.802-2.949,5.46-2.245c1.194,0.508,1.545,1.938,0.945,3.029C270.726,429.95,269.259,430.501,268.071,430.674z"/>
			<path style="fill:#263238;" d="M237.177,422.21c-0.028,0.018-0.575-2.102-0.595-2.239c-0.222-1.593,0.286-4.803,1.909-5.586
				c1.168-0.565,2.475,0.115,2.901,1.285c0.435,1.195-0.116,2.661-0.769,3.67C239.856,420.524,237.179,422.209,237.177,422.21z"/>
		</g>
	</g>
</g>
<g id="Character">
	<g>
		<path style="fill:#FFFFFF;stroke:#263238;stroke-linecap:round;stroke-miterlimit:10;" d="M178.992,302.714
			c0,0-3.17,4.65-6.129,5.918c-2.959,1.268-13.315,3.382-13.949,3.382c-0.634,0-1.057-1.479-0.211-3.382
			c0.845-1.902,5.284-6.763,6.552-7.82c1.268-1.057,5.918-3.593,5.918-3.593L178.992,302.714z"/>
		<g>
			<g>
				<path style="fill:#263238;stroke:#263238;stroke-linecap:round;stroke-miterlimit:10;" d="M78.224,234.634
					c0,0,3.648,10.847,12.614,14.342c8.967,3.495,13.469,4.863,13.469,4.863s9.936,29.825,25.248,43.54
					c0,0-0.227,35.03,13.68,54.007c0,0-10.827,26.121-1.936,46.371c0,0-21.637-1.462-25.037,5.605c0,0-14.267-11.759-21.581-17.837
					c-7.314-6.079-16.908-27.507-20.005-34.136c-3.097-6.63-16.32-46.902-16.947-57.217c-0.627-10.315,2.507-27.298,3.836-31.041
					C62.894,259.387,70.246,241.853,78.224,234.634z"/>
				<path style="fill:#595959;stroke:#263238;stroke-linecap:round;stroke-miterlimit:10;" d="M78.224,234.634
					c0,0-7.997,7.599-15.215,30.091c0,0-0.188,49.505,17.119,84.269c0,0,15.028,34.649,36.134,54.367c0,0-13.83-5.262-24.563-11.511
					c-10.733-6.25-16.908-19.889-18.276-23.004c-1.368-3.115-6.896-14.437-10.601-16.527c-3.704-2.09-8.036-6.876-8.15-12.215
					c-0.114-5.338-0.191-19.054-3.99-26.861c-3.8-7.807-4.275-13.544-1.122-23.29c3.153-9.745,10.048-25.779,10.048-25.779
					S69.486,241.815,78.224,234.634z"/>
				<path style="fill:none;stroke:#828282;stroke-linecap:round;stroke-miterlimit:10;" d="M107.536,250.191
					c0,0-17.647,17.782-23.365,25.494c-5.718,7.713-12.955,30.585-13.752,38.925"/>
				
					<line style="fill:none;stroke:#828282;stroke-linecap:round;stroke-miterlimit:10;" x1="81.13" y1="229.827" x2="73.703" y2="241.264"/>
				<path style="fill:none;stroke:#828282;stroke-linecap:round;stroke-miterlimit:10;" d="M134.209,295.706
					c0,0-27.697,13.09-38.676,19.397c-10.98,6.307-13.411,9.233-13.411,9.233"/>
				<path style="fill:none;stroke:#828282;stroke-linecap:round;stroke-miterlimit:10;" d="M147.737,352.753
					c0,0-18.978-1.329-33.415-2.05c-14.438-0.721-33.074-8.889-37.443-12.916"/>
				<path style="fill:none;stroke:#828282;stroke-linecap:round;stroke-miterlimit:10;" d="M144.338,397.908
					c0,0-23.271-6.876-35.79-15.5c-12.519-8.624-18.636-15.786-18.636-15.786"/>
				<polyline style="fill:none;stroke:#828282;stroke-linecap:round;stroke-miterlimit:10;" points="98.478,347.625 81.875,329.275 
					94.604,371.808 				"/>
				
					<line style="fill:none;stroke:#828282;stroke-linecap:round;stroke-miterlimit:10;" x1="79.823" y1="324.602" x2="75.718" y2="292.403"/>
				<polyline style="fill:none;stroke:#828282;stroke-linecap:round;stroke-miterlimit:10;" points="66.581,299.945 80.507,326.16 
					72.072,319.644 				"/>
				
					<line style="fill:none;stroke:#828282;stroke-linecap:round;stroke-miterlimit:10;" x1="80.507" y1="326.16" x2="75.226" y2="332.752"/>
			</g>
			<g>
				
					<line style="fill:none;stroke:#616161;stroke-width:3;stroke-linecap:round;stroke-miterlimit:10;" x1="179.842" y1="307.651" x2="83.141" y2="325.909"/>
				<path style="fill:none;stroke:#263238;stroke-width:4;stroke-linecap:round;stroke-miterlimit:10;" d="M185.462,294.963
					l4.641-0.503c3.112-0.337,5.884,1.973,6.112,5.095l0,0c0.205,2.802-1.723,5.313-4.483,5.837l-11.89,2.26"/>
			</g>
		</g>
		<path style="fill:#263238;stroke:#263238;stroke-linecap:round;stroke-miterlimit:10;" d="M244.439,172.242
			c0,0-7.045,5.918-9.581,11.554c-2.536,5.636-2.818,13.526-15.217,14.09c-12.399,0.564-29.307-1.127-32.689,10.99
			c-3.382,12.117,12.399,14.372,7.045,21.98c-5.354,7.609-15.217,14.654-9.581,23.953c5.636,9.299,20.994,15.64,27.334,11.272
			c6.34-4.368,27.616-21.698,35.788-32.125c8.172-10.426,0.282-27.053-1.409-37.761c-1.691-10.708-0.282-18.88,4.509-22.544
			C255.429,169.987,247.821,171.396,244.439,172.242z"/>
		<path style="fill:#FFFFFF;stroke:#263238;stroke-linecap:round;stroke-miterlimit:10;" d="M215.766,239.309
			c0,0-7.186,6.974-10.779,8.454c-3.593,1.479-5.284,4.438-5.284,8.031s0.211,10.99-1.268,12.892
			c-1.48,1.902-7.186,9.299-9.299,9.722c-2.113,0.423-6.34,1.057-7.82,3.17c-1.48,2.113-2.114,3.593-2.959,5.495
			s-10.356,10.356-9.722,11.201c0.634,0.845,0.634,0.845,0.634,0.845s5.284,4.227,8.454,4.65c3.17,0.423,6.34-0.845,7.82-1.691
			c1.479-0.845,8.454-4.861,11.624-5.918c3.17-1.057,8.665-3.382,9.299-4.861c0.634-1.479,5.495-6.552,5.495-6.552
			s5.495-13.949,6.129-23.037C218.725,252.624,215.766,239.309,215.766,239.309z"/>
		<g>
			<path style="fill:none;stroke:#263238;stroke-linecap:round;stroke-miterlimit:10;" d="M201.395,257.485
				c0,0,1.057-6.974,1.479-3.17c0.423,3.804,3.17,15.851,3.593,20.712c0.423,4.861,2.536,8.665,2.536,8.665
				s-7.82-8.243-8.454-13.738"/>
			<path style="fill:none;stroke:#263238;stroke-linecap:round;stroke-miterlimit:10;" d="M187.325,282.344
				c-2.195-0.547-2.939-0.59-3.683-0.342"/>
			<path style="fill:none;stroke:#263238;stroke-linecap:round;stroke-miterlimit:10;" d="M211.962,284.749
				c0,0-8.877,1.902-17.331-0.423c-1.296-0.356-2.423-0.668-3.407-0.939"/>
		</g>
		<path style="fill:#263238;stroke:#263238;stroke-linecap:round;stroke-miterlimit:10;" d="M289.315,227.685
			c0,0,13.526,5.072,14.16,6.552c0.634,1.48,2.536,15.64,2.536,15.64l0.845,15.64c0,0,13.949,80.524,13.949,84.116
			s-4.016,5.495-10.779,5.495c-6.763,0-20.924-7.397-33.816-8.031c-12.892-0.634-22.614,0.423-36.775,3.804
			c-14.16,3.382-28.955,8.031-38.254,8.031s-15.217-2.959-15.217-2.959s30.857-40.579,33.393-63.193
			c2.536-22.614,2.536-38.888,2.113-40.579s-0.634-8.665-0.634-8.665s-5.495-0.211,10.145-6.975
			C246.623,229.799,275.789,227.897,289.315,227.685z"/>
		<path style="fill:#FFFFFF;stroke:#263238;stroke-linecap:round;stroke-miterlimit:10;" d="M299.672,249.031l-0.211-10.779
			l-8.483-9.931c3.634,1.409,12.003,4.759,12.499,5.916c0.634,1.48,2.536,15.64,2.536,15.64l0.845,15.64
			c0,0,13.949,80.524,13.949,84.116c0,1.202-0.459,2.21-1.31,3.026c0.323-0.892,0.012-2.008-0.38-3.448
			c-0.634-2.325-12.681-12.469-12.681-12.469L299.672,249.031z"/>
		<g>
			<g>
				<path style="fill:#92E3A9;stroke:#263238;stroke-linecap:round;stroke-miterlimit:10;" d="M286.991,296.232l5.636,20.571
					c0,0,10.145,18.035,13.526,32.407c3.382,14.372,5.636,19.444,6.2,29.307c0.564,9.863,7.89,60.868,7.89,60.868
					s11.284,3.902,17.484,3.902c6.2,0,11.554-2.254,8.454,3.1c-3.1,5.354-14.478,8.292-17.578,8.292s-6.669,1.333-6.669,1.333
					s1.691,1.691-0.282,2.254s-8.454,1.691-9.299,1.409c-0.845-0.282-2.254-6.199-3.1-10.99c-0.845-4.79-0.845-8.736-1.409-10.145
					s-9.299-30.434-10.99-35.225c-1.691-4.791-3.663-15.781-3.663-20.571c0-4.791-0.845-12.963-0.845-12.963
					s-18.88-23.953-22.544-28.743c-3.663-4.791-6.481-9.299-8.172-10.145s-5.072,1.691-5.072,1.691s-15.217,27.616-20.008,34.098
					c-4.79,6.481-13.497,20.198-13.497,20.198s-10.145,14.372-14.372,18.88c-4.227,4.509-12.117,12.399-13.526,13.245
					s-14.935,20.289-16.344,22.262s-5.636,14.372-11.272,15.499c-5.636,1.127-6.481-7.89-5.354-10.99
					c1.127-3.1,6.2-10.708,9.863-14.09c3.663-3.382,16.626-27.334,20.289-32.97c3.663-5.636,10.115-20.198,12.088-23.58
					c1.973-3.382,7.901-17.246,7.901-17.246l20.561-52.639l2.818-9.299L286.991,296.232z"/>
				<path style="fill:none;stroke:#263238;stroke-linecap:round;stroke-miterlimit:10;" d="M265.758,298.722
					c0,0,1.587,6.171,1.058,7.405s-1.763,2.468-1.763,2.468l-2.292-2.116"/>
				<path style="fill:none;stroke:#263238;stroke-linecap:round;stroke-miterlimit:10;" d="M283.036,303.659
					c0,0-3.702,4.408-8.286,6.523"/>
				<path style="fill:none;stroke:#263238;stroke-linecap:round;stroke-miterlimit:10;" d="M276.471,312.184
					c-1.016,0.488-1.942,0.862-2.603,0.995"/>
				<path style="fill:none;stroke:#263238;stroke-linecap:round;stroke-miterlimit:10;" d="M283.388,308.242
					c0,0-2.794,1.791-5.506,3.227"/>
				<path style="fill:none;stroke:#263238;stroke-linecap:round;stroke-miterlimit:10;" d="M247.236,306.849
					c-1.355-0.678-2.457-1.162-2.986-1.251"/>
				<path style="fill:none;stroke:#263238;stroke-linecap:round;stroke-miterlimit:10;" d="M257.648,312.65
					c0,0-4.452-2.644-8.288-4.697"/>
				<path style="fill:none;stroke:#263238;stroke-linecap:round;stroke-miterlimit:10;" d="M244.955,302.953
					c0,0,7.392,3.008,8.462,4.231"/>
			</g>
			<path style="fill:#263238;stroke:#263238;stroke-linecap:round;stroke-miterlimit:10;" d="M321.652,458.266
				c-1.973,0.564-8.454,1.691-9.299,1.409c-0.845-0.282-2.254-6.2-3.1-10.99s-0.845-8.736-1.409-10.145
				c-0.409-1.022-5.111-16.553-8.312-26.847c6.625,0.01,12.515-1.517,16.457-2.887c2.073,15.399,4.254,30.58,4.254,30.58
				s11.284,3.902,17.484,3.902c6.2,0,11.554-2.254,8.454,3.1c-3.1,5.354-14.478,8.291-17.578,8.291s-6.669,1.333-6.669,1.333
				S323.624,457.702,321.652,458.266z"/>
			<path style="fill:#FFFFFF;stroke:#263238;stroke-linecap:round;stroke-miterlimit:10;" d="M317.126,405.668l0.764,5.158
				c0.065,0.437-0.087,0.877-0.416,1.172c-1.114,0.999-4.13,3.209-9.912,4.28c-4.666,0.864-6.894,0.774-7.92,0.576
				c-0.482-0.093-0.863-0.457-1-0.928l-1.894-6.523c-0.234-0.808,0.333-1.626,1.172-1.689c3.664-0.279,12.603-1.132,17.386-3.071
				C316.108,404.317,316.999,404.812,317.126,405.668z"/>
			<path style="fill:#263238;stroke:#263238;stroke-linecap:round;stroke-miterlimit:10;" d="M167.538,456.766
				c-5.636,1.127-6.481-7.89-5.354-10.99c1.127-3.1,6.2-10.708,9.863-14.09c2.325-2.146,8.393-12.575,13.455-21.351
				c3.637,3.866,8.681,5.714,12.096,6.568c-1.163,1.087-2.056,1.869-2.444,2.102c-1.409,0.845-14.935,20.289-16.344,22.262
				S173.174,455.639,167.538,456.766z"/>
			<path style="fill:#FFFFFF;stroke:#263238;stroke-linecap:round;stroke-miterlimit:10;" d="M188.797,403.86
				c0,0-1.004,0.717,1.865,4.161c2.87,3.444,7.317,4.591,8.322,4.448c1.004-0.144,4.735-1.578,4.735-1.578s1.004,0,0.143,1.435
				c-0.861,1.435-4.491,6.471-6.456,7.604c-3.73,2.152-6.6,1.435-11.048-0.287c-3.862-1.495-4.448-4.448-4.448-5.452
				s3.157-6.6,4.304-9.039C187.362,402.712,188.51,403.286,188.797,403.86z"/>
		</g>
		<path style="fill:#9C9C9C;stroke:#263238;stroke-linecap:round;stroke-miterlimit:10;" d="M286.709,292.005l0.564,5.918
			c0,0-25.362,0-32.407,0c-7.045,0-20.571,0.282-20.571,0.282l1.409-5.072c0,0,24.516-5.636,33.534-5.636
			C278.255,287.497,286.709,292.005,286.709,292.005z"/>
		<g>
			<path style="fill:#9C9C9C;stroke:#263238;stroke-linecap:round;stroke-miterlimit:10;" d="M269.519,220.429
				c0,0,1.973-0.564,5.918-0.564c3.945,0,13.526,1.691,14.935,7.327c1.409,5.636,8.172,18.035,8.172,18.035s-1.691,7.89-5.636,14.09
				c-3.945,6.2-5.354,8.172-5.354,8.172s5.072,19.726,2.818,23.107c-2.254,3.382-4.227,4.227-5.918,4.227
				c-1.691,0-15.217-1.409-25.644,0c-10.427,1.409-21.98,1.691-24.235-0.282c-2.254-1.973-3.945-8.172-3.382-10.426
				c0.564-2.254,3.945-7.327,3.663-12.399c-0.282-5.072-3.663-10.708-3.663-10.708l-3.945,2.536c0,0-3.945-16.626-5.072-24.798
				c-1.127-8.172,1.691-8.172,3.382-12.963c1.691-4.791,13.808-5.354,15.781-5.354s10.426-0.845,10.426-0.845L269.519,220.429z"/>
			<path style="fill:none;stroke:#263238;stroke-linecap:round;stroke-miterlimit:10;" d="M284.546,233.538
				c-0.547-1.974-0.937-3.246-0.937-3.246"/>
			<path style="fill:none;stroke:#263238;stroke-linecap:round;stroke-miterlimit:10;" d="M287.554,267.489
				c0,0-0.845-7.89,0.282-13.808c0.695-3.648-1.074-11.689-2.532-17.318"/>
			<path style="fill:none;stroke:#263238;stroke-linecap:round;stroke-miterlimit:10;" d="M228.995,251.807
				c-0.136-0.865-0.252-1.75-0.336-2.634"/>
			<path style="fill:none;stroke:#263238;stroke-linecap:round;stroke-miterlimit:10;" d="M231.195,261.008
				c0,0-0.933-2.8-1.699-6.474"/>
			<path style="fill:none;stroke:#263238;stroke-linecap:round;stroke-miterlimit:10;" d="M278.072,291.289
				c0,0-11.617,1.681-16.661,3.21"/>
		</g>
		<g>
			<path style="fill:#FFFFFF;stroke:#263238;stroke-linecap:round;stroke-miterlimit:10;" d="M268.637,176.027
				c0,0,7.243,8.521,7.243,10.225c0,1.704-0.426,3.835,0.639,5.113c1.065,1.278,5.752,2.343,5.752,3.835s-2.769,3.834-2.769,3.834
				s1.065,10.864-0.639,12.143c-1.704,1.278-10.438,0.213-10.438,0.213s0,5.113,0.639,6.817c0.639,1.704,2.769,2.556,2.769,2.556
				s-1.704,6.604-8.521,6.604c-6.817,0-13.207-4.9-13.207-4.9s3.621-8.095,3.408-15.125c-0.213-7.03-4.687-17.894-2.13-24.285
				C253.938,176.667,262.672,172.406,268.637,176.027z"/>
			<path style="fill:#263238;" d="M272.08,191.394c0.267,0.903,0.849,1.526,1.3,1.393c0.451-0.133,0.601-0.973,0.334-1.876
				c-0.267-0.902-0.849-1.526-1.3-1.393C271.963,189.652,271.813,190.491,272.08,191.394z"/>
			<path style="fill:none;stroke:#263238;stroke-linecap:round;stroke-miterlimit:10;" d="M273.536,187.531
				c0,0-1.704-1.704-3.195,0.426"/>
			<path style="fill:none;stroke:#263238;stroke-linecap:round;stroke-miterlimit:10;" d="M277.371,200.952
				c0,0-2.13,1.278-5.113-0.852"/>
		</g>
		<path style="fill:#263238;stroke:#263238;stroke-linecap:round;stroke-miterlimit:10;" d="M259.672,168.096
			c5.616-0.36,11.435,0.194,12.374,3.244c0.852,2.769-5.879,15.236-9.288,21.414c-3.408,6.178,2.471,25.878-7.541,33.547
			c-10.012,7.669-18.959-1.278-18.959-1.278s10.012,2.556,11.077-8.734c1.065-11.29-8.521-15.977-10.012-28.122
			c-1.03-8.393,4.289-15.221,11.839-18.255C250.77,169.266,255.155,168.386,259.672,168.096z"/>
		<g>
			<g>
				<path style="fill:#FFFFFF;stroke:#263238;stroke-linecap:round;stroke-miterlimit:10;" d="M309.534,235.223
					c0,0-2.677-2.536-3.522-2.536c-0.845,0-6.622,3.663-6.763,4.227c-0.141,0.564,0.423,3.1,0.423,3.1s-0.704,0.564-0.704,2.113
					c0,1.55,0,2.395,0,2.395l0.282,2.113c0,0,0.141,1.973,0.423,2.395s5.213,0.845,6.34,0.845c1.127,0,1.973,0,1.973,0
					L309.534,235.223z"/>
				
					<line style="fill:none;stroke:#263238;stroke-linecap:round;stroke-miterlimit:10;" x1="299.672" y1="240.014" x2="307.421" y2="236.21"/>
				
					<line style="fill:none;stroke:#263238;stroke-linecap:round;stroke-miterlimit:10;" x1="307.562" y1="241.282" x2="298.967" y2="244.523"/>
				
					<line style="fill:none;stroke:#263238;stroke-linecap:round;stroke-miterlimit:10;" x1="307.421" y1="245.791" x2="299.531" y2="247.904"/>
			</g>
			<path style="fill:#FFFFFF;stroke:#263238;stroke-linecap:round;stroke-miterlimit:10;" d="M309.534,235.223l4.65,3.945
				c0,0,1.268,0.845,1.409,2.395c0.141,1.55,5.918,7.89,4.509,10.426c-1.409,2.536-4.509,9.159-7.327,11.413
				c-2.818,2.254-5.918,2.113-5.918,2.113l-0.845-15.64h1.973L309.534,235.223z"/>
			<path style="fill:none;stroke:#263238;stroke-linecap:round;stroke-miterlimit:10;" d="M313.48,239.732
				c0,0-1.127,10.849-3.523,12.258c-2.395,1.409-3.1-0.282-3.1-0.282"/>
			<path style="fill:none;stroke:#263238;stroke-linecap:round;stroke-miterlimit:10;" d="M317.988,252.695
				c0,0-4.368,4.368-10.99,1.973"/>
		</g>
		<path style="fill:#9C9C9C;stroke:#263238;stroke-linecap:round;stroke-miterlimit:10;" d="M193.998,363.793l9.088-18.387
			c0,0-6.34,3.382-9.088,4.65c-2.748,1.268-3.593,2.747-3.804,4.861C189.982,357.03,193.998,363.793,193.998,363.793z"/>
		<path style="fill:#FFFFFF;stroke:#263238;stroke-linecap:round;stroke-miterlimit:10;" d="M225.911,294.048
			c0,0,0.423,12.681-1.268,19.655c-1.691,6.975-5.495,28.743-7.609,29.8c-2.113,1.057-19.021,6.763-23.248,8.454
			s-4.438,2.325-2.325,5.706c2.113,3.382,4.227,5.495,2.536,6.129c-1.691,0.634-17.542-0.423-19.655-1.057
			c-2.113-0.634-3.382-1.057-3.382-1.057s7.609-16.274,17.753-33.182s17.119-30.857,17.119-30.857s1.691-15.64,3.17-18.387
			c1.48-2.747,3.593-10.356,3.593-14.372s1.268-14.583,1.268-14.583s3.17,14.583,6.974,22.826
			C224.643,281.368,226.757,291.724,225.911,294.048z"/>
		<path style="fill:none;stroke:#263238;stroke-linecap:round;stroke-miterlimit:10;" d="M216.094,287.167
			c0.464-4.792,0.658-8.656,0.729-10.449"/>
		<path style="fill:none;stroke:#263238;stroke-linecap:round;stroke-miterlimit:10;" d="M190.405,353.226
			c0,0,12.681-23.882,18.81-35.929c3.469-6.819,5.381-17.228,6.426-25.935"/>
		<g>
			<path style="fill:#FFFFFF;stroke:#263238;stroke-linecap:round;stroke-miterlimit:10;" d="M162.095,309.325
				c0,0,0.692,2.935-0.576,3.57c-1.268,0.634-3.128,0.634-3.339,0c-0.211-0.634,0.945-3.629,2.213-4.052
				C161.661,308.42,162.095,309.325,162.095,309.325z"/>
			<path style="fill:#FFFFFF;stroke:#263238;stroke-linecap:round;stroke-miterlimit:10;" d="M163.91,307.575l-0.541,3.652
				c-0.141,0.951,0.76,1.723,1.679,1.438l7.527-2.342c0,0,0.634-2.959-0.211-2.959S164.544,307.363,163.91,307.575z"/>
			
				<line style="fill:#FFFFFF;stroke:#263238;stroke-linecap:round;stroke-miterlimit:10;" x1="170.731" y1="307.713" x2="170.271" y2="310.822"/>
			
				<line style="fill:none;stroke:#263238;stroke-linecap:round;stroke-miterlimit:10;" x1="167.162" y1="307.598" x2="166.471" y2="311.859"/>
		</g>
		<path style="fill:#FFFFFF;stroke:#263238;stroke-linecap:round;stroke-miterlimit:10;" d="M168.636,298.275
			c0,0-3.804,1.268-6.552,2.536c-2.747,1.268-4.438,4.438-6.34,6.552c-1.902,2.113-4.65,4.438-2.536,4.438
			c2.113,0,4.65-0.845,5.495-2.113c0.845-1.268,2.959-2.325,2.959-2.325s5.284-0.423,6.552-0.423s4.016-3.17,4.016-3.17"/>
		<path style="fill:#FFFFFF;stroke:#263238;stroke-linecap:round;stroke-miterlimit:10;" d="M222.53,230.644
			c0,0,0.845,14.583,2.959,23.037c2.114,8.454,0.211,52.414,0.211,52.414s0.845-15.217-4.438-27.053
			c-5.284-11.835-9.088-30.223-9.088-32.97c0-2.747,2.959-7.397,4.227-9.088C217.669,235.294,220.627,230.221,222.53,230.644z"/>
	</g>
</g>
</svg>
