<svg xmlns="http://www.w3.org/2000/svg" viewBox="0 0 24 24" id="yarn"><path fill="#2A8AB2" d="M18.823 15.241c-.837.005-1.577.441-2.197.823-1.098.678-1.722.707-1.761.639-.082-.126.369-1.291-.135-2.676-.547-1.514-1.413-1.883-1.345-1.998.3-.503 1.04-1.301 1.336-2.782.173-.9.125-2.376-.271-3.15-.072-.14-.731.242-.731.242s-.619-1.369-.789-1.48c-.556-.358-1.156 1.471-1.156 1.471s-1.268-.204-2.265.87c-.198.218-.469.335-.745.441-.077.03-.174.025-.416.673-.372.992.625 2.096.625 2.096-2.187 1.543-2.027 3.653-1.964 4.141-1.384 1.195-.847 2.55-.556 3 .227.339.508.174.508.174s-.561.653-.039.929c.475.247 1.282.391 1.708-.039.314-.31.372-1.001.488-1.282.038-.087.082.151.474.392 0 0-.755.324-.445 1.064.101.242.465.402 1.064.396.223-.005 2.666-.135 3.315-.295.371-.087.503-.281.503-.281 2.69-.74 3.145-1.844 5.032-2.294h.001c.613-.145.57-1.098-.239-1.074z"></path><path fill="#2A8AB2" d="M12 0C5.376 0 0 5.376 0 12s5.376 12 12 12 12-5.376 12-12S18.624 0 12 0zm7.228 17.001c-.649.155-.949.277-1.82.842-1.229.793-2.536 1.238-3.01 1.388-.15.126-.377.266-.706.344-.706.175-3.183.315-3.513.315-.784 0-1.214-.236-1.451-.488-.659.329-1.514.189-2.124-.135-.402-.214-.659-.615-.581-1.152-.3-.319-1.375-2.109.27-3.852-.063-2.066.866-3.223 1.727-3.992-.32-.536-.644-1.368-.33-2.21.222-.6.411-.933.818-1.079h-.005c.202-.077.391-.155.488-.261a3.43 3.43 0 0 1 2.299-1.104c.862-2.149 1.95-1.389 2.004-1.355.126.083.285.184.755 1.152.658-.184.938.208 1.016.358.479.919.542 2.555.333 3.605-.243 1.229-.755 2.027-1.132 2.575.299.304 1.538 1.689 1.388 3.842.169-.077.367-.184.6-.329.596-.363 1.491-.915 2.555-.929.716-.009 1.273.446 1.355 1.103l.003-.002a1.236 1.236 0 0 1-.939 1.364z"></path></svg>